<svg xmlns="http://www.w3.org/2000/svg" id="Calque_1" viewBox="0 0 1300 1300"><defs><style>.st0{fill:#313a94}</style></defs><path d="M428.5 166.7c-1.6 7.7 9.7 2.1 14.9 2.2 12.7.3 34.5 7.3 35.3 21.9l-7.2 1.4c-7.4-11.4-24.4-20.1-37.1-12.3l8.1 14c7.3 3.6 25.2-5.2 38.1 4.1 5.8 4.2 5.4 9.5-2 8.1s-15-9.2-26-3.2c5.5 7.4 13 15.1 12.1 25.1-.3 3.8-3 2.9-3.3 3.5-.6 1.3.4 3.2-.7 4.5-6.6 7.5-29.7 6.7-39.1 4.8-12.5-2.6-19.8-15-25.3.2 10.1-2.2 14.8 4.3 23.1 8l-9.1 8 12 10c-7.7 1.2-19.2-6.8-25-7.1-5.6-.3-30.2 10.4-31.1 9.1.3-19.5 26.7-22.2 42.1-22.1l-29.2-4.1-8.1 2-20.9 34.2c16.7-4.6 31.6-8.7 49-3.9 2.3.6 8.8 3 9.2 5.9-5 .2-10.1-.2-15.1 0-2.4 0-7.5-1.5-7 2 4.8-1.5 38.8 16.6 34.1 20.1-22.3 0-47.8-30-68.2-8 13.1-4.7 27.7-1.1 36.1 10-10-2.4-17.8-6.2-27.9-.8-5.8 3.1-19.2 18.4-17.2 24.9 7.8-6.9 12.8-18.8 25-18.1v-7.9c.1 0 7.2 4 7.2 4 2.2 30.3 1 60.4-1.1 90.8 7.7 8.5 14.6 10.3 23.9 14.6 3.8 1.8 7.2 6.4 11.3 6.8 6 .6 15.6-5.3 22.7-4.3 1.4-17.8 22.3-39.8 39.7-41.7 14.8-1.7 66.1-1.5 79.5 2.5 11.9 3.5 24.5 17 30.6 27.5 14.3-9.1 30.7-13.3 46.1-4.1 4.3-1 7.1-24.1 14.6-25.8 2.4-.5 5.9 1.9 6.4 1.5s1-6.1 5.6-7.5c7-2.1 32.6-3.2 41.1-3.3 29.4-.4 50.1 9.2 61.9 37 12.4-3.4 22.7-10.1 30.9-20.2 3.7-4.6 5.7-10.8 9.2-14.9 2.7-3.2 12-9 14.2-11.8 5.1-6.8.2-35.9-.2-46.2-.9-20.2 7.1-54.4-22.8-55l-2.2-6.3-18 20c-3.1-2.4-3.1-2.5-2.2-6.1 2.9-11.4 17.6-23.2 25.2-32-9.7 1.9-20.1 12.7-22.1 22l-4-1.1c-2.6-3.7-.6-10.7 1.6-14.4 5-8.4 22.5-18.3 32.1-20.1 7.2-1.3 23.9-4.5 26.4 4.9l-3.8 10.6c1.2 1.2 30.1-8.7 22.8 6l-36.8 13.1c-.5 4.5 4.2 3 6.9 7.1 13.2 19.9 8 29.1 9 49 .8 15.7 5.4 31.4 2.1 47.2 4.1.6 5.1-3.4 9.1-3.9s17.4 2.2 18.7 4.3c-.5 12.4 3.1 24.4 2.4 36.9-.5 9.9-4.4 20.4-5.8 30.3-2.4 16.3 3.2 44-20.3 42.9 6.1 34.3 4 72.1 1.1 106.9-1.8 22.2-4.9 49.7-8.2 71.7-4.7 31.3-22.3 105.6-47 125.5-5.6 4.5-12.2 4.4-16 10.2 9.2 10.7 3.9 19.9 4.4 31.4.8 18.9 1.8 58.5 10.1 74.2 2.7 5.1 24.9 25.1 30.6 29.6 49.1 38.6 189.5 47.9 255.4 67.7 77.6 23.3 173.7 90 188.8 174.5s6.9 70.8 4.2 85.8c-1.5 8.4-7.9 13.7-16 9.1 2.8-13.5 2.7-29.2 2.1-43.2-1.6-38.4-5.3-77.2-29.4-109.1-62.7-83.2-132.4-105.2-231.3-126-70.3-14.8-147.2-16.7-201.1-69.8-5.2-5.1-11.8-10.6-15-17.1-8.6-17.1-9.4-54.2-10.3-74.4-.4-8.6 3-17.5-.7-25.9-12.9 7.5-26.9 16.7-40.7 22.5-56.5 23.3-116.4 17-174 .6-19.6-5.6-37.7-14.7-55.2-25.1-1.4 14.2 2.9 29.1 3.1 43.1 1.1 97.1-91.7 99-163.1 122.1-54.8 17.7-107.8 37.5-157.5 67.3-30.3 18.2-55.9 49.8-74.6 80-29.8 48.1-31 96.4-30.7 151.9l-3 3-8.7.3c-2.7-37.5-2.6-88.7 11.5-124 44-110.4 146.4-152.4 252-185.7 35.9-11.3 79.8-19.6 116.3-36 34.7-15.5 46.2-44.1 46.9-81.1.3-16.3-5.6-35.1-1.2-50.8-4-.5-7.7-1.8-11.1-4-34.6-23.6-65.7-142.4-74.3-184.5-6.9-33.9-7.9-68.3-13-102.4-7.4 0-8 10.6-16 7.1-2.8-1.3-16.5-22.8-17.6-26.6-3.1-10.3-7.6-46-8.5-57.7-.7-8.8-.6-20 10.9-19 4.4.4 17.2 6.4 17.2 12l5-1.9 5.1-61.2-2.2-17c-11.9 15.7-27.4 32.7-32.1 52.2-2.1 2-8.1-5.1-8.2-7-.5-9.1 8-14.4 8.2-22.3.1-5.3-4.9-8.8-5.3-14.1-.5-5.6 2.6-14.9 3.4-20.8l-20.5 14-11.6 8c1.3-17.5 37.9-34.2 37.9-49.3 0-1.4-6.1-1.7-7.5-6.3-2-6.6 3.3-11.9 2.9-15.6s-6.2-9.9-7.6-13.7c-8.2-22.5 1.2-54.5 25.9-61.1 3-.8 9 .3 10.2-.8 1.1-1 2.6-10.6 4.3-12.7 13.7-17.8 34.1 6.2 48.2-10-15.3-1-19.1-6-28.1-16.1-2.7-3.1-7.9-1.8-5.8-7.6 5-13.6 42.1 4 45.9-13.4-11.4-3.2-20.7.2-32.1 0 11.5-11.8 37.1-3.9 51.3 1.9 12.9 5.3 22 17.3 35 22.2.9-1-3.1-24.2-4.1-26.5-1.1-2.6-5.2-2.8-6-4.6-3.6-7.8 8.5-2.9 6-8-1.5-3.1-11.6-6.5-15.2-6.9-8.8-1-15.8 4.5-20.8-3.2 11.8-11.6 27.3-.5 40.1 3l22.6-47.5c3.5-3.7 16.4-4.9 15.5 3.4L508.6 58c-2.3 6.7-2.5 14-4.9 20.7-2.7 7.4-14.2 26.4-12 32 2.2 5.8 11.1 10.8 11.1 18.2 16.4-6.7 13.5-24.1 24.1-35.1 8.9-9.3 22.8-11.8 35-9.1 5.7 1.3 11.5 5.3 14.6 5.7 6.4.8 13.3-4.1 21.4 2.1 11.9-10.5 30.2-34 46.4-33.9 4 0 3.2.2 3 4-10.7 2.5-17.2 11.2-25.2 18.1l-.6 2.6c4 4.6 5 6.5-.3 10.5 5.1.3 10.9 4.1 15.6 4.6 3.1.4 26-3.5 28.5-4.7s4.7-6.6 7.6-9c21.6-17.4 51-23.5 66.7 4l-15.9-9.2c-16.3-3-31.8-1.2-44.3 10.2 14.5 6.8 37.4-2.1 42.1 19.1-17.4-4.8-31.1-5.7-48.9-3.8-10.7 1.2-33.2 3.5-33.4 15.8-7 1.8-3.8-9.2-8.9-7.9l-13.2 11.9c12.2-5 28.6 1.2 38.9 0s27.8-13.8 38.3-14.2c7.9-.3 11.4 3.9 16.2 4.2s9.4-3.3 14.1-3.9c17.9-2.1 38.3 11.6 50.1 23.9 1.6 1.7 2.8 5.7 3.2 5.9.9.5 13.6-2.8 20.3-1.4 9.7 2 20.9 9.5 23.5 19.6-13.6-1.5-21.9-9.6-36.6-5.8-1.5.4-1.3 2.9-2.6 3.3s-11.6-1.8-9 3.5c2.3 4.7 14.3 2.5 20.1 4 2.8.7 31.3 16.1 34 18.2s5.6 7.4.8 8.7l-36.8 2.3 3.4 6.1c10.8 0 32.2-3.1 32.8 12-5.8-1.7-11-2.3-17.1-2.1s-23.5 2.2-24.6 2.7c-1 .5-17.6 11.6-18.5 12.5-5 4.8-19.2 32.7-21.1 33.1-3.9.9-5.2-3.9-5-6.8.4-6.6 7.3-10.8 8-17.2-2-1.9-24.9 12.1-24.1 18h-3.9l-6-8-2 22.1-5.5-3.5-3.5-14.5-13.1 11.4c-.4 6.1-.5 12.9 4 17.7-2.2 3.4-8.8-3.8-9.6-6.4-5.2-17.9 6-33.1 15.6-46.7-9.4.2-21.4 7.9-20.4 17.7l-6.8 1.9-3-5.5h-2.7c-5.2.3-24.1 25.4-27.2 14.8-3-10 19.1-16.4 23.1-22.9 1.4-2.3-1.4-6.7-.8-10.5.4-2.6 6.7-23.4 7.5-24.4 2-2.7 6.8.7 6.2-3.2l-7-.2c-8 11-26.3 23.7-23.1 38.3-4.6.6-7.5-4-8.1-8l-9 10c-4.1 1.7-5.6-8.4-4.8-10.8.9-2.5 4.6-2.7 5.2-3.7 5.5-9.3 10.9-19.6 21.8-25.6l13-16.1c-29.3-1.2-48.5 19.9-48.2 48.1l-8-8c.2 3.9-1 7.6-1.8 11.3s1.6 7.7-3.2 6.7c-7.7-4.5.2-32.6-1-34.1-7.3.2-6.9 4.7-7 10l-9-10-4.1 12c-3.3 0-4.1-7-4.1-9 .2-13 19.7-35.5 28.2-45.1-25.5 9.1-44.1 29-58.1 51.5-2.5 4-4.6 7-7 10.8-1.6 2.5-5.7 20.3-9.8 3.5-1.3-5.4 13.2-38 17.1-44.4 2.1-3.4 20.4-27.6 23.7-23.5l-4 10c6.1 4.9 10.7-18.6 12-22.1-3.5 1.9-7.9 1.6-11.1 3.9s-23.3 24.6-26 28.2c-8.3 10.8-14.9 23.9-21.1 36.1-10.2.3-1.2-11.5.6-18.5.8-3.2 1.9-6.2 1.4-9.6l-6 12c-9.9-.5-2.7-7-2.1-13.2.8-10.1-1.6-19.2.2-28.9l-12.6 10.5-4.5 23.6c-12.3-15.2-4.5-25.9 5.9-38.2 6-7.1 8.9-4 9.1-17.9l-16.1 8c5.5-4.9-8.6-24-11-24-6.6-.1 1.3 23.1.9 27-.3 3.5-4.7 6.9-4 11.1-4.1-4-12.2-4.8-15.9-7.2-7.1-4.6-9.5-11.6-19.7-14.4-1.9-.5-9-2.2-8.6 1.5 5.5.4 16.1.5 16 8l-31.8-1.7-3.4 7.7 2.2 4.1c16.3-4.3 26.1-8.3 43-2.9 3.1 1 30.8 12.1 26.2 17l-12-6c4 14.9-6 11.1-4.1-2-12.6.2-34.2-8.3-42.1 4 11.2 1.3 25.4-3.7 34.1 5.1.3 6.6-4.1 1-5 1h-35.1ZM571 92.5c-12.2 0-27-3.4-37.2 6-1.8 1.6-6.8 7.5-4 10.1 5.4-5 12.8-14.5 21.1-11-2.8 7.4-35.3 28.8-30.1 35.1L571 92.6Zm22 4c-5.2-1.5-4.7 4.6-6.4 5.7s-4.1-1.2-5.8-.6c-10.5 3.8-35.3 21.9-43.8 30.2-2.1 2.1-5.1 2.9-4.2 6.8l11-6 4 6c6.8-8.2 16.3-13.1 24.1-20 3.7-3.2 5.4-7.3 8.5-10.1 1.5-1.5 16.1-8.2 12.5-12Zm34.2 6-17.6 2.4-12.5 21.6zm146.5 40.1c-12.1-18.9-34.1-18.4-54.2-18l29.6 11.6c7 9.3 13.5 10.4 24.6 6.5Zm-182.7-16-12 8c5.5-1.2 14.3.5 12-8m48.2 4c-17 3.4-39.3 0-46.1 20.1 14-8 29.9-13.5 46.2-14.1v-6Zm24.1 4c-5.3-1.9-12.9-2.1-16.1 4l13.9 1.9zm54.2 2c-24.2-6.5-26.7 1.8-41.1 16-1.6-5.3-.3-10.7-6-14l-6 16c-1.4.5-.8-4.4-4.3-5.7-17.6-6.8-34.4 10.2-38.9 25.7 8.9.6 12.7-10.8 21.1-11.2 4.5-.3 4.8 4.9 6.4 5.2 2.6.6 14.9.7 17.3 0 2-.5 1.8-4.4 4.8-5.7s11.9-1.2 17.1-3.1c9.8-3.6 18.7-10.6 29.6-11.6l.2-11.8Zm-303.2 10c.4-.3 3.4-7.8.1-9l-16.1-.9c-3.5 3.3 13 12.1 16 10Zm325.3-2c-.8-5-19.1-7-20.1-6v8zm-212.8 2.1h-4v8h2zm98.4 10c-16.5 4.8-25.1 20.7-34.1 34.1l19.2-9.9zm114.4 0c-7.8 1.4-16.9 3.1-23.5 7.5s-3.6-.3-2.6 4.5l10.7 3.7 15.3-15.7Zm12 14 16-7c-4.9-9.4-18.9 4.3-16 7m-329.2 4c3.9-4.8-11.2-9.6-14-3 2.6 3.1 11.4 6.2 14 3m283.1 2.1v-6l-4.1 5.1.3 2.7 10.8 5.8 7-6.6-9-5.1c-1.9 3 0 5.1-5 4.1m106.3 0c-7.9.8-13.9-4.9-21.2-5.9-16.9-2.2-43 6.5-49 23.9 10.7 3.7 14.7.3 22.7-6.4l47.6-11.6Zm-401.4 2c-13.7-9.5-20.4-4.4-32.1 5l14.7 8.7zm333.2-2c-7.4-5.4-31.5 25.1-34.1 32.1 3.9-1.8 22.1-9 23.5-10.5 1.9-2.1 6.2-17.9 10.6-21.5Zm-315.2 6c-10.4-1.8 5.2 16.7 8.1 14zm266.3 21.3c4.8-5.3 7.7-10.7 14.7-14.4 1.5-6.3-13.7-9.2-17.7-6.6-1.6 1-15.9 32.8-14.4 33.8l16-6-4-3c.9-1.6 4-2.2 5.3-3.7Zm-272.3-9.3c-.4-8.2-5.9-7.5-12-6-1.4 7.2 8.5 2.4 12 6m-38.1-2c-39.2-12.1-54.9 23.1-48.2 56.2 8.4-9.6 22.5-10.2 31.4-14.7s8-11 12.7-12.4c.7-3.8-1.2-3.9-4-2-8 5.2-12.7 16.4-24 15.1l1.7-13.8-5.9-5.2c-1.5-14.7 29.2-12.1 36.3-23.1Zm393.4 4c-17.9-2.4-26.8 17-40.1 26l26.4-12.7zm-359.3 8c-5.4 0-17.9 0-22.1 3-3.2 2.4-10.3 24.8-16.1 29.1 7.5 5.2 15.1-14.4 18.7-19.5zm321.2 0c-6.3.3-13.5 2.5-18 7 3.5 4.8 3.3 1.7 6.5.5s9.9-4.3 11.5-7.5m-287.7 6.7c-4.2-4-9.6-5.4-15.4-4.7-.2 11 3.6 20-10 22.1l1-18c-2.7 2.2-22.4 14.3-19.1 18 13.6 3.4 69.4 7.4 43.5-17.4m267.6 7.4c-7.4-5.5-21.2 20.7-20.1 22.1 8.6-5.3 15.7-12.8 20.1-22.1m96.2 8.1c-3.6-3-20.6 8.8-21.9 13.9l24.1-8zm-467.5 34c-4.9-.9-6.3 4.5-8 8h4l4.1-8Zm495.6 98.5c-24.5-4.1-14.6 18.7-14.3 32.9.1 6.8.3 13.1.6 20.1.4 11.2-5.5 22.5 4.8 33.1 3.1 0 5.6-19.6 5.2-23.1-.5-4.6-5.3-2.7-6.3-7.9s1-17.5 0-25.1l4 4.9 3.9 17.2c-2.1-7.6 4.4-17.5 5-23.1.9-8.4-3.9-20-3.2-28.9Zm-28 11.9c-3.7-4.2-15.4 16-16.7 17.4-5.3 5.5-23.2 22.1-29.3 23.9-3.3 1-6.8.9-10.2.9 11.7 27.2-7.2 77.4-36.5 86.9-12.6 4.1-45.3 5.1-58.4 2.9-31-5.2-45.5-65.1-36.2-90.9-12.4-15.6-44.9-.2-47.5 16.3-1.6 10.1 1.8 28.1-2.6 37.4s-33.3 37.4-43.2 41.2c-22 8.4-59.4 11.4-80.2-1-17-10.2-28.4-59.6-24.6-78.7l-16.7 5.6-39.4-19.6c4.6 15.2.3 31.5 2.1 47 .4 3.3 3 5.9 3.4 8.6 12.8 79.7 20 150.6 50.9 226 9.2 22.5 23.6 55 43.5 69.4 64.4 46.6 164.8 65.4 238 30 53.4-25.8 67-42.1 84.1-98.5 23.7-78.2 27.5-178.8 18.2-259.7l1.3-64.9Zm-79.5 97c1-1.5 4.1-1.9 5.8-5.2 9.1-17.7 12.7-56.2-1.5-71.8-2.5-2.8-15.5-12.2-19-13.1-9.8-2.6-55-.1-62.8 5-1.7 1.1-2.5 4-4.7 5.8-1.6 1.4-5 1.4-6.3 2.7-.6.6-6 15-6.4 16.7-1.8 8.9-3.4 28.7-3.9 38.2 0 1.1 3.1.7 3.4 1.8 2.7 12.8 1.9 26 12.7 36 8.4 7.8 35.7 8.1 47.1 6.2 18.9-3.2 25.3-7.4 35.8-22.4Zm-182.7 2c2.2-2.3 5.8-3.5 8.4-6.7 8.2-9.8 3.9-17.8 5-29.1 1.9-19.1 9.1-43.9-19.1-47.2-22.1-2.6-47.5.8-70.1-2-27.6 5.9-36.9 35.7-35.3 61.1.8 12.8 8.8 45.1 20.2 52 15.8 9.7 34.9 6.8 51.6 1.7 20.9-6.4 25.2-15.2 39.3-30Zm-185.3-15.8c.5-16 0-32.2 0-48.2s-2.7-3.2-4-3l-3 12c-8.4-7.2-4.2-20.4-19-20-.4 3-2.1 5.8-2 9 0 4.9 8.2 55.6 9.6 58.7s7.3 6.4 8.4 11.3l4.1 1.3c1.1-5.5 6.7-10.4 7.3-16 .3-2.9-1.2-4.5-1.2-5Z" class="st0"/><path d="M526.8 648.3c18.9 6.8 31.3 7.6 51.1 8 28.3.5 61.7 2.8 90.3 0 18-1.8 41.2-16.9 58.3-23.8 3.1 4.3 9.2 9.5 9.2 14.8 0 1.7-11.6 28.7-13.4 31-27.9 37.3-113.8 33.3-153.4 19.1-23.2-8.3-42.8-21.8-42.2-49.1Zm190.7 8c-13.1 1.5-24.3 12.5-37.1 14.1-31.5 3.9-61.4-.5-92.4-.2-16 .1-20.8 4.8-38.9-1.1-3.1-1-4.9-2.1-4.2 2.2 1.5 3.7 16.8 8.9 21.6 10.5 38.4 13.1 63.9 17.2 104.4 5.1 16.7-5 41.2-12.3 46.6-30.7ZM616.6 583.4c4.4-3.5 6.1-15.5 14.6-13.4 3.5 28.5-24.5 30.6-44 18.9s1.5-47.5 2.4-67.5c5.6-18.2 16.1-37.2 17.5-55.8l9 1.9c6.8 7.2-17.4 56.5-20.6 67.8-1.2 4.1 0 8.9-.9 13.1-2.1 8.8-11.2 24.1-4.5 31.5 4.6 5.1 20.6 8.1 26.5 3.5M544.4 419.9c1.5 1 3.2 9 2.5 9.6l-6 2c16.4-.7 5.1 5.1 4.2 7.6-3.1 8.1-1.5 19.5-7.5 24.3-12.6 10-42.9 7.3-57.5 1.9s-31.1-24-21.5-34.7 44.1-17.1 53.1-17.1c4.4 0 29.8 4.5 32.8 6.5Zm-37.9 39.5c3.6-10.1 14.5-22.3 3.2-31.8-5.2-4.4-18.9 1.7-16 8l11-4-1 16c-4.4 6.4-10.8-7.3-15-8l.9 16.1 16.8 3.6Zm23.9-33.4c-2.4-1.4-6.7-.1-9.6-.4l6 16 9.9-7c-2.8-1.2-5.3-8-6.3-8.6m-49.7 25.6c-4.3-6-.1-11.7-1-18-3.6 3.5-11.7 3.6-11 10zM741 426.1c8.9 10.9-5.1 22.9-14.4 27.6-13.1 6.7-41 8.3-56.1 7.3-4-.3-19.4-7.4-20.4-11.2-3.1-11.4-4.8-32.5 8.7-37.8 18-7 52.2-5.5 69.2 4 1.6.9 12.2 9.1 13 10.1m-55.4 19.3c8.6 2.5 28.3-7.8 23-17.9-3-5.6-23.4-13.8-23.2-2 9.5-5.6 12.4 3.7 12 12-2.9.3-4.9.1-7.2-1.8-3.7-3-.5-9.6-6.8-8.2zm-12.3-23.9c-26.9 2.9-23.4 24.6 2 24.1zm51.4 4.9c-2.6-1.8-6.5-2.7-9.2-4.8 1.1 6.9 6.9 10.7 2 18l14-7c-2.9-1.1-4.6-4.6-6.8-6.2M361.9 421.8c.8 1.4 3.4 25.5-3.7 25.8-3.3-9.4-5.1-18-4-28.1zM530 1153.8c1.7 1.8 6.8 5 7.9 6.8 17.8 28.9-7.5 72.1-36.6 82.6-16.9 6.1-70.5 12.2-86.3 5.7-9.9-4.1-14.1-17.4-1.4-14.3 1.3.3 1.4 2.9 2.5 3.2 19.1 6.3 66.7-.5 84.6-8.9 23.7-11.1 43.8-48.4 23.4-70.3-16.9-18.1-51.3-17.3-73.3-10.4-6.4 2-24.7 15.9-27.2 8.3-1.5-5.8.9-8.3 5-11.6 25.6-20.5 76.4-19.1 100.1 4.2 2.2 2.2.9 4.2 1.3 4.7M686.8 1248.3c-17.5 0-10.3-16-10.2-26.4.1-11.4-2-22.5 0-33.4l-7.1 8.2c-5.6 3.2-18.3-13.2-21.9-17.7-4.6-5.7-7.4-12.8-12.9-17.9-.6 13.9 6.6 28.2 9 42.3 2.4 14.5 3.1 27.1-1.3 41.4-15.4-.7-7.7-22.5-8.8-34.8-2.1-23.8-16.6-46.2-13.3-69.3 3.8-2.6 14.7 7.3 17.8 10.1 4.9 4.5 22.4 29.5 25.5 29 9.1-3.9 16.9-42.2 20.1-44.1s4.2-.5 5.5 0c12.3 5-2 48-2.3 58.8-.2 6.2 1.9 11.2 1.8 16.9-.2 12.4-1 24.5-1.8 36.8ZM839 1188.4l-5.1 51.3c-17.7-1.3-7.5-25-6.8-36.8.3-4.9.4-10.5 0-15.3-.6-7.4-7.2-27-6.2-31.7s4.9-6.8 8.8-3.4c3.8 3.4 16.2 30 20.7 37.4 6.2 10.1 12.9 20.8 21.2 29.2.5-14.5 2-29.1 2.5-43.6.3-8.8-5.7-38 10.4-28.2l-3.1 93.5c-3.7 18.5-18.5-16.2-20.2-18.9-7.2-11-18-20.7-22-33.6ZM797.1 1227.8c.5 0 2-2.1 3.5-.2 6.2 6.1 4.4 11.1-3.5 13.9-13.6-3.1-56 8.5-53.7-14.3 1.5-15.5 11.5-34.1 11.9-51.6.3-12.1-8.6-23.1-.8-33.1l53.8 5.9-.3 9.1c-2.2 3.6-37.9 2.1-44.2.3l1.7 29 15.5.8c9 16.9-15.4 10.6-18.1 14.6l-5.9 25.7c13.4.3 26.8-.4 40.2 0ZM609.8 1239.7c-14.7-.1-10.4-16.7-15.2-26.3l-22.5 1.5-15.5 33.2c-22-.2-.1-27.2 4.3-37.6 3.1-7.3 6.7-17.8 8.7-25.5 2.2-8.2 3.8-28.2 6.1-32.9.7-1.4 2-1.5 3.3-1.3l-3.2-2.5 3.3-12.8c7.3-1.7 10.6 4.2 12.7 10.2 6.8 19.3 7.7 42.5 12.1 62.3 2.2 9.9 10.2 20.7 5.8 31.7Zm-17.1-39.3-8.5-32.5-6.9 32.5z" class="st0"/><path d="M454.1 1232.9c-16.7-1.3-8.5-19.6-8.4-29.9 0-6.6-2.8-46.2 2.6-47.1 14.9 1.3 7.8 13.6 7.4 23.1-.3 7.6 1.1 52-1.7 53.9ZM719.3 1174.8c5.2-.8 8.5 2.5 8.6 7.6-2.4 7.9 0 50.8-6.2 52.2-4.3 1-8.4-5.4-8.7-9.6-.6-8.4 1.2-30.1 3-38.8.8-3.9 2.4-7.5 3.3-11.3ZM737.6 1139.3c3.6 4 2.5 10.4-2.1 13.2l-6.1-9.3c.6-4.3 4.9-7.6 8.2-3.9" class="st0"/></svg>