<svg xmlns="http://www.w3.org/2000/svg" id="Calque_1" viewBox="0 0 1300 1300"><defs><style>.st0{fill:#313a94}</style></defs><path d="M786.4 724.4c-.5-2.6-3.7-6-1.5-9.5 5.8-4.6 11.9-12.5 16.2-18.6 17.3-24.2 35.9-49.9 47.2-77.2l7.7-.2c-2.1 5.1.3 11.4-.8 15.9-1.4 5.5-7.9 11.6-10.1 17.9-8.4 24.2-14.1 83-16.7 110.6-2.1 22.8-6.5 51.9 3.7 72.5-15.2-.4-14.3-19.6-14.8-30.9-1.8-43.1 8.2-89.5 12.8-132.3L815 691.4c.4 5.1 3.2 10.5 2.8 15.6-.7 8-12.1 27.5-3.7 30.2-5.8 7.6-3.5 15.5-4.5 21.7-.6 3.8-7.4 10.7-5.5 17.1h-7.8c0 .1-2-15.8-2-15.8l-12 41.8-7.8-2.2-.3-2.7c-.1-5.8 5.5-17.3 5.3-20 0-1.5-3-3.2-2.8-5.6.6-10.2 13.4-32.8 15.6-46.2.8-4.6-2.9-2.2-6-1 1.6 8.7-.6 5.4-2.6 12.3-5 17.2-9.8 34.4-15.3 51.4l-7.7-1.8-11.2 23.6c-10.9-6.8 2.1-19.5-8.9-25.8-1.9 17.1-17.5 27.6-18 45.8-20.6.4 3.4-32.3 2-33.8-8.2 5.2-7.8-1.2-8.4-1.3-1.9-.5-6.5 1.2-9.5-.7l4-19.9-26.7 48-3.2 11.7-7.9-6v8h-6l2-29.9-10.1 25.7H653c0 .1 4.1-22.6 4.1-22.6l-7.1-5.1-6.9 22.9c-8.4 5.4-5.3-14.3-6.1-17.6-.4-1.6-4-.7-4.2-4.3-.4-10.5 4.8-28.7 8.2-38.9l-9.9-2-9.8 32.6c-.9 1.9-4.7 1.6-6.2 1.2-1.1 5-5 31.1-10.9 29.9-5.8-1.3 1.1-33.2 4-33.8 3-.3 4.7 3.3 6.9 4 2.8-13.1 3.6-27 8-39.8l-5-2-15 33.7-9.8-2.9c-.5-2.6 15-32.7 16.7-38.8.6-2.2-.7-3.9-.7-6l14 2c-4.9 8.3 12.6 4 15.2 13.7l14.6-3.8-2 5.9c16.4-.4 31.7-.8 47.8-3.9-.5 6.2-11.1 7.3-11.9 8s.7 14.3-4.1 18.7c9 2.7.2 14.2-1.9 20 0 .7 5.4.7 5.6.6 4.6-4 14.3-43.2 21.3-43.2l5 3.8 6.3-17.6 5.7-.3-7 45.8c11.5-12.2 12.9-43.5 30.4-47.2 4.8-1 12.1.9 17.6-2.5l5.8 5.9c7.7-9.8 1.6-18.9 14.9-23.9ZM804 722l-4.4 16.1 3.1.8 4.4-16.1zm-145 50.2-8.7-1.9-5.3 20.8 4.6.9 1.5 6.1 8-25.8Zm15.9 2c-12.5-2.9-11.4 13.6-14.1 22.6l5.2 3.3zM585.3 591c29.7 3.4 65.1-3.7 94.6 0 5.9.7 10.7 5.1 13.9 5.2 4 .1 8.5-4.5 13.9-5.3 14.7-2 54.4-1.4 69.8.1 4.7.5 21.8 4.6 24.9 6.9 7.7 5.7-1.9 18.1-8.5 21.4-28.9 14.4-86 31.7-117.9 31.4-25.8-.2-75.5-28.2-88.7-50.6-1.9-3.2-2.4-5.4-1.9-9.1Zm185.2 10c-12.3-.9-24.6 2-36.8 1.9-6.6 0-17.4-3.7-24-3-3.5.3-5.3 3.8-8.4 4.7-9.3 2.5-17.4-5.3-27.2-5.3-13.9 0-38.8.2-52.1 1.7-3 .3-6.1.4-6.9 4l84.7 10 70.6-14Zm-15.9 11.9-56.9 12-70.6-7c26.5 28.1 75.4 21.2 108.1 8.5 7.6-3 16.5-5.3 19.4-13.5M420 350.2c.6.6-.8 7.7 1.1 9.8l8.9 14 2-27.9-20.6-.3-3.3-5.6c12-1.1 24.4-1.6 34.9 6l1 2c-1.3-.1-3.7-.2-4.1 1.3-.7 2.8 2.3 18.1.1 22.6l5-9.9c10.5 13.3 5.3 22.8 1 36.8h4l1.9 3.8c-.6 9.4-7.9 22.4-8.8 30.8s2.7 36.1-6.1 38.1c-9.6 2.2-1.3-17.2-1.1-19 1.2-12.6-.8-24.1 4.1-36.7-8.6 3.4-9 26.1-13.9 29l-9.5-1.6c-5.4-9.5 1.4-14.7 3.5-23.4l5.9 2c6.2-9.9 1.2-11.5.1-19-1.4-10.1-3.1-30.9-11.1-38.7-2.1-2-5.5-2.1-7.8-4.2-2.7-2.5-3.9-8.2-8.5-9.5-9.7-2.6-27.1 21.9-31.2 29.8-18.3 34.9 4.6 79.6 13.8 115.3 4 15.6 1.2 31.6 13.9 43.8 6.4-4.1 11.6-9.7 17.3-14.5 2.4-2 2.2-4.7 7.6-3.4 4.3 7.5-19 29.9-22.5 29.6-9.3-5.9-19.6-16.6-22.4-27.5-1.9-7.4-1.4-16.9-3.4-24.5-9.4-35.2-26.9-70.9-21.3-107.9 2.3-15.1 22.7-44 36.7-51s16.2 6.3 23 9c3.3 1.3 9.5.8 9.8 1.1ZM664.9 300.4c.3-4.1-3.9-7.7-1-12 7.9-11.7 14.9 28.4 8 29.9s-5.5-7.5-7.9-7.6c-4.8-.3-8.1 5.8-9.9 9.3l-24.2-5.8c-10.3 7.6-17.4 0-29.7 0-13.1 0-25.8 5.6-38.8 6.2l2 5.9c-21.2 8.4-47.8 20.8-55.9 43.8-10.1 1.3-6.9-5.5-5.9-11.9-8.3-1.1-15.8 19.6-21 8-2.4-5.5 8.1-11.7 10.3-14.6 1.4-1.9.6-5.8 3.5-9.5 3.5-4.5 20.2-12.2 22.1-15.6.9-1.7-1.2-4.7-.7-6.7 1.6-5.8 27.4-14.7 34-16 7.2-1.4 41.2-2.4 43-3.6s1.1-6.4 4.3-8.6c3-2 10.1-2.3 13.9-3.1l-1.1-6c7.2-12.7 46.5 11.9 54.8 18Zm-61.7-.1v2h17.9v-2z" class="st0"/><path d="M586.3 341.3c28.6-1.6 47.2 3.5 58.1 30.8 1.4 3.5 7.6 5.2 3.7 12.1-1.3 2.3-19.1-.5-23.8 0-10.4 1.1-26 7-36 7.4-13.9.5-32.9-3.9-47.9-3.4-5.5.2-11.8 9.8-15.9 3.8-.6-.9-1.7-21 2-22 19-12.8 35.4-27.3 59.8-28.6Zm42.8 28.7c-.7-4.3-21-10.8-21.9-9.9l2 11.9zm-61.7 4-5.3-5.6-10.7 3.7 15.9 1.9ZM832.2 364c-.9 10.6 11.8 7.8 19.8 13.1 4.2 2.8 9.7 9.9 11.1 14.8 4.2 14.4 4.1 33.6 2.7 48.6-.3 3.2-2 16.6-4.7 17.2l-6-4 3-35.7c-14.4-2.2-30.8-7.5-45.1-9.2-11.3-1.4-46 2.4-49.7-10.7-1.7-5.9 4.6-9.3-2.8-11l1-5c15-8.4 26.1-20.3 44.6-20.7s17.4 7.7 26.1 2.8Zm-51.8 25.9c5-1.8 27.6 7 23.9-4.9-.9-2.8-6-3.6-8.8-3zm67.7 10-9.9-9.9-2 9.9zM493.4 597.3l10.3 33.5c4.5-1.5 2.9-11.1 9.9-9.9 0 10.6-5.3 21.8-2 31.8l7-11.9 4.8 3.1c-.8 9.2-7.3 15.8-3.8 24.8l7.9-15.1 8 4.1c.4 4.6-3.2 1.6-5 6.8-2.1 6.1-6.4 40.2-8.9 41.9l-7.7-3.1 5.7-26.7c-5.8-1-3.2 1.3-4.2 4.6-2 6.8-.6 14.3-9.6 6.3 3.5-8.3 10.1-23.2 0-28.9 2.7 9.2.8 24.8-3.4 33.3-2.3 4.6-10.1 5.2-6.6 16.4h-7.9l11.9-69.7-9.5 25.3-4.4 30.4c-4 .5-3.3.4-4.5-2.5-4-9.4-1.2-55.2 4.7-64.1s5.7-2.9 5.9-4.3l-10.1-26.7 11.6.3ZM383.5 914.2c2 1.9 2.7 5.6 4.7 7.8 42.5 48.4 83 79.5 150.1 83.2 72.7 4 151.2-10.5 221.5-27.6l2.6 3.7c-46.4 14.2-97.8 25.7-146.4 29.9-85.9 7.4-154-1.2-215.9-65.3-4.6-4.7-22.6-26.4-24-31.3-1.6-5.6 5.6-1.9 7.3-.3ZM760.5 320.3c-.4 3.7 4.1 1.7 6 1 15.7-5.2 31.5-10.6 48.5-11.1l1.3 8.1c7.6-.3 29.7-3.6 25.9 8h24.7c0-.1 2.6 7.1 2.6 7.1-1 6.9-44.5 5.7-52 10.6-3.2-.8-4.3-7.5-2.9-9.5 1-1.4 8.1-.5 7.8-4.1-7.7-2.3-12.5 2.9-18.6 4.3-6.4 1.5-19.4 7-21.3-1.4-1.3-5.8 2.3-4.5 2.7-5 2.2-2.7 1.4-2.4-1.7-1.9-11.2 1.7-18.9 10.7-28.9 6l-3 7.9c-8.8.8-4.8-24.3-6.1-29.8 3.9-5.2 7.6 1.4 11.2 1.1s9.1-7.4 14.7-9.2c6-1.9 31.8-6.9 18.9 3-7.9 6-21.2 8.5-29.7 15.1ZM900.8 518.2c11.6-20.4 8.7-21.1 14.1-42.6 4.3-17.3 11.4-33.5 15.2-50.5 2.5-11.1 7.7-24-3.4-30.9-14.4-8.8-27.4 12-34.8 6.8-10.8-7.7 16.4-24.6 32.4-18.5 39.2 15 8.8 65.2 2.5 93-2.7 11.6-2.2 22.7-6 33.8-1.9 5.6-20.2 36.8-24.1 37.5l-8.8-6.6c5.1-7 8.7-14.7 12.9-22.1ZM449.8 837.9c-5.1.7-5.6-3.1-6.1-6.9-1.6-13.6 1.9-28.3 2.1-41.8.8-44.5 6.3-137.6-2.6-176.8-2.1-9.5-12.7-23.8-4.4-33.3 2.7 1.9 3.8 3.9 4.9 7 4.1 11 11.1 34.4 12.1 45.7 4.2 48.3.9 116.5-2 165.3-.9 14 1.6 27.2-4 40.8M917.9 256.6c1.9 4.1 9.1.8 13.9 3 1.9.9 5.3 5.1 4 6.9-13.1 3.7-31.8.7-27.9 19.9 9.8-1 16.5-5.2 21.9 5.9-18.1 5.5-56.4 21.9-55.8-9.9 6.9-1.3 13.9-1.4 20.9-2 12.3-1-2.1-6.1-4-11.9-1.6-.4-18.8 17.3-17 1 .9-8.6 30.3-14.6 31.2-25 11.5 2.3 23.9-9.8 33.8-2 4.7 7.7-15.1 15.6-21 14Zm-2.1 2c-7.9-.7-11.5-4.1-15.9 3.9zM732.3 119c-2 1.2-5.3-1.7-7.7-.9-4.1 2.2-2.9 16.6-8.8 15l-9-13.9-5.3 3.7c-16.8-7 2.2-23.2 10.3-29.6l3 7.9c7.5-10.9 18.8 3.3 19.9-8l-8 1.2c-8.9-13.8.5-25.5 8.3-36.7 15.4-1.9-1.4 18.3-2.2 26.6l3.9 1c-3.9-8.6 17.1-31 22.9-29.9 9.5 1.8-6 15.5-6.9 16.9-9.8 15.5-4.1 19.8-7.8 29.9-.5 1.2-11.6 16.1-12.5 16.7ZM563.4 718.4l6.7-3.9 5.2 6.8c-4 12.4-18.4 22.5-11.9 36.9 4.2-1.6 2.6-8.3 4.4-12.3 3.4-7.6 9.6-20.9 17.4-11.6-.2-4.7 1.8-4.3 6-3.9 3.1 3-10.5 37.6-11 43.6-.3 3.7 3.4 8.2 3.1 15-.1 3.3-4.7 22.9-7 22.9-5.5-9.2 1.4-19.6-5-29.8-3.5 1.6-2.4 8.4-4.4 12.5-7.4 15.3-9.2-2.5-5.5-10.5l-5.9 9-4-2.1c6.4-19.7-.2-39.5 6-58.7l-7.4 13.5-6.6 30.3c-2.3.5-4.9-.6-5.3-2.9-.2-1.4 3-25.1 3.7-27.5 1.1-4 4.4-6.6 5.6-10.3 2-6.4 11.5-44.7 21.9-40 10.8 4.9-8.2 14.8-6 23m11.9 51.8 6-29.9c-3.1 2-6.5 10-7.4 13.4-.5 1.8-4.4 24.1 1.5 16.4ZM613.2 55.5c5.4-3 5.8-11.8 13.9-9.9 1 10.4-3.6 17.3-6.6 26.2-3.4 9.8-10.7 23.8-12.5 33.4-1 5.6 3.4 16.9-1.9 16-7.4-1.4-9.6-12.4-9.1-18.9.3-4.2 3.8-8.5 3.3-11.1-.3-1.4-12.1-24.7-13.1-25.7-2.9-2.8-3.6.2-4 2.9-1.8 13.9 5.1 24.2 2 36.9-3.3-2.7-10.5-11.9-11.5-15.4-1.7-6.3-1-36.4 9.5-29l1 2.6 4-4 7 7.9c-2.4-10.2 3-9.5 6.8-14.1 2.8-3.4 2.1-12.3 10.2-5.8zM832.2 105.3l-2 11.9c7-5.6 11.6-11.8 21.9-10 2.8 12.1-13.4 16.5-17.9 27.9 3.6 1.1 4.7-3 7.4-3.6 2.8-.6 5.9 1.7 9.1 1.3 5.9-.7 17.3-9.4 24.1-7.4l3.3 4.8c-8.9 11.1-23.3 13.7-31.2 25-8 2.3-7.9-5.9-9.6-6-4.3 1.2-4.6 9.5-5 9.9-1.3 1.2-7-2.8-9.9-1.1-2.8 1.7-11.5 22.3-15.9 19-7.2-18.8 16.1-31.9 17.9-49.8l-5.9 1.2c-9.8-13.6 1.3-20 13.9-23.1ZM1047.3 923.5l-2.9 4c-33.5-.7-68.1 1.7-101.4-2.2-13.1-1.5-55.4-8.9-66-13.5-8.7-3.8-49.3-45.6-42.8-51.9 10-1.1 12.3 11.8 17 17.8 8.5 10.7 17.8 20.5 28.7 28.8 54.6 12.9 111.3 14.2 167.3 17.2ZM918.5 188.2c3.1 2 8.3 1.9 9.3 6.6-11 3.2-23.6 20.1-32.8 24.2s-7.1.1-9.1.9c-3.9 1.5-19.7 20.5-23.8 16.8 2.2-9.1 14.3-13.6 20.7-20.1 6.8-6.8 11.3-20.6 23.1-21.7-.9-4.7-13.9 2-15.7 3.2-8.6 5.4-17.3 21.7-27 22.8-10.6 1.2.3-10.2 3-15 1.9-3.2 1.6-7.5 3.9-10 4.9-5.4 37.6-14.9 44.5-12.7 2.3.7 2.6 4.2 3.9 5.1ZM495.5 97.5l2.2 31.7 8 1.3c1.8 7.6-3.7 12.6-3.8 17.5 0 2.4 2 5.2 1.7 8s-3.8 5.1-3.6 7.7c.2 4 16.8 17.4 8.6 19.2-5.9 1.3-12.5-10.3-15-14.9-2.8-5.1-7.3-21.8-8.1-22.9s-5.7 2.6-8-1.4c-2.7-11.3-6-24.5-4.3-36.2.4-3-1-7.3 3.5-6.3 8.3 3.2 5.5 30 9 37.8 5.3 5.4.4-19.8.4-21.4 0-4.7.8-27.5 9.3-20.2ZM532 78.9c2.1 1.7 7.3.4 9.7 3.8 3.1 4.4 4.7 17.3 7.9 22.9s4.3 2.6 5.5 4.8c3.6 6.6 6.5 13.4 10 20l-2.7 4.6-5.9-3.6c-11.7 7.7.7 19.3 1 29.4-5 5-14.4-14.6-15-17.8-.8-4.1 1.9-10.2-.2-14.1-2.5-4.7-10.4-6.8-8.7-13.9 2.4-2.5 25.9 16.7 5-13.9l-2 7.9-6-2-8.9-45.8c9.4-.6 6.6 14.3 10.4 17.5Z" class="st0"/><path d="M895.6 312.6c1.4 2.3-.3 6.8.4 9.6 16.9-.4 10.7 6 13 12.1.9 2.4 6.7 4.5 4.8 9.9l-13.9-4c-1.3 16.6-12.8 6.2-18.6 6.4-8.9.4-22.6 6.8-34.5 6.7-7.4 0-17-2.9-9.6-10.5 13.5-.2 28.2 0 41.4-2.7 1.7-.3 1.4-3.6 2.3-3.6 3.3.1 8.5 3.3 13.1 1.7-.7-7.3-5.7-4.2-7-5.8-2.4-2.9-2.1-8-3.4-9.7-1.9-2.2-7.7-1.1-9.7-3.7-2.6-3.6-3.6-14.8 3.1-14.7 2.7 2.3 18.1 7.4 18.7 8.3ZM804.3 67.4l-2 7.9c2.7-.3 8.9.9 8 5-4.6 5.9-9.2 2.5-13.9-.9-3.2 7.5-13.8 14.9-16.5 22.5-1.4 3.8.6 6.5-.5 9.2-1 2.6-17.7 24.5-19.9 24-8.5-10.9 2.6-28.7 14.9-31.9.7-1-3.4-4.4-3.3-6.9.3-7.4 22.9-30.8 33.1-28.9ZM361.7 896.1c8.9 7.9-6.1 6.1-7.6 6.4-29.4 5.7-64.9 24.5-93.5 28.2-3.6.5-5.4 1.5-8-2.2l72.1-27.4c9.4-1.1 29.1-11.9 36.9-4.9ZM688.8 87.3c-3.6 1.1-4.7-3-7.3-3.5-9.9-2.1-11 20.9-12.7 27.3h-6.6c-10.8-12.7 3.1-25.1 7.7-35.7 2.3-5.4 3.1-15.4 4.9-18.7 1.5-2.7 8.8 1.7 6.1-9.2 13.3 2 5.6 13.1 5.8 20.9.1 6.2 3.3 12.4 2.2 18.9ZM846.1 210.8c-16.7-5.4-.1-17.7 2.9-24 2.1-4.4.9-10.9 5.7-15.2 5.3-4.8 30.6-13.5 37.4-9.7l.9 11c-2.3 4.3-4.4-2.2-7.6-1.7s-16.6 8.2-18.3 9.6c-7.4 6.1-17.1 20.9-20.9 29.9ZM433.9 200.8c1.4 0 4.6-3.6 8-1.1v13h7.9c-2.1-4.5 2-19.9 7-12 3 4.6-.7 29.1 6.9 36.8l-8 1c-2.2 2.6 10 14.3 2.9 15.9-8 1.8-13.1-17.6-14.7-23.2-1-3.5-.2-10-.5-10.3-2-2-9.8-1.9-11.6-9.3l4-2c-7.4-1.7-2.3-4.2-2-9-9.4-.3-14.2-13.3-23.9-7.9 2 4.4 10.6 5.4 12.9 9.9 1.2 2.3 2.7 9.7-2 7.9-1.7-.7-20.1-14.1-20.6-15.3-.7-2-.3-4.5-.4-6.6l6 2-2-13.9c2.4-2.5 30.3 14.9 29.9 23.9Z" class="st0"/><path d="M886 141.1c2 8.2-3.7 5.3-6.7 8.1-6.7 6.3-19.8 20.1-29.1 15.7.7 4.6-16.2 33.9-19.9 29.9 2.2-4.6-4.1-6.7-4.1-7.1-.4-14 41.9-52.2 59.8-46.6M629.1 409.8c-12.5 9.5-85.3 24.8-93.6 15.9-3.8-4 5.8-4.8 7.6-5.3 26.2-6.5 58.4-2.5 81-18.5zM495.7 717.4c.1-.8 2.4-7 3-7 17.7 5.3 15.6 13.5 14.9 29.9 2.9-.4 3.4-8.6 3.7-11.2s.3-24.7 5.8-13.3c5.2 10.7 1 30.2-4.6 40.4l-3-9.9c-15.3 6-5.4-18.5-8-27.8-3-.5-2.5 3.7-3 5.9-1.5 6.8-.5 21.3-9 21.9.8-9.2-1.1-19.9 0-28.9ZM401.5 420.4c1.8 1.5 8.5 11.4 6.6 13.3l-11.8-1.9c-7.1 12.9-3.4 20.6 1.8 32.8.9 2.1 15.9 24.9 7 24.8-5.1 0-22.9-38.9-23.1-46.7-.2-9.7 8.6-31.4 19.5-22.3M905.8 449.9c-1.2-1.7-10.2-1.4-7.6-10.7 2.6-9.2 15.8-5.8 17.6 3.6 2.1 11.1-6 36-12.2 45.5-3.8 5.8-11.4 8.9-10.4-.3.7-6.2 13.9-36.2 12.5-38.1ZM439.6 832.2c4.2 6.4-6 10.6-8.9 14.4-14.5 18.6-21.1 29.3-42.5 42.1-2.6 1.6-3.9 4-8 2.9l50.7-59.9c1.3-2.4 8-.7 8.7.5M545.4 736.3h-5.7c0 .1-2.2 18.6-2.2 18.6l-6 1.3 1.9-7.1-3.7-1.7 1.8-23 5.9 4c1.6-14 4.2-31.1 11.5-43.2 3.3-5.5 7.2-1.7 10 2.4-7.5 14.4-14.6 32.8-13.5 48.8ZM515.1 75.9l8.4 49.3c-22.1-2.6-15-25.1-18.9-38.8-1-3.7-7.3-6.6-5-12.9l15.5 2.5ZM453.8 117.2c6.3-.9 6.9 1.3 8.5 6.4 1.1 3.4 3.8 36.6 2.5 39.3-.8 1.7-2.6 3.1-4.3 3.8-6.8 1.3-20.3-22.7-20.7-28.5-.6-8.9 14.3 5.7 12 10.9h2.9c2.8-.3-1-2.5-1-3v-28.9ZM800.3 119.2h6c2.7 2.3-16.9 31.8-18.9 31.8-10.2.1 5.7-26.7 10.9-28.8-3.6-2.2-7.8-4-7.1-9.1 1.6-7.1 22.6-27.8 26.8-15l-17.7 21.2ZM661.8 530.2c-.8.3-3.3 6.2-8.6 2.8-8.7-5.4 10.7-25.5 24.2-21.3 2.3.7 3.7 3.7 5.6 4.4 7.3 3 20.5 3.6 10.6 14.9-6.1.3-17.1-5.8-21.8-5.6s-7.3 3.4-10.1 4.7ZM569.3 99.3c-18.3 2.6-11.6-12-14.8-22.1-1.6-4.9-8.7-6.2-8.8-11.1-.2-7.3 7.9-4.5 11.7-.7l-2-7.9c17.7 1.8 14.3 28.6 13.9 41.8M647 527.3c-2.4 11.5-14.7 5.4-21 0-8.6-7.3-11.9-16.4-7.4-27.4 1.8-4.3 13.6-16.9 18.4-13.5 7.4 5.2-4.5 9.8-6.9 13.1-11.5 16.1.8 25.2 16.8 27.8ZM533 135.6c4.5 4.5-1.8 8.3-3 13-3.2 12.5-3.6 22.5-2.5 35.3-.4 3.2-7.8.3-9.5-4.4-5.2-14.5-1.4-34.4 9.4-45.4 1.5-.7 4.5.6 5.6 1.6ZM647 81.4c2.2 2.3-5.5 29.4-7.8 32.6-4.9 6.9-8.4-5.8-10-7.9s-5.6-2.2-6.1-4.2c-1.3-5 0-12.4 5.6-14.2l18.4-6.3ZM479 185.6c3 2.8 18.6 26.7 5.7 21.2-4.2-1.8-3-9.2-7-9.9-2.5 4.4 10.1 25.5 3 25.8-7.6.4-11.7-19.1-11.9-24.9-.4-8 6.2-10.5-5-17.9 3.8-2.7 12.3 3 15.2 5.7M654.9 47.4c-.2.3-2.8-.4-3.4 1-1.8 3.9-4 8.2-5.9 12.5-4.1 8.8-3.3 24.8-16.4 22.4-2.5-2.5 7.2-30.7 9.9-34.9 7.4-11.4 19.2-5.9 15.9-1ZM608.5 728.6l4.7 2.8c-9.1 11.8-12.6 27.5-19.9 39.8-4.3 7.3-11.1 10.2-9.6.4 1.1-7.6 17.2-42.4 24.8-43M769 529.9c-.6.2-.6 2.5-1 2.7-12.3 6.8-13.9-17.8 4.5-13.3.3-7.4-.8-15.8 1.1-23 2.7-10.5 7.6-2.4 8.7 4.2.8 4.6-1.8 27.3-5.1 28.4s-5-.1-8.1 1Z" class="st0"/><path d="M533.5 722.4c-10.3-.5-4.9-23.3-3.7-30.5s2.9-27.7 12.6-25.3c5.9 1.5-1.4 13.3-2.4 17.5-2.9 12.3-5.9 25.6-6.6 38.2ZM761.9 92.7c-6.9 5.9-13.4-3.7-9.5-9.9.5-.7 10.6-11.2 12-12.5 5.1-4.5 20.6-17.8 17-2.9-8.6 5.7-12.5 19.4-19.5 25.3M442.7 251.8c2.9 3 16.9 14.6 17.2 15.7 1.6 6.5-7.1 3.6-9.9 1l4 17.9c-11.6-3.5-11.7-20.1-15.5-29.3-1.1-2.7-12.6-12.7-3.5-14.5 3.6 2.2 5.1 6.5 7.8 9.2ZM587.3 107.3c4.4 12.8-3.4 26.1-3.5 39.3 0 3.4-3.1 3.3-5.3 2.4-10.5-4.3-1.1-31.2 3.3-38.2 1.6-2.5 1.8-4.2 5.5-3.4ZM874 425.8c.4-14.1-4.4-33.3-2-46.8 1.4-7.9 10.1-6.8 10 1.9 0 12.6-5.4 28.5-.6 42l-7.5 2.9ZM702.8 527.3c7.5-1.5 8.8 6.9 15 8 6.1 1.1 28.6-7.7 26.8 1-2.2 10.7-45.1 14.1-41.8-8.9ZM660.9 83.4c-3.7.5-6.9 0-7.9-4l4-2-6-1c1.7-11.1 7.1-22.5 16.9-28.8 10 2.2-8.7 29.5-7 35.8M939.8 220.7c-7.7.7-15.1 3.5-22.9 4.2-6.6.6-10.6-4.8-11.9 1.9-2.6.5-5.9-.5-7-3.1-2.6-6.5 9.1-5.2 8.8-10.7 9.9 7.1 34.4-7.1 33 7.7M702.8 694.6c.3 8.3-11 6-17 6-10.2 0-22.2-1.3-30.8-7 3.2-7.5 40.2 0 47.8 1M734.6 405.9c-4.2 4.4-5.7-11.1-5.9-13-.5-5.3-3.4-31.9 1-32.8 10.9-.9 6.6 44 4.9 45.8M696.2 366.6c9.9 10.7 11.8 29.3 10.5 43.2h-6c1.7-17.1-9.7-30.3-9.9-45.8.2-.2 4.8 1.9 5.4 2.6M714.7 91.3c-4.3 5.1-11.3-16.8-11.5-19.5-.6-7.7 3.2-16.6 3.6-24.3 3.8-.6 5.3 1.6 5.9 5 2 11-1.4 26.8 2 38.8M700.8 835.9l-7-1.9c-4.5-6.5 2.7-32.8 12-35.8 9.2.8-9.4 31.5-5 37.8ZM788.4 427.8c-.5 12 22.7 11.9 31.9 11.9l-.9 8.1c-14.7 3.9-31-.3-35-17zM569.4 543.2c2.4-8.1 19.5-39.8 29.9-32.9 6.1 4-5.5 9-8.1 11.9s-18.4 24.4-21.8 21M417.7 292.7l.3 7.7c-4.2-1-23.9-.8-23.8 3l7.6 3.2.6 9.4 17.6 9.2c-4.7 6.9-10.1-.5-15.1-1-4.3-.4-9.9 3.2-12.9 1.2l-1.9-7.8c9.8-5.7 5.1-15.4-5.9-15.2-2.9-12.8 30.8-14.3 33.6-9.6ZM490.4 178.2c3.3 4.3 12.5 10 15.2 17.6-8.4 6.8-12.1-6.8-16.6-12.3-5.8-7.1-15.9-11.7-13.2-24.6 3.1-3.7 13 17.1 14.6 19.2ZM423.3 155.7c3.8 3.7 18.3 27 14.6 31.1-8.6-.1-9.1-9.7-12.3-14.6-2.4-3.7-10-12.4-10.8-15.1-2.3-8.2 4.4-5.3 8.4-1.4ZM818.3 561.1l-6.1-4.9-9.8-31c12-3.9 17.8 33.5 15.9 35.8ZM623.1 833.9c-13.1.2-2.4-33.7 3-33.8 7.8 9.3-4.5 22.3-3 33.8M427.9 246.6c-4.8 5.6-16.8-9.9-20.7-13.1-1.3-1.1-14.2-5.7-9.2-10.7 3.3-3.3 33.1 20.1 29.8 23.9ZM394.5 252.2c-1.1-1.9-1.7-9.3 2.5-7.5 2.3 5.9 25.6 16.1 24.9 20.9-.7 4.9-7.9.7-9.7-.2s-17.2-12.2-17.7-13.1ZM418 286.4c-5.5.6-8.9-3.8-13.9-5.2s-14 4.3-12-8.8c9.7-1.2 18.9 3.3 27 7.9l-1.1 6ZM597.2 792.1c-.3 4.3-6.9 34.6-13.9 27.9-1.4-4.6 6.7-34.9 13.9-27.9" class="st0"/><path d="M441.9 322.2c-1.3 1.3-28.2-10.2-27.8-14.9 3.1-4.4 5.3-3.1 9.3-1.4 3.1 1.3 23 11.8 18.5 16.4ZM513.6 603c-3.8-5.3 1.2-9 1.2-10.9 0-1.7-5.2-6.8-3.2-11 12.7 3 18.6 20 2 21.9M844.2 587c.8 6.9 0 13-8 14l4 4.9-4.6 2.6c-16.4-2.4 6.5-24 8.6-21.5M439.9 284.4c-11.3.4-14.6-12.7-13.9-21.9 5.7-1.1 15.5 20.4 13.9 21.9M430 286.4c8.1-3.9 17.8 18.4 10.9 19.9s-10.1-15.4-10.9-19.9M896 382c-.7-.5-.9-5.8-.6-7.5 2.1-11 9.1 1.7 8.6 4.5-.5 2.4-6.3 4.1-8 3M769.3 1206.9c2.1-.2 11.6-5.1 13.1-3.5 7.1 18.7-40.6 18.1-45 13.6l-5.5-28.2 1.5-2.1c10.7.2 12.4-6.2 15.8-14.7l-11.9-.3-1.9-7.4c2.4-8.2 56.9-7.9 59-4.4v6.6l-38.1 3.7-1.8 12.1c3.7 0 7.6.3 11.3 0 5.6-.4 21.5-6.4 21.8.8.6 16.6-46.1 2.7-43.6 23.7 8.1-.7 17.4.9 25.3 0ZM635.1 1201c-5.9 5.9-23.5 15.9-31.8 16.2-20.5.6-36.9-22.9-20-39.2 11.5-11 36.2-24.2 50.8-12.3 9.8 8 9.7 26.5 1 35.3m-24.3-28.6c-7 1.3-26.4 16.2-25.5 22.7 2.5 18 48.7 6.4 48.7-11.8 0-12.5-14-12.7-23.3-10.9ZM720.7 1169.7c-1.3 1.7-3.5 1.4-5.5 5.7-3.3 7.1-8.4 39.3-11.2 41.2s-7.5.3-10.1-1.4c-2.9-5.5-20.6-33-24-34.4s-3.6 6.3-3.8 8.3c-.6 4.2-.7 33-8.3 24.8-5.7-6.1-.6-30.1 1.7-38.4 1.3-4.7 5-19.3 11.4-11.4 7.8 13.9 16.7 27.4 27 39.3l14.1-45.2c5.5-8.8 14.2 4.3 8.9 11.6ZM452.5 1203.4c2.9 2.8 40-10.1 46.5-10.5 3.4-.2 7.8 7.7 6 11.1l-2.2 1.7c-12.2 0-51.3 17.8-59.9 10-2.9-2.7-2.5-7.1-1.9-10.5 1.3-7.3 13.9-40 17.6-47.1 2.6-5 5-8.5 8.3-1.3 3.2 6.9-2 8.7-4 14.3-1.4 4-11.7 31.1-10.4 32.3M817.3 1206.9c9.8-.4 32.6-8.3 39.2 0 11 14-11.6 9.7-19.1 10.4-8.3.8-23.3 4.9-30.1 4.8-12.4-.1-.7-20.3.8-25.4 2.8-9.5 4.9-19.4 7.4-29 4.2-6 10.8 7.9 10.6 11.9-.4 6.6-11.9 17.6-8.7 27.2ZM525.5 1215.3c-1.6.9-4.7 0-6.7.3-1.8-1.7 5.3-33.3 7-37.5 3.8-9.8 9-.4 8.6 6.7-.2 2.9-7.5 29.7-8.9 30.5M537.6 1153.2c3.1 3.3 3.4 14.7-2.2 13.5-7.2-1.5-5.3-21.6 2.2-13.5" class="st0"/></svg>