<svg xmlns="http://www.w3.org/2000/svg" id="Calque_1" viewBox="0 0 1300 1300"><defs><style>.st0{fill:#313a94}</style></defs><path d="M829 101.2c25.6 17.7 72.9 70.2 85 98.5.9 2 4.8 5.7 1.5 7.4-13.2-12.4-21.8-28.7-33.4-42.3-25.4-29.9-69.8-76.1-111.7-77.7-6.2-.2-12.6 2.1-18.6 3.2 6.5 7.3 15.3 14.6 21.5 21.9 8 9.2 24.1 33.1 32.9 39.4s36.3 8.9 49.4 15.1c41.9 19.8 93.4 93.5 94.4 139.5 0 2.9-.5 11.9-4.6 12.2L932 267.3c-3.8-.4-2.4 7.7-2.3 10.1 2.9 44.4 39.2 80.4 42.4 125.6 11.3-5.7 20.3 6.8 4.3 10.2-.4 18.7 8.9 33.8 13.6 51.1 9.3 33.7 18.6 68.3 19.9 103.4 3.9.5 2.1-5.1 2.2-7.8 2.7-65.1-4-144.7-31.5-204.4-6.4-14-13.5-26.8-26.4-35.9-1-4.7 2.3-3.5 5.6-3.4 14.3.5 25.7 25.7 31 38 28.1 64.9 32.9 136.2 30.1 205.7-1.7 41.8-10.1 87.2-4.5 129.2 1 7.4 7.7 13 6.8 21l-6.8 1.2c-.2 18.6.7 37.7-4.4 55.5l29 36.7c-2.8 2.5-23.2-10.1-23.3-15.6-17.5 17.4 4 22.6 10 37.8l-21.1-15.5c-15.8 17.3-33 34.7-56.2 41.7-9.2 2.8-18.9-2.3-20.6 13.9l13.3 1.1c-4 6.4-13 4-17.7 6.7-4.4 2.5-8.3 17.1-17.9 14.4l-.3-6.3c-11.7-1.1-23.7-7.7-33.7-13.8-5-3.1-6.8-12-17.2-6.6l2.2-6.6c-12.2-.5-20.5-12.9-30-19.4l-30 11.6 17.7 29.1 26.8 16.6c-28.5 3.7-44.3-18.4-53.7-42-11.1-6.5-27.3 36.1-29.8 44.2-16.7 55.6 27.5 171.1 95.6 173.7 14 .5 30.9-5.7 42.3-4.6 3.2.3 6.3 1.4 3.4 4.5-80.7 31.9-124.9-21.3-147.5-91.7-8.7-27.1-17.1-55-8.4-83.1 4-13 12.7-29.7 20.1-41l-54.4 4.5c-51-3-102.8-.9-152.5-13.4-2.6 7.5 21.6 21.2 17.8 24.5H567c12.5 50.9-22.6 151.1-75.2 168.7-18.5 6.2-46 2.9-62.8-6.3l3.6-6.3c55.7 18.7 85.7-8.9 108.1-56.7 14-29.9 20.3-66.7 16.4-99.5l-38-22.2-50.1 9.9c-6 17.9-23.8 41-13.3 5.7l-28.9 8.9c4.4-13 21.9-14.5 32.9-18.3 3.1-3.6 3.8-28.6 2.8-34-1.4-7.4-16.6-8.1-23.2-12L424.6 826c8-19.4 10.1-26.6-7.8-40l-26.6 29c-10.5 7.2-18.1 17.7-32.3 15.5-3.5-3.1 13.5-12.6 15.6-14.4 5.3-4.7 12.1-11.4 16.7-16.7 1.9-2.2 13.7-16.2 12.2-17.8-9.7 2.6-14.8 12.5-21.4 17.5-8 6-29.2 19.6-38.6 21.6-3.3.7-7.4-1.8-8.7-1.1-2.4 1.4-2 13.4-11.1.9 6.7-4.7 5.9-12.4 7.8-16.7 6.5-14.5 33.9-60.6 25-74.2-1.8-2.7-2.8-4.4-6.4-3.7-7.7 20.8-15.1 42.6-25.9 62-4.2 7.6-7.7 18.1-18.6 15.8l35.3-81.7-.7-2.8c-14.9-10-23.4-25-28-42.3-6.4-4.7-25.8 33.4-29 38.4-1 1.6-3.3 1.8-4.3 3.3-5.4 8.2-5.9 19.7-17.8 22.8.4-2-1.4-4.1-1.3-5.6.3-4.1 15.4-34.6 18.7-40.4 4.5-7.9 23.6-30.7 24.5-35.7 1.5-8.2-7-20.5-6.4-29.5-5.3 3.4-7.9 10.1-12 14.7-1.7 2-9.4 11.2-12.5 8.7l41.2-90.1c3.9-4.5 7.8 2.9 7.4 7.1-1 9.6-16.7 32.8-16.5 40.6 0 1.5 2.6 3.7 2.8 6.1.6 7.5.4 22.3 4 28.4 2.3 3.8 2.6 1.2 4.5 0 4.6-3.1 8.1-8.3 14.6-10.2l-11.3-29.8c18.5-2.7 12.3 21.6 24.4 28.9-9.6-28.1-19.8-56.6-20-86.8-9.1 9.1-15.9 19.4-21.3 31L288.7 590c1.1-20.6 18.8-36 26.8-54.5 3.6-8.4 4.3-35.7 2.2-44.1-.6-2.5-6.1-2.6-7.8-6-18.8-36.4-5.9-116.4 8.3-154.1 4.2-11 13.7-23.7 16.7-32.3 8.6-24.8 7.2-55.4 19.5-85.1 12.7-30.6 52.7-88 86.9-93.3 12.3-1.9.2 9.2-3.8 11.8-15.5 10.2-27.7 17.6-40.9 32.5-3.6 4-15.3 19.3-16.6 23.4-1.1 3.3 0 3.5 2.9 2.9 7.8-1.6 14.6-1.4 21.8-2.9s16.7-15.3 22.8-20.6c26.3-22.5 129-85.9 162.8-83.1 8.7.7 19.4 9.5 23.3-6.6-58.7-21.5-113.3 20.3-164.7 42.2-.8-4 1.9-5.6 4.6-7.7 29.4-23.4 90.1-50.8 127.8-50.4 21.4.3 40.7 12.2 62.3 11.5 7.5-.3 14.8-7.2 22.8-8.5 14.5-2.5 35.6.3 49.5 5.1 23.2 8 13.4 9.7 41.1 9.8 32 .1 45.2 2.7 71.6 21Zm-99.4-16.3c-19.5-6.4-40-17-60.6-10.7-1.1.3-12 3.5-9.5 6.2l121.3 57.8c3.3-3.2-20.9-22.4-23.7-24.1-9.9-5.8-25.3-4.2-27.5-13.7l17.8-1.1c-6.3-8.4-10.3-9.1-20-5.6zm-56.1 13.8-21.7-7.2-1.9 22.9c7 7.6 15.3 12.2 21.6 20.8 13.8 19 20.8 40.6 31.4 59.8 1.7 3.1 1.9 6.4 6.8 5.5L673.6 98.7Zm-32.9-2.8c-6.2-1.8-4 3.7-6.6 5.4-1.2.8-4-1-4.3-.7-1.2 1.3-1.8 12.2-4.7 15.3l13.3 2.2 2.2-22.2Zm-33.4 6.7c-1.4-1.3-20.3 7.2-21.3 8.9-1.8 2.9.8 6 .5 7.9s-12.4 8.1-7.9 16.4l8.7 3.5zm-66.7 15.6c-6.1.9-14.9-.3-17.8 6.6 3.7.5 4.1 1.5 7.8.2s9.7-4.7 10-6.9Zm191.2 9.1c-.8-1-14.7-4.4-16.5-9.1-3.7 3 3.2 7 5.2 10.4 13.8 23.4 23.1 41.5 43.6 61l52.5 11c1.7-1.4-17.2-31.8-20.7-34.9-2.6-2.2-38.6-24.1-40.9-24.7-6.5-1.8-14.8 1.2-21.4-2.5-5.3-3.4-1.3-10.6-1.7-11.1Zm-104.4-6.9-4 2.9 6.2 23.8 6.7-14.4c-5.2-3.5-8.7-5.3-8.9-12.3m72.7 5.2c-1.8-1.9-5.3-2.8-7-5.2l23.8 71.9 3.2 3.6 9.7-2.1c.9-1.2-7.7-23.9-9.4-27.4-3.4-6.9-4-9.5-6.7-15.4-2.8-6.2-9.6-21.1-13.6-25.4m-135-3c-2.7-2.5-16.7 6.9-17.8 11.1l15.3-.3zm-46.8 2.3c-38 18.7-73.6 43.8-98.4 78.5l-12.9 32.7c2.9-.6 4.6-3.7 6.2-6 13.9-19.4 30.5-39.9 48.2-56.4 16.3-15.2 36.9-27 55.4-39.8l1.4-9.1ZM400.3 542c1.5-13.1 0-30.7 0-44.5s-4.3-5.4 1.1-5.5c13.4-.2 10.9 40.8 10 50-2.7 27-27.2 64.2-23.2 88.2 1.2 7.3 9.8 14.5 12.6 20.4 13.2 27.3 24.2 56.9 38.6 83.7 1.7 3.2 6.2 4.9 7.2 8.4 1.8 6.1.2 21.5 3.2 26.8 1.5 2.6 45.9 34.2 49.5 34l2.5-4.7c12-1.1 12.9 10.8 17.1 15.1 14.5 14.7 81.3 29 102.9 31.7 108.1 13.7 180.6.4 265.6-64.8.3-.3-1.2-3.1.2-5.3 3.4-5.3 9.5-6.6 6.9-16.7 11.5 5.3 19.5-11.4 25.4-20.2 9.5-14.2 30.4-50.6 27.6-67.1-.6-3.5-16.9-37.4-21.9-32.8-6.4 19.6-14.4 38.7-20.7 58.3-4.1 12.7-6.9 36.1-13.2 46.9-1.7 2.8-2.3 4.6-6.2 3.8-3.2-3.9 10.8-57.3 13.3-65.7 7.9-26 23.3-65.1 40.1-86.2 9.7-12.1 24.1-16.4 24.6-33.9.3-11.6-10.8-48.3-15.7-60.2-2.5-6.1-4.5-12.3-10.1-16.6-6.5 0-19.7 113.9-38.9 122.3l28.6-136.3c-15.3-24.8-24.4-52.7-35.3-79.5l-4.4 1.4c-12 13.8-29.4 28-49 23.1 4.9-5.8 12.9-5.6 19.9-10.1 3.4-2.2 26.1-22.3 26.3-24.3-1.2-7.6-8.4-7.2-12.9-11.1-17.2-15.1-32.7-44.1-40-65.7-7-1.6-3.2 4.6-5.6 8.7-10.7 18.2-27 19.3-43.1 28.1s-7.9 9.5-14.5 10l-4.4-6.3c-35.2 10.5-107.4-6.1-75.6-56 9.2-14.4 25.1-13.3 33.1-20.3 1.8-1.6 14.9-24 14.6-25.4-8.4-5-12.9-14.1-15.8-23.3l-10.6 2.4c-2.3 3.6 3.8 17.9-1.4 17.4-3.4-.3-6.8-9.7-5.6-13.3-22.7 6.5-6.5-15.2-6.7-23.1l-8.8-25.8c2.4 14.9-2 36 .1 49.9 1 6.5 17 37.4 15.4 39.1l-9.8-4.6-10.2-17.6c-.9 9.5-1.6 24.4-8.9 31.1.6-10.1 5.1-20.8 5.9-30.7 2.2-26-42.1-67.6-31-93.4 1.4-3.2.5-3.3 5-2.8l12.9 39.4 13.8 22.9c-.2-14.9-.6-47.9-11.3-58.8-.9-1-15.8-12.1-16.9-12.2-4.6-.2-4.8 3.7-5.9 6.8-5.5 15.4-6.9 61.5-5.8 78.4.6 8.6 7 16.6 2 28-3.9 4.6-9.6-13.5-10.1-15.5-5.1-18.3-7.8-41.1-9.9-60.2-1.9 0-3.6 2.1-4.1 3.8-2 7.6 6 33.7 6.5 44 .5 13.1-4.8 32.6-3.9 44.2.4 5.4 6.3 11 6 13.6-.5 3.9-6.5 2.8-8.4.6-6.8-7.7-2.1-39.5-2.7-51.9-.6-11.9-3.7-22.6-4.5-34.3l-13.6 29.8-8.6 5.8c-3.1-3.7 16.2-43.3 17.3-50.6 1.4-9.3-3.8-16.1.5-25l6.7 8.9c7.5-5.2 3.5-18.8 4.4-26.7-7.6 5.1-5.1 19.5-17.8 17.8l11.1-33.4c-12.1 14.9-19.5 33.2-29.3 49.7-2.1 3.5-7.6 6.9-8.2 9.7-.8 3.5 2.4 7.7 1.6 12.4-1.3 7.3-13 19-13.2 31.8 0 2.7 11.1 8.9 4.4 18.6l-10.7.4c-4 21.6-20.2 58.9 15.4 55.4-6.1 13.4.6 19 1.2 31.2 1.9 39.2-37.4 50.8-69.5 52.5-12.7.6-37.9-.6-49-5.4-27.9-12.1-23.7-47.8-.7-61.6l-15.6-5.6c-15.1 60-23.8 122.1-45.7 180.2-4.3 11.4-9 7.9-10.7 11.6-3.8 8.8-4.4 30.8-7 41.9-2.2 9.9-14.3 46.6-11.7 52.8l12.7 13.9c4.9-21.6.3-43.5.4-65.3 1.8-5.5 10.3-5.1 12.9 0l1.2 23.1c4.4-7.2 9.1-22.1 10-30Zm93.5-328.2c18.2 4.4 20-17.1 33.4-25.6l26.7-43.4c-17.3 6.6-32 16.2-44.5 30 6.9 3.3 11.6 8.4 11.1 16.7-13.4-2.7-21.9 11.7-26.7 22.2Zm140.1-40v-13.3h-2.2v13.3zm239 14.8c-1.8-1.3-2.8-4.5-5.7-6.4-14.3-9.4-31.5-16.4-48.5-19.4l18.5 23.7c18.8 9.5 33.3 27.2 47.1 43 8.9-6 14.7-10.7 24.5-2.3 1.6.4 1.5-2.3 1.1-3.3-.5-1.2-14.5-18.5-16.3-20.4-6-6.2-14.5-10.4-20.7-14.9m-332.4 31.9 11.1-46.7c-13.4 11.5-19 29.8-33.4 41.2l22.2 5.6Zm207-28.9c2.6-2.2-13-18.1-15.6-15.5l4.7 15.3zm-276.1 22.2c-.5-10.3 8.7-15.7 11.2-24.4l-17.8 23.4zm-82.3-13.3c-5.4.2-10.2 1.6-12.3 6.7l-7.7-4.5c-11.2 26.4-21.7 53.4-24.5 82.3l19.5-11.6c5.9-24.3 5-55.8 25-72.9m-13.1 71 8.8 1.3c13.5-19.8 11.2-46 22.1-67.9-17.7 16.3-32.1 41.9-30.9 66.5Zm462.7-17.6L820.9 205l-5.7 11.3-32.1-6.8c5.9 13.2 36.2 13 42.3 20 2.5 2.9-6.3 5.8-6.6 12.4-.2 5.7 2.5 10.8 2.2 16.5l17.8-4.5Zm51.2 113.5c-4.9-35.8-12.9-70.3-7.6-106.8-23-12.6-34.3-37.6-52.4-55.6 3.4 16.2 13 32.3 11.1 48.9l11.1-2.2c2.6 13.3-14.5 15.9-24.4 17.9-5.5 6.4 38.6 83.4 44.5 95.6 6.1.4-3.9-11.2 3.3-8.9 6.6 2.2 9.9 6.6 14.5 11.1Zm-125-157.6-19.6 1.9c-3.8 3.6 8.1 18 8.7 19.6 2.9 7.6 3.7 17.2 6.9 24.9-8.1.4-7.3-8.8-10-13.3l-14.5 24.4c4.3-2.2 20.9 0 21.9-.4s.5-3.1 2-4c4.6-2.9 26.5-15.9 27.2-19.2zm-26.5 4.1-11 2.2 8.9 22.2c2.8 1.9 9-4.3 8.8-7.7zm-324.8 42.2c.9.9 16.7-8.7 17.6-10.2 2.8-4.1 1.7-10.3 3.4-14.4 2.5-5.8 8.9-8.3 7.8-15.5l-18.7 22.4-10.2 17.6Zm395.9-24.2-26.4-11.3 17.9 25.6-17.9 18.9 28.9-4.5zm109.3 42c-.3-19.8-6.5-44.4-31.1-42.2zM549.4 245c-15.3-3.8-30.5-6-46.4-4.1l-9.2 28.4 51.1 22.3c-1.6-15.2.2-32 4.5-46.7Zm-55.7-2.2c-12.7-1.6-18.1 3.3-20 15.5l13.3 4.5zm-44.3 6.8-2.3 18.4 9.9 5.7 9.9-28.8-17.6 4.6Zm-11.3 8.8c-3.7-4-27.9 22.4-30.1 26.8-4.1 8.3 20.1 18 24.7 11.2 3.8-5.6.7-19.6 1.5-25.1.4-2.9 6.1-7.4 3.9-12.8Zm44.5 24.4c1.7-9.1-4.8-14.6-13.3-15.6l-1.3 8.9zm436.2 31.1c4.9-14.9-11.3-32.5-20-44.5l2.8 11.6 17.2 32.8Zm-133.5 13.4c1 1 20.8-9.9 23-11.5 22.8-16.6 9.3-39.5-17.6-37.7-9.2.6-4.9 10.1-16.5 4.7 7.5 13.6 9.3 29.3 11.1 44.5m113.5 33.4c4.1-1.3 5.9-5.5 7.8-8.8 12.7-21.3 4.8-22.7-2.3-42.4-3.6-9.9-4.6-23.8-14.5-31.1l8.9 82.3Zm-380.6-64.6c-6.1-8.7-20.7-13.9-31.2-15.5 2.9 7.2 13 6.3 18.3 8.9s3.8 9.6 12.8 6.6Zm255.9 35.5c3.2-7.9-7.2-49-12.4-50.8-14.8-5.1-22.5 21.9-19.7 33.2 2.8 11.8 11.1 8.4 13.6 13.3l-1.3 6.6 19.9-2.3Zm-393.9-48.8-6.7 1.5-2.2 14.1zm73.5 20c5.1-24.1-11.9-28.2-13.4-2.3zm284.9-20c-17.6-6.7-19.7 30.9-31.2 8.9h-3.2c-36.1 30.8 13 46.6 41.1 42.2-.5-3.6-4.9-3.1-7.7-6.7-9.7-12.5-5.9-31.4 1.1-44.4Zm-388.1 30.4c1.6-1.4 11.3-11 11.5-11.8 1.2-3.5.1-8.1.3-11.9-6.8 9.4-22.7 18.9-21.1 31.1 2.4-3.4 6.3-4.9 9.3-7.4m134.3-14.8-22.2-8.9-2.3 15.6c8.5 1.4 13.4 2.2 21.3-2 2.2-1.2 4.3 1.2 3.2-4.6Zm-115.7 63.4v56.7l33.3-83.5c2.2-6.4-12.2-.4-8.8-6.6 2.1-3.8 8-2.7 11-4.6 6.6-4 3.5-21.9-6.6-18.8v11.1c-2.7 0-5.3-2.9-7.8-.2-8.3 9-13.9 34.8-21.2 45.8Zm149.1 7.8c61.4-2.6 59.2-69-4.5-60.1-.5.5 4.5 12.4 4.5 14.4v45.6ZM489.3 314c-3.1-.6-4.8.9-7.2 2.3-4.8 2.9-9.7 6-14.4 8.7-13.2 7.7-24.6 8.5-22.9 27.9 1.8 20.6 25.1 17.2 40.2 21.1-10.9-17.5-3.3-42.5 4.5-60Zm-143.1 88.3c2.9-6.3 14.3-62.4 15.6-72.3.6-4.6.9-9.2.6-13.8-39.8 41-48.6 107.5-44.5 162.4l11.6-49.5c.6-9.3 14.4-22 16.6-26.7Zm163.1-33.8c-.5-11.1.3-22.3 0-33.4l-6.6-18.9c-10.3 18.6-26.5 51.2 5.5 55.6 6.8.9 1.2-2.7 1.1-3.4Zm447.4 27.8c-4.6-24.3-14.2-51.5-28.9-71.2l-.8 12.8 29.7 58.3Zm-625.5-57.9c.4-.4 4.6-9.2 4.5-11.1-4.7 1.8-7.5 6.1-6.6 11.1.7-.1 1.8.3 2.2 0Zm95.8-8.8-6.7 1.3v14.3l6.7-15.5Zm-29 117.8c5.1-31.3 14.8-62.4 13.4-94.5-.1-2.7 1.7-8.3-2.2-7.8-2.1 8.1-4.3 17.3-7.2 25.1-8.5 22.5-25.3 51.4-31.9 72.8-1.8 5.9 2.7 17.8 1.2 24.5-4.7-1-1.2-10.5-8.9-8.9-.7 9.7-8.4 16.8-11.3 25.6-5.4 16.6-2.4 70 .1 89 .5 3.8-.6 7.4 3.4 10 8.1-18 20.3-129.2 30.4-135.3 2.8-1.7 9.3.5 12.9-.5Zm536.4 13.4c1.1-16.7 12.5-30.6 19.6-45.2l-35.1-66-15.2 29.4c8.9 26.9 11.6 60 30.7 81.8m-583.1-6.7c15.6-12.8 9.5-29.6 8.9-46.7zm614.3 49v-65.6c0-1.1-4.1-9.8-7.7-5.5-3.3 4-16.6 34.3-16.7 39.1-.4 13.5 10.1 10.4 13 12.3 1.8 1.2 2.9 18.8 11.5 19.7Zm-634.4 0c7.9-18.2 5.4-38.5 8.9-57.8l-8.6 23.6c.3 6.7-2.2 13.1-2.6 19.7s-1.6 13.9 2.3 14.5m55.7-28.9c5-1.3 4.7-7 4.4-11.1h-2.2zm614.3 157.9c4.5-41.9.3-82-9.5-122.8l-10.5-32.9c1.6 11.7-4.3 27.9 4.4 36.7l-4.5 2.5c3.8 11.5-4.2 39.6-2.3 48.1.5 2.4 7.4 3.5 9 7.2l-4.5 6.4 17.9 54.7Zm-33.4-111.2c-2.3-4.7 1.3-11.9-6.7-11.1 3.4 4-.6 12.9 6.7 11.1m-627.6 57.8-6.6-60c-4.3 17.1-2.7 37.9 1.9 54.9 1 3.8-1.6 6.2 4.8 5.1Zm6.6 37.9c-.9-8.1-2.4-21.3-8.9-26.7 1.9 8.1 2 21.3 8.9 26.7m605.4 42.2 8.9-69c-9.9 9.6-30.1 29.4-24.3 43.1l15.3 25.8Zm35.6 35.6c.4-10.7 9.5-29.1 8.8-38.8-.5-7-11-39.1-13.9-48.4s-3-11.6-6-12.9c.1 17.2-6.3 33.5-8.6 50.4-3.3 24.4-8.8 41.2 19.7 49.8Zm-620.9-60.1c5.7-10.2 2.8-15.6-6.6-22.2-.1 6.6.8 17.8 6.6 22.2m-17.8 24.5c7.6-5.5 11.9-13 3.3-20-6.2 5.6-4.8 12.8-3.3 20m26.7-6.6-2.2-13.3c-1.1 6.9-8.8 12.5 2.2 13.3m62.3 104.5-51.1-109c2.2 9.4-3.7 19.9-3.7 28.2 0 18.4 40 67.8 54.9 80.8ZM335.7 649.9c-18.6 5.4-24.3 20.9-10 35.6zm35.6 55.6c-1.2-5 1.8-11.5 1-15.8s-6.6-13.3-9.9-15.3l.5 13.9zm634.3-2.2c1.5-1.5.3-27-6.6-28.9-6.1 14.5-16.8 26.5 6.6 28.9m-661 8.9 4.4-31.1c-4.6 4.3-14.8 8.3-15.7 14.6-.8 5.7 7.7 20.1 11.2 16.5Zm661-2.2c-12.4.3-22-12.4-33.4-12.2l13 29.3 20.4 31.9v-48.9Zm-638.7 17.8-11.1-26.7c-3.8 14.4-4.9 21.9 11.1 26.7m15.6 46.7c1.8-18.5 2.4-40.7-2.3-58.9-.8-3.1 0-6.9-4.4-7.8-4.7 10.4 0 18.7 2.2 28.9l-6.3.3c-3.7 26.3-16.3 54-31.5 75.4 5.7 4.7 52.6-37.4 59.1-44.4l-7.9-11.2c-.3 5.9-.5 17.8-8.9 17.8Zm623.1 13.4c-.7-17.8-13.7-27-22.3-41.1-3.4-5.6-16.2-35.6-21-34.5l-5 5.5c12.7 22.8 30.5 42.7 42.9 65.6 1.6 2.9-.7 5.7 5.4 4.5M402.5 759c6 1 9.7-3.3 12.9-7.8l-24.1-32.3c-1.8 15.1 8.8 26.1 11.1 40.1Zm551.9-29c-6.7-4.7-13.6 27.1-17.7 30l6.7 1.1c-4.5 14.6 2.4 29.3 0 44.3 5.6 3.8 43.6 7 48.4 4.2.5-.3 5.8-9.5 6-10.4 1.1-4.7-14.6-29.7-18.4-35.3-7.9-11.7-19.2-20.9-25.1-33.9Zm-518.5 51.2c4.5-11.7-14.2-30.8-22.2-14.4l8.4 1.5zm478.5 0 11.1-22.2c-6.5 5.4-16.8 11.8-15.6 21.1l4.4 1.1Zm20 20q.3-6-.3-12c-.2-2.5-1-12.2-4.1-12.5.6 10.5-10.1 20.6 4.4 24.5m-469.6-4.4-20-15.5-4.5 17.7 20 6.7-4.4-5.5zm440.7-11.1c-5.7-4-27.4 23.4-34.6 26.7l8 17.8c3.4.8 3.6-.5 5.4-2.3s21.2-32 21.9-33.9c1.3-3.5 0-4.9-.6-8.2Zm-394.6 36.2c-3.3-2.9-16.2-6.5-20.9-9.1-3.5-2-21.2-15.4-23-13.7 8.4 15 6.6 32.5 6.7 48.9 2.4 2.4 36.4-9.3 41.3-13.3 1.8-2.2-2.5-11.3-4.2-12.8Zm412.4-16.2c-3.5 16-12.6 14.6-10-2.2l-27.4 36.7c8.4 12.4 22 15.9 34.1 23.3 7.9-13.3 27.1-53.9 3.3-57.8m57.9 13.4-35.6-4.5c-2.4 11.1-.1 23.5-6.7 33.4 5.3 4 39.2-21.4 42.3-28.9m-121.3.6c-7.8 1.6-14 5.3-18.9 11.5 5.6 4 18.8 23 25.3 21s7.9-9.4 7.7-11.7-11.7-20.5-14-20.8Zm-319.4 17.1-11.1 5.6c6.8 7.9 13.4 14 24.5 14.5-2.6-9-14.2-10.1-13.4-20Zm373.8 31.3c-9.2 1.2-27-18.9-32.5-19.8-2.6-.4-7.7 5.4-11.9 4.2 9.1 8 28.1 23.3 39.3 26.3 4.8 1.3 5-7.6 5.1-10.7" class="st0"/><path d="M675.9 600.5c17-12.5 38.8.5 59.6 2.4 15.7 1.5 40.3.2 54.4-7.3 7.9-4.2 12.8-17 24.3-14.6 3.5 14.5-3.7 11.9-7.7 17.8-11.1 16.4-13 25-28.9 40.1-8.2 7.8-42.4 37-50.7 40.5-24.7 10.5-87.5-1.5-111.3-14.5s-52.3-48.1-68.4-70.1c-8-11-28.8-31.1-7.9-38.3 4.6 3.2 2.6 8.9 4.6 13.3 4.4 9.8 26.8 18.5 37 20.9 26.4 6.3 48.8-1.8 74.1 1.6 5.7.8 19.7 9.2 21 8.2Zm-8.2 18c-2.2-7-8-11.5-15.3-12.5-14.9-2.1-39.6 3.4-57.3 1.7-9.1-.9-17.8-4.7-26.7-6.7 2.3 6.6 7.6 13.7 12.2 19 32.3 37.5 89.9 58.2 139.2 52.3 10.9-1.3 28.2-17.9 36.7-25.6 2.8-2.6 31.4-30.4 28.9-32.3-14.6 2.9-26 5.4-41.3 4.5-13.1-.8-41.6-10.4-50.8-8.9-5.9.9-21.8 10.7-25.5 8.5ZM649.5 387.4c5.6 20.5-3.8 42.8-9.5 62.8-3.7 12.9-11.7 20-7.2 35.2 8.5 28.9 56.9 2.2 61.3 6.6 4.8 10.2-20.8 18.8-28 19.9-13.4 2.1-27 .3-36.6-9.9-18.4-19.7 4.8-58.2 9.6-81.6 2.5-12.2 2.5-21.3 3.9-32.9h6.5ZM836.2 1169c6-3.7 11.7-.2 17.8 0 10.5.4 21.2-.6 31.7.2l1.1 7.5c-1.2 2.3-5.8 3.9-8.3 4.3-6.7 1.2-27.9-.7-35.4-1.3-4.3-.4-7.8-.5-11.6-3-12.1 30.8 17.8 35.1 41.1 34 5.2-.2 19.5-5.3 19.3.7-.2 8.6-28 9.2-34.7 8.8-14.1-.9-31.8-6.7-35.5-22-4.3-17.9 6.7-45.6 26.5-49.1 3-.5 18.7-2.2 17.5 3.5s-30.5 6-29.5 16.3ZM669.4 1154.6c-1.4.9-6 .6-9.5 2.2-2.1.9-14.2 9.9-11.9 12.2l34.7-4.5c11.5 10.8-7.3 12.9-15.3 13.8-6.5.7-17.1 1.5-22.5-1.5-7.2 22 10.4 30.4 29.9 27.6 6.5-.9 10.1-4.6 14.4-5.8 3-.9 2.7 1.8 2.3 3.8-3.7 16.2-51.8 16.6-55.9-9.4-2.4-15.4 5.4-38.2 21.7-42.7-10.6-17.7 26.2-9.5 33.1-5.8 19.1 10.2-16.7 5.6-18.1 6.1-2.1.8-2.1 3.5-2.9 4.1ZM820.6 1131.7c.4 4.1.2 2.6-2.4 3-14.6 2.7-26.6-.2-41.2 0 1.1 8.4 4.3 16.2 5.8 24.6 2.2 12.8 4.8 31.9 5.2 44.6.1 3.7 0 10.2-5.5 8.6-5.9-1.8-7.2-68-15.5-77.8l-52.2-3.8c-6.4-14.7 15.1-8.7 22.5-8.6 28.1.6 56.3.6 83.3 9.3ZM444.2 1145.7c4.7 15.4 23.9 36.5 14.5 52.5-8.9 15.2-32.8 14.9-47.5 9.3-5.6-2.2-20.4-14.2-19.6-20.2 1.5-11.4 21.2-4.3 7.6 2.7 10.8 14 32.3 21.9 47.4 10.1 3.5-2.7 8.8-9.2 7.9-14-2.5-12.9-15.4-26.9-18.2-40.2l-33-.4c-12.1-14.9 18.3-10.7 27.8-10.7 3.3 0 6.3 1.6 9.3 1.6 8 .1 18.4-4.3 27.1.1l-1.4 9.2h-21.8ZM596.6 1197l1.4 6.7c-15.8 13.8-57.5 15.1-54.3-15.3l7.9-63 4.7.7c1.5 1.3 1.3 2.9 1.5 4.7 2 16.4-6.4 42.1-6.3 59.2.2 21.7 33 11.7 45.1 7M521.4 1166.6c3.4 2.1 15 19.8 15.8 23.8 4.6 23.5-34.9 24.9-46.2 13.5-7.4-7.4-14.8-36.7-7.5-45.4s5.2-2.2 5.8.5c.6 2.6-1.9 11.6-1.5 17 .8 11.1 6.4 23.3 18.2 25.3 18.8 3.2 34.3-4.1 16.8-21.4-1.4-1.4-4.4-1.4-6.2-3.1-5.3-5-4-15.7 4.8-10.2" class="st0"/><path d="M739.7 1139.5c3.9 2.5 2.4 56.5 4 64.6-1.3 5.9-6.1 8.4-8.5 1.4-2.8-7.9-2.9-48.5-2.4-59 0-1.9.6-3.7 1.6-5.4.7-1.8 4.5-2.2 5.4-1.6ZM907.8 1130.2c5.3 5.9-20.7 9.1-22.6 9.3-4 .3-30.4.8-31.5-.3v-8.7c3.6-2.5 52.3-2.3 54.1-.3M613.8 1207.9c-4.8.6-6.2-1.5-7.7-5.5-1.4-3.7-5.5-28.7-3.1-30.3 5.8-1.2 7.5 4.8 8.6 9.2s3.4 25.3 2.2 26.5ZM613.8 1151.9c-1.7 0-3.4 1.4-5.2 1.2-13.8-1.7 1.4-24.5 5.2-1.2" class="st0"/></svg>