<svg xmlns="http://www.w3.org/2000/svg" id="Calque_1" viewBox="0 0 1300 1300"><defs><style>.st0{fill:#313a94}</style></defs><path d="M842 1091.9c2.8 2.1 5.7 1.2 8.8 1.2l-2.7-18.3c-3.3 1.7-6.6 3.4-10 5 1.2 6.3 2.5 11 3.9 12Z" class="st0"/><path d="M839.4 1011.5c-12.1-20.6-16-25.7-40.2-31.4-24.4-5.8-53.7-7.9-77.4 1.4-5.1-38.6 14.8-70 22.9-106l-11.1.4c-2.3 20.1-22.3 36.2-17.6 56.9l-11.4-2.9 5.7 68.7c-13.2-3.4-10.7 5.3-17.3 9.9-29.2 20.4-61.7 5-88.7-9.9 5.9-6.8 14.4-11.9 17.8-20.8 4.1-10.6 8.1-54 4.8-63.3-1.8-4.9-18-4.6-14-18.9 24.7-1.8 46.5-16 68.8-25.8-1-3.6 1.3-8.5-4.2-11.2-8.6 1.6-30.6 14.6-37.1 14.2-1.6 0-1.4-5.4-3.5-5.9-6.9-1.7-14.1 3.5-21 2.9 9.4-5.9 19.9-41.4 1.7-37.1-7.8 1.9-2.2 12.9-3.3 17.2-.7 2.6-5 5.6-6.4 10.6-1.1 4 4.7 8.7-1.9 12.1-22.3-6.1-47.3 2.3-63.1-19.9l-5.6 5.7c-23.1-10.6-48-18.8-53.1-45.8 14.7 3.6 12.9-11.6 0-14.4l-5.7 8.6c-.9-19.5-17.8-30.5-23.3-46.8-13.8-12.5-25.2-42.7-36.7-54.2-4.1-4.1-8.8-5.4-14.5-4.9 11.5 26.7 31 48.7 45.3 73.6 6 10.4 28.7 61.7 32.1 65.3 1.4 1.5 31.8 20.5 35.1 22.2 7.1 3.6 35.3 15.4 42.7 17.5 22.5 6.6 14.2-3.1 32.1 15.4 1.2 1.2 5.5.3 6.7 1.5 2.5 2.4 7.3 23.5 10 29 2 4.3 7.5 2.8 8.3 8.9 2.5 19.1-8.4 38.4-14.9 55.7-3.1 2.2-31.2-3.7-34.9-2.9-2.7.6-2.3 6.4-6.7 8.2s-11.2.8-16.9 3.3c-28.9 12.3-67.6 38.9-89.3 68.7 6 2.2 12.1 4.3 18.1 6.4.4-1 .8-1.8 1-2 3.4-4.6 11.5-5.4 15.8-10 6.5-6.9 9-18.8 19.4-26.4 11.3-8.3 62.8-31.4 74.6-25.1 1.6.9 2.1 4.2 4.2 5.9 2.2 1.7 6.5 1.3 8.6 3.6 2.6 2.8 4.9 13.8 10.3 18.3 11.4 9.7 61.2 8.7 75.7 4.4 25.2-7.4 47.1-41.8 58.1-44.9 4.8-1.3 9.6 3.5 15.3 3.3 4.2-.1 30.7-6.9 33.2-4.7.9.8 1.1 7.3 3.9 10.5 1.1 1.2 22.8 20.1 24.1 21 3.5 2.2 10.2 1.1 12.6 4.5 4 5.6 6.8 32 9.9 47.9 3.3-1.6 6.7-3.3 10-5v-.4l1.4-.4c5-2.6 9.9-5.3 14.8-8-10.8-25.7-20.6-47.5-24.8-54.7Z" class="st0"/><path d="M686.5 878c22 7.1 59.4-30.5 81.3-35.6 11.8-2.8 12.3 3.1 27.9-6.2 39.4-23.5 69.1-73.6 99.5-106.8l27.7-82.6 8.2-.4c1.3-4.8-5.3-1.3-5.9-4.6-.9-4.5 3.3-15.3 3.3-22.5 0-7.4-2.7-14.5-2.6-20.1.3-12.2 22.6-58.8 9.5-64.4-1.2-.5-7.5-1.2-7.1 1.6-4.5 31.7-11.1 63.7-24.1 92.6-1.1 2.5.3 7-1.4 9.6-3.1 4.6-13.7 6.3-14.6 9.8-.7 2.5-1.7 11.8 4.3 9.5l18.6-11.4-31.5 80.2-3.3-8.2-7.9-.6c1.9-8.6 1.2-13.4-8.6-11.1-2.2 8.2-7.6 15.7 2.7 18.4l-7.6 11.5 10.5 11.4c-7.2 5.2-9.8 16.5-14.2 22.2-7.2 9.2-65.8 60.5-74.5 63.5-3.5 1.2-8.4-2-14.4 0-26 8.9-54.3 24.6-80.3 36 .9 3.3-.2 6.9 4.7 8.2Z" class="st0"/><path d="M349.3 506c.9 4.3.6 16.7-.6 20.9-.4 1.5-15.2 25.6-16.6 26.5-4.5 2.8-19.3.2-23.8-2.1-16.2-8.3-3.6-64.9-4.7-81.1-1.8-26.8-10-51.6-5.6-80 2.3-14.3 13.1-11.3 25.4-16 .2-4.5-5.5-3.3-8.4-7.3-5-7.2-3.2-25-3.1-34.4.1-40 8.9-89.8 17.2-128.3.5-2.4 8.6-.1 2.9-13.3l17.1 8.6 8.7-25.8 14.3 5.7v-17.2c13.7-3.7 9.6 11 21.1 2.5 11.4-8.4 3.5-18.6 7.4-21.1 13.7-8.1 23.6 6.5 37-1.9l.4-13.9c6.4-.2 11.2 3.5 17.9 2.4 35.4-5.7 81.6-31.9 116.1-36 9.8-1.2 16.1 2 22.2 1.6 25.2-1.8 48-11.5 72-13.4 35.5-2.8 144.9 11.8 177.8 24.9 15 5.9 53.6 30 63.9 42.1 37.5 44.3 52.2 133.6 58.9 190.6.7 5.9-1.7 14.6-.9 21.1 1.6 4.9 13.8 2.4 19.5 11.6 11.3 18.2-9.9 65.2-11.6 89-1.4 19.7 7.9 67-15.2 76.7-10.4 4.3-11.9-7.8-14-9-2.2-1.3-17.6 7.4-21.8-11-4-17.7 6.4-19.1 19.4-26.6 3.8 9.5 2.8 14.5-2.8 22.9l12.9 5.7c14.5-16.8 3.8-42.5 4.5-61.1.7-22.1 16-50.1 14.1-73.5l-11.5 14.3-14.2-7.2c-19.2 14.5-34.8 31.4-56.9 42.2 3.4 15.8 0 29.1-2.4 44.6-.5 3.5 1.4 7.4 1 10.2-5.3 31.4-51.4 61-81.6 64.2-14 1.5-36.1.2-50.6.5-20.9.5-29.7.5-49.8-8.8-1.1-3.7.3-8-1.1-11.6-10.6-26.7-19.7-74.7-59.5-46.8-24.3 17-17.7 44.7-47.8 58.2-9.5 4.3-48.3 10.9-60 11.9-42.3 3.5-51.6 1.3-87.1-18.1-5.7-3.1-8 3.5-16.5-9.3-17.2-25.9-6.8-69.3-16.3-81.1-7.5-6.5-16.4-3.7-25.3-9.1-9-5.4-17.4-19.9-24.8-24.1-4.9-2.7-15.6 7.1-8.5-4.1l-8.5 13-8.8 1.3c1.1-14.5-11.2-24.4-15.9-37.4-23.3-4.1-13.9 51.2-12.7 64.4s5.1 7.1 5.3 11.4c.6 10.7-5.2 31.8-5.5 43.2-.3 10.8.7 27.7 11.5 32.8 4.7-13 17.9-17.9 14.4-34.4 3.8 0 7.7-.2 11.4 0-1.9-9.2-13.6-10.2-14.4-24.4-.6-10.9.9-40.5 17.1-31.5-4.7 7 1.9 14.1 2.1 19.4s-4.1 15.1-2 23c.9 3.3 7.4 3.1 8.5 6.4 4.4 13.1-8.9 7.2-11.3 7.1Zm180.6-300.8c8.1 0 57.7 21.1 64.1 26.2 1.9 1.5 26.4 33.6 30.1 38.6 4.2 5.6 8 20.3 15.5 26 1.7 1.3 37.2 14.1 40.2 14.2 6.8.3 16.9-4 24.9-1.9-1.4-2.4-1.9-4.6-.2-7.1 12.1-18.5 36.4-40.1 51.3-56.4l-2.4-114c-4.9-.7-2.9 6.7-2.9 10.1-.1 9.6 2.5 52.7-7.4 55.3l-6.9-2.4v51.6h-11.4c.6-40.8.6-81.7-8.7-121.7.2-10.9 14.6-6.6 16.9.4 2.2 6.9.9 26.8 1.8 36.2l4.4 22.1v-58.7c0-8.3 21.5-6.1 25.9-3 3.4 2.3 4.1 51.5 4 60.3 0 15.6-1.7 31.9-4.1 47.2 20.5-6.9 36.5-24.9 60.2-20l-2.8-83 13.1 2.7c3 24.7-5.1 50.2-.9 75.4 1.7 9.9 10.2 21.4 15.3 30.7.9 1.7 2.2 11.3 6.9 5.8 3.3-3.8-17-88.1 4.3-97.2 8.4 2.4 9.7 10.2 10 18.4 1.5 35.9-10.5 79.4 5.2 115.2.6 1.4 4.4 9 6.4 5.1-10.1-32.9-5.4-67.8-5.8-101.7l11 .4c3.2 1.9-.2 61.2.5 72.6.7 11.3 6.9 26.7 6 37.4-.4 5.5-6.2 4.2-6.1 5.6.7 8.2 11.2 8.1 13.6 10.9 2.8 3.2 2 12.5 12.2 13.6l-5.7-68.7-5.7 1.4c4.2 8.2 7.2 30.2-5.8 30.1-1.6-27.9-4.5-56.6-4.2-84.6 0-6.5 5-13.9 3.8-19.4-1.9-8.4-20.4-11.3-22.5-26.3-1.4-10.3 10.9 1.5 14.4-2.9-16.8-4.9-31-20.5-45.2-26.5s-42.8-13.2-45.9-11.5c-.8.4-.7 5.1-2.2 5.1-15-12.1-124.3-26.2-130.3-17.3l2.9 8.6c-9.5-2.2-19 2.7-27.3 3-18.8.8-46.3-4.5-64.4-1.8-5.8.9-68.7 19.5-68.6 23.2 2.5 3.4 10 10.8 10.3 14.3.2 2-7.3 37.4-8.1 39.4-1.7 4-3.3 5.8-7.9 4.9-3.7-8.7-.4-16.1-.1-24.3.1-3.3 2.4-10.7-2.7-10l-8.6 51.5c12.8-1.4 25.6.2 38.2.2 3 0 1.7-3 1.9-3-24 0-6.3-45.6.5-58.2 3.4-6.3 13.4-22.5 20.3-21.6 22.4 3.1 1.3 57.2-5.1 59.7-5.7 2.3-4.4-3.8-4.4-7.2 0-12.3 7.6-23.5 8.7-35.7-11.5 10.5-20.2 33.3-21.5 48.4-.5 5.3 5.5 9.3 1.5 14.6Zm-34.4-68.8c-8.9 2.7-42.5 7.8-45.5 16.1 1.4 32.5-4.9 64.1-11.8 95.6 3.9 3.2 16-13.4 18.8-16.9l15.6-77.7 8.7 1.3c2.9 2.3 2.9 5 2.7 8.4-1 16.9-16 43.6-17.1 61.9 19.2-15.3 16.4-51.5 23.1-75.7 1.5-5.4 5.9-7.6 5.5-13.1Zm-57.3 23-5.7 1.4c5.7 7.9 1.7 16.4-1.7 24.2l6 8.8 1.4-34.3Zm495.7 88.7c6.7-8.2-14.9-50.7-24.3-57.2-7.6 6.2-3.5 17.2-4.3 25.7l11.7 1.8 2.6 29.7zM378 262.5l14.3-65.9-8.4 3.2-.2 16.8-10-5.6c-11.1 10.1-12.5 25.8-10 39.9l7.1-5.7 7.1 17.1Zm36.9-56.9-11.1-3.3-8.7 62.9h-11.4c-.6 5.6.3 28.6-1.6 31.7-2.1 3.2-12.1 7.9-14.1 14.2l-6.5-10.6-3.5-23.7c-.5 25.9-9.5 51.7-2.9 77.3 9 2 4.2-6.9 8.3-13.1 2.6-3.9 8.7-5.3 11.7-9.2s22-32.1 22.4-34.1c.6-4.2-4.2-7.7-4.4-11.3-.8-19.8 27.2-72 21.7-80.9Zm-11.1 79.8 25.2-27.8 6.3-55.3c-5.5 2.1-7.9 9.4-9.9 14.4-8.5 20.9-16.7 46.7-21.5 68.7Zm135.5-58.2c-1.5-1-1.8-6-5.5-7.2-7.9-2.6-21 .8-29.7-.5l.2 10.1c-4.9 2.8-12.5.3-18.2 1.9-11.3 3.3-11.3 22.7-29.3 19.2l-86.2 111.8c-3.6 11.8 12.9 7.5 21 10.9 1.9.8 32.9 20 34.4 21.5 2.4 2.5 2.2 7.8 5.1 10.7s9.8 1.8 11.3 8.6c16.7-12.3 45.3-14.6 66-14.6 53 0 104.6-1.5 157.5-2.7 70.7-1.6 142-2.6 212 5.9l61.7-44.5c-19.8-21.8-44.8-30.3-63-54.4-9.4-12.5-17.8-39.8-22.7-45.3-2.6-3-7.6-1.8-10.2-4.8-3.7-4.3-3.7-16.5-8.7-22.9-9.5-12.3-30-9.5-41.4-1.4-13.5 9.5-16.4 21.1-35.1 30.8-20.5 10.7-.3 10 .3 10.8 5.8 7-4.4 11.8-5.4 13.4-4.5 7.3-9.3 18.2-19.4 20.2-4.1.8-8-2.6-12.1-.9-7.2 2.8-7.3 13.9-10.7 15.9-6.7 4.1-30.2 3.6-38.3 1.6s-11.6-8.3-16.2-9.6c-16.2-4.8-17.1 3.2-32.3-13.6-17.2-19-32.9-58.8-60.1-66-8.6-2.2-17.1.3-25.1-5.1Zm-207.1 95.4c-3.4-11.1 3.4-19.6 5-28 2.8-14.9-.2-31.5 14.2-39.2l-2-10.2c-5.3 2.7-14.1 15.4-15.7 20.2-1.9 5.8 2.5 10.6 1.6 15.1-.5 2.7-6 2.7-7.3 4.7-5.3 8.2 1.3 17.8 1.1 24.7-.5 15-6.1 31.4-2.6 47l17.3-7.4-.2-32.7-11.4 5.7Zm593.1-57.3c-7.4-1.1-6 1.1-5.7 7.1.5 8.8 2.1 22.2 3.2 31.2.4 3.5 1.3 15.6 5.4 16.1zm17.2 0c-3.9-.2-5.3-2.4-4.8 2.8 2.7 23.7 3 47.8 2 71.7l14.3-2.9c-14.1-22.7-2.1-46.8-11.5-71.6M840.8 524.6c9.9-8.4 29.9-28.7 31.7-41.4.5-3.9-4.4-6.3-4.4-10.1 0-5.3 9.8-13.4 8.5-25.6-.3-2.9-6.8-19.3-8.4-20.4l-180.6 1.6c1.3 17.6 16.4 33.7 18.9 48.6 3.1 18.6 1.5 15.3 8.2 34.1.9 2.6-1.8 7-.9 9.8 1.8 5.9 10.5 5.6 13.9 9.2s1.7 8.2 4.9 10.1c11.4 6.5 66.3-7.3 82.5-8.8 14.5-1.3 9.4 6.8 25.8-7.1Zm-187.7-96c-68.9 7.1-137.5 16.7-207.3 14.7l-4.3 4.3c2.1 24.7-2.7 57.5 16.9 76.9 1.8 1.8 26.2 17.9 27.8 18.3 5.6 1.4 8.9-4.5 13.8-5.4 12.9-2.2 46.9 1.4 62.8 0 23.2-2 36.6-12.7 48.5-31.8 14.1-22.5 24-50.2 36.1-72.2 1.8-3.3 6.7-.5 5.6-4.9ZM778.9 683.8l4.6 8.3 14.3-8.6c13.7 12-10.8 29.8-17.1 14.3-4.9.4-20.3 26.3-25.7 31.6s-28.2 22.4-30.9 23.5c-10.1 4.4-16-.2-24.5 1.3-12 2.1-29.2 16.7-42.6 17.3-5.3.2-10-3.8-14.4-3.9-12.3 0-24.1 4.5-35.3-1.1l-2.9 8.6c-5.8-14.8-29.2-15.5-43-21.5-8.4-3.6-19.2-13.9-27.2-15.8-7.4-1.8-2.7 2.4-2.2 5.1 1.1 6.1 7.4 21.6-4.9 20.7l-8.6-24.3 8.6-1.5-.2-9.8-19.9-6.4V712c8.9 4.7 17.2-2.6 21.5-2.7 8.8-.2 12.7 11 22.9 11.6 6.4.3 13.2-3.2 20.1-3.4 78.5-1.4 111.1-7.6 184.9-30 5.9-1.8 15.2.7 22.6-3.9Zm-16.9 17c-11.8 3-22.2 10.3-34.2 13-46.5 10.7-92.9 27.6-142 20.1l-27.2 4.1c16.2 2.1 31.5 11.4 47.5 14.1 39.7 6.7 88.9-2.2 124.2-21.5 9.9-5.4 24.3-20.8 31.7-29.8" class="st0"/><path d="M678.2 495.2c6.8 7 6.2 57.2 10 71.6 1.6 6 7.6 10.4 7.7 15 .3 7.1-9.6 21.6-10.5 26.3s2.5 6.6.7 12.2c-1.4 4.3-13.9 19.6-18.7 14.5-4.1-11.3 5.8-15.8 7.9-22.2 10.2-31.3-4-49-11.2-79-3.3-13.7-3.9-28.4-8.1-42 5.9 0 18.1-.8 22.2 3.5ZM385 630.9c.8 1.7 6 3.5 4.3 12.4l-8.5.2v5.7c5.8 1.3 18.4 20.8 20.7 26.6 1.8 4.5 4.4 12.3.8 16.4l-10.1-5c-7.5-20.6-23.8-35.9-31.5-56.5-2.7-7.2-9.5-27.6 0-28.6-4.3-9.8-21.8-56.3-6.8-58.7 10.1-1.6 8.3 23.2 10.5 31.9 4.6 17.8 12.7 38.9 20.4 55.6ZM627.3 632c.3-8.6-3.7-20.8 1.5-28.5 16.7-24.6 46.5 35.8-1.5 28.5M512.9 683.2l11.4-1.3 2.8 13.1c-26.2-3.4-23.8 34.6-54.5 31.5l1.2-11.6c15.9-5.8 39.1-16.7 36-37l3 5.4ZM590.1 695c-2.1-7-2.4-15.3 4.6-19.8l29.7 5.5 4.4-11.5c9.5-.8 19 14.3 8.2 17-3.9.9-9.7-3.2-16.1-2.2-7.5 1.2-22.9 8-30.8 11M925.3 480.2c-5-11.1 8.5-18.6 8.6-24.3 0-1-12.7-6.3-8.6-15.8 43.2-5.2 9.1 49.6 0 40.1M810.7 649.2l-13.1 28.6c-8.2 1.6-22.2-20.5-18.5-28.6h31.5ZM804.9 709.4c2.8 12.2-8.2 10.5-13.5 15.2s-7.6 14.8-18 13.4c-3.2-20.5 13-29.9 31.5-28.6M721.8 666.3h-8.6l8.6 10.1-5.7 5.9-17-4.6c1.7-11.4 4.6-29.6 20.1-24.4l2.7 13ZM551.4 760.9c5.8-1.6 9 1.5 10 7.1 1.1 6.6 4.5 38.4-4.3 38.6-8.1-7.3-3.7-20.4-5.1-29.2-.5-3-10.5-13.8-.6-16.6ZM716.1 786.7c4.3 5.9-20.7 24.3-20.1 8.6l-7.1 5.4-7.3-9.7 4.7-7 29.7 2.7ZM755.9 815l-29.4 9.1-4.7-9.9 30.1-10.3zM755.6 655.5c16.5 11.6-23.6 12.4-30.8 7.9-.3-16.6 21.6-14.4 30.8-7.9M658.2 688.7c2.1-3.5.1-10.6.6-15.2 23.1-7.1 7.6 32.6-4.2 30.1-14.2-3 3.1-14 3.6-14.9M842.2 712.2c-.9-4.8-.7-18.6 7.1-17.2 5.8 3.4 4.7 11.1 1.7 15.5-2.5 3.6-6.3.9-8.9 1.7 1.4 7.3 12.7 14.7 8.6 25.8h-11.4v-11.4l-8.5 2.9-1.6-11.4c3.2-6.4 8.9-4.5 13.1-5.8ZM561.4 855.4c1.9-8.4-3.2-8.6-8.4-13l4.2-9.9 18.3 7.4c2.5 9.4-5 17.1-14.1 15.5M796.4 792.4c.8 12.6-10.3 23.5-22.9 20-3.4-17.6 8.2-19.9 22.9-20M852.7 661.7c-3.4-2.9-7.8-4.4-10.5-8.2 6.8-23.2 36.8 16 18.6 15.9-5.5.4-5.6-5.5-8.1-7.7M649.8 806.3l-11 .5c.8-7.8 5.1-28.1 15.6-25.7 11.3 2.5-3.4 19.6-4.6 25.3ZM446.8 663.6c-3.6 26.2-23.8 12.6-20-8.6zM506.1 757.5l-4.9 2c3.7 2.5 8.2 10.2 11.5 11.6 4.4 1.8 15-4.8 17.1 2.8 2.9 10.4-12.1 15-20.1 12.9l-.4-11.1-9.9-3.1c-3.2-3.9 2.1-10.2 1.3-11.3-2.1-3-12.7-2.9-8.2-17.5 7.1 3.2 17.6 3.7 13.5 13.8ZM590.1 669.3c3.8 12-20.8 17.9-22.9 10-3.1-11.5 15-14.8 22.9-10M842.2 743.8c-2.1 28.6-23.6 25.6-14.3-3zM567.1 700.7H547v-14.3c10.9-1.3 21.3 1.3 20 14.3ZM451.8 692.8c14.5 11.3-21.6 19.8-18.9.7.9-6.4 15.8-3.1 18.9-.7M770.7 758l-.1-17.2 13 2.6.1 12z" class="st0"/><path d="m398 600.5-.4 13.9c-5.9 3.5-10.7 2.1-16.8.4 3.3-10.3 4.5-16.5 17.2-14.3M690.3 680.8v9.9c.1 0-17.1 4.3-17.1 4.3-1.3-11 7.1-15.9 17.1-14.2M699.2 821.3c7.1-3 15.6-6.2 16.9 4l-12.8 10.1-4-14ZM865.3 680.8c9.8-8.9 21.8 14.7 6.7 16.9-8.8 1.3-9.8-14-6.7-16.9M658.8 846.8c-4.1.9-18.1 11-20 1.4-1.8-8.9 20.5-16.6 20-1.4M681.7 652.1c2.4 11-8.9 13.2-17.2 14.3v-14.3zM480.4 733c10.3 9.8-16 31.6-10.7-3.6 1.4-1 9 2 10.7 3.6M825 675c1 1.2-13.7 18.1-20 14.3-3.1-13.3 8.9-18.8 20-14.3M582.9 778.1c12.9-3.9 11.6 15.3 2.8 17.1-8.2 1.7-10-14.9-2.8-17.1M804.9 772.4l-11.2-.2c-7.6-24.1 14.7-23 11.2.2M601.3 792.6c3.8 8.7 4.4 13.9-4.1 19.8-9-7.2-9.1-23.2 4.1-19.8M640.8 662.7c-1.8 1.8-9.3 5-10.6 3.7-4.6-27.4 23.5-16.8 10.6-3.7M610.1 832.5h-14.3l.4-11 11.1-2zM417.6 638.2l2.1 11.1-13 2.8v-14.4zM472.6 683.5h-14.3l2.9-17.2c6.5 3.4 12.8 9.2 11.4 17.2M502.7 809.6c4.5-1.3 7.4.9 10 4.3l-7.2 12.8c-6-2.9-10.9-14.8-2.8-17.1M492.6 677.8l-11.4 2.9c-8.8-31 17.5-10.8 11.4-2.9M882.3 637.7l-14.6-4.2.3-10.1c9.1-2 14 6.2 14.3 14.3M888.1 609.1l17.1 7.1-10 6.5zM759.1 786.7c-8.2-19.8 15-17.1 11.4-4.3zM538.5 815.3c-1.7-1.3-4.3-18.9 4.2-17.1 9.8 4.7 1.7 21.7-4.2 17.1M664.6 838.2c-1.9-1.9 0-15.9 7.1-14.3 11 2.5-.6 20.8-7.1 14.3M535.6 821.1c5.9 4.5-3.6 18.1-8.6 14.3-6.6-5.1 1-20 8.6-14.3M830.7 683.6c.8 7.1.2 15.1-8.6 14.3v-14.3zM661.7 122.1l8.6 131.8h-8.6c-2.9-13.8-1.7-28.5-5.4-42.1-1.3-4.9 2.1-8-6.1-6.6 1.8 15.7 1.1 31.4 2.8 47.1.2 2.2 9.6 28.7-1.3 24.4l-6.4-7.9-9.4-121-11.5 4.8c-2.1 18.6 8.3 42.8.8 60.4-1.7 4.1-.7 4.3-6.4 3.5l-8-87.4 6.5-4.3 10 11.4 1.7-6 11.1 3.3 3-5.9 7.2 11.4 1.4-14.4 10.1-2.8ZM679.1 136.2c1.1 1.5 14.2 1.6 14.2 10.2l-4.7 6.7-6.9-.9 13.9 109.6c1.2 3.1-1.3 8.6-3.9 9.2-11.4 2.5-9.3-33.1-10-38.6-5-36.2-12.8-72.2-14.3-108.9 17.3-5.7 11 11.7 11.7 12.6ZM804.2 131.5c7.4 7.2 22.3 53.2 6.5 59.4-2.9-2.2-4.2-41.7-14.3-45.8l-5.6 64.6-8.8 1.2 2.8-78.3c1.2-5.2 15.1-5.4 19.4-1.2ZM707.3 125.3c-.3 42.8 3 85.3 5.2 128 .8 15.6-6.2 14.3-10.9 2.2-6.1-15.5-1.9-47.9-2.6-66.2-.8-20.6-5.5-41.5-2.5-62.5zM598.6 228.1c-8.2 1-10.3-9.9-11.2-16-3.1-21.5 1.8-47.5-3.1-69.9l10.1 2.8zM571.9 131.7c12.4 11.6 3.5 24.3 3.5 37.7 0 14.7 7.6 29.8 3.1 44.4-21.9-21.5-5.3-58.6-14.3-85.9.3-.4 6.5 2.8 7.6 3.8ZM842.2 454.4c13.4-5.9 22.8-.2 10.6 10.7-24.3 21.6-62.8 36.5-97.4 28.8-5-1.1-29.5-14.5-30.6-18.4l7.6-21.1c35.9-10.6 74.3.8 108.3-11.4zm-45.8 5.8c-8 .7-54.4 2.6-54.4 10 8.8 10.8 24 12.8 37.2 12.9.7-.5-6.3-8.6-.3-16s15.3-.6 17.5-6.9M825 463h-25.8v17.1c11.1-1.9 22.4-5.3 25.8-17.1M589.9 454.7c-2.3 7.3 6.2 8 6.2 12.5 0 20.2-24.7 36.4-42.6 38.3-2.6.3-28.7.7-30.7.5-7.2-.7-29.2-9.9-37.5-11.3-9.1-1.6-20.5 3.5-27-4.4 14.6-35 22.7-21.6 50.1-24.3 10.8-1.1 22.9-6.7 34.7-8.3 15.3-2 31.5.6 46.7-2.9Zm-8.4 14-45.8 4.3c8.8 6.2 14 1.7 11.5 15.8l24.4-2.8c.2-10.5 3.6-10.9 10-17.3Zm-63.1 8.7-31.5 5.6c15.6-3.1 20.7 13.2 37.2 8.6 2.2-7.7-3.8-4.2-5.6-8-.9-1.8.4-5.6-.2-6.2ZM936.2 1134.7c-16.2 4.3-35.3 9-50.8 15.5-11.9 5-16.5 7.8-14.5 22.1l-5.9-2-2 11.9c1.3 1.4 38.2-15.5 35.6-3-4.7 7.1-13.1 5.6-19.8 7.9-6.8 2.4-12.3 9.5-19.8 4.9l.3 16.5 3 3c6.4.6 12.9.6 19.2 0 7.5-.6 34.4-8.2 37.7-7.5 16.6 3.2-20.6 13.9-23.1 14.4-7.5 1.5-17.4.1-24.5 2.9-5 2-2 6.9-11.4 6.2-22.7-1.6-39.3-27.4-55.6-38.8l-14.5 8.5-1.2 28.4c-2.6 3.9-8.3 1.4-10-2.1-1.5-3.1 2.4-37.9.6-47.9-1.6-8.6-16.6-19.5-11.4-29.7 7.3-14.1 40.6-13.5 45 9.9 1.4 7.5-2 24.8-1.3 25.9s6.9 4 9.8 7.2c8.3 9.3 14.1 21.4 27.6 24.7-3.2-13.8 1.1-36.9 6-50.3 10.5-28.6 50.2-26 74.5-34.3l6.5 5.5Zm-135 43.1c7-5 2.7-43.4-19.4-28.3-3.5 2.4 2.7 5.7 3.9 9.9 2 6.6 2.7 14 4 20.7 2.8-1.1 9.7-1.2 11.4-2.4ZM620.5 1165.1c-6.9 5.4-18.4 19.6-20.1 28.4-4.5 24.1 4.8 31.7 27.2 22.3 1.1-4.5-.9-3.2-2.5-4.5-6.2-4.9-13.8-3.3-11.3-13.3 16.3 4.4 35.2-4.9 45.5-17.3 2-2.4 2.2-7.2 4.5-9.8 16.5-18.5 48.3-5.8 53.9 17.2 6.9 28.5-60.2 53-64.4 13.9l-17.8 6c8.5 18.1-18.1 26.4-31.6 20.8-16.3-6.9-18.2-22.9-15-38.7 1.6-7.7 15.9-28 21.9-33.5 8.1-7.3 18.7-11.3 28.7-5 3.4 2.6 2.5 12.2-1.1 12.9-4.8.9-5.9-8.7-18 .8Zm81.6 38.1c12-12.5 1.3-32.3-16.1-31.1-19.3 1.4-28.1 37.5-15.4 41.3s26.5-4.9 31.5-10.2M439.8 1138.6l-.3 7.7c-26.1 1.8-57.1 9.3-62.6 39.3s6.5 48.4 31.2 26.3c-7.2-1-16.6-4.8-15.8-13.9 11.7 3.9 40.7-12.3 49.5-7 3.9 2.4 4.1 8.9 1.7 12.6l-25.5 3.2-1.7 2.1c6.3 14.1-14.5 24-26.9 22.7-30.8-3.4-26.3-54.3-12.5-73.9 10.2-14.4 45.8-20.6 63-19.1ZM475.4 1198c-3.7 9.2 5.8 25.5 4.1 32.3-1.2 4.7-8.7 1.9-10.9-2.8-4.7-10.2-10.8-52.7-8.6-63.7 3.4-17 31.6-24.4 36.3-1.5 3.8 18.6-11.6 24.5-10.9 28.5 3.9 4.8 8.6 8.5 12.2 13.7 7.1 10.3 7.2 19.9 18.2 25.3s-.9 13-9.8 7.8c-10-5.8-12.7-36-30.5-39.6Zm9.7-39.5c-5.8-.6-10.8 2.5-13 7.8l3.2 15.9c8.6-5.6 14.9-13.2 9.8-23.7M530.4 1180.7c.9 1.3.3 3.8.4 5.4 5.8-2.3 17.2-7.6 22.9-7.9 3.6-.2 6.6.7 6.7 4.9-5.7 6.7-14.8 8.8-22.2 13-1.1.6-1.3 2.7-2.1 3.2-5.2 3.1-11.9-1.3-9 12.2 13.7 6.9 23.4-1.6 36.2-3.6l2.3 4c-5.1 13.1-27.1 15.4-39.3 9.3-18.1-9-9.1-25.7-7.1-40.7 2.6-1.9 9.4-2.5 11.2.2M592 1150.5c-20.1.7-44.4 4.8-59.3 18.8l4 2-3.1 4.9-14.4-9.1c-.6-3.2 4.2-8.6 6.6-10.6 10.1-8.6 50.9-17.3 62.8-11.4 2.7 1.3 4.1 2.1 3.4 5.4M750.3 1219.7c-20.2-2.8-7.5-35.9-13.6-50.3 3-6.6 13.6-.9 13.6 3.8zM752.2 1138.6c-3.8 4.4-19.6-1.7-15.8-5.9 8.4-3.1 12.8-3.5 15.8 5.9" class="st0"/></svg>