<svg xmlns="http://www.w3.org/2000/svg" id="Calque_1" viewBox="0 0 1300 1300"><defs><style>.st0{fill:#313a94}</style></defs><path d="m666.6 62.4-42.2-8.8c-52.3-1-105.3-.8-145.7 36.4-50.1 46.1-103 128.7-119.6 195.1-8.4 33.6-18.7 111.5-10.4 144.2.5 2.1 2.3 8.3 4.9 8.6l26-157.4 3.6-3.6 10 5c-2.3 14.4-6.4 28.4-8.8 42.8-4.4 25.9-7.1 52.4-11.2 78.2-11.7 74.7-41.7 202.5-1.4 269.7 1 1.6 5.3 5.2 7 6.8-8.4-53.7-14.5-108.5-11.7-162.8 3.9-3 8.8-3.9 13.3-1.5 1.2 21.6-.8 43.4.3 65 2.5 50.7 7.7 108.4 41.2 148.4 8.4 10 18.4 15.7 30.4 20.6-3.9-9.6-10.4-17.7-14.6-27.4-22.9-52.4-32.9-127.4-40.6-184.7-15.9-118.1-1.3-197.1 47.1-304.7 3.5-7.8 4.3-16.5 11-23 5.4-1.1 10-.4 13.2 4.3-2.2 2.1-4.3 4-5.7 6.8-29.5 58.7-54.7 144-58.6 209.6-2.1 35.5 2.3 72.2 7.1 107.3.4 2.7.2 5.5 3.6 6.2-3.4-10.1-.2-18.4 0-27.6 1.9-65.1 4.1-142.6 27.2-203.5 24.1-63.6 64.4-120.2 104.4-174.6 3.9-5.3 26.4-35.3 29.4-36.8 6.4-3.2 7.6.3 10.1 5.4l-.6 2.1c-23.1 27.8-41.5 58.7-62.3 88.1-52.1 73.3-76.3 120.7-86.7 212-6.8 60.1-12.8 129.2-8.5 189.4 2.6 36.6 14.4 68.8 34.5 99.4-4.1-29.4-10.3-58.9-13.4-88.5-12.1-116.7-7.5-195.1 50-298.6 36-64.8 97.9-102.2 154.7-147.5 3.3-2.7 3.5-9.4 10.6-7 2.3.8 2.1 3.4 2.7 4 4.8 5 3.1-3.5 5.4-5.2 2.4-1.7 6.7-.8 9.5-.4 10.2 1.5 36.7 14.8 48.7 19.3 10.1 3.8 21 5.2 31.3 9.8 61.5 27.5 112.2 102.9 140.6 161.6 2.8 5.8 7.9 10.4 7.9 18.1h12.5c.9-28.3-2.4-57-9.5-84.4-10.2-39.7-39.7-99-67.5-129.2-33.9-36.9-105.8-77.2-155.2-86.3-4.9-.9-18.9 1.3-20-5.2-1.3-8.1 15.3-5.9 19.7-5.2 54.5 8.2 134.2 54.4 170.7 95.7 37.3 42.2 85.7 154.2 73.2 210-.7 2.9-2.5 8.8-6.1 8.2v1.7c19.4 9.5 24 36.4 21.3 56.2-.7 4.8-4.7 10.2-4.4 13.7.7 8.2 7.4 22.4 9.4 31.6 11.6 55.2 26.7 131.5 1.3 183.3-3.2 6.4-16.5 27.1-22.7 30.3-7.3 3.7-15.5 2.5-23.3 3.6s-4.3 2.8-6.1 2.9c-3.5.4-4.7-5.1-8.3-4.8-5.2.5-14 8.9-19.1 11.3-12.8 6-28.3 6.9-38.9 11.2-3.3 1.3-8.5 7.4-13.2 10.1-7.9 4.5-17.8 9.8-26.5 12-2.9 19.6 4.4 37.2 7.5 56.2 8.8 10.1 18.6 15.1 30.5 20.9 62 30.3 136.5 50.7 199.2 81.6 20.3 10 34.1 26.4 45 46.2 17 30.9 13.5 61.7 16 95.8-8.7 21.7-28.4 30.9-49.2 38.5-117.5 42.7-277.9 35.4-402.3 31.1-109-3.8-216.7-7.2-325.3-18.1-25.9-2.6-81.9-3.8-104.1-14-21.3-9.8-2.5-14.5-2.2-15.7 1.2-4.4.3-12 2.2-19 17.5-65.5 81.4-123.3 139.2-154.1 52.2-27.8 124.6-48.9 164.4-93.2 5.4-6 11-20.6 17-24.3 3.4-2.1 5.1.1 6.9-.3 3.6-.9 20-26.6 21.7-31.7 1.3-3.8.8-13.4 3.8-14.2s7.7 1.6 8.8 3.5c2.9 4.7-2.4 17.2-4.8 22.1-3.4 7-19.9 26.2-20.9 29.3-3.2 10.9 12.4 28 19.6 35.2 42.6 42.4 145.8 68 202.4 45.4 13.6-5.5 24.7-15.6 26.4-30.9 3.3-29.9-17.7-56.1-14.3-86.7-16.5 1.9-32.7 5.6-49.2 7.1-69.2 6.4-134.3-8.9-190.4-49.3-22.1-15.9-48.5-73.9-61.8-99.2-7.9-15-15.9-30.4-25.1-44.7-.4 10.9 2.1 22.2 2.8 33 2.9 46.9 8.3 92.7 18.7 138.6l17.8 16.1 24.2-12.6c-7-10.6-22-25.9-25.9-37.6-.6-1.7.5-6.7.9-7 6.4-4.6 14.5 16 17.1 19.6 4.7 6.4 11.7 12.7 16.1 19.7 7.2-4.2 25.7-16 33.5-10.8 10 11.1-16.3 14.8-24.2 18.5-9.5 4.5-36.7 23.3-45.5 19.7-3-1.2-4.7-4.7-7.7-5.9-1.1 1.4 11.5 25.3 5.5 29.6-3.4 2.4-6.6.7-8.9-2.1-6.2-7.9-9.1-36.2-15-43.1-1.4-1.6-6-1.8-8.6-4.9-2-2.4-2.1-6.1-3.8-8.7-4.5-6.7-10.6-12.7-12.2-20.9-3.5-.3-1.4 3.5-.9 5.4 2.9 11 8.8 25.9 13.9 36.2 1.6 3.3 14.9 26.6 16.1 27.7 2 1.9 11 1.9 6.5 9.1-4.9 7.9-33.5-7.2-39.7-10.8-19.3-11.4-29.4-22-42.4-40-1.4-1.9-1.6-5.6-2-6-1.1-1-6.4.2-9.2-.6-5.4-1.5-10.3-13.8-13.8-18.4-35-45.9-37.5-85.9-34-143 1.7-27.5 11.2-61.6 10.9-87.7 0-3.4-4-2.8-5.7-6.8-20.2-46.6-5.5-146.5 9.7-194.6 21-66.4 94-181.4 161-207.4 33.7-13.1 98.7-14.5 133.7-6 9.4 2.3 22.4 4.8 19.6 17.1Zm153.2 179.4c-41-44-89.8-60.5-146.4-76.2-1.9-.5-4.2-3.6-4.9-3.1s.5 2.3-1.3 3.6c-20.2 14.4-34.8 29.2-53.6 44.4-36.3 29.5-60.9 42.6-88.7 83-17.6 25.6-34.7 62.5-46.1 91.6-10.2 26-18.1 53.3-19.6 81.4l17.6-2.1c5.8-13 22-27.9 33.4-37.2 46-37.5 88.3-40.4 143.1-21.5 4 1.4 12 6.8 13.9 6.8 3.8 0 11.8-5.2 16.8-6.3 10.4-2.3 23.7-1.9 34.4-2.3.6-9.2 9.4-21.3 15.4-28.4 24-28.8 106.3-49.8 140.1-33.1 2.5 1.3 3.9 5.1 6.8 5.8s6.3-2 9.5.3c2.7-3.7-21.3-35.2-24.7-40.6-14.9-23.7-26-44.9-45.7-66.1m24.8 107.7c-26.9-.4-82 14.5-101.1 33.8-2.6 2.6-15.2 19.6-15.7 22-1.1 4.8 3.3 9.1-1.3 14.8 21.9 32 31.3 78.4 77.1 82.1 43.9 3.6 69-15.3 84.5-54.9 9.5-24.3 15-60 0-83.2-3.2-5-23.1-12.6-29.3-13.6-3.8-.6-10.2-.9-14.2-.9Zm78.9 26.5c-2.2-1.7-8.9-4.4-11.9-5.1 5.6 24.5 14.2 50.8 16.9 75.7 1.6 15.2-2.3 52.6 1.1 63.3.6 2 3.9 2.1 5.1 4.2 14 24.2 16.1 98.7 3.9 125-2.2 4.7-10.5 21.2-12.6 8.8-1.3-7.7 8.1-26.6 9.1-37.4 1.5-16.9-.4-46.9-1.9-64.4-.3-3.8-1.4-10.1-2.3-13.8-.4-1.8-.5-5.4-3-5 1.3 28.1-2.2 59.9-12.9 86.3-10.9 26.8-32.4 50-49.7 72.8 17.1-6.3 34.9-23.9 42.7-40.4 2.2-4.6 3.3-17.4 8.5-18.3 20.6 1.3-5.5 47-2.9 49.8 13.9-2.3 25.3-18.5 30.7-30.9 23-52.3 5.3-135-6.2-189.4-2.2-10.4-7.4-21.4-8.3-32.6l7.1-3.9c.8-14.2-1.4-35.6-13.3-44.7Zm-257.3 49.8c-26.3-18.5-70.9-21.2-101.6-13.8-28.4 6.9-58.8 35.3-77.8 56.5 9 38.1 35.4 82.6 78.6 85.7 26.1 1.8 55.7-.5 73.4-21.3 23.5-27.7 28.9-71.7 27.3-106.9ZM569 691.1c112.2 68 259.8 50.2 327.3-69.2 23.1-40.8 22.8-123.7 19-170.6-1-12.3-4.6-24.4-5.4-36.7L889.7 474c-5.5 6.9-10.3 16.7-16.4 22.9-22.1 22.2-81.7 23.8-106.5 4.5-14.9-11.6-38.6-59.4-48.6-78.4s-1-4.3-1.6-6.4c-2.4-2.1-34.2 1.9-37.9 5-3.4 2.9-.8 25.1-1.1 31.5-1.8 31.9-13.3 83-42.4 100.6-25.6 15.5-74.5 17.4-100.5 2.8-14.8-8.3-34.3-32.4-42.3-47.1-3-5.4-8.8-27.8-11.5-29.7l-23.3-.8c2.6 13.4-6.2 39 0 50.5 1.2 2.1 4 2.2 5.3 4 28.2 39.6 45.5 85.6 72.6 125.9 11.5 17.1 16.7 21.3 33.7 31.6Zm-27.6 86.5-3.7 1.1c-8.7 14.1-23.2 32-36.8 41.5-76.2 53-168 63.9-231.3 142.5-17.7 21.9-41.8 62.5-45.8 90.2-.3 1.9-1.2 3.1 1 4.6 23 2.8 45.9 7.3 69 9.7 47.9 5 96.6 6.2 144.8 9 137.4 7.8 279 18 416.8 10.8 54.1-2.8 169.3-14.5 213.2-44.4 11.8-8 15.2-9.8 15.6-24.6 1.3-47.2-12.3-95.5-57.4-116.9-29.4-14-64.3-26.6-94.6-39.5-33.9-14.4-69.2-27.3-102.7-42.1-5.4-2.4-13.3-8.6-17.1-9.8-4.5-1.5-.8 10.2-1 13.1-3.8 40.9-47.1 47.6-81.1 49.6-61.9 3.5-159.2-29.5-187.4-88.3-1-2.1-1.4-4.3-1.4-6.6Z" class="st0"/><path d="M660.5 69.7c2-.6 4.3-.2 6.1.7 9 4.6 13.4 59.8 2.4 61.6-9.8 1.7-4-23.5-4.2-29.5s-1.7-11.9-2.7-17c-.8-4.2-7.4-14.2-1.7-15.9ZM832.3 567.3c2.8 2.8 6 9.7 3.8 13.3-14.5 11.1-24.9 20.1-42.6 26.2-31 10.7-60.3 10.2-91.5 15.8-23.2 4.2-45.6 12-69.9 11.9l-3.3 7h-6.7c-3.7-10.6-1.5-19.8 1.6-30.1 7.2-1.2 8.2 4.9 9.1 10.5 6.3 5.5 64.8-13.4 76.3-15.4 32.5-5.8 72.2-3.6 100.4-23 2.5-1.7 11.1-7.8 11.9-9.7 1.8-4.1-3.1-7.8 1.7-10.7 2.5-.6 7.4 2.4 9.2 4.2M784.4 624.1c1.3.7 4.7 8 3.1 10.5-.5.7-12.5 8.4-14.1 9.2-17 8.5-44.2 11-63 10.4s-27.3-2.4-29-4.1c-2.4-2.4-3.7-11 .4-11.6 27.9 4.5 60 3.6 86.3-7.3 3.8-1.6 12.3-9.6 16.4-7.2ZM723.6 461.5c8.2 14.5 16.2 36.7 27.1 48.9 5.9 6.5 15.8 10.2 18.5 21 4.5 17.8-21.6 32.2-25.5 21.7-3-8 16.4-12.9 13.9-22.6-.8-3.1-16.1-15.9-19.4-20.5-3.9-5.5-25.6-44.9-21.5-48.7l6.9.3ZM682.7 557.7c10.3-.8 23.6-5.7 32.2 2.7-8.4 7.2-30.8 13.3-32.2-2.7M596.3 373c-6 6.8-43.6 9.3-56.6 14-16.6 6-28.9 21.9-46.6 23.3-10.1-11.5 5.5-13.7 13.2-19.1 15.5-11 44.4-25.8 63.7-29.3 7.8-1.4 37.8-1.8 26.4 11.2ZM825.8 325.3h-29.5c-1.1 0-17 4.4-19.8 5.3-6.7 2-43.7 18.1-46.2 17.7-3.5-.6-6.2-7-4.3-10.1s3.1-1 3.9-2.2c7.1-10.6 8.1-12.4 21.4-16.3 12.5-3.6 57.9-10.7 69.1-6 4 1.7 6.2 7.4 5.4 11.6M863.3 393.1c-4.7-.1-8.5 3.8-13.1 3.6-7.1-.2-15.6-9.1-23.9-10.3-6.2-.9-12.1 1.5-18.3.5-3.8 2.3 1.3 6.9 2.1 10.5 2.3 10.2 2.2 16.6-2.1 26.2 8.3 1.2 19.4-14.4 24.7-5.9s-3.5 11-8.8 13.7c-11.6 6-50 13.8-63.1 13-7.8-.5-9.2-14.9 2.5-11.9l-7.2-16.1c-5.6 3.1-10.8 30.7-15.3 10.8-2-8.8 8.3-26 14.4-32.3 16.1-16.7 49.7-23.9 71.8-19.9 7 1.3 13.4 7.4 18.6 8.5 7.1 1.5 19.1-6.4 17.8 9.6Zm-72.1 5.7c-7.5.6-8 9.3-1.8 10.3 5.4.9 9.1-10.9 1.8-10.3M625.5 454l-31.7-15.7-7.7-.4c2.6 8.4 5.2 13.1 5.4 22.3.2 7.4 1.5 14.8-3.6 20.6 6.4.7 30.7-6.3 34.1-.6 1.4 4.9 4.4 8.7-1.8 10.5-6.5 1.9-15.6 2-23.1 3.8-5.3 1.3-9.8 4.1-14.5 5.2-17.9 4.1-36.5 1.6-54.4 6.3-11.9-12.6 5.3-13.6 14.9-16.2-3.7-9.8-9.4-19.5-9-30.4l-16.8 30.5c-8.2 5-13.9-.4-13.4-8.9 16-3.4 12.7-22.5 23.7-33.5 12.4-12.4 51.7-27.6 68.7-20.7 2.6 1 4.5 4.3 7 5.5 8 4.1 27.3 10.7 22.1 21.7Zm-44.9 1.6-.6-8.9-8.1-1.7 3.5 11.7 5.3-1.2ZM772.5 1153.1 769 1234c-2.8 3.4-8.5.5-10.9-2.1l-27.5-47.1h-2.9l4.4 42.5c-.5 1.8-11.4 3.8-11.7-4.2-.3-7.3.9-15.1 0-23.2-.5-5.1-6.6-31.1-5.7-32.5 5-6.9 23.1 15.1 26.6 18.8l18.2 28.8 1.5-66.6 11.5 4.5ZM597.5 1184.8c-2 2.1 7.9 7.5 9.6 9.2 6.8 6.7 17.1 17.8 20.4 26.7.7 2 3.6 11.7 1.9 12.7-14 3-9.3-4.9-11.3-11.9-3.2-10.7-25.6-33.4-37.2-33.7-3.7 6.9 7.2 40.4-1.6 43.3l-7.1-2.8c.5-19.4-9.9-61.1 9.2-73.3 31.3-20 55.5 19.3 16.2 29.9Zm8.1-17.9c6.1-9.3-5.5-11.5-12.9-7.8-8.7 4.3-10.3 13-12.6 21.4 10.4-1.3 19.5-4.4 25.5-13.5ZM434.6 1194.9l-1.8 2.1-.6 25.9-4.8 3.3c-13.3-7.3-2.6-28-11-37.8l.8-2.2c.6-.9 3.3-.8 3.7-2.4 1-4.1-1.1-27 0-27.9 9.1 2.7 9.6-8.6 17.9-8.3 4.4.2 17.4 7.1 20.7 10.3 13.4 12.9 8.8 49.5 12 66.8-6.4 10-11.5 1.7-11.5-7.3V1195h-25.3Zm23.9-8.7c-1.5-9.7-1.1-23.5-11.2-28.6-13.9-7-18.7 19.2-14.7 28.4 9.1 2.1 16.8 1.5 25.9.2M548 1156.1c1.1 1.7-.2 7.7.3 10.6 3.2 22.6 10.9 37.7-6.5 57.2-8.3 9.2-18.8 13.8-31.1 7.9-4-1.9-17.3-18.9-18.6-23.4-1.4-4.9-5-47.9-3.2-49.6 3.7-.3 8.6-.4 9.8 3.9 1.2 11.1.7 23.5 1.8 34.4 1.9 19.2 14.2 40.4 32.6 19.6 17.6-19.9 4-38 3.7-61.3l3.4-2.4zM918.1 1150c2.6 0 5.3-1.4 8.1 2.1 6.5 8.1-4.8 5.2-8 5.1-9-.2-18 1.5-26.8 0l2.9 26c4.4-.6 23.7-1.7 21.6 6.5-1.1 4.3-17.2-1-21.6 2.4 1.7 4.7.9 21.8 4.3 23.8 5.3 3.2 30.4-2.4 38-2 2.2.2 9.9 6.2 8.3 8.5-8.7 3.7-16.9 1.5-25.1 1.7-8.6.2-23.8 3.6-31.8-1.5-4-2.6-3.2-27.7-3.9-34.1-1-9.4-5-22.9-4.4-31.8s-.4-4.9 2.2-6.5c12 .3 24.2-.4 36.2 0ZM693 1161.6c-13 2.6-26.2 0-39.1.7l3.5 26.9 1.6 1.2c7.1-3.2 11.7.2 16.5 5.2l-18.7 5.2.6 17.3c3.8 5.5 38.3-5.5 38.5 10-3.4-1.5-4.7 2.7-5 2.7-2.7 0-7.9-2.4-11.7-2.7-7.3-.5-26.2.3-31.6-4.3-3.9-3.3-.9-14.1-.9-18.1 0-17-1-33.3-3.8-50 2.1-1.7 4.6-2 7.1-2.4 4.9-.6 29.9.3 34.9 1s8.3 3.1 8 7.1ZM819.5 1169.4c-10.6 9-21 31.2-7 41.5 11.4 8.4 29.9.5 39.1 13 1.4 3.4-5.2 3-7.1 2.8-6.6-.7-22.6-3.8-28.8-6s-14.6-8.9-18.2-15.1c-10.3-17.4 8.4-47.9 27.9-49.8 4.4-.4 30.1.2 26.2 8.8-2.8 6.1-10.9-1.4-15.8-1.4s-12.6 3-16.4 6.2ZM364.4 1219.5c15.6 1.8 33.2-5.9 46.3 4.4-3.2 7.3-10.2 2.6-16.6 2.8-9.8.3-20.8 1.6-30.4 1.6-2 0-7.8-1.4-8.8-2.9l1.7-88.4 9 3.8-1.2 78.8Z" class="st0"/></svg>