<svg xmlns="http://www.w3.org/2000/svg" id="Calque_1" viewBox="0 0 1300 1300"><defs><style>.st0{fill:#313a94}</style></defs><path d="M949.7 383.6c-1.7 18.9-3.1 35.3-1.7 54.3 1.6 22.3 5.9 53.9 10.4 75.7.8 3.9 3.6 7.2 3.3 11.3 29.3-14.2 73.3-21.8 70.7-63-2-31.6-29.1-61.3-62.2-53.5-6.2 1.4-17.2 13.4-20.3 3.2-2.3-7.4 4.2-11 10.5-12.9 48.8-14.8 94.4 41.5 81.5 86.6-6.5 22.5-49.9 41.6-71.2 47.8-2.4.7-4.9.4-7.3.4 10.9 58.6 2.8 118.1-16.5 174-19.3 56.2-43 90.2-86.1 129.3-26 23.6-54.9 42.9-86.3 58.6-2.4 20.9.6 47.8 11.5 66.1 1.2 2 11.2 15.8 12.1 16.3 8.5 5 18.9-8.7 26.1-6.3 3 1 3.8 6.4 6.4 9.1 10.9 11.3 80.3 42.7 97.8 48.7 11.3 3.9 24.1 5.8 35.2 9.6 34.1 11.6 66.2 29.7 103.8 25.2 6.8 20.7-34.3 10.5-45.2 7.6-35.6-9.2-86.7-25.9-120.9-39.4-20.1-7.9-51.9-26.9-72.3-38-5.6-3-6.7-9.4-15.7-5.8l1.7 7.9-2.6 4.1-16.8-8.1c-29.1 6.3-57.1 16.5-86.8 20-59.1 7-160.4 3.4-210.9-30-16.8-11.1.3-12.8 3.1-17.4 5.5-9.2 19.1-55.8 19.2-66.9 0-2-1.2-9.8-1.9-11.6-1.3-3.8-12.5-6.3-6.5-14.9 6.2-3.8 13.4 5.6 15.6 10.7 11.4 26-3.8 49.5-11.3 73.4-2.2 7.1-7.5 18.7-.9 23.3 3.4 2.4 20.6 9 25.5 10.7 53 18.1 140.9 19 195.4 6.9 17.5-3.9 34.2-11.1 51.4-15.8-20.3-21-25.4-52-25.9-80.2-6.1 2.2-12.3 4.9-18.6 6.4-58.5 14.1-97.7 11.6-154.3-8.5-53.3-19-86.2-41-129.7-75.5-21-16.6-35.9-29.7-58.2-44.8-54.9-37.3-95-189.7-76.9-250.4 1-3.5 5.1-3.5 6.7-5.8.9-1.3 8.7-24.1 9.8-27.7 7.7-26.2 12.9-54.7 4.9-81.5-2.8-9.2-11.8-14.5-11.3-24 11.9-2.3 21 17.7 23.7 27.2 7.4 26.6 4.2 52.1-3.9 77.9-9.3 29.7-22 44.3-22.6 78.8-.5 30.6 9.8 72.9 18.4 103 12.2 42.7 36.9 80.2 73.5 105.8 24.8 17.3 44.9 35.4 68.7 53.7 44.7 34.4 126.4 68.5 183.1 68.6 16.9 0 70.3-8.5 84.4-16.5s5.3-6.5 6-6.9c2-1.1 6.3.1 9.9-1.3 35.1-13.9 82.2-55.6 107.9-83.5 47-50.9 76.4-151.8 73.3-221.6-1.8-41.3-31-148.2-16.9-180.6 1.8-4.1 4.8-9.8 10-9.8Z" class="st0"/><path d="M941 200.9c27.3 21.8 43.8 77.3 41.4 111.2-1.5 21.2-12.1 42.8-25.9 58.5l12 5.1c-5.6 6.4-15 2.9-21.2 4.7s-9.4 12.2-16.7 7.4l6.9-7.7c-31.9-1-34.7-20.1-41.3-45.8-2.7-10.7-5.2-36.2-11.1-43.2-17.9-21.2-30.8-18.6-54.2-25.9-6.9-2.2-14.4-7-22-9-20.9-5.7-38-1.9-58.5-3.6s-21.8-5-32.7-5.2-25.2 6.1-38 7c-30.8 2.1-74.4-21.6-92.2-46.5 4.3 21.5 6.9 42.5 20.7 60.3-3 .2-6.3-.6-8.6-2.6-7.9-6.9-8.3-18.9-12.4-25.5-2.1-3.4-5.9-2.5-8.2-5.6-4.2-5.7-1.5-18.7-8.7-23.1 5.7 15.9 2.8 28.5-4 43.5-12.8 28.2-67 72.2-95.4 83.9-31.3 12.9-74.9 15.4-99 42.4-6.5 7.3-6.9 17.4-17.2 14.7-2.4-11.8 5.8-19.5 13.8-26.7 28.5-25.8 61.1-25.1 94-38.7 31.7-13.1 83.2-52.7 96-85 3.4-8.7 5.6-16.5 4.7-26-.6-6.4-13.7-32.6.3-27.9 11.7 4 12 15.4 18.9 23.4l-.9-12.2c-2.2-6-22.7-13.9-15.2-22.4 4.5-1.1 11.7 4.2 15.2 7.1 19.4 15.4 29.7 36.2 54.9 46.8 36 15.2 51.8 1.7 84.9 3 13.6.6 28.9 4.3 43 4.9 8 .3 18.1-2.2 27.6-1.3 20.8 1.9 42.9 15.1 63.8 19 2.1-6.5-12.6-10.7-14.6-14.7-.7-5.1 9.4-2.1 11.6-1.3 6.5 2.7 15.4 17.7 20.4 22.7 5.2 5.2 14.2 10.5 18.9 15.6 11.4 12.4 13.7 47.9 18.9 65.6 6.4 22 11.4 21.2 34.2 23.9 16.7-19.6 26.7-40.2 28.7-66.2.1-1.9 1.4-8-1.7-7.7-2.4 7.5-3.6 18-12.1 20.7 0-11.7 4.6-21.4 1.3-33.2-1.9-6.6-8.3-10.7-6.5-18.5 3.8-4.5 20.3 23 15.5 28.4h3.5c-5.4-26.8-14.4-70.9-39.1-86.8s-9.8-3.3-11.1-4.9c-2.7-3.4-.4-8.5 3.6-9.2 4.6 2.7 8 6.1 13.8 6.9Z" class="st0"/><path d="M927.3 194c-60.1-35.4-128.3-47-197.4-53.4-48.8-4.6-70.8 7.4-107.8-31.9-12.5-13.3-38.1-42.3-37.9-60.3 0-1.7 1-9.1 4.4-7.8 5.9 2.3 3.5 10 4.8 14.2 5 16.6 41.3 58.7 57 67.1 22.3 12 44.2 6.6 67.7 8.2 71 4.9 144.3 17.2 207.7 50.9 8.8 4.7 18.3 10.2 22.4 19.8-2.2-.2-4.7.3-6.9 0-3.7-2.9-7.8-8-13.8-6.9ZM619.8 406.6c9.3 8.1 20.6 34.1 17 46.2-1.2 4-5.1 3.7-5.9 6.1s.1 6.7-.5 9.9c-5.6 28.6-15.6 59.5-31.2 84.3-12.7 20.2-33.6 36.2-33.8 63 4.6 1.1 5.1 6.3 8.5 9.6 9.8 9.4 15.1-.3 24.5-4.5 23.8-10.5 50.1 3.3 74.4 7.3 7.6 2.1 21.2-21.2 24.4-8.8 2.1 8-10.4 19-17.9 20.4-6.8 1.3-40.6-8.8-51.5-9.8-9.1-.8-16.9-.2-25.2 3.6s-9.8 10.3-20.7 7.9c-1.6-.4-16.4-8.9-17.5-10.1-1.9-2-10.4-17.5-10.9-20.1-4.9-24 26.1-52.6 37.3-72.3 6.3-11.1 16.5-32.9 20.5-45 5.1-15.3 8.4-32.6 7.4-48.6l6.9-.9c-5.2-17-12.2-30.4-28.9-38.3-17.9-8.5-33.7-7.9-52.5-3.4-33.9 8-65.9 32.4-77.1 66-18.8-2.4-9.7-18.8-3.2-29.1 30.2-48 109.6-73.8 156.1-33.4ZM589.3 14.8c-.2 2.3 1.3 4.6.7 6.9-1.7 6.5-13.2 21-16.5 29.8-5.8 15-9 33.3-15.1 48.7-23.8 59.9-69.1 89-122 121.1-46.9 28.4-89.1 39-120.2 88.4-23.1 36.5-20.9 77.3 1.8 113.4 1.7 2.7 16.9 15.9 7.6 16.6-9.7.8-19.4-19.4-22.8-27.3-31.8-73.5 7.7-136.3 72.7-171 56-29.9 126.5-62.6 160.7-118.6 17-27.8 20-54.7 32.9-82.6 1.2-2.5 16.1-29.7 20.2-25.4M747.6 709.7c1.7.9 3.9 8.2 3.9 10.8 0 2.5-3.8 18.3-4.8 21.3-3.6 11.2-14.4 30.3-26.4 33.1-.8 2.9 2.9 4.6 3.2 6.3s-19.9 30.3-23.1 33.3c-18.9 17.8-50.7 22.6-71.9 6.8-14.2-10.5-17.5-21.2-27.2-33.6-13.9-17.7-36.9-33-51.7-53.4-3.8-5.2-13.8-23 .4-14.6 4.4 2.6 20.2 23.2 26 28.7 7.5 7.1 17.6 16.3 26.9 20.5 37.6 16.5 112.1 11.4 130.2-31.9 2.8-6.7 3.6-33.3 14.3-27.2ZM710 780.1c-16.7 6.9-33.7 3.7-50.9 7l-52.6-4.5c10.8 7.9 19.5 30 34 33.3 12.9 2.9 37.2-1.9 47.9-10s11.7-19.1 21.6-25.8M745.8 418.4c11.5-1 23.3 12.4 26.9 22.4 13.1 37.1-32.9 70.9-61.8 44.5-13.5-12.3-14.2-46.6 2.2-56.4s28.1-10.1 32.7-10.5m5 54.2c7.7-6.6 12.2-18.8 10.2-28.8-3.5-16.9-16-10.1-28.5-8.5l11.1 8.7c12.6 15.7-12.4 47.3-20.2 20.2-1.7-5.9 4-16.8 3.9-23.7-17.2 4-19.6 36.6-.7 39.5 7.5 1.2 18.6-2.5 24.3-7.4ZM405.5 1049.6c-20.6 18.5-48.8 44.6-65.9 66-3.6 4.5-17.7 28.2-19.2 29.1-2.4 1.5-7.9 1.6-9.6-.8-3.7-5.2 5.4-10.1 5.6-10.7 9.4-22.8 37.4-50 56.5-68.7 26.4-25.9 63.6-60.3 95.2-78.9 10.6-6.3 28.1-14.5 23 5.8-5.7 2.9-12.1 3.4-17.9 6.2-21.5 10.3-49.4 35.8-67.7 52.2ZM301.4 592.2c-45.8 12-76.3-12.9-68.5-60.7 7.4-45.2 56.1-91.2 104-73.9 4.3 14.2-12.9 7.3-20.5 7.7-34.2 1.9-63.1 32.3-71.4 64.4-4.2 16-4.8 34.1 7.3 47 14.1 15.1 31.4 5.5 48.4 10.2l.8 5.3Z" class="st0"/><path d="M569.8 427.3c.5.6 6.5 11.7 7 12.9 7.1 19.1 6.4 36.1-12.7 46.6-21.4 11.7-45.5-9.5-49.8-30.6-2-9.8 3.5-21.3 10.9-27.7s19-11.9 20.4-12c4.9-.7 21.4 7.4 24.3 10.9Zm-30.5 11.5c28.3-6.6 27.7 44.7 0 30.1-8.9-4.7-2-22.5 0-30.1-3.3 3.1-8.9 6.4-10.8 10.8-5.4 12.5 8.5 29.5 21.6 26.8 2.4-.5 14.9-10.5 15.6-12.2 6.4-15.4-5.5-43.8-23.7-30.4-2.7 2-2.4 4.7-2.7 5M682.4 400.8l9.9-10.3c26.5-21.8 76.1-27.2 106.7-12.4 7.4 3.6 42.4 24.1 26.4 34-8.7 5.4-12.9-12.3-16.7-14.5-5.1-3-18.6-9.8-24.3-11.9-27.7-10.6-69.3-2-89.6 20l-12.6-5ZM480.7 204.4l-44 68.9c-3.7-.2-4.5-2.3-4-5.6.8-5.6 11.6-19.2 15.2-24.5l-4.3-.9c-12.1 11.5-26.6 23.3-41.6 31.1l-4.7-3.3c-4.9 1.1-18 12.1-21.9 16.2-6.6 6.9-10.9 18.6-20.6 21.6-2.6-2.6 22.6-34.8 26.7-37.9 3.5-2.6 13.9-7.5 17.9-7.8s5.1 2.8 7.1 1.9c5.1-2.2 20.6-19.4 27.7-24.1 7.6-5.1 15.6-6 20.5-8.8 7.1-4.1 12.3-33.3 25.9-26.6ZM546.8 194.5c-8.6 13.5-20.2 29.8-32.3 40.2-3.1 2.7-8.2 6.5-11.4 1.5 9.4-11.5 22-22.7 31-34.5 17.3-22.9 36.2-91.2 41.4-120.7.5-2.8-1.8-6.8 2.6-6 4 4.6 3.2 15.7 2.6 21.5-3 29-19.7 50.1-24.8 73.6-2.9 13.3-1.7 12.8-9.1 24.3ZM497.2 234.7c-5 7.4-37.6 44.7-43.9 46.3-19 4.6-25.8 17.2-39.8 29.4-10.4 9.1-21.5 19.7-32 28.3-2.2 1.8-12.4 10.9-14.6 8.7-1-4.6.4-3.8 2.1-5.7 8.6-9.3 19.5-17.6 28.7-26.4 7.1-6.9 11.4-10 18.3-16.2 7.6-6.8 38.7-38.1 45.1-39.1 1.7-.3 3.9 1.6 5.4.9s20-22.9 22.8-26.4c2.2-2.7 10.6-18 12.9-18.1 6.6-.1-3.7 16.4-5 18.3M288.2 510c-18.2 18.6-19.4 54.4 14.8 47.8l1.1 6.7c-9.7 8.7-23.7 1.8-31-7-7.5-8.9-9.5-22.9-6.7-34 4.1-16.5 28-37.6 45.5-35.7 4.2.4 9.8 2.1 10.3 7.1.9 9.8-8.4 4.2-12.8 4.4-7.4.4-16 5.6-21.1 10.8ZM691 206.1l-3.4 5.1 30.8 5.4 1.9 4.1c-1.2 1.7-2.2 2.4-4.3 2.7-5.2.8-28.9-2.9-35.7-4-2.2-.4-33.8-5.6-27.2-11.6 5.6-.8 10.8 1.5 16.3 1.8 1.9.1 6.5 1.1 6.1-1.8-24.7-5.4-33.6-41.8-44.1-62 2.1-7.2 5.5-6.4 9.3-.7 4.7 6.9 8.5 21.1 13.2 29.9 8.2 15.7 16.4 32.4 37.1 31ZM980.7 495.6c.2-10.4 10.4-11.8 15.1-22 8.7-19.2-2.6-38-24.6-36.7-7.7.5-12.4 6.8-19.1.2 0-12.7 12.9-12.8 22.5-12.1 37 2.7 46.2 53.1 13.5 70.5-3.3 1.7-4.1 1-7.4.2ZM927.2 264.7c-4 3.9-9.6-9.9-12.1-12.9-6.3-7.6-11.7-11.8-21-15.2-13.2-4.7-38.3-3.6-41-20.2 1.9-1.8 38.7 8 43.1 12.1-.3-4.9-4.1-8-5-13s-1.2-7.4 2.4-5.9c5.3 6.1 38.6 50.2 33.6 55.1M628 186.4c.8 1.3 4.2.6 2.7 5.8-4 .8-5.3-1.2-7.8-3.4-18.9-16.3-29.5-56.8-31.4-80.8-.3-3.3-.8-8.3 2.1-10.6 8.2-1.6 10.5 33.4 12 39.7 5 21.9 10.8 31 22.4 49.3M484.8 274c2.6-2.9 7.4-5.9 9.6-8.4 5.9-6.8 9.6-15.5 16.5-21.5l4.2 2.6c-13.3 25.7-33.5 48.6-57.7 64.7l-1.8-5.2c10.9-9.7 19.5-21.3 29.2-32.1ZM916.9 312.9l-7.1-1c-4.1-12.6-6.6-29.5-14.6-40.2-2.1-2.8-9.9-10.3-12.9-12.9s-16.3-8.4-5.8-11.2c3.8-1 14.9 8.1 18 11.1 14.1 13.7 21.1 35.1 22.4 54.3ZM661.7 221.6l-2.9 5.2c-16.9 4.7-60.7-24.2-54-46.6 7.7.2 7.6 9.7 10.6 14.4 8.7 13.6 30.2 25.4 46.3 27M811.7 176.8c1.4 5.2-4.2 3.6-7.7 3.4-11.3-.7-39.8-6.2-51.7-8.7-9.8-2.1-11.8-10.2-.3-10.1 19 .3 42 8.8 59.7 15.4M587.6 175.9c1.4 7.2 10.4 3 8.6 11.2-24.1 5.6-20-44.5-14.2-56.4 1.7-3.5 5.6-5.2 5.6-1.3z" class="st0"/><path d="m765.2 218.1-3.4-4.3c8.4-7.4 17.3 9 24.6 11.6 4.1 1.5 7.6 1.1 11.6 2.2 7.1 6.8-7.3 9-12.6 7.5-5.8-1.7-13.9-14.3-20.2-16.9l-1.7 4.4c-9.6 5.8-47.9-8.6-57.9-14.7-3.7-2.2-7-3.4-6-8.6 15.1 3.6 29.9 9.9 44.8 14.6s15.7 2.3 20.7 4.3ZM837.9 183.4l-.3-6.6c12-2.3 18.6 7.3 27.7 12.8 4.6 2.7 26.6 13.2 25.7 17.4-2.1 2.6-2.1 2.7-5.2 1.9-3.2-.8-17.1-7-20.6-8.8-9.5-5-16.8-13.5-27.3-16.6ZM935.3 225.6c5.3 5.4 13.3 17.9 15.3 25.2 1.4 5.1 5.6 22.5-1.8 22.4-2.3 0-5.5-20.3-6.9-24.1-4.4-11.7-14.9-17.9-23.3-26.8l.9-4.3c5.7-1.3 12 3.6 15.8 7.5ZM765.2 207.8v-5.2c2-2.1 51 5.3 57.9 6.8 2.7.6 5.6-.5 7.6 2.7-21.7 10.5-43.6-2.2-65.5-4.3M537.6 156.1c.5 2.8 1.2 3.2.2 6-1 2.7-25.8 40.2-28.8 43.8s-3.9 5.8-7.6 5.3c-3.7-4.3 20.2-41.1 25-46.6 1.4-1.7 9.2-10.3 11.2-8.6ZM690.5 146.3c3.3 2.8 8.2 11.3 11.7 15 7.7 8.1 16.5 15.8 24.9 23.4 1.9 1.7 4.3 2.5 3.6 5.9-2.7.4-3.2 1.4-6.1.2-2.4-1-27.9-23-30.8-26.2-3.7-4-10.7-12.8-11.4-17.9s6.1-2.1 8.1-.3ZM927.3 288.8l5.5 4c14.4 18.7 10.3 37.6 2.3 58-2.7.5-3.9-2-4.3-4.3-1.3-7.7 4-19.6 3.6-29.3-.5-11.1-7.3-17.9-7-28.4ZM358.3 330.2c-1.1-1.2.5-5.9 1.6-7.8 1.3-2.3 32.3-34.5 36.2-37.9 2.3-2 4.7-3.8 7.8-4.3 2.7.4 2.1 2.5 1.2 4.6-3.8 8.8-15.6 16.6-21.9 22.9s-12.1 13.4-18.3 19.6c-1.5 1.5-4.5 5-6.6 2.8ZM354.8 276.8c1.7 6.7-4.8 5.8-8 9.2-4.9 5.2-9.5 13.4-15.1 18.6l-20.9 44.6c-4.3-3-1.2-3.1-.6-5.7 6-24 14.1-37.9 29.7-56.5 4.5-5.4 3.5-12.5 14.8-10.2ZM547.9 228.5c4.5 3-6.5 22.4-8.9 26.4-2.2 3.6-19.2 28.2-23.8 23.6-1.1-6.1 4.9-8.1 7.6-12.2 7.3-10.9 14.4-23.7 19.1-36zM323.7 376.7c-4.4.7-3.6-.7-3.4-4.3.5-8.8 18.3-51.9 24.1-58.2.8-.9 4.8-3.4 5.2-3-7.6 22.3-21.3 42.1-25.9 65.5M451.3 309.5c1.7 1.8-4.5 7.3-6 8.7-9.2 8.8-31.5 23-43.5 27.2-2.8 1-2.8 3.5-5.7-.6l55.1-35.3ZM363.4 345.7l-18.1 34.4c-4.1-3-1.6-2.8-.5-5.6 3.2-7.6 7.7-18.9 13-24.9 1.7-1.9 1.9-4.8 5.6-3.9M330.3 1210.3c-1.1 1.6 24.6 16.6 20.9 30.7s-26.1 19.8-36.9 19.5c-7.2-.2-29.3-7.9-26.5-17.5 1.6-3 3.5-2.1 6-.9-.3-6.1 1.7-36.3-1.8-39.2s-16.5-.2-7.9-15.3c10.1-17.8 41.5-19.2 53.8-2.4 8.5 11.7 4.5 19.4-7.6 25Zm-21-1.3c.8-.7 3.9-.2 5.6-1.1s14.9-8.2 15.5-8.9c13.1-16.9-30.8-21.3-34.9-4.9 10.8 5.2 7 52.1 9 54.1 5.2-.3 10.7.5 15.8-.1 6.1-.8 25.1-8.5 21.4-16.5-.3-.7-10.3-10-11-10.3-7.3-3.5-14.5 1-19.2-2-3.1-2-4.6-8.2-2.2-10.2ZM1013 1223.4c-8.8 11.3-53.4 14.6-64 5.2-3.6-3.2-3.2-7.6-5.2-11.5l5.8-3.1c1.6-14.1-1.4-27.7-2.9-41.6l-5.8-.2c-9-24.5 30.7-14.3 42.8-8.7 20.5 9.5 46.7 37.6 29.2 59.9Zm-57.1-54.1c2.9 17 6.2 34.4 3.6 51.7 5.3 6.7 52.7 1.5 49.2-18.6s-32.7-33.9-52.8-33ZM865.4 1194.2c-2.2 2.6-4.7 4.4-6.7 6.9 6.5 1 16.2 8.4 21.3 12.9 3.8 3.5 10.4 13 12.8 14.5 4.2 2.7 10.6.4 8.1 8.7-10.4 8.4-19.3-9.1-27-15.7-12.3-10.5-25.8-16.7-42.3-11.1l-4 27.1c-1.4 2.6-5.4.7-6.8-.8-5.8-6.4 2.9-34.8 1.6-45.6s-5.8-3.5-4.8-13.6c.6-5.7 10.7-14.4 16.4-15.5 13.6-2.8 34.8 5.4 36.2 20.8.6 6.9-1.3 7.3-4.8 11.3Zm-7.2-16.9c-4.8-5.5-18.7-5.7-24.7-2s1.7 15.2-.7 22.9c9-5.4 20.7-7.1 27-16.2.3-1.5-.7-3.5-1.7-4.6ZM445.7 1190.5c-6.5-.3-38.6.4-41.9 4.5l-.6 18.3c5.7 2.1 27-3.9 29.7-.1 2.4 15.3-21.8 12.5-31.9 15.1-4.1 16.2 22.9 7.4 31.8 6.2 3.4-.5 7.1.4 10.5 0 3.4-.5 11.6-7.2 14.3 2.7 2.9 10.6-12 8.8-17.2 9.5-9.7 1.5-26.7 5.8-35.4 3.5-12.8-3.4-16.4-14.8-15.3-26.9.5-5.9 4.8-18 4.4-22.8 0-.9-11.8-6.3-4.2-15.7 3.3-2.8 37-5.6 42.8-4.8 5.3.7 14.1 3.7 13 10.5M537.9 1174.3c2.5 2 8.1 11.6 7.8 15.1-1.1 12.2-7.9 11.4-16.4 17.1l28.9 25.7c5.6 21.2-13.3 1.3-19.9-4.4s-2.2-3.8-3.5-4.8c-8.3-6.8-17.6-9.8-28.3-9.6 1 4.5 3.2 29.9-2.3 30.3-1.6-1.2-4.3-2-5.4-3.6-4.1-5.5-1.4-30.4-3.1-39.5-1.1-6.2-6.4-10-3.3-17.2 5.6-13 35-17.4 45.5-9.1m-32.8 26.7c3.2 5.1 25.7-7.1 28.7-11.1 8.1-10.7-20.7-9.8-28-4zM768.2 1202.2c.2.4 1.8.7 2.4 1.6 4 6-1.1 4.4-1.5 6-1.4 5.6 4.3 19.8-1.1 23.4-3.4 2-7.4.8-9.4-2.7l-.2-20.2-33.9 3c-5.2 3.1-10.8 22-11.8 22.7s-7.5-.5-8.6-1.8c-5.4-6 5.2-17.9 6.6-22.4.8-2.6-.7-6.3.5-8.1 1.3-1.9 7.6-1.4 10.9-4.7 4.7-4.8 18.8-34 23.7-35.6 8.4-2.8 16.8 15.5 18.6 21.9 1.6 5.7.8 11.6 3.7 16.8Zm-32.5-1c4.3-.7 18.4 1.7 20.6-1.5-1.3-7.6-.5-16.7-6.2-22.8zM608.1 1224.7l-1.6 12.9c-15 .5-7.5-21.9-7.4-31.1 0-8.4-7.4-26.9 7.3-23.3.9 2.4 1.5 4.6 3.2 6.6 10.1 12.1 22.3 24.6 33.4 35.7 4.7-17.9-2.7-36.9 0-54.6 5.3-1.1 13.8 6.5 13.5 11.4 0 2-2.6 4.1-3.1 7.5-2.1 15.3 6.6 35-3 50.9-20-4.9-28.3-25.2-42.4-37.9v22Z" class="st0"/></svg>