<svg xmlns="http://www.w3.org/2000/svg" id="Calque_1" viewBox="0 0 1300 1300"><defs><style>.st0{fill:#313a94}</style></defs><path d="M442.1 146.6c.6.4 1 3.1 2.5 4.2 3.3 2.3 5 1.2 8.2 5.7 3.4 4.7 12 27.5 14.8 34.6 18.9 47.7 17.8 60.9 53.9 100.2 15 16.3 28.8 35.9 51.3 42.5-3.2-6.1-4-13.5-6.9-19.7-17.7-38.4-49.2-70.6-69.8-110-2.7-5.1-14.9-28.4-15.7-31.7-.8-2.9-1.1-5.7.5-8.4l6.3-3.6c7.2-.6 27.3 35.2 34.2 42.1 6.4 6.4 16.4 10.6 22.8 16.7 8.5 8.2 17 22.5 25.5 31.8 4.8 5.2 13.4 9 17.8 15.8 5.3 8.3 6.2 24.2 16.9 27.6 2 2.7-5 8.2-7.9 6.9-10.2-6.7-11.1-19.8-16.8-28.6-3.3-5.1-29.7-33.7-35.4-39.7-10.7-11.1-26.5-18.7-35.6-31.5-1.5-.3-1.3 1.9-1 2.9 1.1 3.3 18 33.8 20.9 38.4 14.3 22.6 31.7 37.7 44.3 64.3 4.9 10.3 7.7 21.8 10.8 32.8 1.9 2.9 18.6-3.7 18.8 6.8-3.3 4.6-9.1 2.8-13.8 3 2.2 8.1 2 10.7-5 15.8-4.1.9-3.7-5.3-6.3-5.9-9.5-2.4-20.7 5.1-30.1 7.1-35.2 7.3-75.6-1.1-107.8 10.7l-54.3 2.1 43.4 6.9c6.6 2.8 12.3 9.3 11.8 16.8-3.5 0-6.4-1.5-10-1.1-22.6 2.7-30.8 13.6-58.2 11-18.8-1.8-26.1-15.5-40.3-24.9v-6.5l17.6-4.1-35.5-2c-.4 2.8.3 5.3.9 8 1.7 7.6 12.6 38.7 16 45.2 1 1.8 7.1 8.1 8.9 8.9 2.4 1.1 23.5 6.1 27 6.5 6.7.9 40 1.9 44.8.6 2-.6.6-4.1 1.7-5.4 5.5-6.4 15.3-14.1 21.2-21.4 5.1-6.3 10.7-18.1 15.7-23.8 4.3-4.8 8-2.3 11.9-5.9-9-3.5-2.4-9.5 4.9-9 5.7.4 11.2 17.7 14.4 23.2s21.8 35.1 23.7 36.2c8.7 4.7 56.5-11.9 69.7-10.8 17.6-13 14-38.1 20.3-56.8 4.5-13.3 12.6-33.6 18.2-47 3.2-7.7 9.3-13.7 10.7-22.4 33.8-14.1 20.9 39.4 20.1 57.2-.2 5.1 2.2 10.9 1.9 17.6-.5 9.3-5.3 23.1-4.3 31.7s4 1.9 4.2 3.8l-4 2.9 5.9 4.9-7.9-2.9v7.9h6.9c2.8 9.7.5 37.9-10.4 41.1-4.9 1.4-11.9.2-15.5-3.5-5.2-5.2-.3-11.1-4.8-13.9l-2.2 32.4c-10.6 45.8-37.2 91-48.2 135.5-8.8 35.7-.7 128.2 12.8 163 5.1 13.2 14.9 24.2 18 38.3 32.7-6.7 62.2-10.9 95.7-9.8 5.3.2 10.4 2.5 15.8 2.3 6.2-.3 9.5-4.4 13.6-4.2 17 .8 80.7 39.4 94.1 52.3 13.8 13.3 22.6 32.1 37.4 44 5.1 26.4 6.2 53 4.8 79.7-.1 2.6-.8 13.6-3.8 13.5-3.6-2.4-2.8-5.2-3.1-8.8-1.5-19-3.9-48.7-10.8-66.3-3.1-7.9-12.6-10.8.9-18.8-8.1-9-15.1-19.1-23.6-27.8-51.8-53.2-135.6-67.7-206-47.7-2.2.6-8.9 1.7-9.2 4.3 11 22.8 0 12-13.1 11-29.9-2.2-59.3 22.5-85.4 33.1-10.1 4.1-43.2 13.6-53 14.1-24 1.2-46.1-24.3-63.4-37-36.2-26.6-118.9-38.4-161.3-23.6-8.6 3-27.5 16.7-36 19.5s-7.8-.6-12.2 1.2c-9.3 3.9-42.9 38-48.1 46.9-6.7 11.5-20.5 59.2-25.6 63.1-1 .7-3.2-1.3-4.1.2-2.2 3.9-3.9 17.8-4.5 23-.8 6.6 0 31.9-3.3 34.3-2.5 1.8-3.2 1.1-5-.9-2.9-4.6 1.5-69.2 4.8-74l12.1.8c1.6-1.7 10.5-39.1 13-45.3s19.3-32 22.6-34.6c20.5-16.2 57.7-35.2 82.9-41.6 28.5-7.2 62-12.5 90.6-5.1 6.9-14.7 17.8-27.5 23.3-42.9 8.2-22.6 14.1-75.1 14.4-100 0-8-4.7-42-1.4-44.2 1.6-1.1 5.1.7 5.4-1.3-25.3-21.3-35.9-56.7-50.3-86-10.3-21-20.5-32.9-27.2-57.7-3-11.1-7.6-18.3 8.4-19.3 4.5 37.7 27.5 69.7 44.4 102.8 15 29.5 16.9 33 37.9 59.8 9.9 12.6 15.7 27.5 26.9 39.5 38.5 6.3 77.5 18.4 116.7 11.4 2.1-1.4 23.2-39.4 24.2-43.6 1-4-1.4-7.5-1.2-7.8s4.8-.8 6.6-2.3c5.8-4.6 20.1-31.2 23.9-39.3 11-23.5 29.2-71.8 35.7-96.6 4.5-17.4 4.1-37.7 6.8-55.4l11.8 1.9c-3.7-6.7-9.9-30 3-21.7l3 13.8c3.4-.8 4.4-8.7 5-11.7 4.2-20.1 5.2-46.6-1-66.1l9.8-3.1-4-37.5c-3.4-4.1-13 18.2-13.9 20.7-3.9 11.2-3.8 22.8-6.7 32.9-1.2 4.2-5.7 4.4-8.1 9.6-4.2 9.4-4.6 22.3-7.4 32-3.2 11-11.1 20.8-9.5 33.1-13.9.3-27.4 5.5-40.5 7.8-7.3 1.3-17.9.3-25.3 2.5-4 1.2-.8 6.6-5.1 8.5-10.7 4.8-14.1-7.7-23.8-3l3.7-4.9-15.5-18.3-9.9-18.3c-1 7.3-7 18.7-7 25.5 0 3.2 3.6 4.9 2.8 8.5-.5 2.4-5.2 7.2-6.6 11.4-3.2 9.1-3.9 20.4-6.6 28.8-2.1 6.6-7.2 8.4-8.4 3.4-4.6-19.6 17.5-59.7 15.9-81.6l-46 47.9c-27.6 4-53.3-1.4-80.3-5.5-20.8-7.3-31.8-51.9-35.9-71.8-6.8-.3-32-4.6-33.4-11.1l3.2-4.6 3.8 1.3 1-3.6c3.1-.2 1.9 3.7 5.2 5.6 3.9 2.3 11.4 2 15.9 3.7l12.4-5.4-12-.9-3-7.1-33.1 1.9-2.3-1.8c-.8-10.1-10.3-32-14.8-11.9l-3.9-3.9c-5 8-7.1 15.2-7.9 24.7-2.1 26 2.8 52.9 6.3 78.6 3.7 8.6 11.7 4.6 18.4 3.8 2.4-.3 4.2 3.1 6.8-1.5l-3.1-4.9c3.8-4.1 7.3-6.6 12.8-3.8 4.7 8.7-8.5 19.7-8.9 22.5-1.5 10.1 8 30.7-6.6 35.8-4.5 1.6-11-1.3-10 4.8l-8.5-6.3c-1.8-8.9-3.1-18-4.1-27-1.7-15.3-4.5-9.4-6.3-15.8-6.1-22-9.2-67.2-6.5-89.8 1.9-16.3 11.9-35 29.9-36.3l12.4 5.5c1.6-4.5.6-9.4 1.8-14 11.6-42.8 41.4-73.2 65.7-110 2.5-3.8 10.7-11.5 12.4-15.3.5-1 .4-3.4-1-2.9-29.2 14.7-43.1 44-62.2 68.1-2.4 3-4.9 6.8-7.9 2l15.8-27.2c10.6-13.2 20.5-27 33.5-38 5.7-4.9 23.4-20.8 26.7-10.8 8.1-8.3 18-18.9 30.6-17.7 0 11.5 8.9 22.4 11.4 33 3.3 13.7 2.3 27.9 7 42.4 5.4 17 8.7 23.6 11.6 39.5 2.8 15.3 17.8 36.6 29.3 46.9-.6-10.5-4.5-20.2-5.9-30.6-.8-6.1.4-12.5-.6-19.2-3.4-23.9-10.9-36.4-13.1-63.8-1.1-13.6-7.9-20-8-32.6 3.6-3.5 14.7 10.7 16.6 14 10.3 17.4 16.7 40.3 26.5 58.5 6.4 11.9 14.4 22.8 24 32.2-3-10.7-.3-23.5-2.9-33.6-1.9-7.6-10.7-16.7-14.2-25.3-4.3-10.6-4.2-20.3-7.3-30.2-4.8-15.7-12.4-31.5-23-44.2-.9-4.2 6-6.4 9.5-4.4Zm-.8 198.2c-28.8-34.2-31.2-44-43.6-85.8-2.3-7.9-7.6-16.1-9.6-24-3.1-12.2-2.4-25.4-5.8-37.6-1.6-5.6-7.2-20.6-13.7-19.8-1.8.2-21 24.2-23.7 27.9-16.3 22-55.2 72.1-63.3 94.8-3.7 10.5-10.3 29.2-3.1 38.4l-5.9 6.9c9.9.3 27.9-1.1 36.4 4.2 18.7 11.6 59.4 13.2 83.2 11.7 8.5-.5 15.8-3.3 23.7-4 9.1-.8 23.7 1.7 31.3-.3 7.7-2-4.1-10.2-5.9-12.3Zm9.8-78.9-18.5-42.8c-3.3-.6-2.2 4.9-1.8 6.8 1.3 6.4 5.5 13.4 7.2 20.4 4.7 18.8 5.3 37.5 9 56.2 3.3 16.7 12 32.2 13.3 49L563 343.6c-4.9-6.3-15.2-9.7-21-14.6-9-7.4-38.4-37.5-45.1-46.8-3.1-4.3-3.9-10-8-13.7 1.1 12-2.5 30.9 14.8 27.6 2.1 18-19.8 7.9-27.7 1s-22.8-27.8-24.9-31.3Zm-75.7 121.2c-5.5 0-11-.3-16.5.2-2.2.2-10.9.9-11.1 3.7l21.7 9.9zm17.7 1.9c-1.6-1.6-13.3 6.9-13.8 9.8 6.3 1.1 13.3-3 13.8-9.8m29.7 4-21.7-4-2 9.9zm211.3 65.1 4-21.7c-15.6-.8-10.2 26.4-4 21.7m-379.3 2c0-6.7-3-5.5-7.9-3.9l4 25.6c7 .7 5.1-7.3 5.9-11.9l-3.9-1.9 3.9-2-3.5-.3 1.2-3.4-3.5-.3 3.9-2Zm337.9 373.3c-9.4-24.5-25.6-46.7-31.1-72.6-7.3-34.3-10.1-79.1-10.5-114.1 0-6.5 3.6-13.6 2-20.6l-31.9 62.8c-16.3-2.1-32.1 4.9-48.1 5.2-25.5.4-57.8-9.1-82.8-14.9L359.5 632c-3.4 9.4 1.6 15.8 2 24.6 1.9 39.3-5 103.7-23.4 138.7-2 3.7-15.7 19.3-13.3 22.4 19 8 40.2 10.2 58.1 20.9 13.9 8.3 41.2 38.2 54.7 40.1s23.3-1.3 27.3-2c43.6-7.4 81.5-47.5 127.6-43.3Z" class="st0"/><path d="m829.8 574.7 15.7-7.9c1.5 5.6 6 7.8 2 13.8l18.6-7.8c3.3 6.7 6 5.2 12.2 7.7l.9 8 21.5-7.7 2 9.5-17.7 10c12.1 0 21.3-9.9 32.6-13l12.3 10.8c7 2 12.5-6.3 19.2-5.7 5.5.5 11.2 9 14.2 9.6 3.5.7 11.5-6.3 16-7.2 9.2-1.8 7.4 5.5 9.6 5.7 3.2.2 9.2-3.9 14.7 0l-2 7.9c12.6-3.3 49.3-16.2 45.5 5.9 12.1-9 24.7-5.3 38.3-7.8l3 9.6-19.6 8.1c11.6.4 20.9-7 30.6-11.9 3.9 0 5.8 5.3 7.8 5.5 4 .3 13.2-10.2 17.8 2.4l11.6-4.1 4.4 8.2c12-3.5 39-8.4 47.6 2.4 1.2 1.5.7 5.2 2.4 6.5s17.4-4.2 13.2 8.8-6.1 4.1-7.1 7.8c28.7 8.4 12.2 39.1 0 56.3 6.1 1.5 6.9 11.4.7 12.6s-10.6-4.7-13.7-5.4c-18.8-4.1-33.1-2.7-51.2-4.3-37.6-3.4-87.9-11.6-124.4-10-17.1.8-9.7 9.1-16.8 20.3-1.8 2.9-8.3 6.5-10.5 9.9-15.9 25.5-13.3 69.5-17.4 99-3.4 23.8-12.2 45.7-17 67.9-8.3 37.9-9.7 80.8-21.2 119-2.1 7-7.2 24.2-14.5 11.2l20.9-81.9c-1.4-40.7 16.8-77.4 22-116.2 4.4-33.1 1.1-70.4 15.3-101.5 2.1-4.6 12.5-11.3 16.2-19 2.9-6 3.2-18.1 9.6-20l192.9 15.5 11.3-22.7-6-6c3.5-3.7 8.7-1.8 9.3-8-2.7-4.4-7.2-7.9-12.4-8.7-19.8-3.2-49.5-.2-71-2.1-32.8-2.9-60.5-12.3-91.7-18.5-79.6-15.8-161.3-14.1-242-18.5-14.3 5.5-19.7 20.7-26.9 33 48.8 10.7 98 19.9 147.4 27.4 15.7 2.4 31.1-1.3 44.2 11.2-8.5 14.5-22.1 37-25 53.5-10.8 61.1-18.4 126.9-22.3 189.4-1.9 29.4 2.8 58.6-6.9 87.9l-10.9 1.9c13.2-36.8 7.4-74.1 9.9-111.6.8-12.8 4.6-26.8 5.9-39.5 3.3-33.9 4.6-67.5 13.9-100.6L905 768v-4.6c-.1 0 31.4-70.3 31.4-70.3L846.7 681c-28.1-9.6-61.1-10.3-89-17.7-29.1-7.7 2-34.8 12.7-46.3-7.7-2.1-13.2-6.8-6-13.9 8.8-8.7 35.1-19 47.4-27.7 8.2-5.8 13.1-19.9 17.9-.9Zm-35.6 35.5c-2.8-4.4-.8-7.2 0-11.8l-15.8 7.9zm33.6-5.9c-4.8-.8-10.1 2.4-9.8 7.9h13.8c-1.4-3.4-5.6-2-4-7.9m33.6 7.9c-1.9-6.1-7.1-2.1-11.8-1.9v1.9zm146.1 4-27.6 7.9 14.3-.5zm156.1 9.8-19.7 3-29.7 14.7 15.9-.9 33.5-16.9ZM548 90.1c70.4 50.4 83.5 121.1 74.3 203.2-.7 6.2-1.6 21.1-9.9 15.7v-6.7l-5.9 2c-.6-9.4.8-19.3 0-28.6-2.1-24-16-61.7-22.7-85.9-7-25.1-25.3-72.5-45-90.3-1.5-1.4-26.3-14.4-28-14.5-9-.7 6.1 5.5 6.9 4.1l-3.3 8c-18.9-2.5-35.9-13.2-55.1-12.1-10.3.6-57.9 18-62.1 13.9.9-15.4 27.6-15.2 39.9-18.3 6.6-1.7 13.7-7 20.4-7.5 11.2-.8 36.1 11 41.3 9.7 2.3-.6 4.3-6.2 7.2-8.5 7.5-5.9 8 0 13.8 1.9 14.6 5 16.1 5.3 28.4 14Zm33.4 53.5c-2-2.7-2.4-6.8-4.5-10.3-1-1.6-4.7-5.5-3.9 0 12.7 18.6 16.1 41.8 24.7 62.3l16.8 65.2c4.6-37.2-5.1-81.7-26.8-112.3-2.2-3.1-5.3-3.5-6.2-4.7ZM377.3 106.6c-.7 1-7.9.5-9.9 1-25.6 7-88.4 32.5-106 51-12.6 13.3-16.8 31.1-19.6 48.6-.3 2.1-2.6 6.4 1.1 6 13.1-26.9 34.4-57.3 63.8-67.5 9-3.1 22.7-7.1 23.1 6.3-16.1-1.8-27.7 3-40.5 11.9-10.5 7.3-36 40.1-41.3 51.5-2.1 4.4-4.2 20.9-5.1 21.5-5.7 4.2-4.8-9.9-7.9-9.8.7 7.3-4.6 15.8-4 22.5 1 11.2 3.5 27.9 6.1 39.4 2.1 9 15.2 28.4-.2 30.8-2.4-15.1-11.8-31.7-13.7-46.6-3.2-25 5.6-66.6 13-91.3 8-26.8 34.5-44.7 58.5-55.7 4.8-2.2 6.5-1.9 10.3-3.7 14.8-6.7 46.9-24.3 61.5-25.7 6.8-.7 15.2 3 10.6 9.7ZM504.7 589.4c-21.1 19.1-67.1 10.3-94.3 12.5-12.4-9.1-36.6-21.2-31-39.1 28.3 4 57.4 5.4 85.9 2 19.4-2.3 38.7-6.6 53.3-19.7l4.2 6c-10.1 13.2-4.8 26.2-18.1 38.3m3-24.6c-36.2 14.3-74.5 10.8-112.6 12.8 18.2 30.5 55.5 9.6 83.8 12.7 14-3.7 24.2-11.7 28.8-25.5M580.5 382.8c-8.5 8.8-34 25.8-46 26-7.4.2-26.1-7.6-30.7-13.4-2.6-3.3-7-10.3-1.5-12.8 10.4-4.8 47.4-14.7 58.2-14.6 4.6 0 18.7 6.5 20.1 10.5v4.3Zm-15.5-3.6h-9.9l2 7.9c3.2-1.6 8.6-3 7.9-7.9m-21.7 3.9c-1.8-1.3-22.8 4.7-26.7 5.9-2.8.8-3.5-1.2-2.9 4 7.5 2.8 14.1 5.6 22.5 3.7l7.2-13.6Z" class="st0"/><path d="M343.7 159.9c5.1 5.2-15.2 11.8-19.6 15-17.2 12.4-36.3 40.3-45 59.7-4.2 9.3-10.8 20.8-6.5 30.8l-4.9 3.1c-8.9-14.6 4.6-37.5 12.1-51.1 12.8-23.3 35.6-55.5 64-57.5ZM383.9 115.1c-8.8 12-17.2 35.7-18.4 50.7h-7.8c-4.2-4.1 11.5-44.5 15.2-50.8 1.3-2.2 3.2-2.4 4.5-3.9 2.7-3.3 1.4-9.3 8.9-8.6 13.8 1.4-1.6 11.6-2.3 12.6ZM260.8 395c2.3 7.3-3.3 7.1-4.7 12.2-.7 2.7.6 5.6.1 7.1-1 3.2-11.1 8.8-10.4-1.6.7-10 2.7-19.8 15-17.7M470.112 503.2l.983-8.242 11.42 1.362-.984 8.242zM434.3 500l2.3 5.5-11.8 2-.1-7.9zM249.157 311.624l2.997-1.808 4.804 7.963-2.997 1.808zM479.6 1204.9c-4 .4-7.5-.3-9.1-4.2 1.4-23.2 5-51.7-15-68.4-8.5 5-18.3 13.9-17.9 24.5 8.1 1.6 16.1 4.1 24.1 6.2 2.4.6 5.4-.1 5.4 3.9-1.2 5.6-27.5-2-31.1-5.4l-7.4 46.2 1.1 7.2c-3.2 4.6-7 3.3-9.6-1s1.4-28.2 2.1-32.8c1.3-8 5.7-29.8 8.6-36.4 1.2-2.7 3.6-1.2 5.3-2.9 6.2-6.2 12.4-24.3 25.7-13 20.5 17.4 17.8 52.2 17.8 76.2ZM520.1 1144.3c-.4 15.6 12.1 34.2 13.7 47.8.8 6.5-5 5.3-7.9 1.6l-19-53.9c-3.7-14.5 8.9-9.4 15.6-3.2 11 10.2 26.6 49.8 42 49.5 2.4 0 5.9-1.6 6.7-4 1.6-4.5.4-30.1.3-37.1s-4.6-20.1 5.4-17.8c3.5.8.7 7.7.9 10 1.4 16.7 2.7 33.7.7 50.6-29.2 17.8-43.5-26.9-58.3-43.5ZM364.8 1237.3c-4.4-6.9 12.6-47.2 13.8-57.2l-34 3.3c-1 6.6-3 14.2-3.3 20.7-.2 4.7 3.8 23.9-3.1 20.3-12.1-6.3 3.9-37.9-4.6-47.4 1.7-.2 3.8-.7 4.5-2.5 1.4-4.3.6-30.6 1.8-31.7l6.3.7c2.8 2-.9 28.2-1.6 33.5l32.7-2.2 4.6-37.2c4.1-3.2 5.8.3 6.3 4.4 3.6 30.9-10.7 57-16.3 84.6-1.4 6.6 7.8 16-6.9 10.8ZM726.2 1123.1c14.2 12.7 24.4 44.4 24.5 63 0 7.6-7.1 5.8-8.2 2.3-1.2-3.6.2-10.5-.4-15.1-1.2-9.3-5.1-18-6-27.4-4.5 3.5-24.9 7.1-27.9.8-1.5-3.1 2.5-2.2 3.8-2.3 6.6-.4 14.6-1 21 0-4.8-14-21.8-32.1-34.2-14.8l5.9 63.8c-1.6 3.1-4.3 2.4-7.1 1.2-5.8-2.5-8.7-32.3-8.1-39.3 6.2-1.5 2.4 8.1 6.2 9.3l-4.6-45.1c8.4 3.7 13.4-4.2 22.4-3.1s10.4 4.6 12.8 6.7ZM297.4 1140c1.6 1.5 2 5.2 1.9 7.4-8-1.8-10.2-5.7-19.5-4.7-17.1 1.8-55.9 35.1-56.6 52.2-.5 10.8 13.2 20.2 22.6 22.4 14.6 3.4 27.3-5.6 40.4-7.6 2.3-.4 4.4-1 3.8 2.2-20 14.8-58.7 17.8-71.6-7.7-4.2-8.3-3.3-14.6.9-22.5 7.3-13.9 36.5-41.2 51.9-44.5 5.9-1.3 21.8-1.4 26.1 2.8ZM1084.3 1125.7c-7.1 2.1-6.9-2.2-10.8-3.9-12.4-5.6-35.5-.9-45.2 8.1-1.9 12.3 28.2 17.5 35.3 25.8 2.5 3 6 11.6 4.9 15.5-3.6 12.3-49.6 22.5-61.2 22.1-4.5-.1-6.8-5.7-2.8-6.8 10.1 1.2 53.7-9 56.3-18.4 2.9-10.5-21.7-17.9-28.3-22.4-6.1-4.2-16.4-17.6-8.8-23.8 1.2-1 26-7.7 29.1-8.2 10.8-1.5 27.3 0 31.5 12M911.7 1173.9c.5 3-1.2 4.2-3.9 4.6-10.4 1.9-27.3-.7-38.8 0-25.2 1.6-77.7 22.4-73.7-22.4.8-8.5 5.8-18.1 5.2-26.7-.3-4.1-9.5-16.5 2.3-10.8 17.6 8.6-20.2 59.9 16.3 60 15.6 0 36-5.8 52.8-6.4 13.4-.5 26.4 1.5 39.7 1.6ZM639.7 1136.6c2.7 10.6 5.6 21.3 7.6 32 .8 4.4-.4 9 .5 13.5.6 3.2 3.6 5.9 4.3 8.2 1.3 4.3-8 2.2-9.3-.4-3.8-7.2-4.3-29.6-6.6-39.6s-5.2-8.9-2.7-13.6c-6.7-.6-14.3.8-20.9 0-1.5-.2-9.9-2.7-8.6-5.3 2.2-4.8 9.8-.9 13.2-.8 15.9.4 31.5 1.4 47.4 1.6.7 1.4-1.4 4.7-2.3 4.7h-22.5ZM950.6 1159.9v7.8l-6.3-.7-1.5-7.1z" class="st0"/></svg>