<svg xmlns="http://www.w3.org/2000/svg" id="Calque_1" viewBox="0 0 1300 1300"><defs><style>.st0{fill:#313a94}</style></defs><path d="M905.3 161.5c29 25.5 87 85.6 81.8 127.8-.4 3.3-3.7 2.1-3.5 3.2.7 3.4 10.5 14.5 13 18.5 14.6 23.5 31.4 51.4 35 79.2 3.2 24.2-.4 36.9 7.9 61.6 2.7 8 5.6 14.8 9 22.5 5.1 11.6 43.4 78.2 36.2 85.5-3-.1-6.9 1-9.1-1.7-3.1-3.6-7.4-23.4-10.9-30.4-1.7-3.5-5-8.6-8.1-10.9 1.1 10.6 3 23.4 1.7 34-.7 5.4-5.5 10.7-4.7 14.4.5 2.5 10.6 15.4 13 18.6 7.8 10 41.7 50 50.4 55.5s6.8 1.1 9.1 4.1c-5.3 5.8-8.3 9.2-15.7 4.1-7.2-4.9-25.5-24.8-32.2-32.3-10.7-11.8-21.1-26.1-30.7-38.9l15.8 68.6c6.8 28.1 29.2 63.8 50.3 83.7s10.2 3.7 9.2 9c-7.7 7.3-11.4-1-16.6-4.9-22.2-16.6-36-42.9-52.1-65.3-4-5.6-9.3-11.5-13.9-16.7l14.8 60.5-6.3 7.9c.7 7.1 8.3 11 10.5 14.4 6.3 9.6 9.3 22.8 20.8 27.3-2.4 11.8-14.7 8-19.1-.9l-.8 2.4c11.2 15.9 22.1 31.9 33.4 47.7 2.9 4.1 14.3 16.7 15.4 19.3 2.6 5.9-6.8 6.4-10.8 2.5-25.2-31.2-50.8-63.3-69.6-98.4-3-.4-1.5 3.6-.9 5 4.5 10.8 19.6 23.2 14.1 36.3-2.1 1.5-6.2-3.6-7.3-5.1-9.3-12.3-13-32.1-26.5-41.3l-53.8-110.8c-1.2 10.7 1.3 20.1 3.5 30.4 8.8 41.7 35.7 132.8 61.4 165.4 2.4 3 17.6 12.8 8.6 15.7-6.2 2-7.6-3.5-12.2-2.3l69.1 72.8c-4.2 10-10.1 5.3-16.5.7-9-6.5-28.7-27.8-37.2-36.8-4-4.4-18.4-24.3-21.3-25.9-.6-.3-2.7-.4-2.5.8l3.2 8.1-6.5 2.6-19.1-36.4c-2.1 1.1-.1 4.6.5 6.2 3.3 8.8 7.5 18.2 11.3 26.8 8.4 18.7 18.2 39.6 30.3 55.9 1.2 4.2-3.2 6.5-7 6.9-1.9-.4-7.6-7-9.1-9.1-24.8-34.3-38.7-94.1-57.9-132.4-2.7-5.4-22-32.2-20-35l4.8-2.7c-2.8-4.9-5.4-10.8-7.1-16.1-3.3-10.6-11.5-34.6-12.4-44-1.3-12.8 6.7-14.5 17.8-13.6 1.7 5.1-5.4 3.5-6.4 5.2l13.1 52.7 7.1-16 7.8-.5c-3.8-28.9-18-57-13.1-86.8s4.1-6.6 4.2-8.4c.5-4.5-13.1-25.6-1.8-27.4 5.4-.9 13.8 6.6 15.7 11.7-2.8 2.1-11.2-4.1-9.9.8 1.6 6.1 3.3 16.2 11.6 14.1.6 3.5-3.3 5.4-3 8.8.2 2 13.8 32.8 15.9 37 10.6 21.4 21.9 28.7 35 46.1 10.2 13.5 19.9 28.1 29.9 41.3 4 5.3 7.6 12.5 11.8 18 1.2 1.5 3.4 5.2 3 .3-3.9-5.7-6.7-12.1-10.2-18-32.4-54.5-44-111.5-67.9-168.7-2.9-7-14.6-19.1-12.8-24.9s3.5-.2 3-3.2c-2-14.4-16.6-33.4-15.2-49.6l-4.5-12.8c-2.1 66.4-14.6 130.4-38.5 192.4-7.5 19.4-16.9 43.6-28.8 60.4-2 2.9-5.5 3.6-7.2 6.2-19.7 28.9-37 59.8-61.2 85.2 4.8 1.1 9 6.3 12.4 9.9 38.5 41.8 73.4 80.9 115 120 3.2 3 33.8 34.9 36.4 32.3l-18.9-24.9c-24-18.6-46.6-36.2-67.1-58.7s-10.1-15.4-15.7-20.7c-4.3-4.1-22.9-12-5.8-17.3 2.3-.7 7.9 2.4 5.7-.8-7.8-8-17.2-4.7-25.4-9 3.1-12.6 18-10.3 26.7-3.9l12.7 9.6c-7.8-12-16.4-24.2-26.3-34.2l1.9-6.7 7.8-1.3c6.5 6.8 11 15.9 16.6 23.3 2 2.7 5.2 4.7 7.3 7.5 13.1 17.9 21.3 40.1 44 47.9l-38.4-73.3-19.3-23.8c-.3-3 4-4.3 4.4-6.5.9-4.5-7.3-12.6-3.2-18.1 6-7.9 11.9.6 13.4-.7.9-12.4 8.5-7 16.6-5-3-10.2-7-20-10.4-30.1-1.8-5.2-8.9-9 .9-13.3s7.4 3.8 8.5 8.6c6.5 26.9 30.2 74.9 42.8 101.3 6.3 13.2 16.7 37.2 24.6 48.2 19.7 27.3 57.6 53.5 80 80.5 6.6 8 27.4 31.9 4.4 29.6-14.5-26.7-38.6-45.8-59-67.6-2.6 1.5.6 3.7 1.5 5.1 1.9 2.8 9.1 13.8 10.8 15.2 2.5 2.2 7.1.3 8.3 3.8 1.9 5.2-4.7 11.9-10.3 10.4-4.1-1.1-20.9-27.2-24-32.4-17.8-28.8-25.1-45.5-52.5-68.4-1.9-1.6-2.7-4-5.8-3.3 5.9 8.4 8.4 18.4 13 27.5 4.4 8.7 14.3 27.8 20.1 34.5 5.6 6.5 36.6 27 37.9 31.7 3.3 12.3-16.2.3-18.8-4.4-.9 4.4 6.7 10.2 9.8 15 4.5 7 7.3 16.2 12.6 22.1 6.7 7.5 17.3 6.1 7.1 17.5-6.4 1.3-13.1-7.3-13.7-6.7l-3.3 8.3c6 0 12.7 3.2 18.7 1.4 5.5-1.7 4.1-13.2 12.7-11.3-3.1 37.2-44.2 17.8-64.6 7.5-13.5-6.8-31.3-16.3-40.1-28.5l-21-15.4c7.6 12 14.6 24.4 22.5 36.2 8.5 12.8 24.1 36.9 36.2 44.9 2.7 1.8 17.5 9.5 19.9 9.9 4.4.7 1.5-1.2 1.5-2.7 0-3.5-.7-7-.7-10.5 4.4-4.6 17.9 16.1 7.3 23s-15.4-.9-22.2-3.1l11.5 17.4c-4.2 5.9-12.1-3.3-14.9-6.6-12.6-14.8-13.5-22.9-31.1-35.6-2.4-1.7-14.2-10.4-15.3-10.7-2.5-.7-7.8 3.9-12.4 4.2-15.4 1.1-47-18.7-59.5-28.3-23.3-17.8-57.4-66.6-67.8-94.3-3.3-8.9-13.4-27.8 3.2-28.1 5.2-.1.3 7.9 5 10 2.7 1.3 1.9-6.5 10.7-2.4 2.8 1.3 22.8 27.3 27.3 32.3 22.5 24.3 57.1 62.6 81.1 82.7 1.8 1.5 18.2 14.1 19 13.2l-23-31.2c-17.5-29.5-48.1-70.9-76.4-90.4-3.7-2.6-10.2-1.8-9.9-8.1s4.7-4.5 5.8-4.5c9.7-.4 21.2 12.6 28.4 18.9 12.2 10.6 23.7 23.5 36.9 35 6.4 5.6 16.1 13.3 23.1 18.2 1.4.9 3.3 4.4 5 1.7l-84.4-87.7c-5.4-7.7-11-15.5-18.4-21.5-2.7-2.2-6.1-1.5-7.4-5.9-12.4 10.6-24 21.7-36.7 32.1-15.5 12.7-31.3 24.2-49.1 34.5-14.5 8.4-29.8 15.7-45 22.8 3.1 33.5 18.5 66.5 11.2 100.7-1.1 5.3-7.1 20.2-8.8 7.7-.6-4.2 2-16.1 1.7-23.1-.9-27-10.4-52.7-16.6-78.6-42.8 12-92.9 13.7-134-5-4.5 22-9.7 44.5-18.2 65.4-4.3 10.6-15.5 36.1-21.2 45-1.4 2.2-2 4.5-5.3 3.8 2.8-21.7 15.7-40.6 22.4-61.2 2.3-7.1 14.5-54.5 12.2-57.7-42.2-20.4-88.5-40.1-112.4-82.9-2.1-.5-2 1.7-2.4 3.3-7.4 24.4-3 51.7-4.1 76.9l3.3 19 4.1-31.5c1.7-2.5 8.1-2.3 10.1 0 4.6 5.6-11.8 61.3-12.5 73.6-.3 5.8.7 26.8 3.3 31.2 1.2 2 6.9 1.9 8.3 5.3-2.7 3.8-7.6 2.9-11.2 1.3-4.7-2.2-4.7-8.2-8.6-10.3-1.4 8.5-16.3 48.8-21.5 52.2-7.2 4.6-3.5-9.9-2.9-12.8 5.1-21.6 18.5-43.8 21-66.7 1.8-16.6-2.3-34.7-3.4-51.2-.3-4 1-23.3 0-24-3.4-2.5-3.2 2.2-3.7 3.6-12.9 32.9-17.7 66.4-21.1 101.5-.4 4.5 2.6 34.1-8.4 21.6-7.9-9 .1-34.2-.7-45.6-9.1 15.4-37.1 51.6-55.1 54.3-5.5.8-13.9-.8-10-7.6s15.1-8 18.2-10.3c13.4-9.9 30.8-30.6 36.8-46.3 5-13 1.5-7.6-3.6-12-3-2.5-2.7-35.8-2.1-42.6l-19.9 86c-4 .4-5-2.3-5-5.7 0-7.6 6.7-27.7 5.2-33-.5-1.6-3.6-.9-4.9-1.9-5.2-3.9-.6-11.6-1.8-17.3-2.9-.7-3.3 1.2-5 2.5-19.5 15-37.6 40.7-64.5 44.8-21.5 3.3-18.1-11.9-5.8-22.5l-.8 11.6c4.5 4.3 54.7-34.4 60.4-39.7s14.6-14.8 15.4-17.7c1.1-3.5.4-40.7-.3-46.7-.3-2.9.4-4.7-2.7-1.7-13.1 25.5-38.3 51.7-66.3 60.3-5.7 1.8-28.2 6.7-28.1-3.2 0-6 6.6-2.9 9.7-3.6 16.2-3.7 40.2-17.4 51.7-29.4 7.2-7.5 13.4-35.7 16-46.9 7.3-31.7 11-64.2 15.4-96.3-16.8 22-33.3 44.2-52.7 63.9L230 896.6c-3.8 5-7.7 6.1-8.1-1.3s7.6-22.1 9.6-28.6c3.8-12.1 7.1-24.5 10.4-36.8l-46.8 36.8c-3.1 2.3-12.2 1.9-11.2-2.8l63.6-53.9c5.7-27.1 18.9-57.4 23.4-84.2.7-3.9 1.1-7.7.7-11.7-6.1 4.7-11 10.5-17.4 14.9s-22.2 10.5-29.8 18.2c-5.7 5.8-6.6 16.1-13.2 21.5-3.6-2.5-4.6-5.6-4.2-9.9l-27.6 12.9c-2.6.4-6.8-4.3-5.5-6.3 13.2-8.1 30.9-16.5 42.9-25.8 3.4-2.6 4.1-6.9 8.3-7.4-.7-3.8-12.1-.4-13.2-1.6v-4.8c.1 0 22.7-8.8 22.7-8.8 20.3-50.6 52.6-100.8 60.5-155.5.3-2.2 3.1-3.3-1.3-2.9-4.2 4.7-6.5 11.4-10.1 16.4-12.7 17.8-28.4 35.9-40.1 54.2-3.6 5.6-8.6 12.1-8.7 18.6h-6.5c-.1-1.2 0-2.5.1-3.9 3.2-29 62.7-86.4 74.4-120.9L321 414.5c-2.5.4-3.2 3-4.1 5-14.9 31.2-25 67.3-39.4 99.6-17.1 38.4-51.8 95.5-61.8 133.7-1.1 4.2 2.4 11.9-4 12.5-8.1-3.3-.4-25.4 1.6-31.5 12.5-37.6 38-82 54.9-118.8 3.5-7.6 7.3-16.3 9.6-24.3-5.2 4.4-7.4 12.6-10.8 18.1-13.4 21.5-58.5 74.8-56.6 98.1.9 11.2 10.6 2.8 7.9 10.4-1.8 5-12.8-2-14.9-4.9-7.9-10.9 3.5-33.3 9.4-43.7 12.3-21.6 29.4-40.7 42.7-61.6 14.8-23.3 27.2-53.7 38.1-79.4 3.7-8.8 9.5-30.4 13.4-36.3 6.2-9.3 11.7-1.3 12.3-1.7 9.4-19.5 9.1-41.8 11.6-62.9l-8.9 15.1c-29.4 67.9-65.1 132.7-104.4 195.2-1.6 2.6-4.9 12-6.2 12.8-4.3 2.5-7.9-.4-7.5-5.2.7-7.7 27.7-45.1 33.5-55.6 4.3-7.7 7.2-17.1 11.5-24.9 15.3-28.2 32.4-56 43.9-86-12.3 14.5-23.3 30.2-35.5 44.7-13.4 15.9-29.3 31-42.2 47.2-4.4 5.5-19.6 24.9-18.4 31.1.4 2.1 6.4 1.8 5.1 6.1l-8.2.9c-1.3-1.2-3.5-2.7-4.2-4.2-5.9-13 20-42.5 29-52.1.4-.8-10.8-1.9-5.1-15 13.6-16.7 30.5-30.3 44.9-46.2 18.9-20.7 38-48.2 54.3-71.5 23.7-33.9 47.2-69 64.8-106.4-10.8 11.6-17.9 26.9-25.2 40.9-5 3.4-6.7 1.2-5.9-5 1-7.5 8.1-20 12.9-26-14.7 4.7-25.5 20.3-34.8 32.2-1.8 2.3-1.5 5.8-3.2 8.3-6.4 9.4-29.7 26.8-31.4 38.1-.8 5-1.7 36-3.4 37.1l-5-.7-1.3-2c-2.3-1.6 5.1-29-.2-25.4-4.9 12-18.6 20.2-18.1 34-2.8 3.5-5.9.7-6.5 1.1-.5.3-2.9 6.3-5.2 7.2l4.9 4.9c-2.7 7.1-10 3.7-12.4 5.7-3.9 3.4-26.4 38.3-29.9 44.7-5.5 10.2-10.3 20.1-9.2 32.1.6 1.9 9 .6 6.7 7.6-23.4 2.1-16.4-22.7-9.9-36.4-19.8.3-7.8-24.9-3.1-35.4 7.5-16.8 24.6-36.9 30.4-52.3 3.5-9.2 3.8-22.6 6.6-33.1 6.3-23.2 25.2-51.3 40.5-69.9 9.2-11.2 25.6-23.8 32.9-35.5 19.8-31.9 23.2-63 53.2-94 21.1-21.8 33.2-21.1 60-27.7 12.5-3 16.5-9.7 33.3-7.8 18.6 2.1 11.2 9.6 17.4 20.2s7.3 7.3 7.8 7.5c3.6 1.3 9.9-.3 14.4.5 6.8 1.1 13.3 3.3 20 4.8 4.1-18.6 29.4-27.6 46.5-26.6 9.8.6 16.2 4.7 28.1 3.4 5.8-.6 9.5-3.9 13.6-4.6 20.1-3.4 40.6.5 60.6 3.1 8.6-24 49.4-11 67.7-4.7 61.9 21.2 125.5 59.7 174.5 102.8ZM763.5 83.1c-29.1-9.5-59.8-26.3-91-19.9l20.2 5.4c22.7 1.8 44.2 9.1 65.8 15.4 1.6.5 5.5 2.1 5.1-.9ZM657.6 71.5l-39.7-1.7 26.9 3.7c5.4 3.1 9.6 4.9 12.8-2m-77.8 1.7c-7.6 1.4-15.1-1.8-22.3-1.8-10.2 0-41.2 5.5-29 20h-6.6c8.7 35.5 14.7 71.8 35.7 102.5 3.3 4.8 10.6 8.2 10.6 15-20.4-5.1-30.6-36.3-36.9-55-2.9-8.6-10.3-45.1-12.6-48.3-1.3-1.8-5.8-.5-8.4-1.8-2-1-3.5-3.6-6.7-4.9-6.7-3-15.9-3.5-23.2-4.1 1.2 3.5 8.5 1.5 11.2 3.7 1.2 1 2.5 6.2 4 8.5 1.9 3.1 6.7 1.6 4.4 8.1-.9 2.5-6 7.5-8.8 7.9-3.2.5-1.4-3.1-4.8-3.5-6.5-.8-12.8 1.5-19.2 1.8 5.8 9.1 3.9 15.9-1 24.6-2.3 4-10.6 14.8-15.6 10.9 2.1-10.1 17.6-18.3 5.5-28.7-5.2-1.8-12.5 1.1-15.5 5.5-1.5 2.1-1.4 5.6-1.6 5.8-.5.5-5.1-2.4-8.7-.1-10.6 11.3-16.3 25.9-22.7 39.8 9.5-5.8 23.5-18.3 34.7-10.8-4.9 8.1-13.6 8.3-20.4 12.7-3.9 2.5-23 16.9-24.9 19.5-.8 1.1-1.1 7.6-3 10.4-6.6 10-9.6 15.2-15.6 25.8-7.7 13.7-15.8 27.2-23.8 40.8l10.8-4.1c21.9-24.7 42.5-73.5 66.8-93.7 2.2-1.9 3.6-2.9 6.7-2.4 0 3.3.6 6.7-.8 9.9s-16.5 18.6-20.6 24.4c-13.8 19.3-33 44.5-44.7 64.2s-7.4 61.6-7 84.2-1.7 7.3-1.4 7.5c3.3 2.4 2.8-1.2 3.5-2.4 9.3-15.7 20.3-20.6 28-31.5 2.3-3.3 2.8-7.9 5.2-11.3 23.6-34.2 93.3-39.3 131.1-34 45.6 6.4 84.5 40.6 82.1 89.2l35.4-1.5c5.5-8 1.9-16.4 2.9-25.6 1.9-17.8 12.2-38.9 25.7-50.3 26.5-22.4 62.1-33.6 96.6-33.4l-32.2-23.2C691 209.6 641 177.2 596.1 133.6c-3.1-3.1-23.2-24.2-24-25.8-1.4-3.1 1-16.3 3.3-16.4 24.4 8 40.3 27.7 59.6 42.9 11.4 9 19.4 15.1 32.3 19 9.2 2.8 15.8 15.7 24.3 22.1 8.3 6.3 23.2 15.1 32.6 20.4 11.8 6.7 24.6 11.9 36.7 17.9 3.5-2.7-.2-2.7-1.3-3.8-21.7-19.7-91.1-93.6-112-99.7-7.4-2.1-17-2.2-24.9-5.8.2-1.1 4.2-4.8 4.5-4.9 1.4-.3 19.3-.2 21 0 27.1 4 81.5 67.5 102.7 87.7 11.1 10.6 31.7 31.6 43.1 39.6 6 4.2 13.5 7.4 19 .8L709.8 126.4 664.7 88 592 75.2l-11.5 12.6c-5-3.9-1.6-10-.8-14.8Zm-119.2 9.9c-7.9-8.5-25.8-12-36.9-9.6-8.8 2-21.4 17.8-27.7 24.5 8.8-4 16.8-10 26.4-12.5 11.1-2.8 27.1-4.4 38.1-2.4Zm326.1 23.2c-16.8-4.2-32.1-13-48.8-18.3-22.7-7.2-46.6-11.6-70.4-13.2.6 2.1 6.5 5.3 8.2 5.8 12.5 4.2 28.5 6 41.1 10.2 8.1 2.6 30.1 14.2 35.1 14.8 3.9.5 4.8-2.4 7.4-2.6 3.4-.2 16.5 3.8 22.1 4.3s5.6 2 5.3-1.2ZM401 76.5c-38.1 12.4-59.9 54.5-74.5 89.3zm64.6 18.2c-10.8-3-22.3-2.1-33.1 0l3.2 8.2c-12.8 3.7-24 9.9-35.2 16.9-35.9 22.4-66.9 50.4-87.9 87.5-5 8.9-7 18.1-9.2 28 16.7-18.3 31.7-38.5 48.8-56.3 25.5-26.5 70.1-68.3 103.9-81.4 3.3-1.3 8.7-.2 9.5-2.9m323.8 33.7c2.9 2.8 14.6 15.5 13.8 18.4l-3.9 2.3c-2.8-.2-17.8-14.7-22-17.7-23.3-16.9-48.7-27.4-76.6-34.3-1.8-.4-5.6-1.9-6.7 0l33.9 32.3-.8-11.6c32.7 6.9 49.9 37.3 73.6 56.3 2.7 2.1 6.3 1.9 8.7 3.8 5.6 4.4 27.5 39.4 36 49.2 19 21.9 58.1 62.9 80.3 80.3 2.4 1.9 4.9 4.5 8.3 4.1-2.2-6.6-12.7-24.7-9.9-30.2.8-1.4 3.4-1.3 3.2-2.1-.8-4.2-12.4-17.6-15.5-22.6-7.5-11.9-13.7-24-22.5-35.4-2.2-2.8-19.3-23.4-20.7-24-3.8-1.6-3.5 11.3-10.7 8.3 4.1-13.9 5.5-14-3.4-25.1-4.8-6-33.9-36.7-38.7-39.5s-12.9-1.7-13.9-3.5.5-5.4-1-8c-.6-1.1-15-8.5-17.3-9.2s-5.5-2-5.1.9c3.5 1.1 8.4 4.7 11 7.2Zm-374-29.7-9.9 4.9 1.2 2.4 9.9-4.9zm58.4 7.6c-20 .6-40.3 11.3-53 26.4l20.4-13.5zm433.7 86c-.5-7.5-7.3-18-13.4-22.2-10.5-7.3-11.6-9.3-19.7-20l-48-32.2zm-278.7-50.6c-5.5-4.1-11.3-8-16.7-12.2-3.3 3.4 1.8 3.5 4.2 5.7 21.9 20.1 46.1 43.4 70.6 60.2 1.7 1.2 9 6.5 10.5 5.2-8.8-17.6-23.8-23.2-38-34-10.4-8-20.1-17-30.6-24.9m146.9 25.2c-8.8-8.9-16.2-20.1-27.2-26.6-2.6-1.6-10.9-7.3-13.1-2.7l92.7 87.7c-4.6-11.8-15.8-18.9-24-28.1s-17.8-19.7-28.4-30.4Zm-412.7 42 7.3-3.5 29.1-42.9c-8.4 6.1-16.9 12.2-24.8 19-11 9.4-31.7 27.1-40.3 37.4-.7.8-3 4.4-2.7 4.8 13.5-2.6 17.5-16 29-21.5l2.5 6.6Zm513.8-27.2c-2.3-2.4-3.6-5.7-6.5-7.6l-1.6 4.9 37.2 44.7.9-8.2c-10.7-10.7-19.6-23-30-33.9Zm48.9 14-3.3.8c15 31.2 32.9 61.2 56.2 86.9-7-29-25.7-58.8-46.2-80.4-2.5-2.7-6.8-3.5-6.7-7.3M753 221.1l-42.4-19.7c14.2 16.4 30.3 27.8 51.3 34 .7 4.2-3.3 5-6.6 5-2.7 2.5 34 24.8 37.5 26.2 9.8 4.2 20.4 4.8 30.2 9.5 31.5 15 55 46.2 59.8 80.9 1.3 9.4 1.6 24.8 0 33.9l53.8-36.5c5.7-12.6-5.9-24.7-14-33.9-9.9-11.1-22.3-19.7-32.6-30.4-3.6-3-6.1-.7-9.7.9l-61.7-59-3.8-.9-6.6 6.7c0 1.8 23.8 21.2 27.3 23.9 3.4 2.7 19.2 12.2 19.9 13.2 1.1 1.7.9 3.2.8 5-8.5 1.1-15.3-4.4-22-8.6-27.1-16.8-45.5-40.4-79.3-47.8l-1.8-2.6Zm-505.9 68.8 33.1-57.9c-11.2 12.8-30 36.1-34.4 52.5-.4 1.6-1.7 5.8 1.3 5.4m77.8-51.2c-15.3 2.1-25.9 19.3-29.8 33.1 3 .6 4.1-1.5 5.8-3.3 8.2-8.1 16.4-20.8 24-29.8m-29.8 1.6c-4.8-.9-2.6 1.4-3.7 3.6-2.2 4.6-5.1 9.6-6.2 14.6 6.9-3.5 6.7-12.1 9.9-18.2m-18.2 56.3c5.8-5.1 10.6-12.1 11.6-19.9-5.6 4.7-9.7 12.9-11.6 19.9m414.4 174.8c23.6 24.1 72.2 25.2 102.1 13 16.4-6.7 57.6-32.4 67.9-46.3 18-24.4 15-87.7-1.3-112.8-37.9-58.3-119.5-58.1-170.7-17.7-11.8 9.3-23 23.2-24.1 38.7 7.5-10.6 19.2-19.6 30.5-25.7 3.7-2 7.8-2.1 11.2-3.7 7.6-3.7 15.6-12.2 25.4-9.6 7.3 20-1.1 12.1-10.1 14.9-2.4.8-4.6 3.6-7.1 4.6-20.8 8.4-39.1 16.8-49.1 38.6.2 2.4 13 5.2 15.7 5 9-.6 27.9-8.1 38.5-10.4s19.7-3 31-3.6c17.8-.9 51.3-7.1 55.4 19 2.3 14.6-8.2 16.7-5 29.4-.8 2.7-6.5 3.8-9.1 4.2-18.8 3-64.8 8.8-81.9 4.4-13.4-3.5-31.1-18.3-33-32.4l-6.6 1.8c1.6 3.6.3 7.5-3.4 9-5.8 2.4-9.6-6.3-9.6 8 0 19.8 19.4 57.3 33.4 71.6ZM354.7 289.9c.5-.7-.2-10.1-3.3-9.9l-1.6 8.1zm655.4 110.9-24.5-62.4-28.4-56.8c12.1 39.8 32.3 76.2 48.9 114.1l4.1 5Zm-774.6-56.2c8.8-5.9 9.4-15.9 13.2-24 5-10.6 12.8-22.4 13.2-33.9l-23.8 41.6-2.7 16.4Zm109.2-23.2 8.3-24.8c-10.5 1.5-9 10.9-9.4 19.4s-2.1 5.7 1.1 5.4m232.9.5c-20.2-16.5-59.2-25.3-84.8-22.2-3.2.4-2.7 3.6-6.4 5.3-6.6 3.1-20.2 4.6-28.8 7.6-12.6 4.4-40.3 17.6-49.2 26.9-10.8 11.3 10 33.4 21.7 36.4l-1.1 4.9-22.7-1.8c-.2-6.5-6.2-6.4-8.9-11.7-2.2-4.4-2.9-11.2-3-16.1-13.8 11-23.9 27-23 45.2.2 3.5 2.6 15.8 4.7 18.1s6.8 1.2 8.1 5.6c1.2 4-1.3 8.1-.5 10.5 2.3 6.7 27.8 29.5 34.7 34.6 16.6 12.6 34.2 23.4 56 21.3 33.9-3.1 87.6-46.2 108.6-71.8 2.4-2.9 12.5-17.3 13.3-19.9 1.4-4.7-7-1.1-10-3.2-4-2.8-.3-11.7 2.9-14.2h13.7c1.1-8.1 1.9-19.1-2.6-26.4-4-6.3-17.1-24.8-22.7-29.4Zm-222.9-2.2c-4.7-.9-2.7 1.1-3.7 3.6-1.9 4.7-2.7 9.8-6.2 13.7l4.8 3.2c-8.9 32.9-10.6 67.9-14.8 101.8 11.7-1.9 10.3-13.8 18.2-20.7-8.2-3.8-6.6-9.7 1.8-11.7v-90Zm602.5 16.6-9.9-1.7v8.3zm-728.3 11.6c-4.4-.9-2.8 1.2-4.1 3.3-6.3 10.5-13.9 23.1-18.8 34.2-1.6 3.6-9.4 18.4-4.3 20.4l22.6-33.6zm720 11.5v38.1c3.9-2.6 6.2-5.2 10.9-1.8l20.6 37.3-21.6-80.2zm57.9 117.5c-4.9-30.8-17.3-60.1-26.9-89.7-2.7-8.4-4.2-17.8-7.1-26-.6-1.8-1.8-6.7-4.1-6.7l14.4 60.8 23.6 61.6Zm3-113-2.3.9 6.5 16.6 2.3-.9zm-227.2 3.8c-7.9-1.4-19 1-27.3 0 9.2 9.1 6.7 19.9 5 31.4 5-3.5 12.3-.4 17-1.6s1.8-4.4 3.7-4.8c1.6-.4 5.1 1.9 8.1 1.5 9.9-1.1 5.7-24.4-6.5-26.5m-18.5 483.8C882.4 749.7 933.7 623.6 939 467.9c1.1-32.3-.1-64.8-1.7-96.9l-46.4 30.6c-12.1 10.6-10.6 27.7-18.1 39.8-10.2 16.4-51.1 46-69.2 53.3-37.2 15.1-94.4 19.5-122.9-13.6-20.9-24.3-34.6-57.9-33.1-90.2l-36.5.8c-4.4 9.6-9.3 20.5-15.8 28.9-15.2 19.6-64.3 60.9-86.8 70.4-50.2 21.3-82.3 3-116.9-32.8l-15.5-18.5c-4 3.1-5.9 40.7-7 47.6-.9 6-5.4 14.9-6.1 20.3-2.4 17.7-1 63.3-.2 82.7 3.7 84 20.1 226.5 94.6 277.7l63.9 33.9 6.3-3.1c3 8 11.5 11.2 19.1 14 77.1 28.4 159.8-11.8 217.4-61.4Zm-53.5-473.9c4.2 0 7.5.5 11.6 1.7l1.7-6.6-14.9 1.7c-.3.2 1.2 2.6 1.7 3.3-3.9 0-24.4 3-15.4 8.3.9.5 2.9-.2 4.5 1.7 1.7 1.9 2.3 7.6 4.7 9.4 4.9 4 21.2 3.8 27.7 3.8-2.2-3.9-8.6-3.2-11.4-7.6-2.6-4-2.3-8.1-.2-12.2-3.5-1.2-7.8-.5-9.9-3.3Zm307.5 6.5-2.5.8 2.6 8.2 2.5-.8zm-789.9 57.4c9.3-9.8 19.9-22.7 28.8-33.2 1.6-1.9 4-2.7 3.3-5.8-5.5 6.9-38 33.9-39.5 39.2-.6 2.3.9 5.6 2.2 5.5s3.9-4.4 5.1-5.6Zm786.9 156.2c-3.7-19.8-8.8-40-14-59.6-10.6-39.4-21.4-79.1-40-115.6l-12.2-20.1c1.1 20.6 1.9 40.7 0 61.2l1.9-2.9 4.7-.4c10.5 41.7 23.1 86.3 47.6 122l12 15.3Zm33.1-41.4c2.2-27.8-6.3-54.3-12.4-81.1l-33.9-61.2c.4 9.4 6.9 18.8 9.4 27.8 8.3 29.2 16 90.3 33.1 112.4 1.1 1.4 0 3 3.8 2.1m-705.1 31.5c2.1-10.8 4.3-21.9 5.7-32.8 3.2-25.7 2-52.3 2.5-79 .2-11.3 2.3-22.5 1.7-33.8l-11.6 30.6c5.7.3 7.5-2.9 8.3 4.9 1.8 16.6-1.8 52.9-3.4 71.2-.9 10.4-4.1 22.4-4.9 33.1-.1 1.8-1.2 6.2 1.6 5.8Zm21.5-109.2 1.7-26.5-3.3 15.7 1.6 10.7Zm-28.2 49.5c1.1-1.6-1.6-32.6 1.7-37.9l-18.2 47.2c-1.6 6.7 6.5-5.2 7.4-5.9 2.5-1.8 8.8-3 9.1-3.4m716.8 119.3c-12.7-41.7-14.9-90.3-44.7-124.1l24.7 96.9zm-728.3-64.6V606c4.7.8 2.8-1 3.5-3.8 4.7-17.3 2.6-38.7 6.4-56.5-2-2.6-3.5 5.3-3.8 6.2-2 6.3-4 12.8-4.6 19.4h-6.5c0 .1-3.4 10.8-3.4 10.8l8.3.8Zm-14.9-9.9 1.7-9.9c-1.1-2.3-4.6 7.2-3.3 9.9zm49.3 363.6c2.2-2.1 9.4-23.8 10.4-28.3 4.8-19.7-.9-20.5 12.1-37.5 3.1-4.1 9.7-38 10.6-45.6 2.5-19.7-6.9-32.9-12.5-51.6-13.2-43.5-20.1-83.3-23.6-128.7l-4.2-52.1-10.8 28.1 6.7-.8 2.8 3.5 2.1 141.3c3 .3 1-3.5 2.2-6.2.2-.4 4.1-5.2 5.3-2.1 10.5 26.6-11.7 75.6-10.8 104.3l12.8-26 7.3-28.3 6.3-1.2c10 4.7-4.1 39.1-7.5 47.2-5.3 12.9-13.1 24.7-18.4 37.6 2.7 12.8-1.7 34.5 1.3 45.8.8 3 7.5.9 7.8.6Zm-51-309c5.5-8.7 5.6-16.3 5-26.5l-5.9 21.4.9 5Zm18.2 81.1c3.7-3.3 9-9.3 9.8-14.2l1.7-66.9-3.1 12.6-8.5 68.4Zm-53.4-20.4 12.1-59.1-33.1 72 .8 2.4c3.9-4.8 17.3-11.2 20.2-15.4Zm760.2-7.7-3.3-19.1-14.9-27.3 14.4 41 3.7 5.3Zm-725-28.2c5.5-2.7 7.6-7.2 6.6-13.2zm2.8 78.9c5.7-8.9.8-55 3.8-69-7 9-20.9 17.5-24 28.1-1.8 5.8-1.7 12.5-3.2 18.3-3.4 13.1-12.1 27.1-3.3 39.7 1.6 1.2 15.2-9.1 12.3-2.5-3.2 7.6-16.5 12.4-23.1 5.8l-9.9 39.7c17.2-16.5 30.2-37 43.3-56.9 1.1-1.7 3.5-2.3 4.1-3.2m649.4-25.9c-10.9 2-9.1 13.5-5.8 21.5 2.2 5.4 4.8 10.4 7.1 16.1 9.5 23.2 20.7 50.4 40.1 66.7-15.9-33.9-31.3-68.3-41.4-104.2Zm-637.3 25.6v88.5c3.3-2.4 6-10.4 6.5-14.2 3-22.2 4.6-56.4 5.2-79.2 0-2.1 1.2-9.1-1.7-9.2.6 4.9-9.4 12.1-10 14.1m599.2 48.8c-.3-.3-4.1 1.1-6.2.6-5-1.3-7.3-7.2-13.6-5.5-3.2 3.1 14.6 41.4 18.3 46.7 7.6 11.1 23.8 20.7 33 31.1-8.3-17.9-16.9-35.7-24.8-53.8-1.5-3.5-6-18.3-6.7-19Zm-610.8 60.4c.5-9.2 0-18.9 0-28.1s2.7-3.4 1.6-5.8c-4.8 4.4-4.1 16.1-5.5 23.5-2.2 11.8-5 23.6-7.8 35.2l9.7-15.1c3-3.7 1.7-6.8 1.9-9.7Zm23.2 38.9c5.9-22.3 4.5-45 6.6-67.8-2.8.4-2.9 6.9-3.2 9.2-2.5 17.7-1.4 35.8-4.7 53.3zm678.6-54.6c.5-3-2.2-5.4-4.9-6.6-.5 3 2.2 5.4 4.9 6.6m-690.2 24.8v14.9h1.7v-14.9zm609.1 71.2-19.8-32.3-31.5-22.3c16.3 19 31.3 39.3 51.3 54.6m-107 4.4c-10.6-11.1-19.7-23.8-30.3-35-1.3-1.4-4.6-5.9-6.7-3.3 4.5 8.2 8.3 16.7 13.5 24.5 2.4 3.6 10.5 10.8 11.5 13.4 1.5 3.8-.3 5.8 1.6 9.8 9 18.2 46.3 53.3 64.6 63 9.3 4.9 22.6 11 32.9 10.9l-38.1-32.2c-13.2-19.9-32.8-34.1-49-51.1m138.5 13.8c-4.3-14.2-11.9-25.5-24.8-33.1-1.1 1.2 10.8 17.5 12.5 19.7 3.5 4.5 7.6 10.1 12.3 13.4m31.4 43-11.6-19.8c.5 7.3 5.7 15.5 11.6 19.8" class="st0"/><path d="M458.9 680.5v-5c5-5 34.4 24.1 38.9 24.8s.5-3 1.9-3.3c12.5-3 28-6.1 41.1-4.9s41.9 9.7 43.1 11.5c2.4 3.5-2.5 6.8 6.7 8.1 11.6 1.6 12.2-2 20.5-4 12-3 29.5.8 41.9 3 4.8.8 10.8 4.3 15.6 4.4 8.7.2 14.7-11.9 21.6-16.2 3-1.9 7.7-2.1 10.1-4 3.9-3.3 12.3-24.8 17-6.1l6.7-2.6c11.8 2.5-3.5 17.8-6.2 23.7-14.3 30.6-19.1 52.7-53.8 67.1-45.8 18.9-105.8 35.5-153.6 16.9-21.8-8.5-58.7-34.3-61.9-59.1-.9-6.9 3.2-14.1 2.3-18.4-.2-1.2-3.1-.9-3.3-2.2-1.2-5.3 2-10.6-5-14.6l3.3-1.6c-4.2-8.4-23.2-22.4-9.5-28.8l22.7 11.4Zm137.4 62.9h-9.9v1.6h9.9zm11.6 1.6H598v1.6h9.9zm74.5 8.3 4.9-4.1-2.5-2.5h-2.4zm-205.3 8.2c1.8-1.9-11.2-15-13.2-13.2.2 1.7 11.8 14.7 13.2 13.2m170 5.2-13.1 4.5.9 2.7 13.1-4.5zM617.4 591.5c6 4.9 3.1 14-5.3 14.2-14.7.5-51.7-3-65.8-6.9-33.3-9-6.7-35.2 2.6-52.6 7.1-13.2 14.4-26.7 21.2-40.1 2.4-4.8 11.7-30.2 15.4-30.5 7 1.6 7 9 5.4 15-2.5 9.7-24.4 47.2-30.8 58.6-6.1 11-15.3 20.2-18.3 32.7 1.1 4.4 34.3 7.2 40.3 7.6 7.6.6 30.5-1.9 35.2 2ZM605.6 179.8c17.5 15.2 58.8 33.6 81.7 39.9 2.8.8 5.5.9 8.4.8-.8 15.2-26.1 2.5-34.7-.9-10.6-4.2-20.5-10.7-31.5-14 16 12.8 35.5 36.4 57.9 29.8-1.8 8.2-11.4 11-18.9 9.8-19.3-3-56.5-39.5-70.4-54.2-3.1-3.3-21.7-21.9-22.3-23.4-.6-1.7 1-4-.1-6.5-9.6-20.8-29-41.5-35.6-65.4-1.2-4.3-3.7-10.6 1.7-13.3 9.8-4.9 8.3 8.2 10.8 14.1 10.1 24.5 33.3 66.2 53.1 83.4ZM459.9 218.1c-13 16.8-31.8 33.7-49.1 46.1-4.7 3.4-28.3 20-33 15.9.2-9.5 10-9.4 15.8-13.2 23.9-15.3 53.7-44.4 69.7-67.7 4.3-6.2 25.2-46.5 27.9-46.5 2.4 1.7 2.6 3 2.6 5.7 0 10.3-26.4 50-33.9 59.8ZM518.5 132.8c-.7 17.8-5.6 33.4-12.4 49.6-5.5 13.1-19.7 42.5-27.6 53.5-2.1 2.9-4.8 6.1-8 7.7.2-3.7 0-8.1 1.1-11.6 7.2-21.1 26.7-44.7 34.4-67.9 3-9 3.4-17.6 4.5-26.8 1.8-3.5 3.7-5.2 8-4.6ZM541.2 378.2c5 5.9 4.7 13.5-.2 19.5s-4.4 2.3-5.4 3.7c-1.4 1.9-1.3 5.5-3.8 8.7-13.8 17.8-63.8 18.4-82.3 9.4s-10.3-16.6-8.8-26.8c-3.8 1.4-9 .6-11.5-2.5-3.1-14.6 42.3-24.7 52.1-25.6 14.5-1.2 49.9 2 59.9 13.7Zm-30.9-2.2-9.9 1.7c5.9 10 10.6 21.6 1.7 31.4 9.7-1 17.9-6 23.2-14.1l-14.9-.8 14.9-2.5v-9l-16.6-3.4 1.7-3.3Zm-44.7 29.7 1.6-16.5c-10.5 2.5-12 8.5-13.2 18.2l33.1 3.3-9.4-4.3-12-.7ZM637.7 1211.6c-1.8 2-5.7 3.2-7.3 6.1 6.9 4.1 13.8 8.3 20.5 12.8 2.4 1.6 4.5 5.3 6.5 6.2 8.3 3.8 20-2.2 28.5-2.4l-.9-6.4 7.3-2.4c-.4-12.7.2-25.4 0-38 0-5.9-5-12.6 3.7-14.9 1.8.9 2.9 2.5 3.8 4.2 3.3 6.5 2.7 51.5 2 61.5-.2 3.5-1.3 6.8-1.7 10.2-4.7 1.4-7.4-3.1-11.6-3.1-8.7 0-23.8 7.2-30.3 6.3-4.9-.6-6.9-7.1-10.5-10.2-10.6-9.2-24.1-14.2-38-10.4l.8-11.1c10.1-7.2 38-34.4 37-46.4-2.1-24.1-37.8 0-41.7 11.6-2 6 0 30.7.7 38.8.6 6.5 5.3 11.3 1.5 18.2-1 .7-6.5-.8-7.5-1.9-4.8-5.7-1.9-30.4-6.7-38.6 1.9-7.3-.5-12.6 2.5-19.5 12.7-28.7 63.1-50.6 60.2-4.9-.8 12.1-10.8 25.6-18.9 34.3ZM462 1160.1c1.1.7 5 17.1 5 19.7.1 6.6-3.2 17-7 22.3s-11.9 6.9-13.2 8.9c-3.7 5.6 1.8 27.3 2.8 34.5l4.7-1.6-2.5 16c-6.4.7-8.4-3.5-10.2-8.7-3.8-11-5.2-24.2-4.7-35.8-20.5 6-41 3.8-60.9-3.3-2.1.3-3.9 19.9-3.8 23.1 0 2.3 7.2 28.1-3.4 21.3-1.6-1-4.7-16.8-4.9-19.8-.5-7.6 4-25.6.8-30.8l-35.7-23.3.2-8.3c12.7-4.8 10.4-.2 16.5 4.6 2.9 2.3 19.7 15.4 21.4 14.3l3.1-16.7 4.8-.7 1.8 25.2c19.6 6.3 39.8 10 59.9 3.1 0-9.9 8.4-41.8 18.5-44.1 1.5-.4 5.7-.5 6.9.2Zm-10.9 37.8c3.3-7.2 12.9-15 5.6-23.7-4.6 6.9-8.5 14.5-8.7 22.9l3.2.8ZM757.2 1210.6c-2.1 24.8-4.3 27.1 23.1 25.4 11.2-.7 44.5-11.8 36.8 9.1l-52.6 4.9c-13.4-2.4-17.9-13.7-18.2-26.1-.1-4.3 2.6-9.4 1.4-13.9-.6-2.4-16.6-8.7 1.7-16.4-.7-9.3-7.3-17.1 2.5-24.2 13.1 6.1 31.2.4 45.7-.2 8.4-.3 38.1-1.4 43.3 3.6 4 3.9 1.9 7-3.5 7.6-9.2 1.1-20.5-.6-30.2 0-5.9.3-44 3.2-45.8 4.6l-2.4 8.8 2.4 2.2c13.4.5 29.5 6.3 40.8-2.9 6.3 2.7 7.5 17.4.2 17.4h-45.2ZM970.9 1239.4c.8 1.1-.6 10.3-3.8 10.5-20.8.8-38.7 5.5-59.6 1.4-18.5-3.6-28.2-12.5-28-31.9.3-25.7 15.7-48 23.6-71.6l5.7.8c9.2 13.5-30.8 61.9-17.4 82.4 3.9 6 18.4 7.6 25.3 8 14.6.8 31.3-4.3 44.5-3.3s8.3 1.6 9.8 3.6ZM544.7 1196.3c-2.3-10.6.3-22.4 12.6-23.8 10.5 23.4 14.1 97.5-28.6 84.9-12.1-3.6-21.1-17.1-25.6-28.3-3.2-8.2-9.8-35.2-7.4-42.8 1.3-4 5.2-3.6 7.4 0 2.5 4.3 3.2 20.2 4.8 26.9 2.2 9 6.9 22.5 14.6 28.2 19.8 14.7 32.2-4.7 33.1-23.8.2-3.7-1-22.7-1.7-25.1-.2-.9-1.9-3.3-3-1.8l-6.3 5.6ZM704.8 1137.6c1.8 3.9.7 26.8-2.4 26.9-5.8-1.7-6.1-12.8-5.6-18.2.5-4.9 2.1-9.7 8-8.7" class="st0"/></svg>