<svg xmlns="http://www.w3.org/2000/svg" id="Calque_1" viewBox="0 0 1300 1300"><defs><style>.st0{fill:#313a94}</style></defs><path d="M365.7 476.5c.8 4.5 8.9 9.7 8.5 13.2-.2 1.3-3.5 1.3-4.3 2.6-4.5 6.8 2 24.9 2.5 32.5.5 7.5-1.3 42.4.4 45.4.4.7 3 1 4.2 3.2 7.4 13.3 12 25.5 23.7 36.3l-3.2 3.1c7.4 13.9 16.1 27.1 24.5 40.4 20.7 32.7 49.4 66.7 75.3 96.3 31.9 36.4 67.3 65.3 113.6 81.1 7.1 2.4 43.4 12.8 47.9 9.5l-3.3-5c50.1-5.2 89.5-41.2 121.6-77.4 15.5-17.4 28.9-39 42.3-57.6 19.6-27.1 38.7-55.1 51-86.3 4.9-1 9.1 1.3 12.3 4.8l1.6-1.6c7.5-20.6 15.8-40.9 18.7-62.8.2-1.8 1.8-5.7-1.2-5.4-.6 7.2-4.2 13.7-7.5 20-10.1 19.2-23.6 45.4-35.1 63.1-3.6 5.5-5.7 9.8-13.2 10.2-2.7.1-2.8.3-2.5-2.5 12-26.3 27.2-50.9 39.6-77 23.5-49.6 13.6-81.7 22.2-132.6 1-6.1 2.6-17.5 8-20.1l-4.8-19.2 7.5 3.3c1.2.3 1.1-1.7.8-2.5-1.1-2.5-9.9-11.2-12.2-14.6-10.3-15.5-17.3-32.7-26.4-48.4-10.1-17.4-23.3-33.3-31.3-52l3.3-1.6c-6.6-7.8-12.3-16.7-19.1-24.2-27.8-30.9-67.5-44.8-99.1-72.3-26.5-23.1-44.7-47.9-65.8-75.7-9.8-12.9 17.2-7.7 23.9-5.6 33.1 10.6 75.4 38.3 104.1 59 53.3 38.5 102.6 106.6 130.2 166.1 3.5 7.7 10.1 16.9 3.3 25l-58.4-96.4c-27.4-33-55.2-67.6-90.7-92.4-21.9-15.3-64.2-43.7-88.6-51.2-1.7-.5-5-2.8-6.1-.5 18.9 25.9 39.7 49.9 64.9 69.9 39 31 100.9 54.1 119.1 105.6 18 50.8 51.3 87.5 79.7 131.6 1.5 2.4 2.5 4.5 2.6 7.4 2.3 2.7 1.8-1.9 1.6-3.3-4.4-38.5-16.6-76.8-30.4-112.8-28.1-73.3-61.5-130.6-126.3-176.7-31.9-22.7-70.7-41.4-110.5-42.7-4.5-.1-22.3 4.1-20.9-2.4 8.6-9.7 25.1-8.2 37.2-7.3 59.5 4.6 146.5 66.6 178.9 115.8 32.7 49.8 62.3 115.9 75.1 171.5 8.2 35.7 12 72.1 15.1 108.6 2.9.4 1.6-3.8 1.7-5.8.4-9.8 1.8-20.6 1.8-30 .6-123.6-25.3-210.2-117.5-295.4-34.6-32.1-71.6-55.4-117.4-67.4-27.8-7.3-53.5-9-82.2-6l-2.7-2.3c0-5.3 32.5-8.8 38.2-8.3-13.8-10.5-26.9.6-39.7 1.6-2.8.2-5.2.2-5.2-3.2.2-7.1 18.3-13.3 24.9-15.1 45.6-12.3 124.9 11.6 163 38.5 54.7 38.6 92.6 83.9 119 145.7 25.9 60.7 36.3 153.7 32.8 220.2s-14.6 67.6-14.3 102.4c0 10.5 5.6 45 2.4 52-6 13-2.2 25.7-3.1 40.5-5.6 88.7-29.7 176-44.6 263.3-.5 2.9-2.9 21.3-2.1 22 6.2.1 12.5-.4 18.7.4 58 8 142.2 86.7 136.2 148.6-.6 5.8-1.3 9.5-8.4 9-2.4-10.9-3.2-22.2-6.2-33-14.1-50.7-66-88.7-113.8-105.9-9.7-3.5-17.8-5.3-28.3-4.2-.8 16.2-.9 32.3 4.7 47.7s14.2 19.8 6.2 22.5c-9.4 3.2-14-8.2-16.7-15.3-9.1-24.1-5.9-56.8-2.2-82.1 13.5-92.1 40.6-185 44.7-278.1 2.4-55.3-1.6-112.3-3.4-167.3l-7.1 17.8c-10.3 6.7-3.5-15.3-3.6-21.7-.1-23-6.4-47.3-24.3-62.7-.1 11.9 5.1 24.5 6.5 35.9 11.8 99.2-46.6 184.9-49.4 280.7l4.6 12.9c.8-35 8.7-67.6 20.4-100.3 11.3-31.5 42.1-87.1 30.9-119.9-1.8-5.3-9.4-11.4-1.4-16.2 5.7 8.6 13.3 12.9 14.9 24.3 6.6 47-38.8 115.5-47.7 165-3.7 20.3-14 90.4-9.6 107 2.6 9.8 13.7 21 5.9 30.6-1.3 1.6-1 .8-2.5-.7-18.3-19.2-18.6-52.1-14.2-76.6-2-1.7-1.3 6.6-4.1 1.6-17-29.7-7.7-70.2.4-101.1.4-1.6 1.7-5.8-1.3-5.4-7.4 12.7-13.9 28.5-21.9 40.5-3.8 5.6-10 10.9-13.8 16.2-25.9 35.8-45.6 69.6-79.3 100.3-10.8 9.9-27.9 19.9-36.4 28.5-1.6 1.6-4.7 2.2-5.1 3.7-1 4.2 1.2 25.3 1.9 31.1 2.3 19.6 7.7 40.1 12.3 59.3l10.9-4.2c-10.6-28.4-11.3-59.3-16.7-89l13.1.2c1.2 10.2.8 22.1 2.1 32s8.4 49.6 11.4 51.8c2.7 1.9 9.5.6 11.3 7 3 10.2-6.2 8-6.5 9.7 2 16.1 9.3 30 15.2 44.7 2.5 6.2 4.2 10.4 6.9 16.4 5.5 12.3 11 24.2 17.2 36.1l-1.7 5c-3.5.3-16.5-20.5-18.8-24.5-5.9-10.6-14.1-28.2-18.7-39.6-4.9-12.1-7.1-24.6-12.6-35.7-6 3.4-15 4.3-20.6 7.6-4.3 2.5-11.5 12-16.9 16.4-19.5 15.7-55.6 41.3-76.9 52.9-4.7 2.6-11.5 2.9-16 5.6-3 1.8-4.9 6.1-8 7-6.6 2-11.7-2.5-17-5.7-20.9-12.6-45-40.1-57.1-61.1-3.5-6-24.7-48.6-24.6-52 0-2.2.9-2.7 2.4-4l10.8 8.3c12.2-31.7 16.2-66 14.2-99.9-16.1-14.1-32.5-28.8-46.7-44.9-13-14.8-27.6-40.1-40.8-52.4-25.8-24.4-41.9-50.8-59.2-82.3-2.7-4.9-3.2-14.2-9.1-15.1l5-2.5-12.5-14.1c-3.7 23.3 11.5 42.8 20.6 62.6 24.5 53.4 28.9 101.4 34.5 159.8 2.5 26.2 3.5 52.5 4 78.8 4.3.4 2.8.3 3.3-2.5 1.4-7.8 3.3-17.2 3.5-25 .7-25.4-13.1-51 1.9-74.6 4.2-6.7 19.1-22.5 27.6-19 .5.2 7.1 7.5 7.1 8.7 0 5.2-7.1 3.5-11 5.8-2.3 1.3-14.1 15.4-15.3 18-3.2 7.3.7 17.1-5.5 19.5l3.4 1.9 3.3 33.9 15.2-48.9 7.2-7.1c16.1 2.1 3.8 16.2.4 26.4-12.3 37.5-12.3 73.1-16.2 112-.8 7.9 3.2 19.7-4.5 23.9-17.4 4.4-6.1-40.5-5.5-48.9.3-3.8.2-7.8 0-11.7s1.3-6.2-1.6-5.8c-1.3 7.2-2 14.5-4.3 21.5-6.9 21.8-33.3 71.9-51.5 84.9-7.9 5.6-14.9 1.3-13.8-8 4-1.6 6.9-4.6 9.6-7.8 19.2-23 31.6-49.2 43.3-76.5-5.9-4.6-8.5-18.7-9.8-26.8-2.2-13.9-.5-29.5-1.9-43.1-5.1-49-11.3-125.7-30.4-169.3-14.7-33.5-28.3-47.5-31.1-87-1-14.4 1.2-25.7 1.7-39.9.2-5.7-1.7-39.2-3.8-40.5s-6.3.5-7.9-2.8c1.4-5.9 7.1-11.1 8-16.7.7-4.4-2.6-17.2-3-23.2-.5-8.3.3-16.7 0-25.1 0-2 1.3-6.2-1.6-5.8.4 26.2-7.6 51.5-10 77.4-3.8 42.3-3.3 68.8 8.8 109.4 25.5 85.6 60.3 176.2 56.2 266.8-.9 19-3.8 32.1-12.5 49-2.4 4.6-9.5 12.5-10.5 16.2-1.5 5.5-1.1 14.2-2.6 20.7-3.4 14.8-15.5 31.5-31.1 20.4-.7-4.3 4.8-1.8 8.3-3.3 5.7-2.6 8.7-17.6 9.6-23.7 10.4-69.1-14.7-103.3-32-163.5-2.3-8.1-3.2-16.7-5-25s0-5.4-2.5-5c.1 5.8-.3 11.7 0 17.4 3.4 65.4 24 115.8 19.5 184.7-.6 9.5-4.1 18.4-2.8 28.1l-13.2 2.5-1.1-3 2.6-38.3c-5-3.7-24.6 7.8-29.5 11.1-18.4 12.5-59.6 61-64.6 82-2.1 8.7-1.9 19.9-2.7 29l-5.6 3.8c-14.4 0-6.8-29.4-4.6-37.3 4.4-15.8 15.9-32.4 25.5-45.6 20.1-27.7 47.3-52.5 81.6-60.6v-16.2c-6.7-2.7-7.8-5-10.4-11.6-13.6-35-10.7-73.6-14.9-109.9-9.3-81.4-40.8-157.5-45.8-239.6-3.4-55-.9-127.4 16-179.9 9-27.9 21.7-51 32.5-77.5 22.5-55.2 35-96.4 74.2-143.9 33.8-41 75.6-85.3 122.8-110.2C534.3 41.9 551.5 33 586 35.3s35.7 9 40.7 28.4c-8.4 1.5-12.1-8.9-17.9-11.2-32.9-13.1-77.9 7.5-106.4 24.2-4.9 2.9-29.7 18.5-32.2 21.2-38.9 41.6-84.3 83.5-113.5 136.1-14 25.3-20.6 52.1-31.3 78.6-9.2 22.9-21.8 44.6-30.3 67.9-32.7 89.5-24.2 229.1 4.2 319.4l6.2 12.9c-.7-21.8 1.1-43.9 0-65.7-2.3-46-10.9-80-4.7-127.9 14.8-113.8 64.4-278.4 146.2-361.5 35-35.6 99.8-87.4 150.7-92.4 10-1 20.4-1.1 27.5 5.9-6.3 9.5-13.5 4.8-20.3 6.1-78.2 15.3-157.2 90-195.8 157.3-49.4 86.2-75.5 177.1-91.4 274.8-9.2 56.3 3.3 101.4 4.6 155.9.4 18.3-2.8 36.1 0 54.2h11.5c1.9 15.6 2.8 31.9 5.3 47.2 9.3 55.4 40.3 102.2 41.4 159.2 5.2-4.9 7.2-17.2 8.1-24.3 11.5-92.1-31.5-199.5-56.9-287.2-16.2-55.9-6.5-122.5 2.6-179.8 7.3-45.8 33.9-85.3 53.1-126.6 7.4-15.9 12.8-34.1 20.2-49.7 18.2-38.6 87.6-106.5 124.9-128.1 26.2-15.1 56-22.5 84.8-31.1 1.9.3 6.2 3 7 4.7 5.3 11.3-6.8 8.2-14.1 11.7l4.2 13.3c11.3-13.8 23.8-30.4 27.5-48.3l9.7 7.8c1.5 6.4-17.6 38.6-22.3 45.3-68.6 95.7-222.3 145-257.5 267-.9 3.1-.7 6.2-1.3 9.4l38.8-.2 6.9-11.1c13.5 6.3 28.4.1 42.3-.9 42.2-3 87.1-6.8 129.1-7.8 7-.2 31.8-1.2 36.4.4 5.3 1.8 7.3 14.7 7.8 19.7 1.3 1.1 23.6-8.3 29.1-8.5 8.7-.3 13.4 3.9 20.8 6.8.4-2.1-.9-6.8.3-8.1.8-1 20.7-8.1 23.6-8.8 21.7-5.4 47-5.2 69.3-8.1.6-4.2-.1-2.6-2.4-3.5-7-2.8-13.1 7.2-18.4-4.8-10.8 2.9-6.4 13.7-23 2.9-8.2-5.3 8.4-22.8 16.2-23 2.6 0 5.2 1.9 8.1 1.5 7-1 16.7-14.6 27.8-6.3l-3.3 6.6c7.3-3.6 11 1.2 16 1.7 12 1.2 27.5-1.2 41.6 0 10 .8 19.8 1.4 29.7.2l9.4 12.3-6.7 9.2 31.7.7c.4 6 6.5 14.7 6.2 19.6-.3 5.4-4.5 12-5.8 17.6-8.9 36.7-14.1 50.4-38.8 79.5-30.5 36-102.1 47.2-141.1 19.6-26.2-18.6-29.3-47.5-37.5-76.6-9.6-3.8-20-3.5-30-1.7-6.8 1.2-12 7.3-17.9 1.2-.5 35.3-15.4 64.5-43.7 85.4-32.3 23.9-96.3 30.6-127 1.2-6.6-6.3-35.7-47.9-40-56.6-5.1-10.3-5.6-22.8-11-33.1-16.6-2.7-34.1 6.2-49.7-1.9 1.5 12.2-2.1 29.2 0 40.8ZM834.6 96.9c-24.2-17.7-52.8-30.1-82.3-36.8-2.8-.6-12.3-3.9-13.6-.5 15 6.3 32.5 10.3 47 17.1 33.6 15.9 66.7 40.5 92.9 66.9 16.1 16.2 29.7 35.4 44.9 52.5-6-14.9-17.9-29.7-28.4-41.9-14.6-16.9-42.9-44.5-60.4-57.2ZM468.3 213.8c11.2-10.4 20.9-18.2 34-26.8 31.8-20.7 68.1-31.9 93.1-61.7 1.6-1.9 4-2.7 3.3-5.8-8.8 5-19.9 5.9-29.6 9.5-29.4 11-58.9 34.5-80.6 56.6-1.3-.8-9.5 7.7-12.9 11.3-19.5 21.4-42.9 43.5-55 69.8l-20.8 54.1c8.4-6.2 13.1-15.8 20-23.3 42.8-46.6 98.4-76.6 145.7-117.3 4.8-4.1 33.7-30.5 34.9-33.3s.4-2.7-.8-2.5c-17.1 21.2-45.2 30.2-67.9 43.6-21.9 13-50.6 32-68.4 49.8-4.9 4.9-12.5 21.3-20.2 14.8-5.2-4.5 7.6-21.7 10.9-25.8 4.3-5.3 9.6-8.7 14.4-13.1Zm348.2 159.1c-3.5-1.7-18.6 14.3-23.7 1.3l-15.9 8.2 84.9-4.2c-5.7-4.5-12 .4-18.8-1.2-3.3-.8-5.8-4.5-8.6-4.6-4.8-.1-7.8 6.6-16.2 3.1-1.4-.6-1.4-2.7-1.7-2.8Zm68.6 24.6-74.9 6.7c-.7 4.3.4 2.6 2.3 3.5 3.7 1.7 8 2.1 12.2 4.5 9.9 5.9 13 17.1 15.5 27.7-8.6 7.2-20.4 7.4-31.1 9.1-14.4 2.2-56.9 7.7-67.2-3.9-8.3-9.4-2.4-16.2 3.9-23.7l26.1-12.2c-22.3 2.1-44.7 3-66.5 8.4-.3 1.3-.1 2.6 0 3.9 1 8.2 7.6 29.3 10.7 37.6 2.8 7.7 15.3 34.7 20.1 39.8 20.8 21.8 75.7 5.1 96.4-11.5C845.5 477 861 452 868.8 437c6-11.6 11.2-27.2 16.3-39.4Zm-271.4 16.6c-20.7-.4-41.2 2.3-61.6 5l19.3 10.6c4.3 13.5 14.2 18.7-2.1 27.4-24.1 12.8-87 24-91.8-14.3-.5-4.1 3.8-9.6 7.4-11.8 4-2.5 11.3-2.7 14-6.9l-59.9 3.3c-1.8 6.1 3.7 8.2 5.4 12.1 11.8 28.1 24.8 46.3 48.1 66.8 26.7 23.5 49.4 20.2 77.6 1.4 8.8-5.9 24.3-19.7 29.5-28.8 10.5-18.4 7.1-45.2 14.2-64.8Zm-203.1 8.3v-3.3c-14 3.2-29 2.2-43.3 2.5 0 3.7 2.9 3.9 5.8 4.2 4.2.5 36.3-2 37.5-3.4m416.2 5.1c-7.4-1.2-12.1-8.8-20-8.3l3.4 11.6c2.4.4 4.8 0 7.2-.2 1.9-.2 9.2-.7 9.4-3.1m-56.6 9.9-1.7-11.6-14.9 8.4.8 3.3h15.8Zm-208.1 1.7-21.6-5 1.7 11.6c4.1.2 8.1-1 12-2.2 2-.6 7.7-2 8-4.5Zm349.6 78.2c4.1-25.9 5.8-52 5-78.2l-5 35.8c1 10.1-1.5 20-1.7 29.9s-1.3 11.3 1.7 12.5m-402.9-76.5c-2.4-1.4-16.5 3.3-13.2 6.6l15 3.3-1.7-9.9ZM551 814.5c-.9-.6.3-3.3-2.2-2.7-.3 26.9-.2 59.6-8.8 85.3-2.4 7.1-8.1 16.9-16.2 17.1 12.1 18.3 20.2 39.7 34.9 56.1 10.3 11.5 25.4 21.3 36.7 32.1l5.4.5c13.6-7 27-13.7 40.1-21.7 25.7-15.6 44-34.8 67.2-51 4.3-3 8.6-6 13.8-7.1l-15-89.8c-8.8 4.1-23.6 4.4-31.2 9.5-3.1 2.1-3.5 6-6.6 6.9-23.2 6.9-68.5-10.4-90.4-20.5-7.4-3.4-21.4-10.3-27.8-14.8Z" class="st0"/><path d="M855.7 701.4c2.6 1.6 5.4-.9 4.4 3.9-5.7-.6-12.5 12-15.3 17.2-17.5 32-41.5 122.2-36.8 157.3 6.3 46.6 42.4 76.1 46.9 121.2 1.5 14.7-2.6 46.3-23.1 43.9-.5-3 0-3.6 1.8-5.7 30.4-34.9-11.9-87.5-27-119.6C781.8 867.1 804 791.8 824 740c5-12.9 14.5-39.8 30.4-41.1.7 0 .7 2.2 1.4 2.6ZM563.8 380.8l-5.9 6.7-11.6-6.7-6.6 6.7-19.1-8.3c-1.6 13-9.5 5.8-16.7 1.6l-3.4 9.2-14.9-4.3c-2.2 18.4-22 1.3-33.9 6.5-13-12.7 9.8-11.6 11.9-13.4.6-.5.5-3.9 1.8-5.6 4.5-5.9 12.7-2.9 14.9-4.3 1.4-.9.2-5 3.1-6.4 4-1.9 23.4.1 29.6 0 5.4 0 10.4-2 16.6-1.8 4.4.1 13.8 3.1 15 2.9 2-.3 3-5 4.8-6.3 6-4.7 31.7 7.4 37.4 12.8 16.7 16.2-12 26-20.7 10.7h-2.4Z" class="st0"/><path d="M859.6 770.6c3.4-1 13.2-1.1 12.1 3.8-11.2 10-19.9 26-24.9 40.1-16.8 48.1 8.8 75.4 21.1 118.5 6.2 21.8 10.6 48.5 8.9 71.1-.4 5.2-1.1 13.2-5.1 16.5-12.4 10.2-6.7-11.2-6.5-16.5.7-21.1-1.7-45.8-7.2-66.2-8.2-30.5-31.1-64.4-29.6-96.9.6-13.1 18.8-66.7 31.2-70.4M818.1 1017.9l-9.6 2c.8-11.6-7-20.6-10.8-30-17.4-42.8-47.7-131.2-37-175s4.1-22.1 16.1-10.4c-3.1 7.4-5.8 15.1-6.5 23.2-3.5 39.3 14.6 94.4 27.8 131.9 5.3 14.9 19.3 38.3 21.4 51.9.4 2.3.1 4.4-1.3 6.4ZM896.7 825.2c-8.2 31 .4 60.2 3.3 90.7 3.1 33.2 6.2 66.5 8.5 99.7.3 3.8 3.7 9.8 2.4 12.6l-5.1 3.4c-3.3.6-4.6-6.2-5.1-8.3-6.8-28.5-6-60.2-9.1-89.1-2.7-24.8-9.3-51.5-10-76.5-.3-11.6-2-36.3 15-32.5ZM921.7 670.4c-1.5 10.2-3.6 20.2-5.4 30.4-8.5 47.3 2.3 84.9 3.8 131.8.2 5.6.4 11.2-1.6 16.6-6.8 4.3-7.5-6.4-8.6-11.4-6.1-29-12.1-97-7.7-126.1 6.3-12.9 1-40.3 19.5-41.2ZM515 819c7.6 5.9-.2 8.7-1.7 11.5-12.7 24.2-2.6 80.4-8.2 111.6-2.2 12.2-17.4 24.8-26.2 10.4 7.3-4.3 13.5-16.8 14.8-25.1 5.7-35.9-6.5-76.4 10.4-110.3 3.5-.8 8.1-.3 10.9 1.9M707.7 676.3c7.8 9.4 1 18.9-9 23.3-7.8 3.5-44.9 11.2-54.4 12.2-19.3 2-40.6-2-59.2-6.9-6.3-1.7-13.9-2.6-14.6-10.5-.2-2.5 1.1-10.8 2.8-12.5 2.1-2.2 17.3-11.3 21.1-13.5 8.6-4.8 34.6-18.1 43.3-15.8 3.9 1 8 5.8 8.6 5.8.7 0 7.4-5.6 12-6 13.5-1.2 23.1 9.5 33.7 15.5 6.6 3.8 9.9 1.1 15.9 8.3Zm-19.1 9.1c2.3-3.2-18.7-13.7-21.6-14.3-10.1-2.1-14.1 6-17.2 5.8s-7.7-5.2-10.7-6c-9.5-2.5-30.7 10.1-40.6 13.1l-13 9.8 16.6 3.3c.8-.7-4.3-9.7 0-12.6 16.4 1.2 58.3-10.3 72.2-5.5 4.2 1.5 5.1 8 2.8 11.4l11.6-5Zm-74.9 15h29.1c1.2 0 18.6-4.9 22.5-5.8 1.1-.2 5-1 2.4-2.6l-38.1 3.5-16 4.8ZM630.4 595.5l16.7 2.7-1.7 5.7-4.2-1.5c-1.2 0-.6 2.5-1.6 2.8-2 .7-22.2-1.5-23.9-3.3-4.2-9.3 2.7-17 4.3-24.2 7.4-34.6 12.5-69.7 25.3-101.5.7-1.8-.5-5 .8-7.2 1.6-2.6 8.4-3.9 10.1 0 2.7 6.2-6.5 30.3-8.2 38-6.2 29.3-11.8 59-17.7 88.4ZM656.5 594c3.8-1.1 6.8 1.3 9.9 1.3 5.1 0 9.4-3.5 13.9 2.7-6.5 8-17.6 8.3-25.8 2.6-1.7-2.5-.9-5.6 2-6.5ZM757.2 1213.5c25.1-5.5 32.1-27.9 36.5-50.6 26.2 2.4 5.3 27.4 10.1 44.5l14.1-2.1c-7.6-20.7 10.7-67.1 35.5-40.4 13.8 14.9-2.2 34.4-11.2 46.6l44.5-4c8.4 21.7-33.8 20.6-47.1 17.8-3.9-.8-7.5-4.7-10.9-5-11.5-1.2-25.7 11.3-38.5-6.4-17.8 10.1-30.3 23.8-46.2 2.1-7 5.3-22.5 13.6-30.8 10.3-3.3-1.3-9.6-7.8-11.8-7.9-3-.2-13.5 9.9-20.7 11.1-2 .3-20.4-1.4-23.2-2-26.8-5.8-27.3-18.8-35-42.1l-11.2 44.5c-7.6 3-11.6-8.6-15-8.1-5.6 2.1-23.7 14.1-28.1 13.9-5.8-.4-22.8-10.8-24.6-17.8-16 17.6-31.3 31.7-50.9 8.2-3.8-.6-13.8 16.1-31.7 7.9-3.2-1.5-9.2-11.5-9.5-15.2-1.1-16.5 30.2-59.3 48.4-46.4 9.5 6.7 2.5 10.3 2.6 12.1s5.1 3.6 5.4 7.9c.5 7.9-11.6 34.6 6.7 29 19.9-6.1 29.4-33.6 31.9-52.1-20.9-2.5-18.3-17.2 2.1-19.5 1.9-13.7-7.8-25.6-3.2-39.3 2.2-3.9 12.4 3.6 13.8 6.6 2.3 5.1 2.8 27.6 5.8 29.7l34-4c.9-13.9 3.2-28.9 11.7-40.4 19.8.8 16.8 24.4 21 38.6 15.5-1.1 50.6-15.9 48.4 9.9l-52.4 6.3c-2.2 9.5 7.4 11.6 10.3 19.1 4.9 12.7.8 41.6 22.1 39.6-1.3-22.3 29.6-65 53.4-48.3 12.7 8.9-.5 13.9-.8 15.3-1.4 5.8-3.5 25.2 1 29.2 4.6 3.1 26.1-10.9 27.1-13.7 2.4-27.5-10.2-67.3 11.4-89.8 9.5-9.8 23.5-15.1 30.4.1 3.9 8.6-6.2 54.3-10.1 64.7s-18.2 25.5-15.2 40.4Zm12.2-93c-19.1 7.8-14.9 35.5-16.2 52.6 5.6 1 3.4-1.2 4.6-4.4 5.4-15.3 5.9-32.8 11.6-48.1Zm-172.1 38.4-29.4 6c-.7 10-12.2 45.8-4.1 52.9 6.5 5.6 33.5-17.9 33.5-23.5zm234.8 36.4c6.8-3.9 10.5-12.7 10.1-20.2-7 3.6-9.6 12.9-10.1 20.2m-364.3 26.3c19.4-5.8 20.2-16.8 24.2-34.4-6.5 2.6-28.2 29.3-24.2 34.4m226.7-32.3c-9.1-3.7-19.4 25.1-18.2 26.3 15.1-2.8 16-13.5 18.2-26.3M490.1 1122.4c-6.3 2.6-13.6 1.1-19.7 3.6-14.5 5.9-17.3 31-20.2 44.6-2.4 11.4-7.4 62.6-14.7 66.3-17.3 5.2-19.5-23.6-22.3-35.5l-14.1 19.3c-33 22.7-50-18.4-30.5-44.1 2.8-3.6 14-10.5 18.1-7.4 5.8 4.4-4.7 10.7-6.7 14.2-5.2 9-8.6 21.5-7 32 1.9.7 4 1.6 6.1 1.3 30.3-4.9 24.6-71.7 28.1-94.1l13.9 5.3c0 27.5.2 55 7.4 81.7 7.8-27.9 6.6-74.2 27.5-95.9 8.7-9.1 33.5-6.9 34.2 8.9Z" class="st0"/><path d="M838 1152.6c-6.3 4.4-22.4-11.9-11.9-17.1 8-2.8 18.9 12.2 11.9 17.1" class="st0"/></svg>