<svg xmlns="http://www.w3.org/2000/svg" id="Calque_1" viewBox="0 0 1300 1300"><defs><style>.st0{fill:#313a94}</style></defs><path d="M1103.7 1115.6c3.3 6.3-2.6 23.2-10.2 17.3-2.6-2-3-15.2-4.6-19.7-5.8-16.8-32.8-47.4-45.8-61.4-51.9-56-112.4-116.4-185.8-140-10.2-3.3-46.9-12.7-55.7-10.7-2.2.5-2.4 4.8-4.3 6.3-1 .8-19.4 11.1-22 12.4-54.4 27.5-143.6 43.9-201.1 20.2-20.6-8.5-41.2-22.7-56.4-38.8h-3.9c-2.4 8.4-10.6 1.7-17.7 2.4-16.8 1.8-67.6 17.3-86.5 23-72.9 21.7-138.2 82.1-175.8 146-3.8 6.4-10.6 17.3-12.6 23.9-3.2 10.5 1.2 36.1-1.6 40.1-3.1 4.4-8.1 2.7-10.5-1.5-5.3-9.4-1.8-35.1 1.6-45.2 4-11.8 26.5-40.1 26.9-48.2.2-4.9-8.3-16.1-9-24.8-.7-8.5 1.4-20.2.5-29.4-8.3-89.8-27.6-179.8-37.9-269.6-18-156.8 8.8-399.5 89.3-537.6 21.2-36.4 90-111.9 132.7-118.4 6.7-1 8.2 3.9 13.4 3.7 17.2-.5 18.4-5.7 40.6.1 13.6 3.6 39.1 11.5 36.6 28.2l9.1-2.1c-2.8-8.1-1.4-11 5.9-15.3 16-9.3 51.1-19.2 69.7-23.4 124.1-28 261.1-16.7 360.5 69 27.7 23.9 47.7 64.8 64.1 97.8 31.9 64.2 59.1 137 74 207.3 10.9 51.6 9.7 105.2 13 157.2 10.7 170.5 15.7 341.1 14 511.9 0 5.9-2.2 24-10.2 19.3ZM922.3 117.4C857 70 772.8 47.9 691.8 51.4l-17.2 4c20.9 2.7 42.5 2.9 63.1 6.7 43.5 8 80.2 31 121 45 3.3 1.1 6.7 1.1 10.2 1l-2.1 4c16.3 5.3 34.8 16.5 48.4 27.5 28.1 22.8 41.5 40.9 60.4 71.1 47.6 76 71.8 153.8 93 240.9 10.7 43.7 7.9 71.6 10.7 114.7 1 15.7 5.1 32.9 6 48.6 5.3 89.3-6.2 178.3-4.1 267.2 1.3 55.8 9.1 119.6 5.5 174.6-.7 10.7-7.1 17.8 0 28.1 1.7 2.6 4.8 3.5 6.4 5.8 3.2 4.4 3.9 10.3 8.4 12.9 2-16.2-.4-32.9 0-49.6 4.3-189.8-6.1-380.4-17.2-569.1-4-67.2-36.9-164.6-65.3-226.3-25.2-54.8-47.3-105.1-96.7-141Zm-17.6 29.8c-57.2-45.5-180.9-81.1-253.3-81.8-15.1-.1-30.6 5.3-45.6 6.2 12.3 15.6 32.7 20.2 49.3 28.6 40.6 20.6 80.1 42 119.3 64.9 17.1 10 34.4 19.8 52 28.9l1.8 7.9-6.8 3.3c-32.1-20.9-64.8-41.3-98.5-59.5-41.3-22.3-86.9-39.7-126-64.3-2.3-1.5-2.9-5-3.6-5.5-3.9-2.3-30.2 6.4-15.7 14.8 38.6 24.9 83.4 42.7 122.4 65.8 16.4 9.7 32.6 24.8 50.2 32.8 10.3 4.7 32.1 4.6 12.5 17.9L557.8 91.3c-5.7-8.5-.4-12.4 5.5-17.6-3.8 1.1-35.3 9.9-32.4 14.1 5.7 1.2 9.9 5.7 14.8 8.5 52.3 29.8 116.7 53.6 166.1 84.9 5.5 3.5 4.3 8.4 6.7 9.9 3.8 2.3 39 12.2 39 17.1-6.1 9.9-31.2 0-40.4-4-16.3-7.3-15.4-14.2-23.6-21.4-15.6-13.6-84.3-41.3-107.9-53.4-22.6-11.7-44.8-27.3-68.8-35.4 21.6 20.2 49.4 34.4 74.7 49.7 5.2 3.2 9.3 8.1 13.6 10.6 14.8 8.6 45.7 19.5 57 28 4.6 3.5 3.7 7 5.8 8.8 7 5.9 36.8 13 46.8 16.5 4.6 4.4-.6 16-6.3 15.5-15.4-7.3-31.1-10.4-46.3-18.5-21.8-11.5-43.4-29.2-66.2-39-28.5-23.4-63.3-37-91.2-61.5-.8 4 .9 5.4 2.9 8.2 17.8 24.2 98.5 76.4 127.2 89.3 6 2.7 50.7 10.5 30.5 23.7-6.9 4.5-7.5-1-12.9-2.9-20-6.9-33.4-12.6-52-22.9-37-20.5-72.8-48-102.9-77.2-17 37-34.1 70.1-60 101.8-6.2 7.6-17.9 21.8-25 27.7-19.3 16.1-44.1 14.7-40.4 46.5 2.7 23.2 11.3 47.8 14.7 72.1 10.9 77.5 20.8 161 47.9 235.4 21.1 58 56.2 85.4 102 122.6 6.1 5 13.5 15.1 20.5 19.9 29.3 20.1 91.5 23.2 126.3 23.3 10 0 34.1 2.3 41.6.8 6.9-1.4 20.7-14.4 27.6-18.6 21.6-13.3 40.8-25.1 60.4-42.8 52.2-47.4 61.1-122.6 71.3-189.7 14.9-98.1-4.1-182.2-1.2-276.6.3-9.9-3.7-14.7 5.5-24.3 0-3.7-49.5-27.5-56.9-31.7-46.6-26.4-92-54.2-139.6-78.9-8.6-4.5-43.9-17.5-46.9-23.9s-1.6-4.4-.9-6.9c2.1-3.2 2.5-3.4 6.1-2.4 5.6 1.6 14.4 9.5 20 12.4 13.9 7.1 28.8 12.7 42.6 20.1l167 94.1 3-1c-36.5-37.6-87.9-57.8-132.9-83.6-12.8-7.4-39.3-20.9-49.1-29.8-4.6-4.2-8.3-8-2.1-12.2l22.2 11.3c-.5-5.7 3-9.6 8.7-9.6 65.8 25 130 48.1 182.6 96.5 67.5 62.2 105.1 169 125 257.4 12.5 55.7 6.1 122.8 9.6 180.7 4 66.4 12.1 124.8 12 192.2 0 62.4 6.7 128.1-.7 189.8-1.8 15.3-7.2 29.7-8.5 45.1l23.4 27.2c8.4-22.3.6-42.4-.1-63.7-3-90.7-3.2-181-1.1-271.3 1.9-79.5-.2-159.1-6.9-238.5-2-23.5-13.7-57.2-20.1-80.9-9.5-35-19.3-75-34.2-107.6-26.4-57.9-55.7-117.6-106.2-157.8ZM458.1 75.7c-3.5 0-6.9-.9-10.4-.8-29.9.7-62.9 41-79.6 63.7-10.6 14.5-19.5 32-30.5 46.5l3.1 12-5-6.1c-1.4 6.2-11.8 13.1-13.1 15.7-3.5 6.5-7.1 25.1-11.2 34.8-18.3 43.1-34 77.2-46.5 123.4-12.2 45-23.5 91.6-25.3 138.5-4 104.9-2.2 210.5 11.9 314 8 59 16.5 118.2 26.6 176.8 13.8-6.2 3.2-28.1 2-41.5-3.4-39.6-4.7-79.6-8.1-119.4-14.4-167-31.2-326.1 14.7-491 8.6-30.9 34.6-118.9 51.9-140.3 2.2-2.7 6.2-3.8 7.6-5.5 10.8-13.3 15.5-25.4 24.9-38.8 11-15.6 33.9-41.1 48.1-53.7 11.8-10.5 26.6-18.3 38.9-28.3m16.2 10.1c-19 1.8-30.8 17.8-46.5 26.3l4 4c-1.9 0-4.2.2-5.8 1.2-17 10.4-49.6 55.9-61.7 73.9-7.4 11.1-11.3 28.4-23.7 33.4-11 39.5-26.9 77.8-38.1 117.1-39.4 137.4-35.2 277.5-24.3 418.6 4.7 61.6 8.9 131.4 16.2 192.2.8 7.1 2.6 14.3 4 21.3 3.5 2.5 21.7-17.7 21.8-19.2s-4.4-6.5-5.1-11.4c-.7-5 1.1-9.2.8-13.2-11.9-133.3-26.1-260-17.5-394.1 5.8-90.4 16-204.4 38.9-290.9 4.5-16.8 7.9-13.6 16.9-23.8 32.3-36.6 61.8-75.9 95.3-111.1l25.1-24.5Zm417.6 90.3c-11.9-9.8-24.9-21-38.5-29.3-36.3-22.4-76.8-36.3-116.4-51.6l-7.7.6c2.8.4 5.7 1.5 8.2 3 56.7 32.9 117.4 61.5 167.9 103.3l-4 4c25.6 18.2 39.8 44.9 52.3 73.1 11.7 26.3 20.1 57.8 27.7 85.6 36.9 135.8 58.3 263.7 60.8 405.5 1.1 62.7 2.5 144.9-5.5 206.3-1.9 14.9-16.3 43.5 1.2 49.8 4.8-1 9.7-48.8 10.2-56.1 4.5-58.6 1.4-130.1.4-189.7-1.1-62.2-12.5-124.1-15.6-186.2-3.1-61.2 3.1-114.6-12.7-175.4-23.7-90.8-54.3-181.7-128.2-243.1ZM373.1 100c-1.6-1.6-16.5 12.2-18.6 14.2-97.7 90.6-131.7 249.1-147.1 377.6C187 662.6 225 825.4 245.3 993.5c1.3 11.2-.7 22.4 2.3 33.1l20.2-22.2c-1 0-2.8 0-3.3-.6-2.3-3.4-9.4-47.6-10.6-55.3-13.6-91.5-28.1-184.4-30.7-276.8-3.7-131.3-.6-242.5 43.6-367.2 9.5-26.9 23.8-52.3 34.8-78.6 10.4-24.7 12.3-38.6 27.7-63.4 13.1-21.1 29-42.5 43.8-62.4Zm97.1 10.1c1.4-.9 13.8-5.9 10.1-10.1-2.1-2.4-9.8 7-10.1 10.1-14.2 9.1-24.3 25-37.5 36.4l-75.9 93.1c14.5 6.3 17-7.3 25.3-16.2 18.6-20 86-91.5 88.1-113.3m-67.5 130.8c6.4-6.2 19.9-22.4 25.9-29.9 18.6-23.4 35.4-50.6 45.7-78.7-29.9 39-60.5 77.2-94 113.2.2 2.6-.5 9.4 3.9 8.1 6.4-2.2 9.8-7.8 14-11.4 1.1-.9 3.7-.5 4.5-1.3m626.1 682.5v-78c10.4-172-19.1-337.6-65.3-503.1-8-28.6-20.8-66.2-35.8-91.7-7.1-12.1-14.7-22.1-25.4-31.3l-5 6c1.1-.2 2.6 0 3.2.8 24 33.6 43.3 80.8 52.8 122.2 25.3 109.4 43.9 219.8 57 331.5 9 77 17.7 154.8 16.5 232.5 0 4.8-5.2 12.7 1.9 11Zm-680-277.2c-4.5 1.4-3.8 9.2-4 13-1.6 30.5-1.3 61.3-2 91.2-1.2 52.8-5.7 113.9 0 165.9.8 7.1 8.1 13.7 1.1 19.1-2.3-1.9-6.2-2-8.3-3.8-9.1-8-2.1-54.5-7-67.8 2.6-119.2 4.2-237.2 4.1-356.3 0-60.8-2.3-122.4 9.5-182.7 1.9-9.9 9-26.7 10-35.8.1-1-5.2-15.6-4.2-19.2-4.4 24.8-10.8 49.2-14.9 74.2-26.1 161-27 325.2-12.4 487.3 3.4 38 8.1 76.2 10.1 114.3l25.4-12.1-7.2-287.4Zm617.3 0c-7-49.9-9.9-100.3-15-150.4-6.5-64.3-10.1-128.9-34-190l-9.6-19.7c21 84.6 28.2 171.7 40.5 258 1 6.7-4.7 9.9 1.8 12.5 3.5 27.6 7.8 55.1 12.3 82.5s.1 6.2 4 7.1M366.8 342.4c1.4-2.4-9.7-21.8-5.8-28-3.1-4.4-9 25.4-9.5 27.9-9.3 49.3-6.1 102.2-4.6 152.2 3.5.5 1.9-4.6 2-7.1 1-25.8 3.8-51.1 4.1-76.9 4.4-18.7 3.2-40 6.2-58.6 1.4-8.8 6.8-8 7.7-9.6Zm20.4 578.9c-9.6-12.5-3-31.4-4-47.6-2.6-41.5-9.3-83.5-10.3-125.2-1.6-67 7.2-138.6 7.6-206.4.2-32.5-1.3-66.4-1.6-99.3-.2-19.1-3.5-24.3-7-42.3-.9-4.7 1.9-13.4-3-15.2-1.4 34-6.8 68.1-8.1 102-4.5 110.3.2 230.9 4.4 341.8 1.3 32.9 6.6 65.8 3.7 98.4l18.2-6.1Zm578.9 32.4c11.3-49.2 13.1-100.4 8.1-150.7-8.2-82.5-25.9-163.4-38.1-245.1-6.2-41.4-9.2-83.5-14.7-124.9-1.1-8.4-3.1-19.2-4.8-27.6-.4-2.2-.1-6.5-3.1-6l2.2 15-4.2 1.2 4.1 3.3c-3 38.8 7.1 76.9 10 115.1.8 9.9-.8 20.6 0 30.4 8.4 105.5 26.3 209.9 24.3 315.6-.4 20 6 39.9-5.5 58.6zm38.4 36.4c12.3-62.1 11.9-126.3 6-189.1-6.8-73.1-15.9-151.8-26.4-224.5-5.4-37.6-11.8-84.6-20.6-121-.5-2-.6-6.1-3.5-5.6l19.4 210.6c14.6 89.8 45.1 205.9 24.5 295.6-2.4 10.5-9.2 20.5-7.2 31.6l7.8 2.3Zm-99.2-497.7-2-18.2c2.6 5-6.7 19.6 2 18.2M405.2 565l-3-21.7-8.8-30.6v56.6zm-58.5-26c.1-4.3 3.6-8.6-2-10.1V539zm552.6 374.3c3.1-29.9 9.2-60.1 12.1-90 7.9-81 2.3-162.6-7.7-243.1-.7-5.7-3.7-51.5-7.3-51.3-6.7 19.4 1.2 34.9 3 53.7 8.4 89.4 7.4 184.6-10.3 272.9-3.1 15.5-9.5 32.6-12 48.6l22.3 9.2ZM344.7 545v32.4h2V545zm79 362.2c-19.4 6.5-12.9-13.2-14.4-25-3-23.7-8.8-47.7-11-71.5-6.4-68.8-.2-139.3 0-208 0-6.8.8-21.6-4.9-25.3-.7 63.6-8.4 127.8-6.2 191.3 1.5 44.6 8.2 90.2 9.8 135 .1 2.8-2.7 12.4-1.6 13.6 7.8-1.9 15.5-4 23.4-6 3.4-.8 5.9 2 4.9-4.1m-.5-287.7-11.7-34c-1.7 42.3-2.5 84.2-2.1 126.5.4 53.6 2.2 108.1 10.4 161.6.3 2.2.9 6.1 2.9 7.3 3.8-.1-1-27.9-1.1-31.3-1.4-42.7 3.4-86.2 2.2-129.7-.8-29.9-6.1-60.4-5.1-90.5.3-10.1 3.6-8.1 4.5-10Zm467.4 44.6c2.9-4.3-6.7-65.8-3.5-76.5-3-.5-2.5 3.8-3 6-5.6 24.8-6.9 42.5-7.2 67.9-.7 71.8-1.9 144.8-21.6 215-3.9 13.9-16 19.5 8.3 22.8 15.9-50.6 22-102.6 27.3-155.2v-76.7c-.1 0-3.8-1.9-3.8-1.9-.3-1.9 2.9-.5 3.5-1.4M437.8 905.2c4.1-.2 12.6 1.5 14-3.3-1.9-27.5-.8-55-1.7-82.7-.6-19.6-4.3-38.9-4.2-58.7 0-16.5 9-83.7 5.1-91.9-1-2.1-4.5-3.7-5.9-6.3-3.3-6-5.3-12.9-10.3-18.1zm408.3-38.9c.4-1.2-1.5-3.9-1-6.1 14.8-63.5 20.2-128.5 19.7-193.8-20.7 17.9-15.1 50.3-18.2 75.8-4.6 38-10 77.1-16.8 114.8-1.7 9.5-6.5 20.5-7.4 29-.5 5.1 9.3 2.9 12.2 4 3.1-1.7 6.8-17.4 8.1-21.8.4-1.4 3.3-1.6 3.4-1.9m-379.9 32.8c21.8 1.2 16.9-16.8 15.9-33.3-2-32.9-11.5-68.2-11.9-101.2-.3-23.1 3.4-45.9 6.2-68.8l-10.2-13.3c-9.8 59.3-1.8 119.6.1 179 .2 5.3-2.2 9.8-2.2 14.2 0 6.9 3.9 15.4 2 23.3ZM986.3 974c10.1-31.6 13.2-60.8 12-94-2-56.7-10.5-115.7-20.7-171.5-1.1-6.2-2.6-14.2-4.1-20.2s-.6-6.1-3.4-5.6c-.9 12.3 4.3 24.1 5.8 35.6 10.8 81.5 20.5 165.5 2.1 246.6-.1 4.6 3.1 9.6 8.2 9.1ZM808 886.8c9.9-34.5 15.4-70.6 20.2-106.3s7.2-49.8 6.3-73.6l-27.8 27.3c9.7 21.4-2.4 48.8-6 71.4-4.2 26.8-6.7 53.8-12.8 80.3l20.1.8ZM495.7 713.9c-2.2-1.8-4.6-3.9-7.2-5-9.1 46.1 0 89.7 4 135.6 3.7-.8 3.8-4 4.1-7 1.5-13.5-2.2-27.8-1.8-40.2.5-18.2 4.5-41.2 7.6-59.4.9-5.5-3.9-9.1 4.2-13.8-4.8-2.2-7.2-7.1-11-10.2Zm436 11.2c-5.7-.8-3.8 1-4 5-1.7 26 .6 52.9-2 78.9l-14.3 111.1c5.5 2.6 11.7 4.1 17 7.2 1.8 1.1 2.2 9.3 5.6 1.2 2-4.6 5.8-17.8 5.9-22.5.5-58.8-4.8-114.3-9.7-172.6-.3-3.6 0-5.2 1.6-8.4ZM526 740.2c-1.3-1.2-8.8-7.4-9.2-7-9.8 46-3.8 93.2-8.1 139.6 5.9.9 3.6-1.2 4-5 4-34.2 7.6-68.9 12.4-102.9 1-6.9 2.4-14.4 5.7-20.6-2.1-1-3.2-2.5-4.8-4ZM773.8 887 798 752.1l-2.9-8.8c-.8 6-18.9 11.1-18.8 15.1 0 1 3 2.7 3.1 5.6.4 11.4-5.9 45-7.9 58.9-1.9 13.2-7 27.5-7.9 40.7-.6 9.9-2.7 22.9 10.2 23.3ZM557.3 761.6l-16.2-6.1c-3.7 26.4-5.5 53.1-8.4 79.7-1.2 11.2-5.1 24.3-5.9 34.7-.2 2.3.9 18.1 3.1 19.1 4.1 1.8 3.1-4.1 3.6-6.5 2.7-12 6.3-23.7 8.9-35.6 6.1-28.3 8.4-57.2 14.8-85.3Zm206.4 2-18.2 10.1 8 5.3c-2.7 5.9-2.7 34-7.1 35l-6.9-1.8 10.1 44.5c2.8.6 2.5-3 3-4.9 4.8-22.6 9.1-48 11.3-70.8.5-5.6-.5-11.6-.1-17.3Zm-200.4 64.7c2.9-14 7.4-27.9 9.5-42.1.5-3.3 3.7-13-.4-14.5-3.7-1.3-3.8 3.3-4.4 5.6-2.9 11.5-5.1 31.8-6.5 44.2-.2 2.2-1.8 7.3 1.8 6.8m30.4-52.6L557.3 887c29.8-27.7 34.4-72.5 36.4-111.3M744 880.3c-12.5-16-14.5-62-21.4-82.8-2.8-8.6-8.1-8.8-16.7-9.6-32.3-3.3-67 4.2-98.1-8.1-1.5 32.5-5.4 65.7-21.9 94.4-5.6 9.7-13.5 15.3-18.5 24.9 5.7.6 10.4 4 15.8 5.5 34 10 113.2 10.4 146.1-2.5 8.4-3.3 13.2-10.3 22.3-12.1 5.2-3.4-6.5-8.3-7.5-9.7Zm-2.6-100.5-10.1 2 4.1 14.1c6.3-2.5 2.7-11.2 6-16.2Zm36.5 121.3c-21.1-5.7-33.7 8.8-50.6 15.1-28.9 10.7-100.8 10.8-131.6 4.2-23.2-4.9-42.4-20.3-66.7-21.3 22.2 21.9 49 35.9 80.2 40.2 43.8 6 124.2-7.7 162-31.7 2.5-1.6 5.8-3.3 6.7-6.4Zm250.9 24.3c-5.6-.8-3.8 1-4 5-1.6 25.2-3.2 45-9.3 69.6-.4 1.5-5.1 4.4.3 6.2 4.4 1.5 2.9-3.9 3.6-6.5 6.5-23.9 6.6-50 9.5-74.4Z" class="st0"/><path d="m794 269.9-12.1 40.4 9.8-.3 20.6-40.1 6.1 1c8.6 5.9-20.3 36.9-16.2 41.5l12.2 1.2 21.5-31.2c14.9-.2-2.4 16.1-6.2 22.2-3 4.9-3.3 11.3-9.3 15 1.3 4.1 9.1 4.5 9.8 5.4 1 1.2-.1 6.5 1.3 9.8s10.9 7.7 4.5 13.8c-1.8 1.7-8.1-.4-7.6 10.5-7.7 1.4-8.9-5.5-13.1-10.1l-8.3 16.1c-7.5 2.3-13-13.2-19-8-.9.8 8.5 11.5-4.8 14.1-5.7-1.3-4.1-10.6-6.6-12.1-11.4-6.6-8.8 6.2-15.8 6.2-7.2 0-5.6-16.7-20-12-3.5 1.1-2.1 7.6-6.3 5.9-5.6-5.4-3.8-13.3-12.2-16.1-11.1 18.6-11.1-10-16.3-19.3 0-5.7 6.7-5.9 6.9-7.9.6-5.5-14.8-24.1-21.7-25.6l1.8-6.9c2.6-1.6 21.6 14.5 24.3 18.2 3.1 4.2 2.6 11 8.1 13.2-4.3-8.7 0-13 1-19.9.5-3.5-3.6-15 5.2-11.4 10.1 4.2 1.5 21.3 0 29.3h14.2l-4-12.1c12.8-.4 8.7-16.7 8.1-26.3l6.8.2c9.2 10.5 1.6 24.3-.8 36.2 24.6 6.8 20.3-27.6 29.3-38.4 2.5-3 5.9-2 9.1-2Zm-44.5 54.6c-1.6-1.9-19.6-.3-23 .2-2.3.3-9.4.7-9.3 3.8 10.7 3.8 18.2 13.8 30.3 14.2-2.7-7-1.4-11.7 2-18.2m36.4 4.2-22.2-6.2-8.1 15.2c15.5 8.7 28.4 14.5 30.3-9m36.5 1.9-25.2-8.1c-3.1.6-1.9 18.4-3.1 22.2 1.2 1.4 27.6-7.8 28.3-14.1M540.7 272.3c1 1.3 6.3 29.5 6 31.1-.6 2.9-6.2 1.5-5.6 4.9l13.9-.2 2.3-20 6 4c1.9-10 8.6-17.3 17.2-22.2 1-.3 2.8 5.4 2.6 6.7-.8 4.7-21.1 24.1-16.8 33.7 3.7 5.4 21.1-8.1 25.3-11.3.8-.6 12.1-15.3 12.2-6 0 7.1-21.9 22.6-22 24.2s3.4 4.3 3.6 8c.4 10.7-7.5 20.7-3.8 31.5-8 1.2-8.2-8.1-16.2-4 7 14.4-7.2 15.4-8.1 2l-8.1 2v10.1c-8 2.4-5.4-6.5-12.1-6.1l-2.1 10.1c-7.4 1.8-5.1-9.8-7.1-10.1l-6.8.4c-7.5 21.9-6.9-10.2-16.5-3.2v6.9h-8.1c-.7-.7 4.6-18.8-7-16.2-2.8.6-1.9 7.8-6.1 6-4.9-2.6-1.4-6.9-2-9.1-1.4-5.6-9-8.4-7.4.8l-7.9.3 2-8.1-7 2-2.8-3c5.9-9.8-2.6-9.7-2.3-17.3l8.1-4c-17-3.1-30.3-14.3-48.6-14.2l2.4-5.7c6.1-4.1 43.3 10.3 50.8 13.8s2.9 7.1 11.6 4c-10.3-11.8-25.2-19.9-40.4-24.4v-5.9c2.7-4.2 23.3 7.1 27.6 9.7 8 4.8 14.8 12 22.9 16.6l-4 4h8.1c1.1-10.1-23.8-29.4-22.3-35.4l5-3.1c6.8 11.2 26.6 22.5 21.3 36.4 7.7 3.5 15.3-4.6 19.2-5.1 3.4-.5 19.5 2.9 21.3 1.1.3-12.8-12.7-26.1-3-38.4 1 1.7 4 1.4 4.7 2.4Zm34.8 50.2-34.4-6.1c6.4 7.7 13.4 17.9 8.1 28.3l24-6.3zm-46.6-4-4 1.4-10.2 13.7c.4 3.1 12.5 18.6 17.3 15.3l1.1-5.9 8-.2c4.5-18.4-8-11.8-12.2-24.3m-18.2 2-38.4 7.1c11.2 8.6 23.8 14.9 38.4 17.2-2.3-4.3-6.7-7.6-6.1-13.1.5-5.1 6.8-6 6.1-11.2M622.4 623.4c1.8 1.6 12.4 0 16.6.7 16.7 2.6 11.3 4.8 28.6 1.9 7.8-1.3 27.4 2.4 35.4 4.9 14.1 4.4 24.7 15.9 38.4 20.3-1.2 7.5-6.8 8.8-5.9 18.2-44.3 14.8-90.9 21.3-136.6 9-4.1-1.1-30.4-9.7-31.6-10.9-2.3-2.3-3.7-11.5-2.5-14.7 2.1-5.6 12-9.4 17.2-12.7 1.7-1.1 2-4 5-5.6 7.7-4.1 22.7-5.8 30.5-10s2.7-2.3 2.5-4.7h2c0 1.1-.3 2.9.4 3.5Zm98.8 26.9c-10.4-4.1-45.9-15.3-54.6-11.2s-4.5 6.1-7.5 6.9c-6.1 2.1-5.9-5.9-10.1-7.5-18.1-6.9-50.4 1.9-66.5 11.6-1.8 1.1-4-1.1-2.9 4.2 30.8 3.1 61.4.6 92.1-.1 15.3-.4 31.2 1.9 46.6.1 2.9-.3 5.7-1.1 3-4Zm0 14.1-141.7-1c0 .8 11.7 6.1 13.7 6.6 28 6.9 90 6.7 117.9-.4 2.5-.6 9.7-2.1 10-5.1ZM654.1 494.2l3.4-7.6 19.8 5.7c9.7-3.1 4.8-27.7 3.2-34.7-1.6-7.3-2.8-10.2-3.9-20.7-.7-6.7-5-32.1-3.8-36.1s4-4.2 6.8-3.4c5.2 1.6 2.5 18.1 3.1 23.2 1.3 12.4 12.7 61.7 9.6 68.6s-8.1 5-8.8 11.5c-7.6 2.3-19.1-4.6-21.9-4s-2.7 4.8-4.6 6c-8.3 5.2-18.6.3-25-5.6-2.8-10.9 8.1-36 8.3-48.3.1-10.7-1.7-27.8-2-40.4s-4.8-19.4 6.8-9.1c.7 19.8 3.4 39.6 1 59.5-1.7 13.8-17.8 39.6 8 35.3ZM856.8 251.7c-11.5.3-22.2-5-33.4-6-24.8-2.2-63.9 2.1-88.1 9-6.8 1.9-13.7 7.8-17.5 8.8-7 1.8-9.4-4.7-1.1-9.3 8.1-4.5 37.9-15.2 46.6-16.3 15.8-1.9 39.7-3.7 55.6-1.8s46.8 6.9 38 15.6ZM556.8 242c1 .6 1.1 3.6 2.3 4.5s7.9-1.5 8.1 2.1c0 .9-2.6 5.1-4.5 5.8-4.6 1.6-31.4-3.3-41.1-2.8-8 .4-26.6 2.7-34.2 4.3-16 3.3-35.4 18.2-53.8 16 6.3-5.4 18.9-11.5 26.9-14.5 15.4-5.8 84.1-22.9 96.1-15.3Z" class="st0"/><path d="M526.9 304.3c-12.7 2.6-9.7-4-14.3-9-5.6-6.1-21.3-7.5-20.1-19.3 4.3-4.1 36.3 18.5 34.4 28.3M777.6 330.9c7.7 4.6-4.6 17-11.8 4.7-1-5.1 8.9-6.5 11.8-4.7M533 340.7l-8.3-.9-1.8-9.2 8.2.9zM501.6 1163.2c-10.6 4.8-49.2 8.7-48-8.3 5.6-2.5 11.5 2.1 17.5 2.8 5.1.5 27 .3 29.6-3.6 7.1-10.4-4.8-66.1-1-81.3 34.7-5.1 50.3 44 34 68.1-6.3 9.4-17.5 14-24 22.2l-1.7 43.5c.2 2.1 7.3 14.6 9.1 15.8 5.5 3.9 14.6-1.5 15.8 6.3-8.6 11.9-23.5 3.1-25.7-9l-3.8-1.1c-2.8 24.8-20.4 30.7-31.8 6.8-10.5-22.1 6.7-52.5 29.9-29v-33.2Zm7.3-14.8c33.1-7.4 32.7-65.1-3.7-64.5 4.5 16.5 2.9 33.8 3.7 50.6.2 4.9 3.6 8.8 0 14Zm-18.4 83 8.6-23.1-14.8-9.8c-13.3 9.6-10 29.6 6.2 32.9" class="st0"/><path d="M664 1229.6c-4.4 2.3-9.2-5.5-10.1-5.5-1.2 0-9.4 11.7-21.7 8.8-3.6-.8-6.5-5.1-9.3-4.9-3.4.3-6 4.6-8.8 6-12.4 6.2-14.3-4.3-22.8-4.6-7.4-.2-11.6 5.7-17.1 7.1-57 14.2-36.7-66.5 8-31.1l7.1-5.4c9.9 4.6 7 29.1 19.9 25.5 15.1-4.2 1.9-21.2 11.5-27.4 8.5 3.5 5.6 18.3 8.1 21.3 4.5 5.3 15.6 2.7 19.6-2.9 3.7-7.6-5.2-14.9 3.7-20.3 4.4 0 13.8 31.3 12 33.2Zm-85.4-18c-7.3-7.2-34.8-5.6-30.7 9.3 3.6 13.2 43.9 3.7 30.7-9.3M793 1231.6l.2 5.3c-12.2 7.3-25.5-9.7-34-9.2-7.5.5-13.6 10-23.4 10-20.7 0-29.9-7.9-19.6-27.1 7.9-14.7 20.1-18.9 35.3-10.3 1.3.7 14.5 10 15.1 10.8 1.7 2.5-.1 6.6 2.7 10.2 3.7 4.7 18.2 7.2 23.8 10.4Zm-61.3-23.8c-5.9 1.8-12.9 15.5-5.6 17.9 5.7 1 27.2-4.6 28.2-10.2-1.7-7.9-16.1-9.6-22.6-7.7M679 1231.1c-1.9-3-3.6-34.5-1.8-36.4 6.5.6 7.5-7.3 14-8.9s18.8-2 20.5 4.4l-1.5 5.3c-35.1-.5-17.8 15.5-22.6 32.8-1.2 4.3-6.7 5.7-8.6 2.9Z" class="st0"/></svg>