<svg xmlns="http://www.w3.org/2000/svg" id="Calque_1" viewBox="0 0 1300 1300"><defs><style>.st0{fill:#313a94}</style></defs><path d="M1223.9 416.5c-1.8-7.9-2.1-15.3 0-23.5.4-1.6 3.3-1.3 4.1-3.3 1.4-3.5 1-24-.9-27.4-4-6.9-1.5-3-2.2-10.2-1.6-15.4-5.6-28.3-14-41.3-1.6-2.5-3.1-6.7-6.8-6.3-3.5 12.1 5.5 19.3 9.8 29.3 3.2 7.5 4.9 16.2 8.6 23.6l-4.6.8c1.5 3.1 4.3 8.5 4.3 11.8s-4 3.8-4 7 3.8 7.6 4.4 11l-7.7 2.4c-.1-4.4-1.2-9.3-2.7-13.5-.9-2.4.8-4.1-3.5-3.4 1.7 11.9 5.5 23.6 10.7 34.5l-3.6 2.1-5.6-2.9-9.2 20.5c6.4 17.9 10.6 38.6 21.3 54.1v2.4c-3.6 7.4-7.2 1.1-9.6-3.7-1.5-3-1.4-7.9-4-9-1.5 5.2 7.5 19.9 1.5 22.2-1.9.8-2-.6-3.1-1.5l-14.5-56c-1.2-1.1-1-2.3-2.3-.7-6.9 8.5-.2 9.9 2.3 17.5 3.4 10.1 7 27.5 9.2 38.3 1.2 5.8 6.3 22.7-2.4 23.1l-15.3-53.6c6.3 31.8-.4 64.2-2.9 96.1-2 25-1.1 46.2-6.8 71.3-11.9 52.2-21.2 106.1-44.7 154.6-17.2 35.5-32.5 64.7-53 98.5-3 4.9-2.2 6.8-3.2 8.6s-13.7 8.9-14.5 9c-17.1 3.6-25.7 8.1-41.3 12.6-7.2 2.1-7.1 1-13.3 3.6-23.1 9.9-49.7 4.2-70.7 12.1-9.7 3.6-21-1.9-30.9-1.9-4 0-7.8 1.8-12.2 1.7-12.1-.2-24.1.3-36.1-1.6l.8 3.1c-.8 1.3-1.8 1.3-3.1 1.5-4.3.6-42.3-6.5-48.6-8.1-25.4-6.7-46.9-31.6-62.6-51.3-25.7-32.3-37.5-65-56.7-100.8l3-.7-1.6-5.3 3.1-.9v-3c-2.5.2-2.8-1-3.8-2.9-2.7-5-18.6-49.1-19-53.1s6.6-2.4 1.4-10.6l3.1-1.5c-11.4-47.4-18-96.8-21.5-145.7-.3-4.6 2.8-.8 4.6-.8v-19.9l-5.3 16.9-8.5 1.5 4.6-18.4-6.1-1.5c1.1 6.3-1 15.4-7.5 8.2l6-42 6.1 1.5v27.6c0 .2-3.8-1-3.1 1.5l6.1 1.6c0-3.7.9-7 5.4-6.2s-.3 3.8 2.3 3.1c6.6-16.9-9.1-29.5-15.6-43.4-8.4-18.1-12-60.1-4.4-78.5 5.6-13.5 19.1-22.3 28.3-6.7 1.2 2 8.5 18 9.1 20.1 2.4 8.1 2 36.6-11.3 27.8.2-8.6 5.5-18.4 2.9-27-.8-2.5-3.9-3.7-5-5.8-1.6-3.3-4.7-19.4-10.8-12.1-5.5 6.7-11.9 31.9-6.2 39.8 4-21.7 24.6-13.9 14.8 6.8l-6.3.9 4.6 19.9c-4.9.7-8.5-.9-9.2-6.1-2.5-.4-1.6 2-1.4 3.7 1 8.8 6 22.1 13.6 27v-6.9l3.1-.8 4.6 9.2 4.6-36.8-6.1 21.5-4.6-.7c-2.6-1.9 2.3-23.1 3.9-25.4 2.2-3.1 5.5-.2 8.4 0 1.1-7.5 2.5-18.4 7-24.5 2.5-3.3 7.6 0-1.7-6.1l2.1-10c-.4-1.9-5.6-1.8-5.8-7.8 0-2.7 7.7-31.6 9-33.4 2.1-3 10.6-2.8 9.3-10.3l4.6 1.6 6.1-23c-2.7.1-9.4.9-9-3.6l35.1-54.7c-5.1-.4-7.3 8.9-12.4 5.4-1.9-1.3 0-5.6-4.5-3.1-2.2 1.2-14.2 20.9-16.5 24.9-5 8.5-9 28.5-20.2 18.9l-9.3 23.6 4.7 4 9.7-18c.8-.7 3 0 4.2-1.4 4.2-4.7 8.1-18.5 13.7-22.8l3.1 1.6c.5 3.2-13.1 20.3-14.4 25.2-.6 2.1 1 4.4.3 6.5-4.6 14.4-10.8 28.6-10.5 44.1-16.4.4-4.5-19.3-3.3-27.2.5-3.5-3.4-8.1-5.2-5l-4.1 26.6c-.5 4-8.5 2.3-9 0-1-5.5 2.4-10.2.8-15.7-2-6.9-4.5-3.3-7-4-10.9-3.2 1.4-17.8 4.7-14.5l1.5 9.2c.6-12.1 7.3-22.5 11.9-33.3 1.5-3.5 1.7-9 3.3-11.6.8-1.3 12.1-8.4 14.9-10.8 15-13.2 20.7-28.2 32.7-40.2 2.2-2.2 5.6-2.3 7.8-4.5 2.7-2.6 18.6-17.9 19-19.2.7-1.9-1.2-5.3-.7-7.7-16 11.1-29.2 25.5-42.2 39.9-1.5 1.7-4.4 2.5-6.2 4.5-2.9 3.4-13.5 22.1-16.8 21.5-3.6-.6-1-3.7-.5-5.1 1.8-6.2 22.2-37.6 27.5-40.1 11.5-5.6 12.4-7 22.6-16.1 1.9-1.7 11-7.1 11-10s-7.6-4.8-3-9.9h-3c-2.2 5.4-10.5 8.7-15.4 13-28.3 24.8-47.7 54.9-70.5 84.4l.7 2.3c2.6-4.8 12.6-7.8 10 0h6.8c3.6 4.4-2.1 4.7-3.5 7.1-1.6 2.7-5.3 13.1-6.3 13.7s-5.7 1.1-6.2.7c-.8-.8 1.4-5.1-1.6-4.6-.1 3.5-2.9 5.9-4.2 8.9s-4 8-3.6 10.1c.2 1 3 .7 3.1 1.8s-1.3 2.9-1 4.2c.8 3.4 2.9 6.4 2.5 10.1-4.7 2.1-6.7 2-10.7-1.4.2 3.1-2.4 6.8-1.4 9.8.7 2.3 5.4 2 5.3 6.3 0 2.8-4.6 15.6-7 16.9s-6.2 2.3-6.2-1.6c0-6.4 3.6-13.5 6.2-19.1l-7.7-3.1.8 15.4c-6.3.8-9.1 5-14.7 4.6-.5 3.9.9 9-.3 12.7-1 3.1-7.2 4.2-7.3 9.6l-13.2-2.3c-4.3-6 7.8-61.2 11.6-71.4-5.9-3.3-3.7 8.9-5.3 11.5-2 3.2-9.2 0-9.8-2.5 1.3-4.1 1.7-9.4 3.3-13.2 5.2-12.5 21.2-38.1 29-50.8 5.6-9.2 15.4-15.7 14.6-26.6l24.9-42.7c.2-5.6-7.1 6-7.4 6.4-3.7 5.9-4.6 11.7-9.5 16.6l-5.5-.8c-3.5-5 9.7-20.1 13.1-24.9 5.2-7.4 8.9-14.4 14.8-21.6 9.1-11.1 20.5-27.3 29.7-37s24.9-16.5 25.8-17.9-2.3-4.6 1.4-7.5c24.1-6.7 83.8-37.2 106.7-31.8 3.1.7 5.1 3.9 8.1 4.3 6.8.9 22.6-2.3 32.2-1.6 13.2 1 33.4 4.2 39.8 16.9l10.7-7.6c1.1-3.3-.2-5.7-3-7.6-4 3.7-6.6 9-13 7.6-7.6-5.6 20.3-23.1 24.7-25.1 20.8-9.7 37.1-4.6 57.3-5.5 6-.3 14.2-4.6 20.1-4.4 6 .1 15.9 5.8 22 6.6 23.6 3 35 10 57 16.9 15.3 4.8 14.1 3 28.7 11.1 4.1 2.3 9.9 2.1 11.9 3.4 3.1 1.9 48.2 49.8 50 52.9s1 7.6 3.9 12.9c6.4 11.5 18.4 24.2 25.9 35.5 3-3.5.8-7.8.8-11.5 0-2.5 1.5-4.8 1.2-7.3-1-9-15.1-24.1-18.3-33.2l-9 .7-41.3-49.2c-15.2-7.1-31.3-13.6-47.3-18.7-7-2.2-16.6-5.5-23.3-5l.7-6.2 4.6-1.5 46.1 16.9c-1.5-4.6-10.1-7.1-14.6-7.7 4.4-7.1 14.5-.8 19.8 2.5 10.5 6.5 16.2 19.2 30.5 17.8L1185 153c2.6 3 5.8-1.1 8.4 2.1 5.5 6.7 9.5 24.2 15.6 33.7 7.4 11.5 2.9 6.6 6 18.4.6 2.2 6.5 17.5 7.5 16.3l.8-4.6 6.7 2.6 5.8 44.7c1 6 6.3 26.2 5 30-.7 2-3.6 2.1-4.1 2.8-2.2 3.5 5.4 24.6 6.6 30.3 1.7 8.3 7.1 30.8 6.7 37.7-.3 4.5-5.8 7.6-8.9 2.8-3.6-5.5-3.9-21.2-5.5-28.2-.4-1.7 0-5-2.3-4.6-2.9 15.5 3.6 37 1.6 51.5-.4 2.8-2.9 2-3.1 3.2-.9 3.6.5 8.8 0 12.7l3.8-7.7 2.3 3.1-1.5-27.6h6c.7 5.6 1.6 11.2 2.6 16.6s3.2 7.3 3.3 8.9c.2 3.4-1.3 2.7 0 10.8.8 5.2.2 10.1 3.1 15-2.6 3.7-6.5 4.4-10.4 2.3 1.2 8.1 5.2 17.3-6.1 18.4-3.6-8.6-5.4-20-10.8-27.6 1.6 7.4 11.2 33.5 10.8 37.6-1.2 11.6-13.1-3.7-9.3-11.5h-6.1c-.5 3.5 11.6 20.8 2.3 18.4-2.2-.6-2.4-.6-3.5-2.6-1.2-1.9-9.8-28.7-9.6-30.3l3.1-1.5c0-1.5-4-6.1.9-5.5l6.9 10.7-3.1-18.4c4.5-1.7 4.9-.9 7.7 3.1ZM1032.2 92.9c-10.6-11.5-26-16.4-41.4-15.3l4.6 9.2c-25.5-7.2-57.9-5.4-79.7 10.7 8.7-.4 17.4-6 25.4-7.6 1.7-.3 4 1.1 5.8.9 11.3-1.6 21.7-3.9 33.7-2.6l2.7 6c6.4-.2 11.9 1.1 17.9 2.8 19 5.6 39.7 15.1 56.6 24.7 3.3 1.9 7.4 2.3 10.5 4.8 4.7.2 1-1.6-.3-2.8-5.4-4.6-11.6-10.4-18.9-11v-4.5l7.7-.9c13.7 11.1 28.5 21.4 41.7 33.1.9.8 1.3 1.9 1.2 3l3.8-6.1 3.8.8 44.5 58.3 5.3-3.8c16.5 19 28.6 41.2 41.8 62.5 1.6 2.6 4.4 3.6 6.4 5.9l15.5 34.3-7.6-38.2h6.9c0-.1 3.8 22.9 3.8 22.9l6-5.3-13.7-39.2h-3c5.8 7.9 2.6 13.9-3.8 19.9-8.2-6.8-10.8-16.6-16.4-25-9.6-14.7-20.8-28.3-31.1-42.5l-.7-5.9 6-1 10.7 16.2c-9.5-20.9-24.4-43.5-40.6-59.9-22-22.3-45.9-35.5-76.3-43.3-1.6-.4-4.8-2.4-5.8-.4 6.1 6.2 16.8 6.3 24.5 9.2 17.3 6.6 42.1 25.3 54.5 39 2.9 3.2 14.1 17 15.3 20 1.5 3.8-.5 6.8-4.4 7.5-.8-.1-8.8-8-9.4-9.2-.9-1.9.3-4.9-1.1-7.9-11.9-25-71.6-54.6-98.7-55-4.8 0-5 6.1-11.4 4.7-.7-4.8 3.3-8.4 7.7-9.2Zm13.8-1.5-9.2-1.5c1.2 3.9 5.9 3.1 9.2 3zm-66 3.1c-21.4 2.2-36.7-.4-55.1 13.1l-30.8 26c4.4 1.9 11.3 1.3 14-3 1.5-2.4-.5-4.7-.1-5.3s7.4-2.1 9.7-3.5c6-3.6 11-8.8 17.4-11.8l2.1.6c1.8 8.2 12.8 0 18.3-1.5 4.6-1.3 27.2-7.2 30-6.9 1.3.1 2.3.4 3.1 1.5l.7 4.6c-9.3 3.3-19.4 4.4-28.8 7.2-12.7 3.8-46.2 13.8-51.9 25.5-1.7 3.4-1.2 6.5-2.2 9.1s-3.6.2-3 2.6l9.1 3.1c2.9-5.7 8-13.1 12.3-17.6 1.4-1.5 13.7-12.6 14.6-13 3.4-1.4 3.2 4.7 2.3 6.1 18.8-6.9 39.1-9.4 59-12.3l3.8 2.6-1.5 5.2c11 1.8 24.9 5.8 35.1 10.1 7 3 37.6 19.8 41.6 24.4s-.6 5.7 1.4 7.6c3.4 3.1 15.2 7.6 20 6.9l-26.1-29.9-12.2-2.3c-1.7-7.9 3.7-2.1 6.1-6.1-7.7-3.7-14.6-8.5-22.6-11.9-16.3-6.9-38.1-8.6-51.8-18.7-2.3-1.7-3.5-5.9-4.9-6.2-4.5-1.1-9.7 1.4-14.2 1.6-1.5-5.5 2.7-4.1 4.6-7.6Zm33.8 12.3-9.2-1.5c-2.1 1 6.7 4.2 9.2 3zm-161.1 0h-19l-.9 4.6zm-39.8 4.6c-8.6 3.1-19.6 3.2-26.1 10.7l7.6-.8zm-76.4 37.1c1.2-2.1 37.2-21.1 42.7-22.6V116c-10.9 3.6-24.2 7.1-34.3 12.2-1.8.9-11.4 7.1-14.4 9-6.3 4-19.6 10.6-15.8 18.7 2.4.1 1.7-2.9 3.9-4.4 3.6-2.5 10.7-3.4 14.4-.9 1.7 1.1.7 4.2 3.1 3.8.1-1.8-.6-4.2.3-5.8Zm139.3-28c6.5 3.3 16 6.1 21.4-.7-3-3.6-8.6-4.5-13.1-4s-1.9 2.7-3.3 3.2-5.4-1.3-5 1.5m-46.1-3-24.5 6.1 4.6 9.9-9.2 3.9 30.7-2.2c3.9-2.5-2.2-14-1.6-17.7m20.7 13.8h29.1c.4 0 1.8 2.7 3.1 2.7l3.8-4.2-29.7-1.5-1.8-4.7-13 3.1 8.4 4.6Zm306.4-5-1.6 1.6 6.9 6.8 1.6-1.6zm-95.5 31c-4.8-4.5-12.6-8.4-18.6-11.3-21.2-10.3-48.6-19.7-72-15.6-18 3.1-44.7 11.2-53.6 28.4 10.8-4 21.6-9.2 32.5-12.7 12.9-4.1 31.5-10.7 44.1-6.5l-15.3 8.4c6.2 3.7 11.8.8 17.6 1.5 13.6 1.8 26.7 5.1 39.2 10.8-8.1-7.1-18.6-12.1-28.1-17.2-2.1-1.1-4.7-.6-6.7-1.7-.3-.2-4.8-3.9-5-4.2-2-2.5 1.9-3.9 4-4.1l61.8 24.1Zm-269.9-26c-12.5 2.6-27.1 8.5-35.3 18.4zm373.4 4-1.9 1.6 12.6 15 1.9-1.6zM881.9 142c-11.4-4.5-22-2.6-33.7-1.5l30.2 5.9 3.5-4.3Zm288.3 90.5c-13.3-18.3-26.1-39.4-41.4-56-5.4-5.8-16-16.6-22.3-20.7-8.5-5.5-20.6-9-28.4-16.8-1.2 1.2 5.2 8.3 6.4 9.7 2 2.4 13.8 15.1 15 15.7 1.8.8 3.7-3.6 7.4-2 2 .9 7.5 11.8 9.5 14.2 9.9 12 22.3 22.9 32.2 35.3 5.7 7.2 7.5 16.2 16.2 17.5l13 29.2c3.3-.4 0-5.5.3-8.1.3-2 2.7-3.8 2.5-6.2-.4-5.2-9-6-2.8-14l-3-2.3-4.6 4.6ZM791.4 142c-2.4-1.2-22.5 9.4-25.9 11.6-1.8 1.2-13.2 8.8-10.8 11.4 12.5-3.9 23.4-12.8 36.8-13.8V142Zm101.2 3.1h-6.1v3l6.1 1.5V145Zm-6.1 36.8h-56c-.5 0-5.8 5.4-10 3.1 1.3 2.7 2.1 4.2-.8 6.1-2.6.6-6.2-4.2-7.6-4.2s-4.5 4.5-7.4 3.9c-4.1-.8-5-6.7-1.5-9.1 6.1-4.2 22.2-7.3 29.7-9.9v-10c22.6 4.5 46.9-2.2 69.3 5 11.5 3.7 7 5.8 10.5 12.1 1.2 2.2 5.7 2.7 4.6 7.4 20.7-9.6 42.9-19.4 65.9-20-.6-2.6-3.1-3.1-5.4-3.2-6.7-.3-35.1 6.5-39.1 3.2-.9-5.1 10.8-5.3 14.8-5.9 12.1-1.7 23.7-1.4 35.8-.2-3.8-7.8-13.9-.9-21.5-6.1l1.5-4.6c-19.7 1.4-34.2 17.7-52.8 21.6l-2.3-5.6c-6.9 3-10.8-4.1-14.3-5.7-26.7-12-65.7-10.9-94.7-13.4l17.6 6.9c10.3.7 36.8-7.1 36 8.4-18.6-3.9-39.2-1-57.3 4.5-6.9-6.4 1-11.5 8.3-10.7l-2.3-2.9c-11.2 5.1-23.4 7.8-34.6 12.8-11.4 5.2-36.6 21.8-45.4 30.4-.6.6-3.9 5 .2 4.1 12.3-8.5 25.5-22.2 38.7-28.9 2.5-1.3 5.4-1.2 8.1-1.7l-2.3 6.2-31.5 21.5c-.8 1.2 1.3 4.5 2.3 4.5 2.7.2 35.9-30.8 45.2-29.1-.6 8.7-4.7 6.8-8.9 10.3-3.6 3-24.2 19.6-24.8 21.1-.2.4 5 1.7 3.8 6.9 10.1-11.8 22.9-19.9 34.5-30l6.1 3.2-39.2 36-11.4 17.6c-.2 1.2 1.4.9 2.3.8 1.5-.2 21.9-12.7 22.8-13.7 1.7-2 .4-4.1 1.4-5.9 2-3.5 27.8-23 32.5-25.1 10-4.4 11 .4 16.9 0 9.1-.5 26.7-11.2 37.8-5.3l24.4-7Zm-179.1-26.6c-.5-.3-.3-2.8-1.1-2.6-2.9.8-20.8 19.1-23.7 22.7-2.2 2.7-5.9 6.1-6.2 9.5 6.7-3.6 13.2-15.1 19.3-18.2 6.1-3.2 12.8-1.9 17.4-10.2-1-1.7-3.7 0-5.8-1.2Zm30.3.5c-3.3.5-6.6.2-9.7 1.6-13.7 6-38.1 38.5-48.6 51.3-3.4 4.1-11.5 6.2-4.6 13.8 4.4.3 2.4-6 3.9-8.4s4.1-2.1 5.4-3.8c11.8-15.8 24.3-31.9 40-44.3 3.8-3 11.4-4.3 13.6-10.2m398.5 55 .3-2c-4.3-8.7-10.3-7.9-16.1-11.5-4.5-2.8-11.1-15.6-16.1-17.8-1.5-.7-3.4 2.5-6.7 2.4-13.9-.3-37.4-22.5-53.1-24.5l16.8 10c-5.6 7.9-8.9.7-15.3-.8 2.2 3.4 8.7 10.9 12.8 10.4 2.4-.3 3.6-3.3 7.1-2 9.8 3.4 25.9 25.3 35.4 29.3 1.7.7 3.4-2.4 5.4-2.4 3.3-.1 6.9 7.4 9.9 10.1 8.2 7.6 9.7 8.7 16.8 18.6 1.1 1.6 1.5 4.9 1.8 5.1 6 6 .5-7.9.5-8.4.1-1.2 2.4-2.5 2.3-4.4-.2-2.6-5.1-5.8-4.5-9.5l2.9-2.5ZM1010.7 165l-12.3-3.1c-1.6 4.5 11.8 6.2 12.3 3.1M753 165c-7.2-3.3-7.9 2.8-11.3 5.6-15.4 12.9-27.5 20.7-40.9 36.6-6.4 7.6-3.3 5.3-6.5 11.2-.3.6-8.2 5.3-9.8 7-9.8 10.5-17.8 24-27.3 34.9l-10.1 19.8 30.7-40.7c3.4-2.2 8.1 1.3 11.1-.6 2.3-1.4 12.9-14.6 16.4-17.8 3.6-3.3 9.4-7.9 13.9-9.9-1.5-3.2-7.7-1.4-7.7-7-.8-10.3 27.2-24.4 33.8-30.7 1.5-1.4 1.2-3.9 2-4.8 1.6-1.9 5.8-.7 5.7-3.5Zm273 13.8c-23.6-6-48.6-8.3-72.1-.8 14.1-.1 28-3.2 42.3-2.4 8.4.5 16.7 3.3 24.6 4.5 1.6.2 5.6 1.3 5.2-1.4Zm22.4 25.2c-21.9-11.9-49.9-23.8-75.3-23.6-6.6 0-19.3 6.9-26 6.2s-4.6-4.1-6.1-4.2c-2.2-.2-24.1 11.3-27.4 13.6-2.2 1.5-3.2 5.3-4.9 5.7-1.4.3-4.4-1.8-5.2-1.3s-.3 9.4-5.9 5.8-.8-3-1.8-3.6c-1.3-.8-26.9 7.1-29.5 8.5-19.8 11.2-41.9 19.2-62.6 29.8-22.9 11.8-55.1 48-69.6 70-5.5 8.3-5 9.3-11.7 16.3s-13.9 21.2-13.8 22.7l3.2 1.5c-9.7 13.3-23.3 38-25.4 54.4-.6 4.7 3.3 9.5-2.2 13.1l3.1 1.5c-2.8 5.3-10.5 25.3-9.2 30.4.3 1.2 3.2 1 3.2 1.8 0 1.2-6.5 16.8-7.4 21.8-2 11.1-3 25.3-2.1 36.3l-3.7 2.5-6.9-3.1c-1.5 31.6-3.5 65.8.6 97.1 3.4 26.1 15.2 64.7 16.2 89.3 1.7 41.5 23.8 80.2 42.3 117.2 14 28 24.4 55.2 52.9 72.8 6.2 3.8 15 4.7 19.9 10.8l-2.3 3.8-5.3-3.1c-.9.9 3.1 7.4 4.1 7.7 1.6.4 13.5 1.8 15.1 1.7 2.9-.1 2.1-3.3 3.1-3.3 5.7-.2 32.2 7.9 41.5 9.1 44.2 5.7 77.3 1.4 121-4.4 4.4-.6 9.1.5 13.6-.2 19.8-2.9 38.6-10.2 57.6-16 14.3-14.8 26.5-30.6 39.2-46.7 2.5-3.2 6.8-5 8.5-7.3 5-6.5 8.6-22.5 14-30.1 2.4-3.5 5.8-4.2 8.2-7.2 14.4-17.9 31.2-68.9 36.9-91.9 4.9-19.9 10.1-42.7 8.4-62.9h6.1c5.9-28.2 10-56.4 12.3-85.1 2.3-29.5.4-58.3 1.5-87.4.2-5 1.8-9.5 1.6-14.5-6.8 2.5-13.3 29.9-17.6 30.3-.7 0-2.4-1.6-3.9-1.2v-2.2c5.3-14.9 11.6-31 20.2-44.3 9.8-15.2 28.3-26.6 27.3-46.2-1.7-36.4-38.8-3.6-38.3 6.1.3 5.9 8.8-5.8 12.9-5.5 13.7 1.2 1.5 29.9-7.6 32.3-1.8-7.7 7.3-14.4 6.9-23-5.3-.9-9.2 9.9-11.7 10.6-3.6 1.1-7.2-2.7-5.2-6-13.2 3.1-5.3-2.9-3.7-7.6 2.6-7.8-7.7-36.2-13.1-43.8l7.7-.8c2.1-2.1-10.9-38.8-13.1-44.4-3.1-8-5.3-13.1-8-21s-12.4-17.8-15.6-21.2l-44.5-41.3 3.8-.8c10.9 11.4 25.7 18.2 36.8 29.1 6.2 6.1 25.8 29.6 29.6 36.3 5.5 9.6 21.2 62.3 21.8 73.4.4 7.2-3 13.2 0 20.6 9.5-10 22.2-22 36.8-15.3-2.2-4.5-.2-11.4-.8-14.6s-11.9-28.6-14.2-34.1c-1.5-3.6-6.7-6.3-6.5-11.2l-1.5 6.1h-3.8l-14.6-21.4c.8 8.4 3.4 22.6 7.9 29.6 2 3.1 5.3 2.3 6.6 4.1.6.8 6.6 13.2 8.4 16.5 2.3 4.1 9.6 15.2 7 18.8-8.2 6.1-8.1-11.1-16.2-9.2-2.1 2.2 6.6 18.4-3.1 18.4l-7.7-31.6 3.1-2.9c-2.5-9.5-17.2-34-18.2-41.8-.4-3.5 2.9-4.9 2.6-7-1.4-11.2-26.5-30.3-30.4-42.5l-3.8 7.6c-10.8-11.7-23.1-26.8-35.3-36.7-6.5-5.2-22.3-13.4-30.5-17.8Zm2.2-6.8c-8.3-6.8-17.9-17.1-29.1-13.8zm-150.1-9.4-2.5-4.4-3.8 2.3 10 6.9c5.4 0 7-8.5 2.3-6.9zm-12.5 4.8c-12.5 1.4-28.4 3-39.9 8.4-2.1 1-18.5 10.6-19.3 11.4-1.8 1.8-2.2 3.7-2.3 6.1h-4.4l-1.7-6.1c-.9-.6-16.8 7.9-18.9 9.4-2 1.4-2.9 4.5-4 5.1-1.2.7-3.9-.9-6.2 0-7.1 2.6-16.3 7.2-22.9 11-2.5 1.4-20.1 13.1-17 15.9l34.8-16.6c9.8-9 24.4-9 36.6-14.1l65.1-30.7Zm208.6 41.4c-2-4.9-7.1-10.7-10.7-14.6s-20.3-21.6-23-19.1c2.3 1.7 1.7 7.1 1.9 7.4.9 1.1 12.8 8.5 15.7 11.1 5.6 4.9 10.1 11 16.1 15.3Zm46 33.7c-6.8-12.5-12.7-27.8-21.5-39.1-8.4-10.9-24.8-19.3-35.3-28.4.9 13.1 15.4 15.7 21.4 26.8l-4.6 3.1c0 1.7 4 7.2 5.4 8.5 5.3 5.1 10.4.6 13 2.1 3 1.8 12.1 19.2 15.3 23.1 1.6 1.9 3.3 4.3 6.1 3.8Zm67.5-21.4-8.4-32.2-6.9 3.1v2.1c.1 0 7.6 15.5 7.6 15.5l7.7 11.4Zm-539.9-21.5c-6.4-.4-6.1 7.5-8.1 10.3s-6.7 3.5-7.9 6.7l-46.9 76.5c4.4 3.9 9.4-10.8 10.8-12.6 3.6-4.9 9.2-4.9 11.4-7.4s10-18.1 10-19.2l-4.4-4.3c11.7-16.6 27.5-31 35.1-50m484.7 22.4-2.3.9 8.9 21.6 2.3-.9zm18.3 54.2c.7-4.8-5-3.8-7.5-7s-4.2-12.1-6.5-16.5c-3.8-7-10.2-14.5-15.1-21-1.9 10.5 8.4 17.6 13.3 25.9 4.5 7.6 7.7 17.3 13.5 24.7 5.1 4.3 0-5.6-.8-5.4l3-.8Zm3.1-36.7c-13.8 1.2-.3 11 .1 16.2.3 3.4-3.5 5-2.6 8.3 1.4 5.2 12 14.4 11.8 19.1l-3.1 3.1c6.1 7.8 12.6 16.2 13.5 26.4l11 20.4c-1.9-14.7-4.2-29.1-10-42.9-2.4-5.7-11.1-17-10-22.1.2-1.1 3.2-1 3.1-1.6-.7-7.4-12-19.1-13.8-26.9m-417.1 1.5c-2.8-.5-5 2.1-6.1 4.6 2.8.5 5-2.1 6.1-4.6m438.6 12.3-6.1-10.7c-.3 4.1.7 10.8 6.1 10.7m30.7 50.6c-1.3-14-13.4-24.6-16.9-38.3l-1.7 2.8-2.9-1.3c-2 2.6 14.4 23.2 16.6 27.1 1.9 3.3 1 8.2 4.8 9.8Zm-602.8 24.5c1.1-4.6 2.5-10.6 4.3-14.8 2.4-5.5 13.4-22.4 13.9-26s-.9-2.5-2.5-3.2c-16.5-8.1-18.9 21.4-25.7 27.3s-8.5-2.6-12.3 10.7-2.3 6.3.8 6.1c.5-4 2.8-12 7.7-8.3v9c-.1 0-7.7 33-7.7 33l7.6-8.7c.7-19.2 5-38.3 13-55.7 1.1-2.3 6.7-.6 7 1.1-1.5 8.5-5.6 16.3-7.4 24.7-.3 1.6-1.6 5.4 1.2 5ZM151.9 301.5c1.5 1.8-19.1 37.1-16.9 44.4l11.5-3.1c3.6 4.4-2.7 5.3-3.3 6.5-6.9 12.3-24.5 35.9-28.5 47.7-1 3.1.9 5.9 0 9.1-2.6 10.2-15.9 27.3-19 41-2.5 10.9.8 6 4.8 9.2 7.7 6.2-8.1 34.5-11.6 42.3-.2.8 2.8.5 3.1 1.7 2.5 9.3-16.1 36.8-21.5 45.8 2.9 2.1 7.3-6 9.1.2 2.5 8.7-17.4 42.8-21.3 52.7 5.7 1.4 5.6-3.8 8.4-6.1 6.6-5.5 13-11 22.2-9.2.6 6.4-.8 13-3.4 18.8-1.9 4.3-5 6.6-6.6 10.3-2.4 5.5-12.2 29.8-6.9 33.7 24.6-12.9 17.9 1.9 12.7 18.1-3.5 10.8-9.2 20.9-9.6 32.5 30.5-13.4 25.7 19.8 38 37.9 3.7 5.5 7.4 5.3 11.4 10 6.3 7.5 6.7 20.4 11.8 26.1s16 2.8 20.9 7.2c3.7 3.3 3.7 12.6 7.7 15.3 4.8 3.4 11.2-.3 18.3 4.7 8.2 5.8 5 15.6 10.6 23.1 5.8 4.5 13.8-3.6 21.3-1.4 7.2 2.1 6.5 14.2 9.6 19.5 5.4 9.1 15.8 5.3 24.3 6.4 14.1 1.7 15.8 15 24.3 18.6 5.5 2.3 14.9 1.7 21.4 3.1 9.5 2.1 19.3 4.3 28.9 6.4 8.1 1.8 11.1 8.7 14.8 9.8 7.5 2.2 15-7.2 23-8.6 9.8-1.7 16.4 3.6 24.2-1.9 11.4-8 18.9-25.4 26.8-31.5 3.1-2.4 6.5-2.6 9.2-4.6 10.7-7.7 16.4-25.2 26.1-33.7 6.9-6.1 16.5-5.2 22.5-10.4 7.1-6.1 22.1-35.3 25.1-37 3.3-1.9 8.1.3 10.4-1.1.7-.4 8.1-12.5 9.2-14.5 11.8-20.6 10.7-21 27.1-38.8 11.7-12.6 13-29 34.1-30.4 6.1-.4 30 16.9 37.6 21.2 1.1.6 1.3 2.6 2.2 3 2.8 1.4 10.7 1.3 11.2 3.8 1.4 6.8-11.3 2.3-13.8 1.5-10.2-3.5-26.2-22-34.8-23.4-1.4-.2-12.1 3.1-13.6 4.2-4.1 2.7-11.5 19-16.8 24.6-5 5.4-12.3 9-16.8 15.4-5.7 8-15.9 38.9-25 41.2l-8.2-2.2c-4.9 9.9-17.4 35.8-27.1 40.4-4.4 2.1-8.8 1.2-12.8 2.6-8.1 2.8-18.1 25.6-24.5 32.3-4.4 4.6-11.4 6-15.2 9.3-3.6 3.1-7.7 11.7-11.6 16-3.8 4.2-15.4 16.6-19.6 18.7-10.4 5.2-15.9-1.9-24.5 0-7.5 1.6-11.4 12-24.7 10.4s-11.4-10.3-18.9-11.9c-4.6-1-9.7.1-14.6-.7s-11.3-5.4-17.9-6.6c-9.3-1.7-13.7 1-22.3-5.3-4.3-3.2-9.1-11.8-12.9-13.1-6-2-14.4.1-20.8-.6-12.6-1.5-16.2-17.3-19.2-27.6-23.7 15.4-28.7-1.3-32.2-22.2-6.1-4-13.9.8-19.8-3.1s-4.2-14-9.4-18.3c-4-3.3-9.2-1.7-13.8-3.1-13.4-3.8-11-21.2-18.3-30.4-1.9-2.4-6.5-3.9-9.3-6.5-10.3-9.6-10.5-29.6-18.4-41.5-3.5-2.2-18.5 7.5-22.3-.7-3.4-7.1 14.6-40.3 13.1-50.6-9.4 6.3-18.9 4.4-18.2-8.3.8-16.7 17-33.5 18.2-50-11.4 6.6-16.5 20.4-32.2 16.9-2.8-2.7 17.4-35.7 18.4-42.1.4-2.7 0-2.4-2.2-2.1-4.2.5-9.8 2.3-8.5-3.9l28.2-50.2c1.8-3.4-2-5.2-2.8-7.4-2.5-7.1 17.6-31.1 14.5-41.3-12.4.4-9-7.9-6.1-16.2 4.7-13.7 18.8-28 14.4-42.1l28.5-46.8-6.1-4.9c-.9-5.8 16.6-37.8 20.7-44.9.5-.9 1.4-5.9 3.8-3ZM435.6 247.8v-3h3.1c5.4 12.1 19.7 15.3 27.6 25.3 16 20 34.3 46.9 44 71 5.9 14.7 7.6 30.8 12.3 45.9 4.1 13.2 10.9 25.3 15.3 38.3 10.4 30.4 15 63.5 26.1 93.5 4.2 11.5 16.4 28 18.5 38.3 1.1 5.3-3 5.7-5.9 2.4-8.6-17.1-17.8-31-23.6-49.6-5.5-17.6-7.2-36.8-12-53.9-6.5-23.2-19.6-47.3-26.7-69.9-4.6-14.5-6-30.8-11.6-45.1-5.4-13.6-15.9-27.5-21.8-41.2-2.2-2.3-7.1.2-9.5-1.8-1.8-1.5-2.7-8.1-5.1-11-4.9-6-17.6-11.7-23.9-18.3-3.5-3.7-9.1-11.9-11.9-16.5-9.2-14.7-11.8-35-31.5-36.7V211c11-.4 20.6 5.3 25.6 15 .8 1.5 8.4 24.5 11.1 21.8Zm27.6 30.7-6.8-10.8-19.2-13.7c7.2 9.7 15.4 18.7 26.1 24.5Z" class="st0"/><path d="m612 468.6-3 8.5-7.8.7 3.1-15.3h-4.6l-.7 12.3-4.6 1.5-2.4-3.9 13.9-63.6 5.5 1.4 1.5-3.1 5 1.9.3 12c3.1-.2.7-4.9 2.2-7.7 1.4-2.4 3.4.1 5.3.2l-1.4 33.6-10.6.2L612 464l3.4-13.4 5.8-1.9-1.5 32.2c3-1.2.6-4.4 6.1-3.1v18.4c3.4.6-.4-8.2 3.8-6.1 5.8 2.8-.8 17.9 2.3 23-9.9 2.2-7.2-5.8-15.3-8.6l1.4-9.8-3.7 1.3-2.5-2v-25.3Zm-3.1-20 1.5-13.8c-2.1.2-2.7 7-2.9 8.6-.1 1.7-1.4 5.5 1.3 5.2ZM376 748.9c-4.6-8.5-15-15.7-19.3-24.3-2.9-5.8 2.7-4.2 2.3-5.3l-18.5-24.5-19.9-21.5 4.6-.8c.2-.2-1.3-2.5-1.1-3.6.4-2.4 35-26.4 39.9-28.9 7.3-3.6 15.7-8.6 19 1.5 5.4 16.5 3.7 55.7.4 73.1-.7 3.5-4 4.1-4.7 9.1s-.4 14.9 4.2 20c-.7 3.4-3.1 6.5-7 5.2Zm1.3-41.1c.2-8.1 5.1-66-2.3-67.5-16.6 8.8-32.7 19-46.6 31.6-1.1 4.5 13.7 16.1 16.8 19.8 4.7 5.7 20 23.2 22.6 27.3s0 5.6 2.7 7.2l.8-19.9 6.1 1.5ZM397.2 206.4c1.1 6.9-12.2.2-14.9-1.2-8.3-4.6-18.8-19.3-28-21.2s-25.1 5.4-36.2 4.1c-1.9-.2-8-6.5-12-6.3-7.2.3-18.7 18.8-29.6 19.7s-17.2-15-27.8-3.3c-5 5.6-3.2 13.4-13.9 9.6-1.4-1.6 2.1-11.3-2.4-13.6-11.5 6.6-15.6 23.4-28.4 26-3.7-4.1 16.7-26.6 21-28.8 10.8-5.5 14.7 2.9 17.8 2.4 1.5-.2 4.3-3 7.1-3.7 12.7-3 22 6.2 26.6 5.2 9.1-1.9 15.8-18 28.5-18.8 8.5-.5 11.5 6.2 16.4 6.8 9.5 1.2 23.4-5.4 36.3-2.7 12.8 2.6 25.5 22.4 39.4 25.7ZM284.7 596.8c-3 3.8-6.8 6.1-11.6 3.6 5.1-8.8 1.2-6.3-1.2-11.8-6-13.9-8.3-30.6-15.6-44.1.1-2.1 7.7-3.3 9-2.1s9.3 34.3 11.6 39.7 2.5 4.4 4.6 6.1c14.6-17.4 4.4-41.4-15.1-49.3-11.3-4.6-16.5-.6-27.1-2.8 1.4-7.7 13.6-8.3 20-7 32.3 6.5 46.2 41.2 25.3 67.7ZM397 516.4c1 1.6 1.5 6.1-2.1 5.9-7.8-.4-13.7-9.2-22.2-7.7l1.4 25.1-3.7 2.6-4.6-1.6c-4.5-10.3-2.7-67.3 4.9-72.2 6.8-4.4 9.8-1.3 12.1 4.7 4.4 11.5.2 23.7-1.7 35.3l16 7.9Zm-22.8-11c2.2-9.4 6.5-17.8 3.1-27.6-2.3-.4-1.9 2.9-2.3 4.6-.9 3.8-2 9.2-2.3 13.1-.2 2-1.3 9.5 1.5 9.9M167.2 588.2c3.4 3.1-17 33.5-18.4 39.1l27.6 39.8c-1.7 2-2 2.7-4.7 1.7-7.8-2.7-23.6-33.2-26.7-33.1-14.2 14.1.3 33.4-.4 50.2l-3.4 1.9-7.7-28.5 3.1-3.6-4.7-1-10.6-51.2c8 8 8.7 22.7 11.8 33.4.4 1.4 0 4.8 2.7 3.4 2.5-1.4 22.6-45.5 25.5-51.9zM340.5 497.7c3.2 2.8-22 18.2-23.7 21.5-1.4 2.9-3.6 19.8-2.4 21.4 3.6 1 2.6-.9 3.5-2 1.8-2 10.3-13 11.1-13.3 1.8-.8 4.2-.9 3.8 2.3-.6 4.4-12.7 21.2-18.4 20.7 4.3 27.8 11.4 17.9 23.7 2.9 1.3-1.6 1.5-4.4 2.7-5.6 2.1-2.2 5.9-2.1 5.5 1.6-.5 6-14.6 23.1-21.2 24.9-22 5.8-18.5-31.6-18.3-44.5l-4.7-.9c-.9-4.8.8-6.2 3.8-9.1 1.4-1.4 25.3-18.5 26.9-19.1 2.5-1.1 5-.9 7.6-.8ZM434 450.2c3.2 3.1-12.1 14.8-14.6 16.9-1.5 1.3-4.4 1-5.5 2.5-1.5 2.1-2.4 9.8-2.9 12.8 3.1 3.2 22.1-20.4 29.1-16.1-5.7 6.3-14.6 16.7-21.5 21.4-2.4 1.6-7.2 2.2-7.4 2.5-1.1 1.3-.7 15.7 3 17.4 9.7 7.3 20.1-7.7 25.2-14.5 6.9.9 1.7 8.3-.8 11.5-3.2 4.1-10.9 11.1-16.1 11.5-30.5 2.4-17.5-33.2-17.3-51.2.8-2.9 9.4-3.9 12.5-5.7 5.3-3.1 8.1-10.7 16.3-9M311.4 384.3l-4.7-.9-12.9-40.5c-2.8 3.3-7.9 4.8-10.8 7.7-6.1 5.9-4.4 36-6.9 46h-4.6c2.2-21.9 1-46.4 4.8-68 1.5-8.5 3.2-24.4 13.2-12.2 2.9 8.5 25.7 64.1 21.8 67.9Zm-20.1-44.6-.6-4.5-7-13.8-3.1 23 10.6-4.7ZM363.5 270.8c0 6.3-7.3 3.6-10.8 7.2-11.2 11.6-20.9 55.3-.5 63 7.9.8 11-13.7 7.8-20-2.3-4.5-8.3-6.1-7.3-11.8 5.6-1.1 10.9-3.6 15.8-6.5 4.8-2.8 15.7-12.6 18.7-13.5 2-.6 3.1.4 2.3 2.3-1.8 4.2-22.3 18.2-27.6 20.7 13.5 9.8 3.8 35-11.3 33.6-25.4-2.3-16.8-54.9-4.7-68.8 2.6-3 14.4-10.1 17.5-6.2ZM229.4 360.4c11.8 11.5 14.5 42.7 5.3 56.8-3.1 4.7-24.9 21.7-29.1 16.1 1.2-7 12.9-8.2 18.8-12.3 15.7-11.2 10.9-47-1.9-59-12.3-11.6-39.2-23.4-46.1-.7-11.5-3.4-.3-14.5 6.6-17.2 16.8-6.5 34.9 5.1 46.5 16.4ZM505.9 418.2c3.3 2 2.3 30.6-2.3 33.6-8.5 5.5-17.2-2.7-22-8.9-2.2-2.9-1.6-9.1-6.2-8 .1 1.7 1.1 3.3 1 5.1-1 12.1-.5 32.4-2.5 43.2-1.4 7.3-8.7 6.2-9 .1-.2-2.9 2.7-8.3 2.9-12.4 1-15.4.9-31.3 1.5-46.8 2.8.2 7-.8 9.3.7s11.2 25.3 17.6 23.8c6.5-8.4 3.8-20.9 2.3-30.7l7.4.2ZM217.8 584.3c.4-5.7 1.1-7.5 7.7-7.8 5.2 9.8 9.1 21.6 18.3 28.5l-4.4-35.9 6-2.4c.3 9.2 16.2 49.2-5.3 41.4-7.8-2.8-8.8-10.6-14.6-15.3l1.4 29.7c-1.4 4.5-9 2.4-9 .2 0-12.3-.9-26.3 0-38.3ZM393.8 755.6c19.8-3.7 18.9 28.1 12.6 34.1-13.6 13.1-41.6-28.7-12.6-34.1m6.4 4.4c-6.1-4.3-17.2 9.9-6 22 13.6 14.7 9.3-19.7 6-22M622.7 654.1h-7.6c-3.2-12.4-9.2-27.9-15.1-39.4-1.8-3.5-5.2-5.6-7.3-9.6-5-9.5-11.2-20.2-13-30.7 3.3-3.7 13.7 19.9 14.7 21.4 10.9 17.4 21.2 33.6 27.6 53.7.5 1.6 1 2.9.7 4.7ZM197.9 227.9l1.3 12c-3.7 2.7-9.5 5.1-12.8 7.9-5.8 4.9-31.3 34-29.8 40.5s5.7 1.4 4.5 4.7c-4.4 5.5-12.5 6.8-16.5 0-.2-2.1 21.3-29.8 24.5-33.6 4.8-5.6 12.3-10.6 16.6-15.5 1.5-1.7 9.6-19.2 12.3-16.1Z" class="st0"/><path d="m197.7 361.4 13.3 56.5c1 2.2.7 5-1.7 6.1-3.2 1.5-4.4-11.9-6.4-13.4l-11.2-49.4zM204 641.8c-4.6.8-5.1-1.2-7-4.5-5-8.9-4-20.8-9.9-29.2 3.7 0 6.7-.9 9.1 2.4 1.5 2.1 8.9 30.2 7.8 31.3M587.4 414.9l1.5 21.5-8.5-1.4c-2.2-3.8 1.6-25.5 7-20ZM636 683.7c2.1 2.7 4.9 6.7 5.1 10.2-3.1 2.9-14.9-12.1-16.6-14.8-2.3-3.5-4.8-8.5-4.8-12.8 6.4 3.1 8.5 9.8 12.3 14.6 1 1.3 3.3 1.7 4.1 2.8ZM191.7 589.7c2.9 9.3-7.9 8.4-9.2 3.8-1.1-4.1 7-4.3 9.2-3.8M955 765.5c-22.2 19.4-71.5 40.8-99.3 50.3-14.3 4.9-54.1 22.6-66.5 20.7-3.2-.5-5.5-3-9.3-3.1-7-.1-17.1 7.6-20.7-2.3.2-2.2 13.4-6.3 16.1-6.8 8.1-1.2 20.2.1 27.9-1.2 31.2-5.3 65.6-21.2 93.5-35.3 3.9-2 13.2-3.8 16.2-6.4 3.9-3.4 2.1-3.4 9.2-8 38.2-24.8 77.2-45.9 98-89.1l5.1-19.5c-15 16.3-29 31.7-46 46-55.1 46.2-119.6 65.5-181.2 99.4-7.9 4.3-13.2 12.6-22.7 12.6-2.3 0-4.5 1-3.9-2.3 1.2-2.8 20.2-16 24.5-18.5 40.6-24 87.4-39.8 128.9-62.8 33.2-18.3 67.1-51.5 92.8-78.9 5.7-6 14.2-13 14.5-21.5 11.7 3.4 9.9 16.2 6.4 25.6-9 24.2-28 57.2-47.8 74.9-9.2 8.2-25.8 14.2-32.8 20.9-2.1 2-2.3 4.8-3 5.4ZM819.7 427.8c-6.3 4.3-11.2 8.2-19.9 8.6s-31-6.7-36.7-13.9c-7.9-10-8.6-44.9-4.2-56.2 4.9-12.8 23.1-31.4 37.1-33.6 7.1-1.1 17.4 1 24.3 1.6 8.8.8 10.9-3.2 17.8 7.1 4.3 6.3 10 31.1 10.2 39 .5 20.6-12.6 36.5-28.6 47.4m9.5-15c2-2 6.2-7.6 7.5-10.2 9.5-19.6 1.1-36.1-3-55.3-15.8-8.1-39-10.7-52.9 2.4-6.1 5.7-15.8 23.9-16.8 32.3s0 34.1 6.3 40.1c2.2 2.1 24.1 8.3 27.8 8 6.8-.5 26-12.4 31.1-17.3M1075.8 349.9c10.2 13.8 7.4 18.1 3.2 34.3-6.7 25.8-23.7 41-52 36.7-15.5-2.3-21.7-18.9-22.3-32.9-1.7-37.4 42.9-76.2 71.2-38.2Zm-53.8 8.9c-15.3 21-14.4 66.3 22.5 55.4 19.7-5.8 36-35.9 30.3-54.9-.4-1.4-10.3-12.9-12-14-14.6-9.3-31.9 1.3-40.8 13.5M1061.2 293.9l-1.4 2.9 21.5 6.9v5.4c5.2-.9 7.7-5.1 12 .8l-12.1 18.5c-4.5 2.4-11.3-4.4-15.3-6-1.6-.6-4.1 1-6.1 0-2.3-1.2-2.6-4.9-3.4-5.3-.6-.3-11.2.2-13.1.3-4.3.2-4.6 3.9-11.7-1.9l-4.8 4.1-5.2-2.9c-1.7-4.6 3.3-6 5-9.1 1.1-1.9.9-4.5 2.4-6.8 4.5-7.1 7.8-3.2 10.7-4.5 1.9-.9 3-4.4 5.6-5 2.4-.6 14.4 1 15.8 2.8ZM910.2 527.6c19.2-1.4 31.8 16.6 26.1 34.6-4.8 15.3-19.7 27.7-34.6 32.9-31.5 10.9-29.8-33.4-16.1-51.4 4.6-6.1 16.9-15.6 24.5-16.1Zm-4.2 10.3c-15.3 3.5-27.4 35.5-19.8 48.3 3.5 5.9 8.8 2.3 14.5 0 14.3-5.5 42.1-34.6 25-47.3-1.5-1.1-17.1-1.6-19.7-1M815.9 307.6c1.9 1.9 7.4-7 10-7.2s7.2 4.3 6.9 7.3l6.8-7.4 9.3 4.3c1.9 1.9.2 2.6-.8 3.9-3.3 4.4-12.4 9.3-15.4 15.3l-21.5-11.6-1.7 6-9.2-2.3c-6.5 7.7-14.5 8.7-23.5 4.1l-9.4 15.2-5.2-4.1 17.7-31.1c4.4 2.6 8 1.1 11.6 1.8s3.1 2.9 4.8 2.6c1.5-.2 4.7-5 7.5-6.4 4.6-2.2 13.2-3.9 16.4 1.2l-4.6 8.3Z" class="st0"/><path d="M803.2 361.6c20.9-4.7 14.2 35-3.2 33.4-13.7-1.2-11.5-30.1 3.2-33.4M1053.3 388.5c-5.1 5.5-18 7-20.8-2.2-5.2-17.7 18.7-34.8 23.5-15.8s-.4 15.6-2.8 18ZM414.4 1155.7c-8.1-.5-7.1 4.6-10.9 7.7-7.5 6.3-13.1-5.3-18-8.2-2.7-1.6-6.7-1.3-8.9-4.3-3.7 0-7.7 43.9-6.7 49-6.8 2.7-7.3-4.6-7.1-10.1.3-9.1 3.3-35 6.2-42.9.6-1.7 2.8-1.6 3.2-2.2.5-.8-1.5-2.9.2-4 11.4-4.8 19.6 14.7 29.2 12.4 1.3-.3 17-16.6 18.8-18.7 2.5-2.8 1.1-6.1 6.5-5.1 5.4 1.1 4.7 6.6 4 11.1-1.8 11.4-8 36.1-12.4 46.6-2.4 5.8-9 7-8.9.5zM666.1 1191.5c-2.4.5-7 .7-7-2.8 0-4.8 11-26.3 9.6-28.3-10.7 3.6-24.8 8.5-34.7 1.2 0 1.1-.5 2.1-1.2 3-2.8 3.2-16 20.3-17.4 21.1-2.9 1.7-8 2.1-7.9-1.9l24-28.8c8.7-6.6 17.3-19.8 25.8-25.7 11.4-7.9 19.2 2.5 19.8 13.7.9 17.1-7.1 32.3-11 48.4Zm3.7-34.6c-.6-4.4 3.8-24-3-24.8-5.3-.6-23.6 21.8-29.4 25.4 10.1 6.6 22.2-4.6 32.3-.6ZM917.4 1129.3c-5.1.5-18 2.4-22.5 3.9-6.7 2.4-6 8.7-9.3 14 4.3 1.5 26.4-5.4 26.4.6-4.5 6.2-29 4.6-32.1 8.1-2.4 8.3-8.7 16.9-6 25.8 3.4 3.8 18.1-1.1 23-1.8l3.2 3.9c-30.7 12.3-41.2 1.4-27.4-28.6 3.1-6.6 9.6-14.5 11.3-21.1.4-1.5-.7-3.3-.4-4.1.4-1.4 2.4-1.4 3-2.3s.1-3 .3-3.2c1.2-1.2 5.9 2.2 7.8 2.4 9.4.6 23.7-5 34.6-3.4 4.4.6 11.1 5.9 6.1 5.9s-12.5-.5-18 0ZM727.4 1152.1l-25.4 35.7c-3.3 1.1-6.2 0-8.1-2.7 14-13.1 23.4-31.1 34.1-47.1l5.3 2.9c0 14.2 2.7 28 6.1 41.7l2.4.7c4.7-13.5 16.6-24.3 23-36.4s4.1-13 5.2-14c1.9-1.9 5.7-1.8 6.5.8 1.9 5.9-16.3 29.8-20.3 35.8-3.7 5.5-9.8 23.5-18.3 18.4-6.5-3.9-8.6-28.2-10.5-35.8M504.4 1136.5l-32.2 4.9-4.9 15.4c1.4 1.1 20.8-6.1 19.2.6-5.8 5.2-14.1 5.2-21.3 6.8-2.9 8.8-4.3 18.1-3.8 27.3 2.3 2.3 13.5-5.5 15-5.6s12.1 2.9 10.2 5.6c-10.3 1.9-32.9 14.5-32.4-5.3.4-15.6 7.8-30 10.7-44.8l-3.4-2c5.4-1.1 1.1-6.8 5.4-6.6 1.5 0 2.7 1.9 3.9 2.1 6.6 1.3 12.5-1.6 18.9-2.1s18.5-1.1 15 3.6ZM539.1 1189.3c7 .3 13.9-2.1 21-1.2s3.5.7 1.8 2.4c-6.2 2.3-31.6 8.2-29.7-3.9l35.9-57.1c1.9-1.2 6.6.9 7 3 .7 4.2-40.1 52.7-35.9 56.8ZM818.5 1132.9c.2-.2 3.7 1.7 4.2 2.4 2.3 3.7-4 25.2-5.1 30.9-1.2 6.3-.4 24.6-8.5 13.2l9.4-46.4ZM825.9 1125.5l-2.6-5.2 1.9-2.9c4.6.7 8.9 2.8 5.4 7.8z" class="st0"/></svg>