<svg xmlns="http://www.w3.org/2000/svg" id="Calque_1" viewBox="0 0 1300 1300"><defs><style>.st0{fill:#313a94}</style></defs><path d="M885.2 91.8c22.2 19.2 41.1 35.1 55.2 61.8 6.4 12.1 6.4 21.9 13.7 33.9 2.1 3.5 6.1 5.4 8.2 9 4.9 8.6 7.9 19.5 12.4 27.4 30.6 53.3 22.1 153.7 16.3 213.8-5.3 55.9-13.5 115.9-27.8 170.3-12.6 48-38.5 99.8-29 150.8 1.3 7.2 16.2 39.9 6.2 42.7-1.9.5-4.9-1.6-6.4-.7-3.4 2-.7 5.1-11.2 7.7-21.8 5.3-46.4-.4-67.6 4.7-8.8 2.1 1.1 4.4 3.5 6 25.2 17.1 54.1 44.4 70.6 70.2 27 42.3 35.9 94 41.2 143.3l-3.9 2 3.9 2.2 1 52.1c-3 3.1-10.6 3.2-12.1-1.4-2.7-62.5-5.6-129.7-36.8-185.6-30.2-53.9-87.4-82.7-135.6-117.3l-16.2 55.1c.8.6 14.1-2.5 16.7-3.2 11.1-3.2 35.8-16.1 44-16.8s8.5 5.6 7.6 9.3c-3.1 12-60.2 22.7-72.3 27.2-5.6 18.2-9.8 36.9-14.7 55.2-8.4 31.1-16.4 63.8-26.6 95-2.2 6.7-8.7 15.2-7.9 22.4s2.9 4.1 2.9 6.9c0 3-4.3 14.6-6.7 16-11.5 4.9-21.3-3.7-20.7-15.3.2-3.7 3.6-6.4 3.7-9.3 0-1.1-3.3-.8-4.5-3.4-2.7-5.7-3.7-18.4-8.9-18.6.2-3.8 5.5.2 3.8-5.7-3.6 0-5.5 0-7.3-3.2-9.4-17.6-15.7-48-22.5-67.3-8.1-23.1-15.6-46.4-25.3-69-20.6-7-41.2-11.7-59.7-23.7-27.7 13.5-63.7 23.5-87.8 43.4-40.3 33.4-64.1 142.4-76.5 193.5-1.6 6.5-2 14.4-2.6 21.1-13.5 5.2-12.1-10-11-19.5 4.9-42.3 34.6-137.9 56.5-173.6 20.6-33.5 43.5-43.2 78-59 2.7-1.2 5.2 1.1 4.1-4.3-11.1 1.7-24.2 4.6-35.2 5.2-24.4 1.3-48.5-9.2-71.3-15.6-28.7-8.1-63.2-12.9-85-34.1 2.4-8.8 4.5-19.6 5.1-28.6 7.8-112.1-24.1-194.6-39.4-302.8-18.4-130.1 37.5-326.8 166.9-383.5 20.6-9 52.4-18.1 75-16.2 12 1 34.4 14 41.5 13 6.8-.9 25.2-13.4 33.2-16.4 64.1-24.2 142-28.9 207.2-6.4 19.1 6.6 39.3 26.3 54.6 39.5Zm35.4 162.4c-7.6-35.6-22.1-69.7-41.1-100.6l-19.8-19.2 60.8 119.8ZM666.8 141c-4.6-2.4-7.4-6.5-14.4-4.7l3.1 7.4c54.7 20.3 105.6 49.1 164.3 57.2l-72.7-23.3c-27.4-10.6-54.7-23.5-80.2-36.7ZM458.5 533.6c3.2-.7 4.2-4.6 4.6-7.3 6.9-41.4 4.2-87.9 10.8-130.3 10.7-69.1 49.2-138.2 68.7-205.1 2.6-9 6.4-23.3 7.8-32.3.5-3.2 2-4.7-1.7-7.2-5 10.6-11.4 20.6-16.2 31.4-42.2 94.8-74.6 197.4-75 302.3 0 16 1.8 32.4.9 48.5Zm1.9-349.8c-4.8-1.1-3.3 1.3-4.9 3.6-36 51.3-69.2 101.1-78.5 164.9-2 13.9-2 26.6-2.1 40.7 2.7.2 3-7 3.2-9.1 3.7-29.2 10.4-54.4 20.5-82.1l61.8-117.9Zm383.5 436.6c16.8-18.6 27.6-41.9 40.9-62.7 25.5-40 64-85.8 47.3-137.3-16.2-49.8-47.2-93.9-60.1-145.2-19.2-14.1-41.6-30.6-64-38.7-40.2-14.5-88.5-14.7-130.8-23.2-26.6-5.4-52-14.1-77.9-21.9 5.9 27.2-10 54.9-26.6 75.1-4.3 5.3-12.4 11-17.1 17.1-24.5 31.9-7.5 52.9-16.1 86.6l-20.1 51.2 24.5-9.7c2.7-45.4 39.3-72.1 82.9-74 23.8-1 43.3 3.4 53.3 26.7 7.7-6.4 16.5-11 26.1-13.8 10.5-3.1 33.8-4.2 41.5-8.3 5.8-3.1 14.5-18.2 19.9-23.6 25.9-26 65.9-38.5 100.4-22.2 2.3 1.1 12.3 11.2 13.4 13.3 10.1 20.1 10.6 71.1 4.7 93.2-5.3 19.6-31 27.6-48.8 28.7-19.9 1.3-33.6-3.5-50.3-14.3-21-13.6-31.5-37.5-35.4-61.6-7.2-3.9-13.2 1.5-18.7 2.5-18.3 3.2-33.1 5.6-47.8 18.9 7.4 29.5 2.2 65.6-23.1 85.2-2.6 2-6 1.8-7.9 3.1-40.4 25.8-68.3 5.7-99.7-23.6l-10.2-20.3-22.8 12.5c6.8 22.1 11.2 43.4 13.3 66.3 1 11.4 3 33.1 2.1 43.9-1.5 18.5-13.1 24.7 3.7 39.9 52.1 46.8 146.8 93 217.7 86.5 27.7-2.6 67.6-29.8 85.9-50Zm-20.7-318.2c-19.6 2.9-46.1 23.5-58.2 38.8-5.2 6.5-2.1 21.5.2 29.6 2.6 9.2 20.3 35.1 28.2 40.3 19.1 12.3 71 15.3 79.8-11.1 6.1-18.3 6.7-65-1.2-82.7-6.9-15.3-34.4-17-48.8-14.9M663 441.6c13-17.1 15.3-33.9 11.8-54.8-3.9-22.9-10-35.9-34.6-37.6-47.3-3.3-82 20.8-87.4 68.6 6.3 7.6 9.5 16.8 16.7 24 7.3 7.2 16.3 11.1 24.8 16.1 5.7 3.4-.6 2.3 8.9 4.6 23.1 5.6 45.2-1.6 59.8-20.8ZM462.3 775.1c3-64.8-25.2-128.4-46.1-188.7l-10.9-22.3c8.1 31.7 12.1 69.2 25.9 98.7 18.9 40.3 18.8 62.4 28 105.1.5 2.2.3 7.6 3.2 7.2ZM528.8 585c-5.7-1-3 1.5-4 4.5-6.8 20.2-9.8 45.8-13.8 64.6-2.3 11.1-5.3 22.2-7 33.5 5.4.9 3.2-1.1 4.1-4.4 8.9-32.3 17.8-64.7 20.7-98.3Zm374.7 26.6c-4.8-1.2-5.2 4.5-6.6 7.6-9.8 22.9-29.9 69-31.5 92.1-1.3 18.7 1.5 37.5 2 56.2l12.6-94.8c12.5-18.3 16.9-40.2 23.5-61ZM816 763.7c-2.9-14.2 4.6-25.8 5.7-39 1.5-18.1-4.8-37.8 1.9-56.1-3.4.6-3.3 3.8-4.1 6.4-2.9 9.2-4.7 20.1-5.4 29.8l-3.8-1.9c.5 5.1 2.8 9 3.3 14.3 1.4 15.5-9.6 33.7 2.4 46.5m-76.1-81.8c-20.3 1.9-37-12.8-56.9-11.3-1.6 8.5.4 16.1-.6 25-1.3 11-9.6 35.8-14 46.8-10.1 25.3-30.4 45.3-47.5 65.8-.7 4.4 16.2 40 20.2 41.9 38.8 6.9 78.1 0 116.2-7.8 2.8-5.7 3.1-12.4 4.7-18 1.4-4.8 2.3-8.1 3.5-13.1 2.9-11.7 7-23.1 8.8-35.1-21.4-26-41.9-59.1-34.3-94.2Zm-342.3-9.5-3.1 2c2.1 33.4 1.2 67.8-4.5 100.6l9-8c-2-11 3.4-21.6 4.2-32.8 1.5-21-1.8-41.4-5.6-61.9Zm171.2 93.2c4.2-1 2.6-2.7 2.6-5.2-.2-18.4 0-38.4-2.5-56.6-.4-2.9-.3-5.9-3.8-6.6l3.8 68.4Zm55.1 79.8L609.6 815l-23.8 13.3c-1 4.4.6 3 2.4 4.2 10.3 6.6 23.7 10.3 35.6 12.8Zm129.3 11.4c-36 5.9-71.8 10.5-108.4 5.7 1.2 5.6 6.6 10.9 7.6 16.1s-.6 3-2.9 1.3l-.9 3.5c6.2-1.7 6.8 4.1 8.8 9.2 12.6 31 19.4 66.4 33 98.2 4 9.3 11.6 17.3 11.4 27.6 4.5.9 3.1-.6 4.3-2.5 15-23 21.4-69.7 28.6-96.8 5.5-20.7 13.3-41.4 18.4-62.3Z" class="st0"/><path d="M888.7 1118.7c-4.2-5.4 1.8-10.4 1.4-10.9s-3.3.5-3.8-1.3c-1.7-6 1.5-12.3 1.7-17 .1-2.4-5.3-38.1-6.5-46.5-3.8-25.3-16.4-58.3-17.9-81-.8-12.1 7.8-10.6 11.9-.3 11.9 30.2 24.6 116.8 22.4 148.8-.4 5.4-4.5 14.2-9.2 8.1ZM514.1 988.5c3.6-4.5 12.9-2.3 11.7 7.3-3.2 26.1-15.1 52-21.2 77.2-1.4 5.9 2.6 16.8-7 15.8-8.4-.8-7.2-12-6.6-18zM844.5 491.8c8.2 19.2-10.4 20.9-20.6 31.7 3.5 30.2-16.4 71.2-48.2 77.3-4.6.9-11.1-1.4-15.7-2.6-18.2-4.9-41.9-20.6-58.7-30.6-3.7-2.2-7-7.9-10.2-8.8-7.6-2.2-36.9-1.1-40.5-6.2 1.5-16.1 24.3-6.3 35.2-5.6 32.6 2 103.1-20.7 132.3-36.9 5.4-3 22.8-20.7 26.5-18.2ZM812.2 528l-57.5 21.4-43.3 10.9c14.2 6.7 45.3 31 60.9 27.7 3.9-.8 15.7-8.5 19-11.5 14.6-13.2 17.8-29.9 20.9-48.5M598.8 313.6c9.9-1.2 14.2-.4 11 11-10.1 4.5-24.8 9-33.3 16.1-4.1 3.5-10.3 18.1-16.3 8.5-8.5-13.6 27.2-34.3 38.6-35.7ZM780 269.5c15.5-1.9 46.9-15 57.9-.2 11.4 15.2-11.4 5.7-16.9 5.9-11.9.4-43.1 15.3-41-5.7M766.3 463.5c8.6 23.9-58.2 27.6-53 1.7 6.3-1.9 9.8 4.2 14.6 5.3 15 3.5 24.7-7.5 38.4-7M618.9 437.9c-.5-.3-8.8-6.5-9.2-7-3.9-4.9-5.7-28.6 2.1-30.1 10.1-1.8 24 34.4 14.1 38.7-2.6.5-4.8-.5-7-1.6M823.1 336.2c19.5-5.2 18.1 39.9 10.9 41.5-3.9-.6-8-3.5-10.4-6.6-.9-1.2-8.9-14.8-9.2-15.7-1.4-5.2 3-17.7 8.7-19.2M447.5 1111.2c2.4 2.7 2.5 9.5 2.3 13.1-.7 20.7-9 45.7-9.2 66.5 0 6.5 5.4 16.5 1 22.4-2.8 3.8-8.9 2.6-9.9-2.7-2-10.8 5.4-61.1 3.6-63.8-10 6.4-19.8 8.6-31 3.2-4.8-2.3-6.7-8.6-12.1-8.6l-10.9 62.8c-17.2.9-9.2-22.5-9-33.1.2-7.8-1.1-52.8 1.9-54.9 4.9 3.5 12.9-.9 16.1.8 4.1 2.1 10.9 17.4 17 20.9 17.6 10 32.5-13.6 35.1-28 1-1 4.5.9 5 1.4ZM875.4 1202.3c14 2 28.2 2.2 42.2 3.1 2.2.1 4.7-1.5 6.9-1 6.2 1.4 7.5 15.6.4 15.9-16.6-2.9-71.2.9-79-16.2-14.6-32.1 59.5-42.9 29.6-1.8ZM695.3 1175.9c3.7 4.5 3.3 14.4-1.3 18.3l-26.9 6.3c8.1 1.4 16.1 3.2 24.3 3.5 6.8.3 21.5-5.5 22.5 4.7.7 7.9-9.5 9.5-15.3 9.9-9.2.6-39.3-2.3-44.2-10.3-11.3-18.6 23.3-53.9 40.9-32.4M542.2 1207.7c-3.1-.3-12.7-1.8-15.4-2.6-11.2-3.3-10-15.6-6.2-24.3 2-4.5 15.1-16.5 19.7-18 4.1-1.3 8.2-2.5 12.6-1.7 11.6 2.1 8.2 27.1-1.6 25.1-4.5-.9-.6-10.7-5.5-8.9l-17.1 10.8c-.8 1.8 4.2 3.6 4.5 3.6H579c.4 2.9 4 16.2-.9 16.2-11.4 0-24.9 1-35.9 0ZM604.2 1186.1c2.5-14 20.9-8.9 28.7-2.6 4.1 3.3 9.9 22.1 10.6 27.3.9 7.4-10.6 7.6-14.2 5-5-3.5 7.5-26.5-13.3-24.4-13 1.3-5.1 29.2-20.4 23.1-3.5-17.7-3.8-36.2-5.9-54.3s-3-9.5-3.4-14.6c-1.5-18.3 5.9-17 10.2-1.2 2 7.2 3.2 17 4.1 24.6.7 5.6-2.5 14.3 3.6 17ZM483.4 1163.2c6.3 6.8-1.3 19.3-3.2 26.5 4.2 3.8 37.2-13.2 28 10.8-48.5 15.4-48.2-2-28.9-39.5 1 1.3 3.2 1.3 4.1 2.2M831 1212.7c-3.9-4.3-4.8-24.8-18.3-18.5-10.7 4.9-2.9 15-7.2 18.1l-7.4-1.7c-6.7-34.4 27.2-42.6 42.2-11.6 6.1 12.5-4.7 18.8-9.3 13.8ZM729.7 1139.7l12.6 74c-.8 3.3-7.3 4.4-9 1.9-4.7-25.1-11.3-50.5-10.6-76.2l6.9.3ZM782 1213.1c-14.9 2.2-20.2-15.1-16.1-26.9 4-.5 4.7 0 6.9 2.9 2.5 3.3 12.1 21.2 9.2 24M787 1180.4c-13.7 7.6-18.1-8.3-14-19.3l14.2 4.6-.3 14.7ZM491.9 1141.3c14 6 7.8 25.2-4.1 11.4z" class="st0"/></svg>