<svg xmlns="http://www.w3.org/2000/svg" id="Calque_1" viewBox="0 0 1300 1300"><defs><style>.st0{fill:#313a94}</style></defs><path d="M767 138.3c27-6 63.2 13.8 83.2 31.3 47.7 41.8 94.3 158.2 105 220.5 17.5 102.1 20.6 186.3 3 289.5-8.8 51.5-21.9 101.2-18.2 154.7 1.2 17.5 6.4 31.2 5.3 49.3 0 .8 2.8.5 3.2 1.9.8 3.1 0 6.1 1.3 10.3 1.1 3.2 19.7 28.4 22.3 30.2 5 3.5 10.4 1.3 13.3 6.6-2.9 10.8-14.2 3.9-21.7 5.1l22.1 16.9c-7.8 6.5-16.2 5.6-23.7-.8-.9 3.7 4.6 4.7 2.6 8.5-2.8 5.4-11.1 1.3-14.5 5.9-.9 3.6 5 3.5 5.2 5.2.4 3.5-3.6 5.7-3.2 8 .5 3.3 5.8 10.3 6.5 17.3.1 1.4 0 14.3-.1 15-1.1 4.1-.9-.2-1.4 8.7-.8 13.9-14.5 21.4-19.7 5.9-24.1 20.8-25.7-2-34.8-20.3l-3.4 1.1c-13.4 39.5-60.2 8.7-30.5-19.7-29.7-6.5-60.5-8.1-90.2-14.1-2.8-.6-5.7-.9-8.5-1.7s-4.7-4.9-6.4-2.1c4.8 4.3 10.9 12.9 7.6 19.5-18.4 19.6-53.1-13.5-22.9-23.8-9.7-11-10-3.2-15.3.8-29.5 22.4-108.7 31-145 26.3-25.2-3.2-43.1-12.9-64.6-25.4l-53.3 6.8 8.4 11c.2 5.9-6 7.1-8.3 10.4-1.6 2.3-.8 6-3.1 7.5-1.9 1.2-14.8 5.8-17.5 6-15.8 1.6-23.1-10.2-22-24.7-10.9 3.4-36.5 3.4-44.8 10.3s-21 38.5-22.9 39.9c-1.6 1.1-4.5-1.2-6.8-.2s-4.6 6-8.4 7c-.7.2-14.6.3-15.4 0-2.9-.8-6.8-4.7-8.1-7.4-.7-1.4-5-22.7-5.2-25.2-3-27.8 7.3-56 6.5-84.7-.8-32-13.9-61.2-18.4-91.7-6.7-45.5 4.5-90.6 4.9-135.3.6-75.3-45.7-135.7-28-214.6 5.4-24.2 20.9-45.7 27.6-67.4 11.1-36.1 17.5-76.6 28.9-113.6 23.4-75.7 72.7-154.1 145.2-190.6 51-25.7 126.3-44.1 183.5-37.1 6.5.8 14.6 5.4 21.8 7 20.9 4.9 37.5 6.6 56.2 18.4s24.2 21.5 25.4 27c.8 3.5-3 6.8-2.6 10.4ZM626.3 101c-2.3-.8-10.6 2.3-8.5 3.4 2.3.8 10.6-2.3 8.5-3.4m-38.5 27.1-16.3 10.3 1.9 2.9 16.3-10.3zm183.3 155.3c-9.5-12.8-22.9-34.8-22.3-51.4 0-2.4 2.6-3.9 2.6-6.1 0-3.3-4.2-9.4-5.2-13.4-3.6-14.4-6.2-28.9-7.1-43.7-10 14.3-27.4 23.3-42.1 32.5-20.9 13.1-47.2 24.4-66.2 40.6-13 11.1-23 27.8-36.4 38.6-24 19.5-53.8 35.7-77.5 56.1-2 1.7-21 19.2-19.5 20.3 6.4.3 12.9-.5 19.3.2 17.7 2 44 7.2 61.5 11.4 9.9 2.4 24.9 5.4 25.2 17.2 15.7-7.6 38.4-12.1 55.5-6.4s8.3 6.5 13.8 6.2c15.7-20.9 48.5-30 73.4-33.5 25.5-3.6 50.5-.2 75.2 6.5.3-2.4-.2-4.6-.8-6.9-5.6-23.8-34.4-48.2-49.4-68.5Zm107.8 49.9-4.3-16.9-11-23.8c3.3 10.8 6.6 23.8 10.7 34.2s2.2 6.4 4.5 6.5Zm3.2 4.7-2.6.7 4.3 15.5 2.6-.7zm-45.5 39.4c-39.2-7.8-76.3-15.9-115.3-1.7-.4 3 3.8 1.7 5.5 1.3 13.4-2.9 25.7-8.8 39.8-3.3 6.2 2.5 7.4 6.6 12 10.5 2.3 2 7.7 3 10 5.7 11.2 13.2-8.8 27-21.4 29.2-10.7 1.8-43.2 2.3-52.2-2.3-6-3.1-9.7-9.1-12-15.2s1.1-11.3-7.7-12l-11.1 8.4c2.3 16.2 5 33.3 14.4 47.2 1.9 2.8 11.1 12.4 14 13.5 31.4 11.8 84.7 8.3 104.4-22.1 11.9-18.4 7.5-32 7.8-52.9l11.9-6.2Zm-300.2 0c-10.9.9-22.6-3.1-33.1-3.6-6.7-.3-12.4 3.7-19.4.2l-26.7 44.9c1.6 5.6 7.5 7.3 11.3 11.9 3.1 3.7 5 9.6 7.4 12.2 26.4 29.4 69.3 35.5 101.8 12.1 20.1-14.5 20.5-39.8 16.1-62.1l-42.9-12.2c-4.9-.5-1.5 2.2.3 3.1 12.2 6.4 32.8 13.5 20 30.6-17.8 23.9-53.5 12.3-76.3 3.6-18.4-21.8-1.7-32.5 19.5-38.3l22.1-2.4Zm236.5 27.8c1.7-1.7 6.7-4.4 5.2-7.5-6.6-7.7-15.6-15.2-26.3-12.7 20.8 24.9-26.2 37.9-15.3 2.6-9.6-1-18.5 3-25.4 9.4-.2.7 6.4 11.4 7.2 12.1 3.8 3.2 39.2 3.4 46.1 2.1 4.4-.9 5.8-3.2 8.5-5.9Zm-236.5-12.6c-9.3-3.7-41.6 2.1-37.1 15.8 11.9 8.4 35.9 13 50.2 8.3 3.4-1.1 13.5-6.7 12.1-11.1-5.2-8.4-14.5-10.8-23.5-13-.8 4.6 3.1 3.2 5.5 7.2 11.6 19.6-18.2 19.8-15.7 2.2.8-5.5 6.5-5 8.5-9.4m136.9 14c-.5-.7-12.4-10.9-13.2-11.4-17-9.7-37.6-2.1-54.1 4.2 3.2 22.8 2.5 51.5-16.2 67.7-33.2 28.8-88.5 22.8-117.3-9-7.5-8.3-11.7-20.4-23.5-26.5l-28 46.6c-.8 5.8 8.8-1.5 10.1 6.8s-3.5 1-5.2 3.5c-6.1 8.6 5.8 52.3 9.1 63.8 22.7 78.5 87.2 217.6 177.2 233.2 41 7.1 82.2-8.2 115.6-31.1 2.7-1.8 4.6-5.3 7-6.6 2.3-1.2 5.7-.4 6.7-1s-1.4-2.2 0-4.1c3.2-4.6 9.9-8.1 13.1-11.6 24.1-26.7 34.1-50.6 50-81.4 5.3-10.2 15.7-20 19.2-26.6 3.6-6.9 10.9-55.6 12.6-67.1 4.3-29.3 3-66.6.2-96.5-.3-3.6-1.1-14.6-4.2-16-6.3 11.7-22.3 26.6-34.8 31.3-22.8 8.6-79.4 9.5-97.7-8.2-4.5-4.3-15.8-22.2-18.4-28.2-3.4-8-5.5-27.6-8.1-31.7Zm39.5 370.9c-1.5-1.1-29.2 12.4-34.3 14-10.2 3.1-32.7 8.7-42.9 9.7-19.9 1.8-39.7-4.8-58.5-10.1 1.8 4.6 2.7 9.7 3.4 14.6 3.7 26.2 5.5 53.1 3.4 79.5-2 25.6-16.6 43.2-19.8 68l1 1.5c18.2 9.5 40.3 16.2 60.9 15.6 14.8-.4 77.9-13.6 85.2-25.6 3.6-5.9-4.1-30.5-5.2-39.1-3.8-31.6-4.1-69.9.2-101.5 1.2-8.6 3.4-18.4 6.6-26.5Zm186.5 78c-1.5-19.6-4.2-38.8-3.4-58.6.2-4 1.6-7.7 1.8-11.7.1-1.9 1.1-6.4-1.7-6l-5.2 31.3 8.6 44.9ZM399 879.2l1.6-26.1-10-26.4V841c.1 0 8.4 38.3 8.4 38.3Zm512.2 18.7-8.4-20.3c-.3 7.2 1.6 16.5 8.4 20.3M550 923.1l-2.9 14.9 2.8.5 2.9-14.9zm186.5 25.6c.7-4.1-3.8-5.3-6.8-6.8l1.9 6.6zm-307-5.1c-3.1-.6-5.6 2.3-6.8 5.1 3.1.6 5.6-2.3 6.8-5.1m130.6 18.7c-2.4-.3-4.5.1-6.8.8-2.2.6-9 3.7-10.1 6 5.3 1.5 9.1 6.4 15.2 5.1zm28.8 22c.6-9.6-20.8-19.5-21.8-7.3-.4 5 17.5 6.8 21.8 7.3m79.8-8.4c-10.3 2.5-21.1 2.9-31.4 5.1-2.9.6-5.1-1.9-4.2 3.3 9.9-2.2 21.1-3.2 30.9-5.6 1.7-.4 5.1-.5 4.7-2.9ZM621.2 986l-2.8-4.8-20.9-2 2.7 6.9h21Zm318.8 33.9h-6.8v3.4c3.2.4 5.9 0 6.8-3.4M858.1 1118.8c18 16.1 15.7 63.4-2.4 80 12.7 21.3 36.8 11.7 55.5 4.2-8.5-22-16.6-43.2-6-66.2 12.9-28.2 43.2-17.7 46.8 11.1 2.5 20.2-7.7 43.4-20.4 58.5 17.1 6.4 33.8.3 50.9-3.4-4.8-15.3-6-46.7 13.5-51.8 24.9-6.5 24.9 43.5 10.2 55.2 7.2 4.5 40.6-.9 43.3 5 4.4 9.7-17.9 11.8-23.8 11.9-15.5.4-25.4-7.9-34-8.4-4.3-.3-17.7 5.3-24 6.5-10.4 2-24.4 2.9-34.5-.6-4.1-1.4-9.1-7.5-12.6-7.6-2.6 0-19 9-25 10.6-21.9 6-32.1-.9-47.9-15.5-15.1 9.6-32.3 16.3-50.5 12.9-6.5-1.2-11.8-7.5-17.5-8.1-9.4-.9-18 6.8-31.9 4.9-22.5-3-32.2-15.8-43-33.3-3.7-6-3.9.9-7.1 3.8-3 2.7-8.1 6.9-11.5 8.9-6.1 3.6-18.3 5.9-21 7.9-.7.5-1 8.4-9.5 14.1-15.8 10.7-30.9 3.1-32.8-15 7.6-2 10.5 7.5 17.7 6.8 4.6-.5 12.2-6.4 10.4-11.9-3-9.5-26.6-18.3-33.2-27.1-6.4 24.5-53.5 52.8-72.1 25.5-22.9 29.5-62.5 14.2-60.2-22.1l-15.9 1.9-2.1 3.3c11.6 21-12 39.6-31.6 31.6-14.1-5.7-11.9-27-18.1-39.2-7.1-6.1-20.8 8.2-21.9 13.8-.8 4.2 5.2 22-1.4 24.1-10.4 3.2-12.1-12.1-13.3-11.7-14.6 8.1-31.1 14.4-47.7 16.8-23 3.2-60 .9-75-19.6-9.4-12.9-10.6-22.4-5.9-37.5 5.6-17.9 29.2-39.2 47.5-42.4 8.6-1.5 22.7-.8 25.6 9.3 4.2 14.6-12.2 14.1-15.8.7-16.8 7.5-35.6 17-42.9 35-6.1 15-5.2 28.3 9.9 36.8 25.3 14.2 68.6 5.6 92-9.5s9.9-7 10.5-8.2c4.3-8.5-11.6-30.9-11-43 1.7-33 38.1-26.7 43.6.1.7 3.5.3 18 .8 18.8 2.4 3.1 10.5 7.5 14.5 13.4 6.8 9.8 7.7 20.3 11.5 31.2 14.2.5 19.1-7.2 16.9-20.6-1-5.7-10.2-19.2-1.5-21.8 6.1-1.8 7.5 4.9 9 5.7 10.5 5.5 23.8-7.5 30.5-3.3s1.5 19.3 5 28.9c8.2 22.5 33.7 3.2 40.4-10.7 2.1-4.4 3.7-18 6.5-19 22.3.2-3 36 20 33.7 18.7-1.9 37.3-18.6 44.1-35.7 2.9-7.4-.2-16.3 12.1-10 2.1 22.2 10.3 20.6 25.1 30.8 2.4 1.7 12.4 11.4 13.5 11.4 30.2-7.7 34.3-18.9 36.8-48.1.5-5.5-2-22.9 2.8-24.4 12.4-4 12.7 22.1 14.1 22.8 6.7 1.2 20.7 1.7 21.9 10.5 1.4 10.1-17.6 2.6-23.6 8.3-1 32.5 22.2 53.3 54.4 42.2l-3.2-22.3c2.4-16.6 19.2-26.4 32.1-11.7 12.1 13.8 5.6 26.4-5.1 38.1 11.1 4.9 43.4-.7 48.4-11.9 1.9-4.2-8.3-23.7-9.2-31.5-1.7-14.5 3.7-66.1 28.1-44.2ZM390 1130.4c-14.6 4-4.2 30.3 1.3 38.7 9-6.1 13.2-42.7-1.3-38.7m456.8 52.3c13.8-11.6 16.6-38.1 5.9-52.6-16.5 10.3-11.6 36.9-5.9 52.6m72.9 11.9c12.4-6.6 28.1-46.9 17.9-56.1s-21.5 3.8-24.3 13.3c-4.9 16.7.9 27.6 6.4 42.8m84.8-27.2c-13.1-4.3-16.6 25.9-11 27.1 9.3-4.4 12.1-17.6 11-27.1m-215.5 6.9c-8.3-5.8-15.2 13.6-11.8 20.3 3.2 3.5 16.6-16.9 11.8-20.3" class="st0"/><path d="M521.6 1008.6c10.4-9.3 24.9-6.9 32.5 4.7 7.4 11.4-11.8 23.2-21.9 23.8-19.4 1-21.1-19-10.6-28.4ZM834.7 1048.6c-4.5 3.9-14-4.8-17.6-4.8-2.9 0-5.9 2.4-8.9 2.6-5.6.5-18.3-3.2-17.6-10.3 9-10.3 19.3-21.8 33.9-11.9 5.2 3.5 15.3 19.9 10.1 24.3ZM669.9 996.5c10.4-3.1 20.1 7 21.9 16.6 1.3 7.3-10.3 16-16.7 15-15.8-2.5-17.6-27.9-5.2-31.6M545.2 1134.9c-2.7-4.8-.6-11.9 5.6-11.4 6.6.5 14.9 18.4 3.4 16.9-1.1-.1-8.7-5.1-9-5.5M537.1 590.3c6.3 9.2 5.6 17.5 11.1 27 9.2 15.9 36.9 32.8 54.3 37.3 43 10.9 83.1-1.3 121.3-20.6 4.8 1.5 10.7 6.4 9.5 12-26.2 16.1-49.2 28-80.7 29.8-23.8 1.4-51.6-1.8-72.3-14.2-8-4.8-31.5-22.5-37-29.1-9.3-11.1-16.4-35-20.2-48.9l4-2.8c6.6 1.3 7.3 5.5 10.1 9.5ZM603.9 528.6l3.7 13.2c3.7 1.1 12.4-6.8 14.4-3.4 1.7 2.8 3 10.7.4 13.2-6 3.6-16.7 2.8-21.7-2.1-5.7-5.6-9.6-24.5 3.2-20.9" class="st0"/></svg>