<svg xmlns="http://www.w3.org/2000/svg" id="Calque_1" viewBox="0 0 1300 1300"><defs><style>.st0{fill:#313a94}</style></defs><path d="M523.5 705v-10.9c-3.2 1-3.5 4.8-5.2 7.3-.5.8-2.8 1-3.3 2s-2.7 23.6-2 24.7c.4.7 2.7.9 3.4 2 3.9 5.8-1.4 12.4 2.5 18.6-7-2.4-7.7 14.1-7.9 19.5-.7 15.3 5.6 31.7 3.2 47.6 5 5.8 9.5-25.4 10.9-26.5 12.4 2.6 3.4 15.4 2 24.6-.5 3.4-2 15.8-1.9 18.4s3.8 4.1 4.5 7.7c1.5 7.7-1.3 18.8 1.6 27.3 2.7.3 1.7-5.4 1.6-7.1-.3-5.5-2.1-10.7-1.6-16.3l7.5 5.8 1.9 42.6c2.4.3 2.7-3.9 2.8-5.5.4-5.6-3.4-24.9-1.1-28.6 4.6-2.9 7.4 1.9 12.3 1.4v-4.7l4.7 1.6 4.6-13.4 4-.8 3.8 2.6c-7.1 21.5-6.9 44.4-6.2 66.9.5 16.1 2.5 33 4.6 48.4.7 4.8.2 9.9 1.7 14.7 3 .5 4.2-1.2 4.7-3.9 2-10.9-.5-30 0-42.2.7-18.5 3.9-36.7 1.6-55.3l3.9.2c1.4-8.7 2.1-18.4 13.2-14.2-5 11.7-4.5 24.1-8.5 35.9l11.7 73.2c2.2-31.3 1.7-63.1 6.5-94.1.6-4.2 1-9.9 2-13.5.4-1.2 4.3-8.6 6.3-7.7 8.1 3.6-.4 16.2-.4 21.4 0 3.5 4.7 6.1 5.1 9 .6 3.9-2.2 11-2.2 15.5 0 28.5 8 59.7 10.7 88.2l2.4-1.5 3.9-52.2-.2-60.8 5.3-2.7 3.3-24.7c9.8-5.3 9.6 13 9.3 19-.5 11.7-6.2 22.2-7.6 30.8-4.5 27 .5 58 2.3 85.2.5 7.5.6 15.1 0 22.6-10-2.2-5.1-17.3-6.2-24.9-3.1.6-2.6 2.8-2.8 5-.6 5.2 0 13.3 1.3 18.3l-7.8-1.6v4.7c-2.7.5-3.2-.7-4.4-2.7-4.6-8.1-4.2-23.7-7.7-32.8l-8.2-56.5-4.3 66.7 2.7 33-7.8-1.6c1.4 7-4.3 6.2-6.6 1.1-.8-23.9-1.9-47.8-6.6-71.3-.3-1.7 0-5-2.4-4.6 0 19.4-1.9 38.7 2.3 57.8.8 3.9 7.5 12.4 0 12.5-6.5 0-9.6-18.2-8.6-23.4l-2.3 19.5 10.1 28.8c-3.2.6-4.1-.4-6.3-2.3-7.8-7.1-12.1-31.9-16.4-42.9-4.5-11.4-12.2-24.3-17.1-35.9-.6-1.4-3.8-14.7-5.5-12.5 1.4 12.5-.4 35.3 6.4 45.9s3.6 2.2 4.5 3.6c2 3.2 5.1 11.2-.8 11.3-5.7-1.2-9.6-19.7-13.2-23.9-1.5-1.7-4.3-.7-6.1-3.6-3.8-6.2-7.3-20.8-10.9-28.2-3.4-7.1-8.6-13.3-11.3-20.7l-5.4 1.2-2.2-2.2c2.3-7.6-2.3-12.2-3.2-19.3l-4.1 4.6c-2.2 0-5.8-.4-6.8-2.7-4.1-8.9 1.3-45.1 2.2-56.3 1-12.8 5.1-31.8-.7-41.5l7.8-52.2-15.4 47.7c1.2 20.5-3.2 42-3.4 62.2 0 8.8 3.8 16.8 1.7 25.8-2.1 0-4.3.4-6.2-.8-7.4-4.3.4-48.7-1.4-57.6-.4-1.6-6.5 1.2-6.4-7.9.2-14.9 7.9-53.8 11.3-69.8 1.5-6.8 4.8-27.4 13.5-21.6.5-2.5 2.5-4.5 3.3-6.8 7.5-20.1 10.7-61.3 33.9-72.2 5-2.4 12.5-2.8 16.6-5.2 3.2-1.9 4.6-6.9 6.6-7.5 2-.5 4.7 1.4 7.2 1.1 3.4-.4 5.9-4.3 11-4.3s12.7 2.4 15.8 6.1l4.7-7.8 12.6 6.3-.9 7.8c4.1-1.2 2-7.3 7-7.9 6.8-.8 3.4 4.6 7 6.3-2.4-9 8-10 9.1-3.7.5 2.9-3.9 7.4-1.2 11.5 4-1 2.2-8.5 3.8-10.9 4.9-7.2 19 10.4 18.8 15.7l-2.3-18.7c10.7-.5 13.4 23.3 15.1 32.5 1.5 8 2.5 16.2 3.5 24.2l-3.8 2.6-7-4.7-2.4 7.8c-1.2.2-13.6-14-16.3-3.9h-4.8c-5.8-3.5.4-17.1-2.3-22.6-3.9 3.8-2.8 10.8-5 15.2-1.2 2.4-3.7 2.4-4.3 3.5-1.6 3 .2 7.1-3.2 9.3-4.4.9-6.2-9.3-5.4-12.5-6.9-.7-8.8 6.8-17.1 1.6.4 2.4-.2 8.7-3.9 7.8l-3.9-10.9c-4.8.7-.9 8.4-5.5 7.8-5.4-.7-4.5-6.3-7.8-9.3l-3.2 6.2c-7.6-3.6-7 3.8-15.4 1.5-.7 6.4-3.2 3.8-5 5.3-1.6 1.3-1.2 4.3-4.4 4.3-7.6.1-3.7-9.5-4.6-11s-6.8-4.9-7.1-4.7l-3.3 13.9c-.9.5-2.3-.2-3 0l.9 1.7c38 3.2 78.6 6.7 116.9 4.6 28.9-1.6 62.5-6.9 90.9-12.1 2.7-.5 5.4-.6 8.1-.4-1-12.3-6-20.1-13.3-29.6-2.1 7.9 8.5 16.4 1.5 23.4-6.3 1.9-11.8-14.3-11.7-18.7-2.8-.4-1.5 3.5-1.4 5.2.3 3.3 2.8 7 .6 10.4-1.5 1.8-1.9 1.9-4 .8-8.3-4.3-10.3-27.9-15.2-36.3-2.1-3.6-5.7-4.1-7.2-6.6-.9-1.5-.2-7.1-2.5-9.4 6.1-.6 8.7 3.4 11.7 7.8 8.7-13.2 16.5-2.3 25.2 2.9 3.1 1.9 6.4 2.2 9.8 4.4 9.3 6.1 20.3 41.8 22.7 53.6 2.8 13.4 2.2 30.2 5.7 42.6.7 2.4 4.1 3.9 5.5 7 2.2 4.8.9 12.4 2.4 17.8 1.6 5.9 7.2 13.1 7.4 19.9 2.9.3 1.3-3.3 1.1-5-.6-6.1-1.6-11.1-1.1-17.6 0-1.3-.8-5.4 2.3-3.9 6 2.8 4.5 23.8 5.7 30.2.3 1.7.5 5.8 2.9 5.6-1.7-15.9-1.2-31.4-6.2-46.8 3.4-.6 7.1 1.8 8.5 4.8 2.3 4.9 3.7 23.7 4 30.3.6 14.8-1.8 29.6-.8 44.5l2.3 1.5c4.3-30 7.7-61-1.5-90.4 15.6-2.4 9.5 19.3 12.5 30s5.7 3.7 5.9 9.6c.4 9.8-3.5 33.4-4.5 45.3-1.9 22.6-5.3 45.2-6.2 67.9 3-.6 2.7-3.1 3.1-5.4 1.8-11.4 3.5-25.9 4.7-37.5.7-6.6 1.4-43.1 3.2-44.4 7.8 6.9 3 19.1 4.7 28.1l3.1-11.7c-2.5-31.8-10.6-64.2-3.1-95.9 11.3-.8 3 21 3.1 30.3 0 10.2 2.5 20.2 1.6 30.5 6 1.2 1.7-6.6 1.7-10.2-.1-10.7.6-26.6 1.4-37.4.5-7.1 3.5-13.8 3.2-21 .3-.4 5.3 2.7 6.3 3.9 6.7 7.9 8.7 29.4 9.3 40.5 1 20.1-1.5 40.2 0 60.2l-10.2-6.2c-1.2-2.1 2.4-4.5 2.4-5.5v-30.4l-3.6 26.9-7.4 40.2h-8.6c-2.7 7.3-2.5 43.5-8.5 46l-4.7-.8-1.6 59.3-3.1-1.6v12.5h-6.2c-.2-10.3-.4-21.8-1.6-32-.3-2.2-1-4.5-3.1-2.3-.4 11.3-2.5 36.1-9 44.8-1.5 2-1.9 4.2-5 3.5 7.1-31.6 11.2-64.1 12.5-96.7-2.3-.4-1.9 2.4-2.2 3.9-1.2 6.1-1.2 13.3-3.2 19.5l-3.8-.9 3.7-60.2c-4.5-29.6-17.1-57.3-21-87.1h-7.8c-1.2 21.5 8.6 41.3 12 62.1.7 4.4 3.5 11.2-.3 14.3-5.5-15.8-9.6-32.2-14-48.3-1.4-5-1.5-12.6-3.4-16.8-1.7-3.8-13.5-6.4-.4-10.6-.2-7.8-4.1-23.5 3-28l-5.4-16.5c-1.3-2.2-7.3 1.1-9 2-3 1.6-5.2 4.3-8.1 5.9-44 22.7-123 22.3-170.6 9.8-7.8-2-28.3-9.6-34.9-13.4-4.5-2.6-6.6-5-5.9-10.5l6.2 1.5-2.9-7c1-2.4 3.1-1.7 4.5-2.3Zm62.4-60.8c-6.3-.7-8.2 9.7-3.1 5.5.7-.6 3.3-5.3 3.1-5.5m-50 15.6c-19.1 5.6-20.1 31.1-28.1 46.8 6.3-6.3 9.1-17.8 13.7-26s9.9-13.6 14.3-20.7Zm60.6 10.3-3.9 12.2 2.6.8 3.9-12.2zm39.3 19.3-1.5-10.9c1.1 2.3-4.6 12.2 1.5 10.9m98.3 20.3-37.4 6.3v9.3c2 2 34.4-10.2 37.4-15.6m-162.3 20.2c.3-3.3-.6-9.5-4.1-10.7-8.2-2.7-28.2 1.1-38-1.8l20.6 8.3zm118.6-12.5-31.2 1.6 1.6 14 29.5-4.7v-10.8Zm-79.6 4.8-34.3-1.6c2 2.7.8 8.3 3.1 10.2s29.2 5.9 31.9 5.3l1.9-3.1-2.6-10.7Zm43.7-1.6c-8.2-1.4-16.8 1.3-24.3 1.6-4.3.2-12.7-4.8-13.2 2.3-.2 2.5 1.7 10.6 4.1 11.4l30.8-1.5 2.3-2.3.2-11.5ZM837 786.1l1.5-22.6-4.6-21.1c.3 11-3 22.6-1.7 33.6s2.5 8.9 4.7 10.1Zm-332.3-29.7 1.6-12.5c-2.2-.2-2.2 6-2.3 7.8-.2 1.6-2.3 5 .8 4.7Zm-6.2 114.7c.8-7.1-.6-15.3 0-22.6l-3.2 21v8.7c1.7.4 3.1-6.3 3.2-7Zm20.3 42.9c-1.9-7.5-3.9-15.2-6.2-22.7s-.1-4.8-3.2-5.4c-1.2 10.8.6 20.8 9.3 28.1Zm28.1 15.5v-25c-4.9 2.4-3.3 11.7-2.9 16.2s.7 8.6 2.9 8.8M512.5 914l-3.1.8 15.6 22.6c1.7-16-.5-12.3-10-18.9-2.2-1.5-2.3-4.3-2.5-4.5m42.2 17.1c-4.7-1.1-1.9 1-2.2 2.6-1.4 8.4-2.5 18.3 5.3 23.9zm-21.9 25c.1-5.3 0-10.6-1-15.8-.4-1.7.4-4.9-2.1-4.5.7 3.8-1.5 7.8-1.2 11.3.1 1.5 2.1 8.6 4.3 8.9Zm3.1 7.7-.8-7.8c-3.3 2-.8 4.6-.8 7.8h1.5ZM629.5 50l-1.7 8.4c-17.9 23.2-41.6 45.9-50.5 74.3l-3 1.5-4-3 1.8 12.3 10.7 1.8c2.3-16.7 16.1-31.5 26.6-44.5 11.4-14.2 24.7-28.6 37.4-42.1.9-1 1.4-2.5 1.5-3.9 15.6 6.5 3.1 9.7-2.4 15.5-10 10.6-19 24.1-28.8 35.2 3.6 5.2 6.6-4.9 9.5-7.7 7-6.7 16.4-6.2 25.3-7.3l2.5 5.4-4.4 2.6 1.4 4.5c-2.7.4-5-1.9-7.7-.8s-17.6 14.3-18.3 15.3c-1.1 1.5-9.3 25.1-8.3 26 16.4 1.9 24-.3 28.1-17.1l-6.5 9.2-7.4-1.5c-.9-1.3.7-7.7 1.5-9.5s15-15.4 16.7-16.9c4.9-4.1 42.8-21.2 47.5-19.9 1.6.4 2.8 2.5 5 2.7 11.3.9 17.7-15.2 25.4-20.1 6.8-4.4 25.9-12.9 28.5 0-14-1.1-25.5 8.2-34.3 17.9l14 3.9c-.7 7.7-13 1.7-12.5 12.4 3.6-2.5 10.6-.1 12.6-.8s14.6-19 17.8-22.6c2.8-3.1 18.9-19.8 22.6-17.1.3 2.6 2.4 5 .9 7.8s-13.5 11.5-16.4 14.9c-7.3 8.3-13.7 19.8-20.3 28.8 10.9-1.3 16.1-10.7 23.5-16.2 12.1-8.9 23.9-13.4 38-18.1l2.6 6.8c-.2 1.1-6.8 4.2-8.4 5.6-1.5 1.4-.6 3.9-2 4.9-4.6 3.2-12 2.9-19.4 9.9-5.4 5.1-7.9 14-9.6 16.1s-8.8 1.7-7.4 8.1c7.3-3.6 18-4.3 24.8-7.1s17-15.4 23.5-20.2c2.1-1.6 3.2-2.9 6.3-2.3 3.8 3.8-15.5 17.4-15.6 19.5s3.5 1.3 4.3 1.3c4.2-.2 8.5-1 12.8-.5-.1 4.1-4.5 5-1.5 9.3-9.6.6-22.3 2.7-28.1 10.9 6.8-3.2 18.9-4 24.8-7.1 3.3-1.8 7.8-7.7 12.7-10.7 7.6-4.6 27.5-14.1 27.9.6-9.9-4.6-17 4.5-25 8.6 7.6 5 23.1-13.9 21.1.9l-11.4 5.7-23.8 17.6c8.3-2.4 22.8-3.1 30-6.3 1.2-.6 1.7-2.6 3.1-3.5s8.3-4.1 8.7-4.6c1.5-2.1-1.8-5.4 4.2-4.3l1.4 3c3.6-1.4 19.5-4.4 19.6.9 0 3.3-18.1 7.8-21.8 8.6l1.6 6.2c-8.3 1-15.7 6.8-21.8 12.5 7.1-2.6 14.1-4.4 21.5-5.8 5.3-1 12.3-.3 17.2-1.6 5.3-1.4 9.8-4.9 15.6-6.2 5.7-1.3 18.9-3.2 17.5 5.8l-14.1.7-23.4 12.5c.4 1.8 33.3-11.2 31.2 3.9-11.3 2.5-23 3.5-34 7.4s-14.6 7.9-15.4 8c-2.5.4-11.7-3.7-11.3-8.4s8.7-5.3 10.8-10.1L817.2 190c-4.9.7-5.1-3.9-7.4-5.9-3-2.6-8.6-1.2-7.1-7.8 5.9.5 12.1-3.1 15.6-7.8-14.6 2.8-27.9 11.3-42.6 12.5-9.2-10.5 8.1-16.8 11.4-24.3.9-2.2-.4-2.5-2.3-2.3-4 .5-19.3 9.4-22 12.4-3.2 3.6-9.2 21.9-10.8 21.9-5.3-4.1-5.6-7.8-3.9-14-3 .8-2.8 5.4-6.2 7-6.6 3-12.2.7-10.9-6.9-7.1 2.7-9.4-3-10-3-1.1 0-2.8 1.4-4.8 1.3-11.3-.7-24.3-3.1-35.1-6.2 7.9 7.2 23.2 12.4 30.5 20.2 2 2.1 2.9 3.1 2.3 6.3l-35.1-17.2c-2.9 4.6 9.4 6.5 12 7.9 1.8.9 1.7 3.5 3.8 4.3s4.7 0 6.8 1.1c6.9 4-.1 8.8-6.9 8.6-5.8-.1-40.8-9.5-45.4-12.5-5.1-3.3-4.9-10.6-5.4-11-.7-.6-10.8 5.2-9.5-9.9l18.8-4.9 29.6-37.4c-3-1.2-10.3 3.2-13.2 5.5-3.2 2.5-5.8 7.6-7.5 8.9-2.9 2.1-14.7 3.4-13.4 10.4.8 3.9 7.3 2.5 6 7.2-9.3.3-14.8-4.9-21.1 4.7l-4.9-7.9h-14.6l1.5 11.9 15.6.7c-.6 9.5-15.6-.4-16.5 10.1-.8 10.1 19.6 14 24.3 21.9l-2.3 3.8-14-7.8.8 4.7h-4.6c-.7-10.3-10.1-11.7-17.8-15.9-3.1-1.7-7.9-6.6-10-7.2-7.2-2.1-16.7 2.2-7.2-9.8l13 1.7-6.3-7.1-9.3 2.5c-.8-6.3-1.4-8.1-7.8-9.4l6.2 15.6c-10.1-1-15.4-13.8-16.7-23-3.1-21.6 5.2-51.9 19.8-68.3 1.7-1.9 11.7-10.9 14.1-8.5 2 8.8-6.8 13.4-10.7 19.7-3.5 5.9-8.3 15.9-10.4 22.3-.5 1.5-2.1 5 .8 4.7 2.9-8 10.1-15.7 15.6-22.6 8.5-10.8 19.3-26.5 29.6-36.9 1.2-1.2 6.7-5.6 7.8-4.3Zm71.8 48.3c-2.9.3-33.1 7.6-28.1 12.5 9.1-4.5 21.9-3.3 28.1-12.5m7.8 26.5c10.1-1.6 20.7-6.3 23.4-17.1-12.8 3-16.8 5.8-23.4 17.1m-93.6-9.3c-12.1 4.4-18.6 18.4-23.4 29.6h7.8c.8-.5-3.9-3.3-3-6.7 1-3.8 19.7-22 18.6-22.9m88.9 0c-2.2-2-7.1 5.4-6.2 7.8.7-.8 7.9-6.2 6.2-7.8m-11.3 13.6-6.2 6.2 1.6 1.6 6.2-6.2zm51.9 2c-8.5-.2-13.3 7.9-17.2 14 9.7 0 13.1-6.8 17.2-14m20.3 10.9-21.9 7.8 1.6 4.6c-5.4-2.7-13.3 13.3-12.5 14 16.6.8 24.3-15.1 32.8-26.5Zm-103 21.8h10.2c2.1-5.6 6.5-10.7 5.4-17.1-4.7 2.4-4.6 9.5-4.7 14-5.8 1.6-3.1-3.9-7.8-3.1zm46.8-12.4c-8 3.1-21.2-1.7-23.4 9.3l19.2 1.7zm-104.7 1.7c-1.4-.2-9.2-1.6-7.6 2.1l9.3 7-1.7-9.2Zm119.4 5.4c-1.1-1.3-1.9-2.8-3-4l-5.5 10.9 9.1-.2c3.4-6.1 1.2-4.4-.6-6.6Zm-114.5 17.8-9.4-6.2c-3 2.5 8 6.7 9.4 6.2" class="st0"/><path d="M316 240.2c-.2-.1-2.7-3.6-2.8-4.1-1.3-7.1 15.5-11.1 19.6-15.3 1.8-9.3-21.4-16.1-19.9-27.4 11-2.6 9.4 10.4 18 12.4 4.5 1-.6-7.5 7.6-4.5.8.3 1.4.6 1.8 1.4l1.7 6.4c9.1.2 15.3 1.8 23.9 4.6-9-13.3-31.5-14.3-35.9-31.2 5.7-2.7 8.7-.3 14 1.6l-1.5 6.1c5.4 0 9.6 7.5 14 5.5-4.1-5.3-4.7-11.7-3.1-17.9 5.5-.5 8.7 4.1 13.9 5.6 3.6 1 7.4.3 11.1 1.4 2.8.9 16.2 7.8 17.1 7-3-5.9-7.7-10.4-11.2-16.1-3.2-5.3-11.7-20.8-13.1-25.9-.8-3.1-1.4-4.1 1.6-6.3 5 3.2 8.3 1.9 7.1 9.2l17.1 3.2c1.4-1.3-8.7-16.8-2.3-17.1 4.8-.2 8 11.3 12.4 14 3.3 2 7.7 2.2 11.4 4.2 2.4 1.3 5.2 6.4 9.7 6.7-3.2-9-8.4-17.5-11.7-26.5-2.5-6.9-7.9-22.8-9.4-29.5s-.9-5.2-.7-7.9c12.1 1.1 16.1 19.3 17.4 29.4l13.8 1.8c-1.9-5.7-5.4-14.1-5.9-19.9-.9-9.5 7.7-2 10.4 3.7 3.3 6.9.6 19.6 8 18.5l-1.5-7.6 3.8-2.5c6.2 5.9 5.6 15.6 16.4 15.6V92l7.8 3.1 1.5-3.9 3.8-.5c2.8 5.1 11.2 5.6 13.6 8.3 3.1 3.5 5.9 15 12.4 17.7l10.9 19.1c-4.5-22-10.8-39.4-3.4-61.9 2.8-8.6 6.9-5.7 6.6 1.8-.9 19.8-.3 36.4 4.7 56.1 3.1 11.9 2.6 16.2 14.7 21.1 3.7-2.7-.5-7.2-.8-11.7-1-13.3 2.8-18.3 3.9-28.1 1.7-15-.9-26.5 4.4-43.2 1.6-5 7.4-21.1 14.5-15.4 6.4 5.2-1.2 6.8-2.4 9.1-4.3 8.1-7.4 23.9-7.1 33.1 13-19 22.8-41.5 39.8-56.9.6-.6 5.8-9.1 7.8-1.5.8 3.2-14.8 20-17.7 24.3-5 7.4-25.3 39.6-26.9 46.1s1 6.3.7 7.5-2.5.6-2.8 1.8c-1.8 8.6 7.6 29.2 9.3 38.7l-3.6 2.1-4.2-2.5-7.7-22.2c-.6 8.5 1.1 22.5 6.8 29.1 1.3 1.5 16.9 11.2 8 14.6s-6.4-5.8-8.5-6.9-3.6 1-4.4.5-7.2-13.6-14.3-12.3c2.6 6.7 3.9 12.1 3.2 19.4l-4.6 1v3.8c-8.8 6.7-25.7-11.3-26.6-10.1l1.5 10.9h-5.2c-1.7-.3-1.7-4.4-3.4-6.1-2-2.1-13.5-11.9-14.8-11 .4 2.4 4.4 3 2.3 6.2-4 6.4-12.1-7.2-13.5-9.9-3.9-7.3-2.4-11.2-11.4-16.7-4.4-2.7-9.9-3.5-14.8-4.6-1.2 1.3 6.4 22.5 8 25.5 2.9 5.6 7.2 8.3 10.2 13.2 2.1 3.6 5.9 9.5 1.3 12.7l-7-3.9 10.9 16.4c-14.4 5.5-17.2-9.9-25.7-18.7-4.3-4.4-18.6-16-23.9-18.2-1.9-.8-12.2-4.4-11.3.3s9.6 19.9 10.9 21.8c8 11.7 25.8 16.6 32.8 28.8l-8.9-1.2-32.5-23.7-7 3.1c.7 2.8 5 3 7.3 5.2 7 6.8.4 5.7-.7 7.6s1.6 6.7-2.7 5.9c-9.7-1.6-31.2-25-43.5-23.4-1.6.2-11.4 3.4-8.7 6.2 5.3-.6 24.2 16.6 20.3 20.3l-9.3-3.1c1.2 7.5-3.8 4.3-7.8 5.5-5.8 1.7-11.1 4.6-17.2 5.5l7.8 12.5c-5.9 1.6-12.3-9.1-16.1-9.1-2.2 0-10.6 4.2-13.2 5.5s-2.4 5.5-6.6 3.6c2.8 1.1 18.1 10.5 19.5 10.5 8.9-2.7 28-19.2 35.9-18.3 2.2.2 4.1 1.5 3.9 3.9-12.7 7.4-23.4 19.5-37.3 24.4l-.2 6c-7.1-2.4-10.9.4-17.1 3.1 2.1 3.1 7.7 2.5 10.8 5.5 2.3 2.1 2.2 5.2 3.6 6.6 2.2 2.2 10 2.5 8.2 9.9-.8 3.2-3.8 3.7-5.5 5.6-4.6 5.4-9.5 10.5-14.8 16-3.9 4.1-21.3 19.7-22.6 22.6-.3.7-.4 2.6.8 2.3 12.1-10.8 27.4-17.2 40.3-26.8 5.3-3.9 8.9-11.5 15.7-10.5 11.9 3.8-14.8 20.6-19.3 21.7l5.5 4.6.5 3.6c-3.4 5.2-17.3 12.5-14.2 19.3 2.5 5.5 9.1-5.5 13.6-7.5 8.1-3.6 5.4 7.5 9.7 11.8l-5.7 7c3.7-.4 9.6 0 10.7 4.1 1.5 5.8-7.9 4.4-8.9 11l4.4 5.9c-4.3 5.1-15.6 13.9-17.2 20.3-.4 1.5-.3 2.8 1.6 2.3.9-7.7 11.4-9.2 10.8-.7-.2 3-3.6 3.8-3 7 15-3.9-1.5 15.2-1.6 19.5 14.5 8.6-7.1 13.1-12.5 18.6-4.6 4.7-2.9 9-12.5 10.9l-10 13.4c-17.7-10.1 13.8-22 13.3-34.3-4.3 4.4-20.7 14.1-22.7 18.7-.3.8 4.2 8.5 1 10.2-6.7 3.6-12.7-2.8-12.7-9.3.6-5.7 17.3-16.4 21-21.2 5.1-6.4 8.4-20.6 13.3-28-3.2-.7-6.1 5.1-7.5 7.3-3.9 6.2-6.9 20.3-15.1 11.4l-4.6 4.6c-16.1-11.6 8.9-24 17.9-31.2l-4.6-3.9c13.1-18.4-.4-11.3-8.5-.7-3.1 4.1-6 8.8-7.2 13.8-5.5 2.1-9.9-7.1-8.4-10.9.8-2.2 14.3-13.8 17.2-17.7 1.4-1.8 1.8-4.8 3.2-6.9s4-1.1 3.7-3.4c-5.8.8-8.4-1.5-9.4-7.2l4.7-4.6c-2.9-6-4.4-8.8 0-14.7l-7-3.1-2.3 9.3c-10.6.1-8.2-9.3-4.4-16.1l12.2-15-16.7 9.1-4.8-3.6 30.8-35.9-6.8-.8-3.3-4.6c-4.5 1.6-4 11.6-9.4 9.3-12.6-5.4 20.4-32.2 25.2-35.6 2.3-1.6 5.5-2.8 8.3-3.4-2.3-4-14.5-6.1-16.4-9.3s-.7-5.3-.8-7.8c.6-.6 6.5 1 7.8 1.6ZM476.7 98.3v36.6c0 1.1 2 4.6 2 6.6l15.2 10.6c-1.6-4.7-1.5-12.8-3.5-16.8-2.5-5-17-8.8-8.2-18.3l7 6.2c-3.2-6.2 1.1-19.5-4.7-22.6-1.5-.8-5.5.6-7.7-2.4Zm32.7 35.9c2-2.6-9.2-17-12.4-18.7-2 12.8 1.9 14.3 12.4 18.7m-70.4 4.9-13.8.6c7.7 10.9 6.4 27.8 23.4 27.3l-9.6-27.8Zm87.1 15.8c-3-4.5-15.5-2.6-18.2-4.3-3.9-2.3-1.3-12.2-7.8-11.8l6.3 25.6c8.9 2.8 15 11.8 24.9 11.8l-5.1-21.3ZM408 182.5c1.1-1.1-5.3-16-6.9-17.3-2.4-1.9-15-4.8-14.9-.7 5 8.5 12 15.1 21.8 17.9Zm51.5 4.7c.5-2.8-2.1-5.1-4.6-6.2-.5 2.8 2.1 5.1 4.6 6.2m-138.9 156 4.7-9.3-7.8 8.6 3.1.8Zm4.7 15.5-2.3-4.6-10.1 12.4 12.5-7.8ZM938.4 285.5c-5.7-15.4-23.5-9.5-35.7-7.9-7.3-15.7 10.3-8.7 18.6-14.7-3.1-2.1-9.4-.4-12.5-1.5-10.3-3.7-10.6-27.7 11-21.9 7.1 1.9 14 11.2 19.8 12.9 10.8 3.2 27.8 3.2 39.4 5.1v7.8l-23.4 1.6c-1 .9 13.6 19.5 14.7 21.9 1.8 4 4 12.9 2.4 17 7-1.3 12.9 6.9 16.3 8.1 4.2 1.5 29.2 1.5 30.5 2.9v4.6c-14.1 3.5-29.4 1.5-43.7.1-.8.8 6.2 18.4 7 21.8 1 4 5.3 21.7-1.6 21.9-.6-14.7-4.4-29.8-12.4-42.3l-11.7 1.7v-9.3h-25l9.4 13.2c8.4 2.9 39.8 2.8 30.3 16.3l-24.1-4.5c-2.7 2.1 18.8 21.7 21 23.4 4.1 3.1 10.6 1.6 10.2 9.3H968c-.6 15.5 37.5 13.9 39 21.1 2.6 12.1-29.8-1.8-31.2-.8l9.4 32.7c-4.4.8-2.6-1.1-3.5-3.4-1.5-3.6-1.7-7.9-5.1-10.6l-2.5 13.9h-4.5v-9.3h-7.8c5.7 4.4 8.8 19.9 11.7 23.4s15.8 0 13.2 10.9c-15.5 1.3-28.5-9.6-43.7-10.9 1.9 3.3 7.1 6.3 9.4 9 3.6 4.2 8.9 14.7 11.7 17.5 1.8 1.8 6.4 2 7 4s-2.4 4.6-2.7 6.4c-.6 3.3 2 11.2-.6 16-7.2 1-13.3 2.3-20.1-1.4l1.4 9.9c-10.4 9.2-4-7.8-9.3-12.2s-16.8-5.8-19.8-6.7c-4.3-1.2-12.2 1.3-12.9-5.9-1-9.7 12.1-2.9 17.2-3.8-2.2-5.5-7.1-5.7-11.9-7.7l.5-4.5-2.6-.3.6-3.1 8.1-4.7 36.4 12.5c1.7-2.1-17-22.1-19.4-23.5-5.2-3-9.6-1-15-.7-5.9-2.5-1.5-14.7-.8-19.5 5-7 36.1 12.7 44.5 12.5 1.8-2.3-11.7-16.4-14.4-17.5-11.3-4.5-32.6 4-43.8.2-3.9-1.4-4-9.1-2.5-12.3 11.1 5.1 23.2-3.5 34.3 1.6 3.2-3.9-22.8-15.2-17.1-23.4 1.8-2.5 26.9 21.4 29.7 22.5 4.9 2 13.2 1.6 18.6 4 1.7-2.9-4.3-18.6-6.2-17.1l-4.7 9.4v-15.6l-9.1-.2-.2-12.3h-25.7c-.6 0-2.9 3.1-4.7 0l-.7-9.4c.8-.8 11.8.7 12.5-3.1-6.2-3.9-17.2-6.7-15.6-15.6l28.1 2.3c-1.7-3.3-5.7-6.8-9-8.2-10.5-4.5-18.2 3.1-19.1-12.8l18.7.8c-2.6-1.5-6.8-10.6-8.1-11.4-4.4-2.6-13.2 4.3-15-1.4-3.4-10.5 6.2-10 6-10.7-1.9-8.5-10.7-5.9-8.8-14.1.7-1.7 7-3.8 8-3.8h22.6Zm-12.5-34.3c-7.2-2.2-15.9-6.7-18.7 3.1zm29.1 25.5c-5.3-6.8-7.8-8.8-16.6-6.8 4.9 10 8.9 18.2 21.8 15.6.4-.3-4.3-7.5-5.3-8.8Zm-4.1 27.5c0-16.8-19.7-5.9-29.6-9.4-1.3 1.6 4.4 9.4 5.4 9.4zm17.2-9.4c-19.6-4.2-1.5 13.2 1.6 10.9zm-15.6 65.5-12.5-3.1 10.4 6zm4.2 117.5c-4.1-4.5-19.7-8.5-26.1-8.2 6.2 9.9 18.5 14.4 29.6 15.6-1.4-2.1-2.1-5.7-3.6-7.3ZM350.3 516.3c6-1 9.3-2.8 14.1 2.3 7.1 7.8-2 17.2-8.6 7.1-1.7 1-1.8 2.4-2.4 4-6.4 16.8.5 96.3 4.8 116.8.8 3.9 4.5 6.8 6.1 11.1 1.9 5.2 2.3 24.2 8.6 24.2l4.7-3.2 5.5-39.5c4-3.2 6 .3 6.4 4.4.6 7.7-8.5 27 3 25.7l-1.6-7.8c16.3-1.6 2.4 17.1 10.2 25 3.9-1.7 5.6-4.4 9.8-1.2 1.5 3.5.8 9.4 1.9 12.5.7 2 4.6 2.2 5.5 5.7.7 3-3.7 8.7-2.4 12.6 2.9 0 2.2-4.8 3.4-6.8 1.9-3.1 7.3-3.8 7.6-1.7v6.9c13.5-4 5.3 5 3.8 10.8-5.1 19.3-7.5 41.1-10 60.9l8.6-32.7 5.6-21.7 15.4-6.4c3.1 7.3-4.4 11.4-7.1 17.1-3.5 7.4-2.1 14-2.2 21.9l2.4-4.8 6.8.3c2.7 1.6-4.6 23.1-5.4 27.8-2.9 16.7-5.3 39 .9 54.7l-8.4-1.4-1.7-4.8c-3.8 4.9-1.2 11.3-10 9.2-4.3-2.8 2.1-33.9 1.4-40.4-8.1.2-5.3 11.1-10.9 14 1.9-14.7-10.5-21.2-14.3-34.8-2.2-7.8-4-41.4-5.2-43.2s-3.3-1.6-5.5-1.5l-8.6 26.5c-9.8-1.5 2.5-21.8 2.2-27.9l-6.1-3.3-.6 9.5c.1 2.9-4.1 4.5-5.8 2.1-2.8-3.9-1.9-26.7-1.4-32.6s1.1-18.2 7.6-16.5c.6-.6.5-4.1.2-5.3-1.3-6.1-4.3-2.1-7.8-3.1-13.7-3.6-13.5-21-16.7-31.7-5.8-19.5-11.4-42.7-12.6-63.5-1-16.9 0-50.1 1.9-67 .2-1.6 2.4-2.2 2.4-3.8-2.1-2.1-17.5 17.1-23.4 14-3-3.1 11.3-18.1 14.1-21.1 3.4-3.6 9-7.3 12.5-10.8 5.5-5.6 6.9-15 13.8-1.9l-12.4 13.5Zm59.6 220.9-1.8 9.9 2.8.5 1.8-9.9zm16.3 55-1.7 10.6 2.2.3 1.7-10.6zm8.3 23.5-3.1 10.9c4.2-1.2.6-7.9 3.1-10.9M894.7 762.7c-.4.4-3.6-1.1-4.7 1s-1.5 7.2 0 9.9l-6-.2c-3.7-2.5-.6-22-6.4-24.7l-3.1 49.9-6.2-1.6c2.1-6.1.4-10-4.7-14 1.8 7-1.6 12.6-2.6 18.2-.8 4.5 1.8 15.7-6.8 12.2l3.1-49.1c-3.5.9-2.1 2.3-2.1 4.3 0 9.6-.6 19-2.6 28.5l-4.7-.7-1.5-3.2c5.9-20.3-3.9-56.3 5.1-74.5 2.3-4.7 6.5-1.8 7.1 1.4s-3.5 18.9-3.7 23.5-.4 12.2 2.5 13l1.6-10.9 4.7 1.6 7-45.3c2.8-4.5 6.4 9 10.1 6.3 3-10.4 8.5-20 10.5-30.8 6.1-32.2 6.3-70.5 11.6-103.8 1.4-9.1 14.4-61 10.7-64.9-6.3-1.8-4.4 6-10.1 4.7s-4.5-2.9-5.3-5.9c-1.4-5.5 4.7-3.4 5.8-7.7 1.2-4.8-5.5-14.6-1.3-20.8 9 1.8 3.9 11.3 7 17.1 2 3.7 7.6 3.1 10.1 5.5 10.5 9.8-7 68.4-9.4 83.4 15.9-2 1.4 26.1 10.9 32.8.4-24-3.1-48.3 3.2-71.7 13.5.8 5.5 11.2 4.8 18.1-1.8 16.6-3.5 54.6-2.5 70.8.2 2.8 2.9 13.5 2.3 14s-3.3-.1-4.6.8c-2.2 1.6-.6 7.1-3.9 5.5-4.1-2 .2-9-5.5-7.8-1.1 17.1.6 34.5 3.1 51.4h-6.3l-1.6 21.8c-7.4-.4-6.9-13.3-4.7-18l-3.1-.7 1.5 43.7h-6.2c-.9-.9 1.5-11.7-3.1-12.5v29.6Zm18.8-134.1-3.1-10.9c1.2 2.5-2 12.2 3.1 10.9m0 12.4c4.3-1.2 1.6-4.5 1.5-7.8h-1.5zm-9.4 45.3-2.3-9.3-2.3 9.3h4.7ZM868.2 338.5l2.8 7-5.2 3.9c-9.8-.9-21.5-2.8-31.1-3.1-46.5-1.5-95.6 12.4-141.9 7.8-15-1.5-31.8-8.1-31.3-25.8 0-1 7.1-11.6 7.8-11.6 2.7 3.7 5.7 4.7 10.1 5.5 60.3 11.5 123.9-31.8 185.7 3.1 4.6 2.6 13 3 14.1 9.4 2.7 15.7-10.3 3.1-10.9 3.8Z" class="st0"/><path d="M384.9 374.1c-15.7-17.4 14.2-38 28.8-44.7 27.2-12.6 88.8-6.5 119.8-3.1 8.1.9 15.9 4.5 23.5 4.6 13.6.2 8.5-2.7 10-10.2.3-1.5 5.8 0 4.8-4 11.2 2.6 4.2 27.4-1 31s-17.4 5.9-23.2 6.4c-16.4 1.4-33.7 1.2-49.8 1.5-25.2.4-57-3.2-80.8 5.2-6.1 2.2-13 9.5-18.4 11.4-1 .3-13.1 2.3-13.8 1.9ZM571.8 438.3h-4.6c.3-9.7-5.4-11.9-14-13.4-12.6-2.1-23.4 1.7-36 .9 0 2.3 2.9 1.9 4.5 4.1 6.3 8.3 2.6 9.4-2.9 16.2 6.4-.3 12.6-2.2 18.7-3.9 6.4-1.7 14.3-8.4 13.3 4-1.1 1.6-27.5 8.1-31.7 8.8-14 2.6-32.1 4.6-46.3 5.2-11.2.5-34.9 2.1-43-5.4s-8-10.7-2.4-12c33.9-11.7 66.7-25.7 103-28 18.7-1.1 43.4-1.9 41.4 23.5m-98.3 0c-3.2.9-41.6 8.9-39 12.5 14 3.5 28 2.6 42.1 1.6l-3.1-2.5v-11.5ZM796 412.3c2.8 2.3 14 15.2 5.9 15.2s-5.2-5.5-8-7.6c-6.9-5.4-20-6.9-28.6-8 4 10.2-.6 19.5-6.2 28 20.3-.9 40.7-2.2 60-9.3 6.3 6.8 1.2 8.8-5.3 10.1-29.4 6.1-53.9 5-83.6 5.3-17.9.2-33.4 3.7-51.9-2.5-5.4-1.8-9.9-8.6-4.1-9.8 1-.2 16.3 5.3 20.3 6 10.4 1.7 21.4 1.2 31.8.1-4.6-7.3-4.6-17.6 0-24.9-8.9 1.5-17.7 1.9-26.5 3.9-7.4 1.7-13.2 5.1-20.3 6.4l-2.8-6.7 1.2-2.8c2.1-1.9 17.9-5.6 21.9-6.3 20.8-3.8 80.6-10.1 96.3 2.9ZM677.9 940.5l3.1-11.7c.6-22.9.5-46.1 4.7-68.6.3-1.6 2.2-1 3.1 0 4.7 4.9-1.2 27.8-.1 36 .5 3.4 2.7 5.3 3.1 7.8 4.6 34.3 11.3 70.6.3 104.2-1.4 2-6.2 1.1-8 .2-2.7-1.4-1.9-5.4-4.6-5.5 0 4.3.1 8.5-.5 12.8-.4 2.5-.3 7-4.2 5.9l1.5-32.7-3.9 3.1c-4.5-3.4-.8-8.4-.7-13.2.5-21.3-.8-42.2-3.2-63.2-3.1 0-3.1-1-2.7 2 .9 8.8-.5 15.8-.4 24.5h-4.5c0-.1-3.2-40.6-3.2-40.6l7.8 1.6c.6-10.7-2.3-21.4-2.3-32 0-1-2.3-3.4 1.6-2.3 11.3 3.1 4.7 20.8 7.3 28.7.6 1.9 6 3.5 6 6.4v36.6Zm10.9 60.8c1.9-22.8 2.8-46-.8-68.6-1.1 0-2.2 7-2.3 8.6-1.7 18.8-2.5 32.1.2 51.3.3 2 .6 8.5 2.9 8.8ZM707.3 865.8l9.6 82.4 3.1-.7c-1.6-1.8-1.4-3.8-1.4-6.1.4-25.1-2.4-51.5 3-75.8 1.8-.4 3.8 4.6 3.9 5.4.3 4.1-2.2 25.8-.7 27.2 1.8 1.8 8.2-3.4 9.4 8.6 1.9 19-.5 80.5-6.4 98.2-.8 2.5-1.8 4.8-4.6 5.6 1.6-3.7-2.9-4.9-3.1-5.8-1.5-6.8-.1-20-1.6-25.9s-1 .6-1.7-7.9c-.2-2-1-9.6-3-10.3 1.1 16.5-1.7 32.8-3.1 49.1-.3 3.7 1.5 17.1-2.4 17.9-3.2.7-3.7-3.1-4-5.4-2.9-25.5 2.7-61.4 1.7-89.1-.4-10.3-3.6-19.6-1.8-29.4l-3-37.6 6-.6Zm17.4 107.4 1.6-37.4-4.5 29 3 8.4ZM755.9 846.9l3.9-3.2c7.7 1.2 9.2 15 9.9 21.3 2.3 20.4-1.9 40.8 3.2 60.8l-3 .7 3.1 2.5c-.6 11 2.5 21.6 1.6 32.6s-5.1 27.7-9.4 22.5c-.6-7.8 2.5-15 3.2-22.5s1.1-10.8-1.6-11.7c-.8 6.7-2.1 31.6-6.4 35-1 .8-3.3.4-4.1 1.2-1.5 1.4-.9 8.3-5.1 9 3.9-31.2 3.6-62.9 3.2-94.4-.1-10.5-3.9-23 0-33.8.6-1.7 5.1-2 4-7.4-1.3-6.3-13-22.5-16.2-30.7-6.4-16.6-9.7-37.4-1.1-53.4 6.5 0 .6 21.2.6 25.7 0 16.5 8 31.3 14.2 46Zm4.7 53v14h1.6v-14zM891.6 213.7l11.7 3.1c6.6.8 42.3-2.3 44.4 4 .6 1.7.1 3.6-1.5 4.7-3.3 2.3-10.6-1.4-12.5 2.3 6.6-1.4 11.1 2.9 16.5 4.6 5 1.5 20.1 3.9 22 7.1l-.2 4c-2.8 3.7-6.9-.2-9.3 0-1.1 0 .1 4.1-4.7 3.2-16.2-12.2-39.7-8-59.1-11.3-5.4-1.6-3.5-7.9-4.4-8.9-1.1-1.1-10.5.7-9.2-7.9-10.5 1.6-17.9 6.4-18.6-7.8 5.1 2 9.2.7 14.4-.5 13.1-3 29.4-10.7 42.6-15.1l2.3 3.8c-.7 2.8-29.1 14.4-34.3 14.9ZM465.7 857.8l-4.7-1.6 1.5 12.5c-7.2 1.5-7.4-8.2-7.8-13.2-.6-7.6 1.4-18.1 0-25.1-.7-3.6-3.6-3.1-5.2-5.8-7.7-13.3.2-50.9 5.5-65.5 2.5-6.8 8.3-11.9 7.4-19.9 14.3 1.1 5.6 10.8 6.2 16.4.4 3.3 4 4.5 4.2 6.2s-3.7 9-4.4 12.3c-3.9 16.9-9.7 55.5-7.4 71.8.7 5 3.6 7.4 4.5 11.8ZM673.2 645.7V641c1.8-1.7 17.1 9.5 18.6 11.9s11.1 32.4 10.9 34.2l-1.3 1.5c-4.2-1.1-6.7 4-8.5 4-13.5 0-9.9-11.6-12.5-22-.9-3.7-2.8-7.6-4.7-10.9-4.2-.5-1.2 1.7-.8 4 .7 4 6 26 4.7 27.2-14.2 2.7-9.4-16-12.9-26.8-1.6-5-8.5-15.1-8.5-16 0-.8 4.1-5.8 1.2-10.2 8.4-2.3 7.3 7.4 14 7.8ZM667.9 603c.8-.4 3.9-5.3 6.8-2.5 3.1 3-14 18.1-17.2 19.4-6.9 2.8-10.1-2.6-13-2.1-4.2.8-12 9.9-23.7 10.7-11.6.8-16.6-5.6-21.5-5.8-12.4-.5-28.9 15.5-40.2-2.7-2.1-3.4-4.3-16.4 2.4-13.3 4.6 2.1-.1 11.9 9.2 14.3 3.9 1 20.4-2.3 24.8-3.5 1.3-.4 1.2-3 2.1-3.1 5.3-.8 8.4 6.9 15.5 7.8 5.8.7 18.8-2.4 23.3-6.1 10.1-8.3 2.7-25.4 3.9-26.5l5.4 1.6c2.6 4.1 1 20.7 4.7 21.8s14-8.1 17.3-10Z" class="st0"/><path d="M740.3 896.8c4.6-.6 8 .4 8.6 5.4-3 31.7-.7 66.8-7.5 97.9-.6 2.7-1.2 5.6-3.5 7.4l-3.4-5.6c4-34.9 3.6-70.1 5.8-105.1M361.2 471l-.3 7.6c-10.6 4.9-23.4 15.1-31.8 23.6-5.6 5.6-12.1 12.2-13.2 20.3-7.3-.5-7.3-8.3-5.4-14 1.5-4.4 14.2-14.8 17.9-19.6 1.5-1.8 1.3-7.7 6.2-8.6l.8 3.1c7.3-6.2 15.4-14 25.8-12.5ZM534.4 118.6c-10.4.7-8.3-11.7-7.1-18.8 1.6-9.1 24.9-66.5 30.1-72.8 3.7-4.4 7.5-4.7 5.9 1.2S555.5 45 552.8 52c-6 15.7-19.3 45.7-19.7 61.1s1.7 5 1.2 5.4ZM601.5 416.5c8.8.4 9.7 9.1 9.5 16.4-.4 15.9-6.1 50.8-9.8 66.7-.5 2.3-1.7 4.3-3.6 5.8l-3.5-5.1c3.9-27.7 11.9-55.7 7.4-83.8M359.5 447.8c4.1 5.9-7.5 10.4-10.2 12.8-7 6.4-22.1 24.9-29.3 27.6-2.3.9-4.5 1.8-7.1 1.5-5-5.2 14.7-20.1 18-23.3s22.7-27.2 28.6-18.6M632.6 776.7l2.3-4.7c7.9 4.9 5.2 12.6 3.9 20.3-4.1 2.1-4.9-3.2-5.4-3.2-2.2.2-3.4 2.6-4.7 2.6s-3-3.7-7.6.5l-6.4-9.3.8 10.9c-10.5.8-8-13.1-9.3-20.3 3.4 1.8 10.1-.5 12.5.7 3 1.5 2.5 8.3 6.3 4.8l-1.6-7 9.3 4.7ZM921.3 191.9c-6.3 2-13 .9-19.1 2-9.4 1.7-30.4 12.4-34 .3 15.5-8.1 30.3-10.3 47.6-11.7 4.2.4 5.7 5.8 5.5 9.4M474.5 167.5c4.7 5.4 9.1 11.1 14.6 15.8 7.4 6.5 16 10.8 23.4 17.1l-4.2 3.7c-4.4 1.2-19.2-11.8-23.1-15.4-3.2-3-24-24.8-24.9-26.5-1.4-2.9-1.4-7.6-2.4-10.8 4.4-3.8 10.7 10.6 12.7 13s2.9 2.1 3.8 3.1ZM659.2 789.2c-9.3-1-5.6-12.2-6.2-18.7 8.9 3 9 10.8 6.2 18.7M647.8 775.6c2.8 2.7 4.4 12.6 2.1 15.8l-4 1-3.9-18.7c.8-.8 4.8 1 5.8 2ZM372.2 656.6l-3.1-17.1 5.5 1.5c1.5 2.2 2.2 14.4-2.4 15.6M669.7 780.3c1 1.3 2.5 8.4 2 8.9l-6-.2c-2.3-3.7-1.4-6.8-.2-10.7.2-.1 3.9 1.5 4.2 2M796.1 1175.2c-2.1 3.3-11.8.1-15.1 0-11.1-.1-19.8-.3-29.8 5.1l4.7 19.2 28.3-7.8c14.7 16.1-20.3 15.8-26.9 21.3-4 3.4-8.3 17.6.5 16.8 10.4-.9 21.7-1.1 31.2-5.9 17.1 17.7-32.4 20.2-39.6 16.7-7-3.3-4.1-16.4-4.9-22.5s-2.8-4.5-3.3-8.2c-.9-7.4 2.7-5.1 4.1-7.2s1.5-15.4.8-18.3-3.3-1.1-4.1-4.2c-4.3-15 21.5-18.8 32.4-17.9 5 .4 27 4.3 21.7 12.7ZM492.3 1233.3h-6c-5-3.2-2.4-39.3-3.9-46.7-.6-2.7-.4-3.8-2.7-1.5-2.4 2.3-7 21-13.9 24.2-4.2.9-11.9-11.2-14.8-14-.9-.9 0-3.2-3.7-2.1 2.5 8.4-.8 19.4-1.6 28.3s1.6 19.3-2.5 20.2c-4.9 1.1-6.2-8.6-6.3-12.1-.5-11.2 5.3-36.2 3.4-44.5-1-4.3-8-8-5.8-14.5h4.6c0-.1.2-8.1.2-8.1 12.3-.3 7.9 12.6 10.6 19.3.7 1.8 11.2 13.8 12.9 14.6l19.4-35.5c13 13.6 8 36.4 8.9 54.1.3 6.2 4.4 12.4 1.4 18.4ZM552.8 1197.5c1 1.4 4.9 1.5 4.4 4.5l-5 6.4 2.6 26.7c-13.4 8.4-8.3-25.2-10.6-27.5-21.5-3.3-15.1 19.2-23.4 30.6-11.3-4.5-3.1-15.6-2.5-24.1h-7c-9.4-13.9 11.8-12.2 14.3-16.1 1.3-2 .5-5.7 1.6-8.1 1.4-3.4 8.4-19.9 9.6-21.1 5.7-5.4 11.9 10.7 13.1 14.6 1.2 4 .6 10.9 2.9 14.1m-10.3-1.2c0-3.4.9-8.4-3.2-9.7l-3.2 9.7zM662.1 1191.5l17.8-1.6v-17.8c3.2-.7 7.7 2.1 8.8 4.9 5.1 12.4-4.2 45-.8 59.7l-6.2-.2c-4.9-11.6-3.7-23.3-1.8-35.3l-19.2 3.4-2.1 29.4-2.2 2.7c-13.4-1.6-3.6-21.2-5.5-28.2-.4-1.5-3.2-.4-5-2-9.2-8.3 5.2-10.7 6.6-13 2.2-3.5 1.9-21.9 3.2-23.1 11.5-.4 8.4 13.2 6.5 21ZM863.9 1175.6c9.9 17.6-16.5 62.1-34.5 62.9-20 .9-22.8-32.2-21.9-46.2.4-6 .8-14 8.2-9.6 5.6 3.3.7 15.5.7 21-.3 39.4 28.4 16.1 37.1-5.8 4.2-10.5-.2-13 1.2-22.3h9.3ZM624.7 1172.3l1.9 11.1c-4.4.1-21 1.7-22.4 5.9l-1.8 46.4-5 2c-2.5-2.1-3.7-4.9-4-8.1-.9-12.5 2.1-28.5 2.4-41.2l-19.4-.8-3.2-10.5 51.5-4.6ZM718.7 1237.5c-1 3.6-6.5 4.4-7.6-2-1.6-8.8-2.8-34.5-2.2-43.3s-.3-7.1 4.1-7.2c1 .2 5.7 6.5 5.7 7.3 0 9.5 1.9 38.6 0 45.2M724.4 1162.4c3.8-.8 11 12.7 4.8 14.5-6.7 1.9-10.3-10.6-4.8-14.5" class="st0"/></svg>