<svg xmlns="http://www.w3.org/2000/svg" id="Calque_1" viewBox="0 0 1300 1300"><defs><style>.st0{fill:#313a94}</style></defs><path d="m924.4 488.7-13.2-7.5-28.4 88.9c5.5-3.2 6.9-12.1 11.3-16.1 6.3-5.8 13.6-4.2 8-19.1-1.3-3.5-7.7-2.8-2-10.9 6.2-8.9 12 2.8 12.9 9.4 4.7 34.6-6.8 71.6 1.4 106.4 2.1 8.7 6 14.8 8.2 23l6.6-17c5.1-29.4 17.6-59.1 16.1-88.9 7.2 3.8 4.6 13.8 8.9 20.1L932 667.6c-2.3 9.4 8.3 13.2 9.5 21.7l-15.1-7.5-3.4 18.6c20.7 15 32.4 40.9 27.6 67-1 5.5-8 19.6-14.7 17.5l3.4-15.6c-6-2-10.1-12.6-14.7-14.6-4.4-1.9-9.2-.3-13.7-1.4-13.4-3.1-25.4-24.5-27.9-37.4-3.3-.5-1.9 4.3-1.4 6.2 1.4 6.3 6.9 18 9.9 24.2 1.5 3.1 8.5 11.5 8.6 12.2.2 9.6-15.2-7.6-16.7-9.8-19.3-28.5-16.9-70.7-26.8-102.8-4.4-4.6-17.6 34.6-18.3 37.4-7.5 30.3-8.1 68.1 5.1 96.8l-7.6-3.3-11.3-30.7c-3.2 21.9 14.6 68.3-26.5 52.9-1.6 5 2.9 9.2 3.4 12.7.4 3-1.6 5.7-1.2 8.7.6 4.2 5.8 6.3 5.3 10.8-13.3-3.6-10.7-23.1-14.2-34-2.7-8.6-10.2-18.1-12.3-27.5l4.8-4.6 2.8 3.8-3.8-33.1 3.8-48.2-34.1 23.6c-9.8 5.5-25.2 4.7-34.5 9-4.5 2.1-4.4 6.1-5.6 6.7-2.8 1.6-16.5 1.1-21 2.4-1.6.4-1.3 3.3-2.7 3.7-10.2 2.3-24.1-1.1-34.6 0l7.6 1.9c.5 9-13.9.9-16.9-1.1-2.3-1.6-19.1-15-20.3-16.4-19.5-21.5-30.8-23.9-53.6-40.3-3.7-2.6-4.6-9.5-11.4-8.4 6.5 18.1 1.3 38.7 5.7 57.3.4 1.6 3.4.5 3.9 4 1.7 12.8-1.2 65.9-4.4 79.1-1.4 5.7-6.3 11.3-6.2 18.4l-6.6 3.8c5.1-18.9 3.8-38.8 5.9-57.4s8-38.2 7.1-41.7c-.6-2.3-4.9-2.1-5.5-4.2-1.3-9.9 0-29.2-3.4-37.7-1.2-3-14.4-9.9-18.4-13.9-17.4-17.1-27.3-43.2-37.4-64.8-2.1-4.5-14.2-20-8.9-23.3 2.9-1.4 8.3 1 10.4 2.9 4.4 4.3 15.4 29 20.3 36.4 10.4 15.8 27.9 21.9 43 32.7 16.5 11.8 33.6 23.3 49.9 35.2 11.2 8.2 16.9 17.8 26 25.1 2.1 1.7 10.5 8.1 11.2 3l-7.6-5.7c17.2 8.8 33.5 5.1 51.8 3.5l1.2-5.4c13.5-2.9 40-6.9 51.6-13.3 3-1.7 37.6-32.2 38.6-34.6 1.5-3.8 1.2-9 2.6-13.5 4.4-14.1 8.8-5.8 14.6-9 1.6-.9 18.9-25.2 21.2-28.9 8.9-13.7 13.1-27.2 24.5-39.8 7.6-8.4 19.7-13.4 20.9-25.5l7.5 1.9 24.3-82.4c-13.6-26.1-26.7-52.3-30.1-82.1l-18.8-2 5.7 1.9-2.8 3.8c-10.2-4.1-21.7-5.6-32.7-7.1-13.1-1.8-25.9-3.7-39.5-5.9-34.8-5.6-51.4.8-78.2 22.4-3.1-3.3 13.5-13.7 17-13.3.5-3.3-4.5-2-6.2-1.4-3.8 1.4-14.7 12.6-16.5 10.9 6.8-17.4 32.5-27.7 49.6-32.7 9.7-2.8 39.9-10.8 35.5 6.2 10.9 3 22.4.7 33 2.1 8.7 1.1 46.6 15.2 52.2 11.2-.4-11.6-7.8-14.3-12.6-22.4-7-11.9-6.2-19.6-20.2-27.1-2.1-1.1-25.5-8.5-9.7-9.1 8-.3 19.7 2.9 25.5 8.4 4.2 4 4.5 9.7 9.4 12.4 1.1-6.8-1.7-13.9-1.5-20.4 0-2.2-2-5.4 2.4-4.2 2 .5 5.4 3 6.3 5.1 4.3 10.3 4.1 29 6.6 40.7 3.9 18.1 9.6 44.9 15.6 61.9 7.2 20.5 23.2 38.3 31.2 58.6ZM765.5 367.6v1.9h15.1v-1.9zm112.3 213.2-2.6-13.7c-22.5 25.6-39.6 54.8-59 82.9-6.4 9.3-18.2 19.5-21.4 29.7-2.7 8.6-1.9 21.3-4.8 30.2 13.8.5 16 18.2 31.9 9.2-.7-31.9 7.5-55.1 23.4-81.7 1.1-1.9.9-5.8 1.9-6.6 2.8-2.5 18.8-2.8 23-.4 1.7.9.2 4.6 3.1 3.8.8-9.6 1-19.5 2.2-29.1.8-6.9 5-18 5.3-23 0-.8-2.8-.7-2.9-1.3Zm20.1 5.3c-1.1 10 0 23.5 0 34s3.4 6.1 1.9 9.3l3.8.2c-4.4-16.5-1.6-33.3-1.9-50.1-2-.7-3.7 5.8-3.8 6.6m8.2 72.1c-3.8-4.2-7.3-12-10.5-16.9l-9.1-29.7c-3.6 32-4.3 66.9 2.7 98.4 2.4 11 14.1 42.4 28.4 39.6l2.1-3.8c-11.1-13.8-9-32.3-13.6-47.4-2.4-8.1-10.3-11.8-4.4-22.4 2.3-1.6 10.9 2.8 12.2 5.6 1.7 3.5-.7 9.2 2.8 9.5 9-25.4 1.2-19.9-10.7-32.8Zm-29 27.2-4.7-49.1c-2.3 3.2-9.1-.5-8.6 4.7.4 4.2 5.3 13.7 6.7 19.8 1.7 7.6 0 19.5 6.5 24.7Zm-321.6-3.8c-3.8-12.7-2.8-24.5-17-30.2-2.6 2.9 13.4 14.9 4.7 15.1l-12.3-13.2c.3 6.4 18.9 32.7 24.6 28.3M941.4 761c1.1-18.9-4.5-39.9-20.8-51.1 0 18 6.9 38.8 20.8 51.1m-131 31.7c10.1-10.3-4.6-46.4 4.1-60.8l-22.6-12.5c-9.4 24.6 5.6 47.9 5.6 72.5.8 3.3 10.1 3.6 12.9.8m13.7-63.8h-7.5c-.8 3.2 3.1.8 3.8 3.2.9 3.2-1.1 7.5 2.9 10l.9-13.2Z" class="st0"/><path d="M238.6 870.7c-.6 0-4.8 2.1-4.8 3 7.2 14.4 13.7 29.6 13.3 46.1 8.3-.5 15.7 1.7 20.8 8.6-1.3 11.1-19.8-.1-20.8.9l.8 102.2 131.6 16.9c-.5 2.8-3.6 3.7-6 4.4-12.5 3.7-52.9-4.7-68.7-6.3-10.2-1-47.8-5.8-54.6-3.9-2.2.6-1 9.4-6.8 7.7-10.7-60.8 11-125.5-19-182.3 0-3.4 26.3-6.5 31.1-6.8 44.2-2.5 89.9 4.9 134.2 3.9 2.3-.6 2.1-9.4 3.4-12 1.6-3.1 32.3-14.4 38.4-16.5 20.8-7.2 42.5-12 63.4-18.9l-2.9 7.4-97.3 36.1c2.4 7.5 10.6 3.7 15.1 8.5l-11.4 6c-1.5 39 4.8 77.9-.2 116.7-1.5 11.7-7.1 22.3-5.4 33.3l126.6-60.8c-6-39.4-2.5-79.9-1.8-119.9.3-19.5-1.9-51 0-68.1.6-5.6 4.4-9.1 3.8-14.9s-18.6-41.3-22.1-51.8c-1-2.9-5.6-18-4.3-19.3l12.2 5.8 24.7 66.1c5.7-28 4.7-70.5-14.2-93.6-5.1-6.2-17.1-10.5-14.2-18 8.9 1.7 15.1 6.5 20.8 13.2 24.7 28.9 24.9 81.2 17 116.4-1.9 8.7-10.8 25.3-10.3 31.8.9 13.5 15.9 31.2 30.2 31.5l-3.1 5.8c-16-.5-23.6-12.1-32.8-22.8l-3.8 134.3 11.3-3.7 1.1 9.5-151.9 73.4-4.3-2.5 13.2-10.4c-14.6 8.1-26.6.1-38.9 0-10.3-.2-20.3-1.8-28.3-1.8-5.7 0-22.3 8.1-25.4 3.7-6.5-9.2 18.1-14.9 23.8-14.9 4.8 0 7.9 3.2 12.9 3.7 6.2.6 11.8-2 16.6-1.6 5 .4 9.8 5.1 15.6 5.4 2.5.1 21.7-3.9 21.8-5v-14c-5.8.5-9.8 4.4-16 3.7s-11-7.5-11.7-7.6c-6.5-.2-36.9 16-34.8 3.1 10.9-8.4 35.6-20.8 42.8-2.9 8.5.5 13-8.1 21.4-3.9v-121l-59.3-2c-5 2.4-6.1 22-11.6 20.9-5.7-1.2-2.1-18.9.9-22.7h-43.5l17.4 13.8-1.4 5.1c-1.1.2-17.8-9-19.8-10.5-2.3-1.7-5.9-8.5-6.7-8.5-8.4 0-20.8-1.2-28.4 0ZM900.9 152.9c25.4 20.5 71 81 74.6 113.6 1.4 12.8.4 32 0 45.5-.2 6.3-3.1 11.9-1.9 18.7s10.1 15.1 12.3 23.6c3.5 13.3 4 31.7 4.6 45.5 9.3-10.1 19.5-38.5 19-52-.7-18.3-20.1-53.3-30.4-69.1 2.7-.2 6.2.4 8.4 2 .4.3 5.9 7.7 6.7 8.9 3.6 5.7 10.1 18 13.1 24.3s2.3 5.3 2.1 8.3l3.5-6.1c-1.4-39.8-26.3-72-43.2-106.5-.6-2.6.1-3.6 2.8-2.8 5.4 1.6 10.2 8.8 13.1 13.4 13.9 21.9 23.6 47.9 38.4 69.4 8 47.1 26 96.4 33.6 143.1.6 3.6 1.9 9.3 0 12.4-16.8-37-25.3-77.5-33.1-117.2-3.5-4.9-3.9 21-3.6 23.5 1.4 11 7.6 23.6 9.3 36.1 5.7 41.4-6.8 78-19.1 116.7-9.1 28.5-18.8 54.2-34.8 80.9-1.4 2.4.4 4.8-4.7 3.7 3.5-9.2 9.1-19.2 12.3-28.4 7.8-22.8 16-50.4 22.7-73.8 11.1-38.7 20.7-76.8 10.4-117.2-7.1 7.5-10.3 18.4-15.4 27.1-2.6 4.4-9.3 9-10.6 14-2.8 10.8 3.1 21.6 4.6 32.3 6.5 45.9-13.5 118-30.1 161.6-1.4 3.8-9.8 18.3-8.3 6.9 6.3-46.4 28.9-91.1 31.5-140.6 0-1.9.9-22.5-3.9-16.2-2.9 14.7-3.6 34.1-7.7 48.1-.9 3.2-1.5 5.4-5.6 4.8 4.7-54.7 17.3-108.2 1.9-162.6l-7.5 7.6c1.3-11.7 3.7-20.5-5.7-29.3l7.5 1c1.1-25.2 3.4-52.1-6.1-76.2-20.2-51.6-75.2-102.2-133.9-77.9-9.6 4-14.8 12.2-24.6 8.5-.5-3.3 0-4.2 2-6.5 6.6-7.7 34.1-17.2 44.4-18 19.6-1.5 36.5 5.2 53.9 13.2-5.2-5.4-11.1-11.6-17.2-15.9-4.4-3.1-11.8-1.3-11.2-10.5 10.3-.7 18.3 6.2 25.7 12.2ZM1068.2 781.8c-3.1 1.8-8.5 1.1-11.4 1.9-1.7-5.8-1.5-7.7-2.5-12-2-8.8-6.9-18.3-6.9-27.7l15.1 20.8c-.7-6.5 4.7-6.9 7.7-12.2 6.1-10.5 5.4-48.4 26.3-22.9-16.5 5-13.8 16.1-19.4 29.8-3.9 9.5-6 9-9 22.2Z" class="st0"/><path d="M1068.2 781.8c3.8-2.2 3-8.4 6.5-11.5s14.8-2.5 17.2-5.5c2.2-2.8 2.6-21.2 8.5-7.6h1.8c-1.9-6.4 4.8-5.5 5.7-10.3.9-4.4-.9-29.4 1.9-31.3 11.2-7.6 7.8 29.9 7.4 32.9-1 7.3-7.3 12.6-7.3 13.4 0 .4 4.1 3.8 5.2 6.1 4 8.6 8.4 39.3-4.3 40.3-2.1.2-28.1-4-29.4-4.8-2.4-1.5-.3-6.4-6.2-4.4-8.5 2.9-31.9 31-20 40.2l41.4 23.8c5.5-16.7 10.7-36.8 18.6-52.4 4.8-9.4 13.6-20.1 19-30.2 6.3-11.9 16.3-29.2 15.9-41.9 27.9-13.7 54.5-33.9 82.1-47.4 6-2.9 38.3-17.6 42.3-13.5 2.2 12.3-15.8 13-25.3 17.3-26.3 11.7-50.8 29.7-76.4 42.7-2.6 1.3-9 2-9.6 2.7-.7.9-.6 5.9-1.8 8.6-10.1 22.1-24 41.2-34.9 61.6-9.4 17.8-15.6 39.2-28 55.3 3.2 2.8 7.8 3.1 11.8 2.5 10.7-1.8 53.7-16.6 63.3-21.9 1.6-.9 3.2-1.7 4.3-3.2-18.7-20.8 5.9-3.2 10.5-2.9s25-6 27.8-7.5c7.2-4 18.4-47.5 22.2-57.7 8.8-23.8 17.6-49.1 28.1-72.2 2.2-4.9 4.8-11.4 9.8-13.8.4 5.9.2 10.9-1.3 16.7-4.3 17.2-16.5 39.6-22.7 56.8-7 19.2-11.7 40.5-20.1 59.3-.8 1.8-12.7 19.5-13.6 20.4-2.1 2.1-35.3 13.1-41.5 15.2-20.8 7.1-42.4 12.7-63.4 18.9-.6.7 11.5 10.8 2.9 11.3l-59.8-36.6c-16.7-9.4-34.8-14.6-52.6-21.2-5-1.9-22.3-15.5-19.1-1.8l-3.8 1c-.8-3.6-3.2-6.5-4.1-10.1-10.2-40 46.2-93.6 61.9-129.8 3.4-7.8 9.4-38 13.2-39.8s4.7 8.2 4.6 10.1c-1.9 43.9-38.9 76-58.6 111.8-3.8 6.8-15.3 30.8-12.3 36.9 1.5 3.1 23.2 13.3 26.2 12.8s32.3-23.8 36.2-28.1c3.8-4.2.8-7.1 8.6-9.3 5.2 18.2-20.6 30-32.1 40.7-.9 4.1 1.8 2.4 4.1 3.3 2.6 1.1 17.8 7.7 18.6 7-11.8-20.1 16.5-32.6 19.8-41.5.4-1.1 0-7.2 1-11.5Zm35.9-17-3.7.9-.9 6.7c-8.9 6.8-29.3-.7-15.8 24.1 8.3-1.1 22.8 8.2 27-1.6 1.6-3.6-5.3-28.9-6.6-30.2ZM447.7 344.9c-.2.3-4-.1-6.6 1.8-5.6 4.1-28.1 23.6-30.2 28.5-4.4 10-3.7 15 4.5 22-6.5 8.4-5.5 21.6-3.6 31.9 1.5 7.9 12.6 3.2 9.4 14.2l-7.5-1.9 1.9 13.2c-6.6.8-5.3-10.6-10.5-13.2-2.1-.5-6.7 4-7.5 5.7-3.4 7.8-7.9 35.5-8.5 44.4s0 7.6 0 11.4c0 4.8 4.6 11.9-5.8 5.3l-5.5-21.4c-4 31.2-17.6 92.8 32.2 88.9l-1.2 5.8c-55.3 2.6-49.6-69.1-39.6-106.1 5-18.5 17.7-33.6 22.3-51.4s5.3-12.9-.5-20.3c13.5-2.2 2.5-21.7 5.7-32.2l-35.3 31.8c-4.7 2.8-9 5.7-13.9 1.3.2-6.5 20.5-19 25.4-23.8 13.2-13 52.1-56.5 50.3-74.3-1.5-15.6-28-11.7-32.1-25.7 3.3-2.4 23.4 5 27.8 7.2 3.9 1.9 5.5 6.3 10 6.1.3-3.9-.7-8.4.1-12.2 7.9-37.8 55.8-100.4 97.6-101.2 7.7-.1 24.6 6.7 18.6 16.9-4.6 4.4-8.5-3.6-11.3-4-41.8-5.1-95.4 64.7-95.6 104.2 32.4-31.2 74.2-53 120-54.9 6.5-.3 25.5-2.9 25.6 5.7-20.1-1.3-43.2 2.7-62.4 8.5-22 6.6-58.4 27.6-73.1 45.1-10.4 12.4-11.3 17.9-5 32.9.6 1.4 8.1 5.7 4.3 9.9l12.6-22.5c7.6-1.2 12.6 4.1 15.7 10.2-11.2 7-15.4 17.3-19.7 29.4-13.1 36.4-16.8 78.6-1 114.4-6.5 1.4-1.8 6.5-1.8 13.1 0 23.4-1.4 61.3-10.5 82.3-1.4 3.2-10 19-14.2 15.1l7.6-25.7-3.7-3.5c10.9-23.7 11.1-55.3 9.4-81.5-.9-13.7-3.1-28.8-13.3-38.7l5.8-1.1c-2.1-31.8 2.2-61.9 13.1-91.6m-11.8-6c1.6-2.8-.2-10.3-2.4-12.9-3.1 2.2-11.2 21.7-10.4 22.7z" class="st0"/><path d="M286.9 508.5c.7-8.6 4.4-22.1 7.5-30.3 2.4-6.4 17.5-28.5 17.1-30.2s-4.3-2.1-5.2-3.2.9-3.4-.7-5.9c-7.7-12.3-20.9-24.5-15-41 10.4-.1 10 12.6 12.3 20.8.5 1.9-.9 4.4-.5 5.3.6 1.3 12.7 11.5 13.7 15.5 11.7-4.8 4.2-13.8 2.5-21.5-6.8-31.1-7.6-61.9 5.1-92 7.2-17.2 24.1-39.8 40.6-18-3.7 4.7-10 2-15.3 3.7-8.2 2.6-16.9 25.4-19.3 33.6-7.7 26.4-8.3 52.4-1.3 79 12.3-11.6 24.8-.3 9.5 7.6-.2 3.1-.9 4.2 2.8 3.7s21.8-8.4 25.6-10.3c3.5-1.8 9.4-4.4 9.5-8.5l9.4 4.7c1.2 5.8-7.5 8.2-12.1 10.7-14.2 7.6-30.3 12.1-45.7 16.7-2.5 2.3-.2 3.1.9 4.8 6.9 9.7 19.4 17.4 20.8 31.2-7.1-.4-24.6-30.4-30.2-26.5-21.7 31.3-23.3 67.9-20.9 105 2.6 39.4 34.7 106.9 55.9 140.8 1.6 2.5 3.8 3.6 2.8 7.6-2.3 2.5-13.3-10.7-14.8-12.6-8.9-11.3-14.3-25.1-19.3-38.4-13.4 11.3-25.5 25.1-41 33.7-5.5 3-13.7 8.9-19.5 3.2l58.6-41.5c-2.3-8.6-8.8-9.8-13-17.3-7.5-13.7-10.2-32-15.8-46.6-7.2-18.5-26.4-53.4-37.7-70.1-6-8.8-13.7-15.9-20.4-24 8.1-.9 14.8 5.8 19.9 11.3 13.8 14.8 22.7 35.5 32.2 53 5.8.5.9-2 .9-2.8 0-16.3-1.3-35.2 0-51.1ZM141.2 579.5c-3.8 10.1.4 8 1.7 10.9 4.2 9.2 7.4 17.5 13.4 25.9-5.1 6.9-6.9-5.4-11.3-6.6-3.2 15.1-21.7 29.8-34.2 38.6-20.7 14.6-41.7 21.5-61.3 37.1-4 3.2-9.9 3.7-12.3 7.5 5.1 3.3 13 8.2 17.1 12.3 23.9 23.8 54.3 74.5 73.4 104.4 13.1 20.6 24 42.5 37.3 63 11.6-9.9 19.5-23.2 31.2-33.1 21.8-18.6 49.1-28.5 77.6-31.2-.5 3.3-3.8 3.3-6.1 4.3-14.8 6.3-30.4 9.4-45 17.4-20.7 11.4-38.9 30.2-53.9 48.2l4.8 13.2c-6.7 1-9.3-4.8-12.5-9.2-15.4-21.2-25-46.6-39.6-68.2-5.1-7.5-14.4-16.1-19.4-24.1-19.6-30.7-36.6-71.5-65.6-95.2-2.1-1.7-6.6-2.1-7.8-3.7-1.2-1.7 1.2-4.7.8-5.4-.8-1.5-13.6-5.1 2.2-7.9.7-3.2-1.8-1.3-2.5-1.9-5.3-4.3 8.4-7.7 11.1-9.4 18.6-11.7 60-44.9 66.7-65.7.8-2.5.4-5.5.4-8.1l5.7 2.9c5.3-3.7 3.4-15.8 8.1-17.5s14.9 2.4 20.3 1.4Zm-3.8 17-6.6-11.3c-4.2 2.4-5.2 8.4-6.5 10.4-14.9 22.6-33.6 42-54.3 59.2l-23.3 13.5c6.4 0 22.5-5.5 27.1-9.3 2-1.7 1.4-5.2 3.1-6.8 12.9-11.7 43.7-34.7 51.2-49.5 1.6-3.2 2-6.5 1.9-10l7.6 3.8Zm-41.6 51-.9-3.7-18 13.2c2.8-.4 18.2-8.7 18.9-9.5" class="st0"/><path d="m434.4 632.4 9.4-7.6c2.9 10.5-8.1 19.8-9.1 27.9-.5 3.8 1.2 17 1.6 22.2 2.2 27.7 8.4 59.3 20.8 84.2l-7.3-.3c-20-31.4-22.3-66.9-26.8-102.8s.7-3.1-3.8-2.8c1.1 10.5-3.3 20.9-3.9 31.1-1.5 27.5 13.2 59.4 19 86.1 5.1 1.4 3.6-3.2 6.6-5.6 10.6 8.6-3 17.6-7.5 26l-7.8-3.3c1.1-11.1 2-13.2-3.2-23.2-14.4-27.5-76.2-103.8-77.1-127.2 0-1.6-.7-4.6 1-4.8 12 0 12.7 24.6 21 32l42.4 60.7-6.3-35.5-35.3-51.5c8.3-7 31.4 31.6 37.8 35.9l6.2-45.8c3.6-8.3 7.9-2.1 10.9-3.4-3.6-8.5 7.6-43.1 19-35.1 5.3 3.7-3.7 15.8-5.3 21.4-1.7 6.1-1.4 14.8-2.4 21.2ZM652 276.9c5.1-2.4 15.7-3.7 21.7-7.7l6.7 8.6c-14.5-2.6-40.7 10.6-45.9 24.2-5.1 13.2 26.4 25 18 42.5-4.3 9.1-30.1 19.2-40.2 17.4 7.8-6.9 28.1-13.8 31.4-24.5 2.9-9.3-19.5-21.4-18.2-34.8 1.1-10.5 17.5-21.6 26.5-25.7-5.4 3.8-2.7-5.6-1.9-7.6-3.8-3.1-20 10.4-22.7 14.2s-3.8 7.8-5.6 11.4l-6.7 31.1c-9.9-10.8-1.9-36.7 5-47.9 2.9-4.7 7.6-8.4 11-12.6-8.4.2-19.1.5-27.2 2.1-21.8 4.3 1 6-1.4 19.2-1.6 8.8-53.9 46-64.1 55.3-4.3 3.9-23.3 22.1-20 27.5l8.5 6.6-2.7 4.7 24.6-7.6-1.9 7.6c18-15.6 35.3-18.6 56.7-7.4l3.7-3.8c12.4 7.6 23 17.7 30.7 30l-3 4.9c-6.7 1-6.2-5.8-9.4-9.6-6.6-7.6-23.2-11.6-33.1-12.3-25.1-1.9-72.7 5.4-95.1 16.7-1.9 1-5.4 3.7-6.2-.6-.9-5.2 24.8-16.9 30.3-16.1-22-19.6-10.1-32.2 7.5-48.2 9.1-8.3 62.7-47.3 64.1-53.3.4-1.6-1-7.4-1.8-7.9-2.2-1.6-31.1 6.3-35.7 8.3-33.3 14.9-54.2 58.6-69.1 89.8v-13.3c14.9-55.1 47-81.8 101.2-95.4 22.7-5.7 29-5.8 51.1-.3 4.5 1.1 14-1.8 15.3 6 .3 2-.6 7.5-2 8.5Zm-68.1 98.3h-13.2v1.9h13.2z" class="st0"/><path d="M491.2 460.3c3.3 8.3-3 14.4-11.3 11.3-.7.9.1 20.1.8 22.7 2 8.1 9.7 16.8 10.7 25.6 2.9 27.3-10.3 58.7-10.7 83.5-.1 7.5 8.6 49.8 6.8 51.7l-6.6-1.8c-1.3-4.8-1.3-9.8-2.5-14.6-.9-3.3 1.3-5.2-4-4.4-1.7 9.6 1.7 21 1.5 29.8-.2 10.2-3.5 9.9-7.1 1.3l-3.8-14.1c-2.9 16.6-1.2 42-5.8 57.5-1 3.2-1.8 4.7-4.6 6.7-4.1-3.3-4.4-7.4-4.8-12.2-1.3-16.6 4.8-38.1 5.8-54.9 1-15.7-.4-31.2-3.8-46.4 13.3 3 14.2 12.3 13.2 24.6 2.7.5 2.4-3.6 2.9-5.6 4.8-23.5-.6-48.9-1.1-72.9l2-84.1c3.6-1 5.2 4 8.2 3.5 3.5-.5 8.8-9.2 14.5-7.3ZM470.1 131.5l.3 7.3c-20.3-5.4-45.5 3.1-63 13.6-36.3 21.9-49.9 64.8-48.6 105.5-5.6.7-6.4-6.8-7-10.9-1.7-11.3.2-21.1 1-32 .5-6-9.2.1-11.6 1.6-18.8 11.2-48.6 53.6-56.9 73.6-12.7 30.5-18 89.2-12 121.3 1 5.2 4.1 10.3 5.2 15.6l-3.8 1c-3.5-8.9-6.8-16.6-9-26-10.2-44.2 1.2-104 24.8-142.6 6.7-11 43-55.7 53.6-58 3.5-.8 9 3.1 11.7 1.4s9.3-22.7 12.7-28c20.9-32.5 64.4-53.9 102.7-43.4ZM613.4 137.7c-3.3-4.7-19.2-29.2-22.5-28.9-15.3 1.4-22.6 48.4-25.9 61.1 20.3 4.6 48.8 13.9 50.2 38.8.6 9.8-6.4 20-11.5 9.5-2.3-4.8 1.8-9.8.7-15.6-2.3-11.9-29-19.5-38.5-24.1-1.8 1.5-2.4 1.8-2.4 4.2 0 5.7 2.4 12.2 1.5 19.4s-1 5.5-3.8 2.8l-5.8-28.2c-38.1-7.7-85.8 5.1-102.1 43.4-8.2-2.3-3.5-16.3 0-21.8 3.3-5.2 20.1-18.4 26.1-21.2 21.3-9.8 53.2-10.4 76.2-9 4.8-25.4 16.2-101.4 51.7-53.8 10.8 14.5 33.2 45.8 41.2 60.9 1.1 2.1 6.3 12.7.6 12.6-3.1 0-31.3-44-35.8-50.3ZM844.9 231.4c7.7 2.5 17.4 9.7 23.6 15.2 6 5.3 9.5 12.4 15.5 16.6 16 11.4 37.9 12.8 52.9 27.5 32.9 32.2 17.4 82.2 13.9 122.3-15.2 2.2-6.6-12.5-5.9-21.9 2.6-35.1 9.2-73.6-19.6-99.2-11-9.8-28-19.3-42.4-13.4-4.6-15.4-25.2-14.9-36.2-25.3-6.1-5.8-8.8-17.7-13.7-20.4-13.8-2.8-33.6-10.8-46.9-4.4-3.8 1.8-14.6 13.5-16.8 5.6 3.6-28.8 49.9-17.3 68-8.3 1-4.4 3.5-12.8 8.6-13.3 14.6-1.6-2.5 17.1-1 19m19 22.8c-1-3.4-12.7-13.5-15.1-11.3 1.5 6.2 9.4 9.3 15.1 11.3M854.4 424.4c2.2 5.5-3.4 5.4-3.8 6.9-.5 2.4.7 6.8-.2 8s-14.9 5.6-17.2 6.4c-12.1 3.8-24.9 3.9-36.5 9.1-24.1-5.2-47.4-11.9-65.3-29.6-.6-2.5 3.9-6 5.8-7.4 14-10.3 40.4-17.2 57.1-11.9 11.2 3.5 22.9 7.2 34.4 11 8.9 2.9 13.7 9.3 25.6 7.5Zm-87.1-3.7c-12.1-1.5-17.5 0-26.4 6.5 1.7 4 27 16.5 30.3 14.2zm73.9 16.9c-2.6-7.8-8.4-3.2-13.2-4.7-7.4-2.3-15.4-9.7-24.6-10.4l-3.8 22.7c14.5 1.5 27.7-5.2 41.6-7.6M561.7 455.9c-1-.6-1.4-4-3.7-4.8-5.5-1.9-21.8-1.2-30.7-3.4-7.3-1.8-13.7-3.7-19.2-9.2 7.9-2.2 1.6-10 1.9-16.1 8 1.8 10-5.4 15.9-7.7 9.1-3.6 42.2-10.8 51.1-9.2 2.9.5 23.7 9.6 26.3 11.6 4.2 3.1 4.8 6.4 7.8 9.2 4.4 4.1 10.2-.1 8.5 12.1-2.4 17.3-25 14.8-36.7 16.3-6.9.9-10 7.4-21.3 1.2Zm1.4-35.3-37.8 9.5c-4.5 4.3 15.5 7.7 15.1 11.3l-19.8-5.8-4.8 5.8 41.6 5.7c1.5-3.6-2.1-16.3-1.3-18 1.7-3.5 7.8-3.2 6.9-8.5Zm48.1 18.2c-7.6-7.7-17.6-17.5-29.2-14.4 5.5 7.4 1.2 16.8-1.9 24.5 11.7-.1 26.1 2.2 34-8.5.6-1.4-1.9-.5-3-1.7ZM937.7 931.2c7.1 2.1 9.5-10.3 15.1-2.8.6 3.1-8.7 9.8-8.9 13.2-.1 2.5 4.2 5.1 3.2 8.5l-9.4-2.9-43.1 33.1c-9 2.4-33.4 26.7-40.8 24.5l-4.9-6.6 84.7-62.5c-9.7-19.5-16.4-40-21.5-61.2-6.3-26.4-14.2-63.4-17.8-90-.6-4.6 0-9.4-.1-14 11.9-.7 8.1 8.6 9.9 15.6 8.2 32.4 11.7 63.8 19.4 96 4 16.7 9.7 32.7 14.2 49.2ZM723.9 1003.1c3 13-20.4 5.5-27.2 7.4-2.5 2.5-1.1 8.7-6.8 7.7l-5.8-18.1c6.2-5.8 1.4-11.9 1.8-20.7.9-18.8 4.9-38 5.9-56.6 1.1-21 1.3-43.1-3.9-63.4 6.4-2.1 8.7 3.7 12.6 5.1 1.8.6 15.6 1.3 18.8 1.3 21.6.4 44.1-6 65.9-6.3 1.4 1.1 3.5 1.7 2.1 3.7-4.9 7.1-75.3 17.8-86.1 7.6 5.9 44.8-5.3 89.5-5.7 134.3l11.3 1.9 1.1-7.5c5.5.4 10.6 2.9 16 3.7-.9-3.7-6.7-3.8-7.6-7.5 39.7.9 79.8 7.1 118.8 14.6l19.3 8.1-7.9 1.4c-40.8-6.8-81.8-10.1-122.6-16.5ZM1002 639.9c19.6 6.8 27.2 36.5 24.1 55.4-.4 2.4-8.5 25-12.8 20.3 6.5-23.9 6.2-51.2-11.2-70.7-1.5-1.7-1.4-1.6-3.9-1.2-5.4 18.4-18.3 34.7-29.5 50-1.7 11.5 13.4 47.5 11.1 53.5-.9 2.2-2 4.5-4.3 2.4l-15.2-47.3c-2.5-2.8-10.9 11.4-11.3 2.9 33.1-41.7 63.1-90.9 53-146.6l11.4 25.4c.3 19.4-4.3 38.1-11.5 55.9Z" class="st0"/><path d="M897.9 825.3c-25.5 16.5-48.9 40.3-66.2 65.4l-7.5-1.1 13.2 82.3-2.8 21.7c-3.2-2.1-2.3-5.4-3-8.4-7.6-34-15.6-74.2-20.1-108.5-.8-6.2-6.5-36.4 4.2-36.4 10 0 4.5 20.2 4.7 27.6.2 5.8 2.3 12.1 2.9 17.9 7.3-5.2-.6-17.4 10.4-14 5.6-8.7 50.8-56 57.8-55.5 1.7.1 8 6.9 6.6 9ZM796.5 300.7c11.6 13 16.7 15.4 26.8 30.9 1.2 1.8 14.2 13.8 7.4 15.3-5.8 1.3-6.1-4.8-9.7-7.3-10.8-7.6-32.3-2.2-45.1-4.1-22.2-3.4-44.9-32.9-47.9-54.3-1.4-9.4 3.1-23.7 14.7-19.4-7 17.1-1.5 35.8 9.5 50.1 16.1 20.9 37.1 11.1 59.2 16.5s3.6 3.7 3.2-1.3c-20-12-28.5-28.1-41.6-45.4-5.8-7.7-16.5-15.8-18.9-25.5 6.3-6.6 38.5 40.3 42.4 44.6ZM529 142.6c-18.8-4.8-25.6-5.5-42.9 3.5-39.5 20.6-59.7 62.5-79.6 100.1-1.5 2.8-2.3 14.4-7.1 9.9-4.3-7.6 9.4-36.8 13.5-45.2 10-20.5 25.2-42.9 42.3-57.9 19.5-17.2 54.1-38.1 73.8-10.4M1096.1 699c2.1 1.2 10 16.5 8 18.5-7 1.5-8.2-6.3-14.2-7.5-4-.8-22.1 1-26 2.2-2.8.9-8.7 7.6-10.5 10.3-6.7 10.2-5.8 31.9-21.1 19.5-2.8 7.5.9 17-9.5 17.9 5.6 9.8 10.7 14.1 22.5 12.5l-1.1 11.3-15.9-1c-1.5-7.8-8.5-11.4-10-18.5-.5-2.2-1.3-13.8-.9-15.2s13-17.7 13.9-18.4c3.6-3.1 6.5 1.4 9.4-1.7 4.8-5.2 6.4-22.6 16.5-27.2zM245.9 758.4c3.3 4.7 25.7 28 25.7 30 0 1.2-2.7 3.4-5.7 1.9-4.4-2.3-18.6-19.9-22.4-24.9-27.3-37.1-43.2-85.5-74.1-120.7 3.1-4.1 3.4.6 4.1 1.2 3.8 3.3 6.2 7.8 10.1 11.1 1.4.3 1.2-1.8.9-2.8-2.1-6.4-13-25.6-17-32.2-7.1-11.6-17.5-20.6-22.7-33.1l23.7 22.7c26.7 47.7 45.1 101.6 77.3 146.9ZM191.6 582.6c-2.4 2.6-11.7 12.1-14.1 13.7-5.9 4.1-5.8 4.8-12.4.3l-1.2-4.7 11.4-10.6c-7.7 1.2-14.7 4.3-20.8-2.9 14.1-9.3 37-11.5 48.5-24.3 4.4-4.9 16.1-33.5 17.1-40.3.3-2-1.9-5.8-1.3-6.3l9.2 3.1c5.9 17.9-24 58.8-36.3 71.9ZM780.6 585.1c1.3 5.4 3.2 11.8 9.1 13.5-3 4.5 3.4 14-2.5 16.7-4.9 2.3-2.1-8.8-5.6-9.4-2.2 0-27.7 20.3-34.1 22.6-17.8 6.4-43.9 11.7-62.9 12.8-3.6.2-5.3 1.6-7.9-2.3 0-2.8 25.5-4.6 30.3-5.6 15.6-3.4 30.2-11.4 45.3-16.2l-19.6-5.8c-4.2 10.7-18 .6-26.8 0-8.3-.5-28.7 10.2-21.7-4.6 15.2-8.5 29.4 2.3 42.7 2.6 3.8 0 7.4-2 11.2-1.9 16.3.7 27.5 6.3 41.7-7.4l-2.9-14.1 3.8-1ZM481.3 680.2l12.3 66.1 22.3 55.2-4.9 3.1c-15.4-21.4-25.8-48.2-32.2-73.7-2-7.9-11.2-48.9-6.6-53l9 2.3ZM848.7 116.1c-25.8 3-69.6-21.4-92.6-8.4-5.6 3.2-12.7 12.4-13.3 19-.5 6.1 4.2 11.8-1 15.8-9.6-5.2-11.6-19.9-7-29.6 5.3-11.2 15.3-18.4 27.8-19.5s66.3 11.5 80.4 18c2.2 1 5.2 2 5.7 4.7" class="st0"/><path d="M580.1 609.7c24 3.6 59.9-15.5 81.9-9 4.4 1.3 5.1 6 7.6 8.5 1.3 1.3 6.1 1 6.9 3.5 2 5.9-6.2 9.2-10.5 4.8-2.5-2.6-2.1-10.1-5.9-11.3l-61.8 7.5c-3.6 9-11.7-.9-18.3.9l54.7 20.6c19.4 4.7 38.6 8.9 58.8 9.7-6.7 6-16.7 5.2-25.1 4.2-7.8-.9-27.6-4.7-29.8-12.8-6.7 5.4-23.7-1.8-32-4.8-9.1-3.3-26.5-9.6-30.4-17.9l-6.6 7.5c-5.5.4-.8-18.2 0-20.7.6-1.9 2.6-9.1 5.6-7.6l4.8 17ZM943.3 471.6c-5.4.9-3.2-1.1-4-4.4-3.1-11.6-3.4-25.9-5.9-37.7-9.1-42.2-36.1-76.7-50.6-116.8 4.3-4.6 16.7 23.8 18.2 26.3s4.8 4.9 6.8 8.3c22.5 38.9 38.8 77.9 35.6 124.2ZM1049.3 636.2h-5.7c4.4-8.6-3.9-16.6-6.3-24.9-5.8-20.5-5.3-59.1-1.4-80.1 1.2-6.6 1.8-9.1 2.6-17.6 1.5-14.3 13.6-36 25.8-43.8 1.8 2-7.4 13.5-8.9 16.6-10.5 22.7-16.2 73.6-14.5 99 1.2 17.6 8.2 33.4 8.3 50.8ZM299.7 890c9.5-.9 27.9 8.5 26.9 19.2-1 10.8-14.5 23.8-24.9 26.3-36.1 8.8-27.1-43.1-1.9-45.6Zm17.3 14.9c-4.9-1.7-13.5-6.4-18.4-3.5-2.7 1.6-14.9 21.2-9.7 25.9 8.7 5 32.7-15.8 28-22.3ZM779.7 137c3.3 2.3 3.1 4.9 2.9 8.4-.7 17.4-27.5 47.1-35.5 64.8-2.1 4.7-1.6 9.8-3.4 13.6-3.2 6.8-11 .7-11.4-4.6-1.4-18.6 39.1-63.5 47.4-82.3ZM380.2 620.4c1.8 2.3 7.9 2 2.2 6.3-39-25.1-31.1-75-46.3-113.4 12.8-.2 16.3 15.5 18.5 26 7.2 34.5 2.6 50.8 25.7 81.2ZM320.7 940.8l7.8 32 50.1-7.6c8 2.6 5.7 7.4-1 10.4-14 6.4-27.9.9-39.8 5.6-9.2 3.7-13.8 16.4-24.5 1.9 1.9-3.2 7.6-2.2 8.8-5.6 2.4-7-9.5-34.4-6.9-36.9zM1138.2 723.2c-3.7 3.7-28.4-24.2-32.1-27.4-11.6-10-27-19.1-38-30.2-4.2-4.3-9.3-9.9-9.3-16.1 3.5-.5 5.6 0 8.6 1.8 9.5 5.6 40.8 33.7 50.1 42.6 3.4 3.3 24.5 25.6 20.8 29.3ZM697.4 142.6c-25.9-6.9-48.3 8.5-30.3 35 2.6 3.9 12 10 13 13.5.7 2.5-.7 6.2-2.5 6.3-4.8.2-20.1-20.1-22.1-25.2-9.5-24.4-3.1-43.5 26-41.1 5.8.5 17.8 4 16 11.5ZM390.9 220.1c2.5 7.3-3.8 11.8-5.1 16.6-5 18.6-3.9 43.3 7.3 59.6 4.3 6.3 10.6 7.7 12.9 14.5-16.8.3-30.8-29-33.2-43.5-2.3-13.5-2.5-49.8 18.1-47.2M462.6 813.7c-2.9 1.8-9.1.2-9.1-4.3-.1-8.4 7.2-26.6 8.9-36.6 2.1-12.7 2.2-25.5 3.4-38.3l11.5 6.6c1.3 9.6-8.2 68.7-14.6 72.6ZM843.7 810.8c-3.4 3.8-5.5 10.2-8.9 13.8-3.4 3.7-15 14.2-20.2 12.9 11-19.1 25.6-34.7 38.6-52.2 4.4-5.9 12.1-25.7 20-21.7 9 4.7-6.6 22.4-11.4 28.4-5.1 6.4-12.9 12.7-18.2 18.7ZM395.4 743.2c8.2 7.6 7.7 27.6 11.1 39.1 3.4 11.3 9.7 31.4 24.1 24.2-5.5 15.1-24.3 2.6-29.3-7.6-5.2-10.4-14.1-46.8-9.4-56.7 2.3-4.8 2.7.3 3.6 1.1ZM347.4 732.6c-23.3 5.2-40.2 23.3-53.7 41.8-3.9 5.3-4.3 12.5-11.2 15.3s-3.5-7.1-1.6-11.1c8.1-16.9 38.6-50.1 58.3-51.6 4.4-.3 8.7 0 8.3 5.6ZM691.9 575.5l.8-5.5 24.3 9.4c18.8-18.3 9.5-48.7-4.5-67 8.3-2.5 19.3 16.6 21.8 23.6 7.9 22 .4 37.5-17.3 50.8l-25.1-11.2ZM795.7 919.9c-5.8-.5-7.1-5.7-13.9-5.5-16.8.4-41.5 11.5-59.2 12.4-9.1.5-15.4-8.6-3.5-10.7 14.5-2.6 44.1-9.6 56.8-9.6 8.7 0 20.2 2.8 19.9 13.4ZM483.6 846.1c1.8 15.5-19.3 14-30.2 18-9 3.3-39 19.5-46.1 18.1s-1.6-3.7-3.1-4.9l54.3-25 25.1-6.1ZM209.3 524.6c.3 20.6-43.4 52.8-61 48.7-4-.9-8-5-9-9 19.5 6.8 39.3-11.9 51-25.6zM739 189.9l-2.4 7.1c-10.5.7-53.5 31.3-60.2 22.1l-1.7-8.3c11.7 1.5 57.7-30.1 64.3-20.8ZM803.3 944.4c-23-4.9-43.9-9.4-67.3-2-7.1 2.3-12.1 11.5-19.7 1 18.9-13.5 47-17.6 69.1-10.5 1.8.6 22.3 7.6 17.9 11.4ZM825.5 129.8l1.5 7.1c-9.2 10.5-17.4 22.1-25.3 33.4-1.7 2.5-4.8 15.1-11.7 11.2-9.1-5.2 11.7-32.9 16.3-38.8 3.7-4.8 13.6-18.8 19.3-12.9ZM194.1 713.7c-15.4 9-27.5 24.2-42.9 33.7-5.9 3.7-27.1 15.9-32.8 11.7.8-1.9 1.6-4.5 3.2-5.7 14.9-11.3 37.6-22.8 54-34 4.6-3.1 17.4-18.4 18.4-5.7ZM275.5 587c2.7 2.7-2 5.5-3.2 7-10.5 13.5-33.2 36.2-47 46-5.6 4-11.3 6.4-18 3.7 13.5-14.6 30.4-25.8 45.4-38.7 3.3-2.9 18.9-21.7 22.7-18ZM231.3 592c-4.1 3.5-7.9 5.9-11.6 10.2-7.4 8.3-19.3 35.6-29.3 21.8 23.1-16.1 32.2-47.9 61.6-55.8l4.6 4.7c-5.4 7.3-14.5 9.2-21.5 14.6-1.8 1.4-2.5 3.5-3.8 4.6ZM884.6 853.7l2 8.2c-16.5 16.5-28.7 43.6-53.1 50.4 14.9-14.1 26.7-39.6 40.6-53 2.9-2.8 6.2-5.6 10.4-5.6ZM769.3 138.8c1 12.3-12.1 13.9-19.5 19.2-5 3.6-19.9 17.6-24.5 16.5-13.9-3.4 4.5-16.5 9.4-20.3 5-3.9 29.5-21.2 34.7-15.4ZM492.8 903.1c.9.6 3.4 6.9.4 8.3-21.3 4.1-37.7 20.7-60.1 23.2-3.7.4-5.5 1.3-8-2.4l54.7-28.5c2.9-.9 10.9-1.9 13-.6M163.9 666.4c-7.4.9-9.5 8.9-14.5 13-9.5 7.8-38.7 24.6-50.4 31.1s-12.8 3.7-20.3 3.2c-1-5.2 1.3-3.2 3.8-4.6 10.3-5.5 19.5-12.2 29.6-17.8 16.1-8.9 34.4-13.1 47.1-28.6l4.6 3.6ZM846.8 938.8l46.3-62.4 4.8 6.5c-.7 3.7-2.7 7.2-4.8 10.3-5.2 7.7-31.7 39.2-38.4 43-2.6 1.5-4.5 3.3-7.9 2.5ZM874.4 811.3C863 825 844.3 841.5 827.9 848l43.8-52.6c16.7.3 9.2 8 2.7 15.9M504.1 865.3l2.2 5.4c-3.9.1-8-.5-11.9.5-12.9 3.1-19.6 13.3-31.3 17.9-8.4 3.4-31.4 9.3-40.5 10.7-1.8.3-7.3 2.1-7.2-1.6.2-4.1 68.5-24.3 76.5-31.3l12.1-1.5ZM440.1 955.8c5.5 3.1 11.6.8 17.4-.6 13.9-3.2 30.4-9.8 44.1-14.5 1.1-.4 3.4 5.4 1.1 8.6s-40.5 15.2-46.8 15.8c-8 .8-16.4 1.3-15.9-9.3ZM288.7 623l-1.3 5.7c-16.2 8.9-37 21.1-46.3 37.5l-9.2-2.5c-2.1-10.1 44-43.4 56.7-40.6ZM797.6 978.5c-11.9-4.1-60 1.2-66.4-6.4s-2-4.1-1.7-6.8c18.5 4.2 39-.8 57.2 4.3 4.5 1.3 11.2 2.6 10.9 8.9M674.4 381.2c1.9 3.3.7 49.3.1 55.3-.7 7.1-6.1 15.1-3.6 23.8h-5.7l1.9-81.3zM920.1 912.8c1 .9 1.2 3.1 2.2 4.3-15.9 14.4-35 24.8-54.7 33-.7-3.3 1.7-4.7 3.7-6.6 10.6-10.2 28.7-19.2 39.1-31 2.7-2.2 7.1-2.2 9.6.3ZM1188.6 778.8c12.1 6.4.9 32.9-16.3 20.9-10.1-7-.4-29.7 16.3-20.9m-3.1 12.5c.6-3.6-2.2-6.3-5.7-5.6l1.9 5.7h3.8ZM169.6 698.6c2.1 1.8-6.9 10.1-8.5 11.3-13.6 10.4-33.6 14.2-50.1 17l9.5-10.3c19.1-.5 31.5-15.1 49.1-18M638.7 524.6c1.1 1-5.7 15.5-6.6 18.9-2.7 10.3-3 17 1.4 27l14.7 20.3c-18.6-6.8-26.9-27.5-24.4-46.2.7-5.3 7.7-26.6 15-20ZM171.5 812.1c17.5-3.7 31.6-18.7 46.2-28.4 1.6-3 4.8-.1 4.8 1 .1 5-33.8 31.9-39.8 34-5.9 2.2-10.8 0-11.3-6.6ZM763.3 888l2.2 7.3c-10.1 1.8-45.5 13-49.2-.9 3.6-4.1 9.2-1.3 13.2-1.8 6.1-.8 30.7-6.6 33.8-4.5ZM199.8 761c-19.4 1.4-34.1 18.4-53 18.9 5.6-6.9 15.8-15 24.1-18.5s29.1-10.2 28.9-.4M277.4 944.5c7.3 6.9-8.5 26.8-12.8 33.5-1.4 2.2-.9 4.2-5.2 2.4-9.6-3.9 9.5-27.6 13.1-32.3.9-1.1 1.7-6.5 4.9-3.6M366.2 885.9l-.7 7.6-24.8 2.9c-16.8-16.2 15-13.1 25.5-10.5M462.2 978.8c1.9-.1 4 1.2 4.3 2.5 1.3 5.6-33.8 19.4-39.7 9.4 0-1.9 33-11.8 35.4-12Z" class="st0"/><path d="m682.2 566.2-2.7 3.9c-13.1.7-24 18.7-35.1 6.4 4.7-6.1 33.7-14.8 37.8-10.4ZM277.2 899.3c4.4 14.4-14.7 3.6-20 .1-7.5-4.9-7.9-6.6-8.1-15.5zM354.5 939.2c1 1.6.4 3.5.5 5.3-4.9 5.3-24.6-22.5-22.7-28.3 10.8-.5 12.9 12.4 17.3 19.6 1.3 2.1 4.5 2.8 4.9 3.4M493.1 431.9c-5.5 1.3-9.6-2.9-14.3-3.7-7.5-1.2-19.3 3.8-17.9-7.7 10.6-.2 28.8-1.5 32.1 11.3ZM1160.8 831l1 5.6c-6.3 2.4-11.6 16.7-18.9 15.1-6-1.3 3.9-13.4 5.6-15.1 3.8-3.9 6-6.9 12.3-5.6M493.1 416.8c-4.7 1.7-24.5-6.9-24.5-10.4 0-8 25.6 2.9 24.5 10.4M1183.6 808.3l18.4-9.1 8.1 2.5c-7 5.8-17.5 10.1-26.4 6.6ZM489.3 443.3c.4.4.6 4.4-1.2 5.8s-21.9 10.6-21.5 4.6c1.7-4.1 21.2-11.9 22.7-10.4M1140.1 806.4c5.6-2.3 21.9 6.9 20.8 12.2-.4 2.1-3.1 3.3-5.7 2-3-1.6-11.8-11.2-15.1-14.2M873.3 401.7l-1.1 5.8-19.7 5.5c-4-3.5 18.1-14 20.8-11.3M880.9 460.3c-11.1-.4-15.7-12.9-26.5-14.2 9-7.8 21.3 7.6 26.5 14.2M865.7 477.3l-7.2-3.2-15.5-17.6c2.6-2.5 25.5 18.3 22.7 20.8M1176 808.3c1.8 23.9-9.1 21.7-7.5 0zM879 430.1c.9 8.3-12.5 4.2-17.1 2.8-3.3-1-4.4-.4-3.7-4.7zM672.8 479.2c-2.2 6.1 6 22-3.8 22.7 1.7-6.6-.9-13.2 0-19.9.4-3.4-.6-3.1 3.8-2.8M790.1 989.8c-4.6 0-9.3.3-14-.2-1.9-.2-8.9-.8-8.7-3.5 6.8 1.1 18.5-3.4 22.7 3.7M663.7 1124.8c.3.6 1.8.7 1.9 1.1 2.5 7.5-9.3-2.2-10.8-2.5-8.8-1.9-19.9 19.4-23 26.2-10.1 22.4-14.4 47.3-28.8 67.7-7.7 4.5-14.2-16.6-16-21.3l-4.1-22.8c-3.5 11.5-7.5 23-11.8 34.3s-2 1.7-2.3 2.3c-1.6 4 .6 13.3-7.4 11.3-1-2.5-1.5-4.8-1.3-7.5.9-8.6 7.9-36.6 10.8-45.6 1.7-5.2 5.2-18.1 11.9-13.9l3.6-11.4h3.7c5.7 6.1-2.5 12.4-2.3 19.1.2 8.8 4.7 37.6 9.3 44.7.4.7 1.8 3.4 2.6 2.8 4.7-9.2 9.5-18.4 13.4-27.9 5.1-12.3 8.8-26.4 14.2-38.6 6.1-13.9 22.9-41.4 36.5-17.8ZM508.5 1182.8c-1.3-1.2-26.9 6.4-32.4 3s-1.6-3.3-3-4.2c-1.1 0-9.2 15.6-10.9 17.9s-8.8 10.5-9.4 10.9c-2.8 2.1-8.4 1.1-9.1-1.9-.3-1.4 7.8-7.4 9.6-9.6 10.5-12.9 20-31.9 27.4-46.9 5.7-11.7 18.4-53.7 36.1-29.8 11.5 15.4 6.4 35.1 1.9 52-1.2 4.6-2.6 7.2-3.7 11-1.8 6.3-7 21.3-6.6 27 .6 9.9 13.9-4.4 15-4.2 4.8 1-2 13.6-6 14.4-22.8 4.5-13.2-28.2-9-39.6Zm4.8-48v-3c-9-.9-11.3-4.9-18 3.6l-20.4 43.7c1.6 1.2 33.4-2.1 35.7-3.9 3.7-6 10.4-37.7 6.3-41.6zM755.5 1137.3c-.6 6.5-9.3 2.4-13.8 2.3-17.7-.3-30.4 21.4-36.6 35.4-6.5 14.6-10.9 30.2-16.8 45-1.5 0-3.3-.6-4.4-1.6-6-5.3-3.4-30.1-4-38.6l-2.4-9c-6.5 16.9-17.2 33.1-18 51.5l-5.8-.2c-1.3-2.4-1.5-4.8-1.3-7.4.6-8.9 11.9-51.3 17.8-56.6 2.5-2.2 5.3-1.2 7.2-3.6s2.5-13.1 7.3-10.1c.2.2 1.3 4.5 1.3 5.4 0 5.2-3.8 7.9-3.7 12 0 3.2 3.2 9.7 3.7 14.4.8 8.8-1 18.1.6 26.9 5.7-10.2 8.2-21.9 12.7-32.6 5.3-12.5 14.6-29.4 28.2-35.5 11-4.9 17.6-1.8 28 2.3M853.3 1136c.7.2 2.1 2.4 3 3 0 4.4-30.9 4.9-35.2 5.5-8.9 1.3-36.1 9-42.4 14.6-3.5 3.1-16.4 26.8-17.9 31.8-1.8 5.8-3.7 12.6 4.1 14.3 9 2 34.5-4.7 43.2-9 1.7-.8 2.5-5.1 6.3-2-.3 2.1.5 5 0 6.9-1 4.1-35.9 12.5-41.4 12.9-14.9 1-22.3-9.8-19.2-24.1 2.1-9.7 20.5-40.7 29.5-44.8 10.8-.6 27.7-9.1 37.6-9.1s27.6-1.4 32.4 0" class="st0"/><path d="M807.4 1176.1c-9.7 5.9-22.3 8.3-33 12.9-1.8.8-5.9 5.8-8.2 2.6-1.8-2.4-1.4-5.6.7-7.8 3.2-3.4 34.3-13.3 40.9-15.5 1.3-.4 2.4-1.5 3.6-2.2l2.9 3.7c-1.7 1.5-2.8 4.2-4.2 5.6-.9.9-2.1.2-2.6.5Z" class="st0"/></svg>