<svg xmlns="http://www.w3.org/2000/svg" id="Calque_1" viewBox="0 0 1300 1300"><defs><style>.st0{fill:#313a94}</style></defs><path d="m1085.5 144.3-5.6 3.7c33.8 19.5 52.6 47.9 71.1 80.9 8.8 15.7 14.9 35.6 22.5 48.6.8 1.4 2.2 1.7 3.6 1.4l-3.7 2.7c15.3 35.9 17.6 75.5 20.5 114.1 8 104.6 5.8 210.2 12.1 314.9 2.1 34.7 3.7 91.4 11.2 123.6 1.1 4.9 10.7 18.2 1.7 20.3-7.8 1.9-9.8-9.9-11.4-13s-4.5-6-6.1-10.4c-5.3-14.8-8-32.2-11.4-47.5-3.2-.5-2 4.4-1.8 6.5 1 13.7 6 29.7 7.2 43.3.6 6.2 2.6 21.5-6 19.1-.8-.2-11.4-8.9-12.4-10-15.1-16.8-17.5-48.2-27.1-68.3.3 12.6 7.4 71.4-.9 77.8-8.4-.3-15.7-10-18.3-17.5-8.6-24.6-8-57.3-17.4-82.7-3.2-.5-2 4.4-1.8 6.5 1.7 27.8 7.3 56.3 11.3 83.9-11.5 7.8-13.9-4.4-16.4-13.4-5.3-19.2-5.6-41-10.5-60.6l-8.7-31.4 7.4 83.2-.2 31.5c-1.2 3.7-5.6 3.6-8.9 2.9l-3.9-7.3-2 16.8c-8.8 3.6-11.5-8-13.2-9.1s-4 2.5-7.3.9c-9.4-4.8-15.8-32.2-17.8-42.2l-6.5-43c-4.8 11-4.3 28.9-2.5 40.8 2.6 17.7 14.6 36 3.5 52.6-2-1.7-4.9-2.5-6.6-4.6-4.4-5.1-2.5-12.4-7.4-15.9l-3.8 22.4-11.2-.9 25.8 45.3c2.7 8.8-4 13.7-11 7.2-7.1-6.7-11.4-28.2-18.5-35.2-2-2-11.7-5.4-12.8-7.3-1.4-2.5.3-6.8-.5-9.8-2.6-9.9-18.2-19.8-25.2-27.2-1.9 1.8-3.5 4-6 5.1-31.2 14.2-58.2 29.1-93.1 30.4l1-3.7c-5.1-1.1-12.1.3-16.8-.8-5.4-1.3-9.3-5.4-12.6-6.2-8.8-2.2-18.9-2-28.1-5.5-6.5-2.5-10.5-8.1-17.2-8-4 21.1-7.2 42.4-12.6 63.1-2.2 8.2-7.3 30.5-10.2 36.5-1.4 2.9-3.9 3.3-6.2 5.1-3.3-4.7-8.8-9.2-8.4-15.8s10.5-28.7 12.9-37.7c5-18.7 7.1-38 11.4-56.9l-51.5-24.3c-1.9 3.5 4.3 9.6 6.5 12.2 8.8 10.2 26.9 17.5 31.6 26.4 6.1 11.5-5.9 6.6-3.5 17.5-5.6 6.2-28.5-23.6-32.4-27.4-2.6-2.4-6.9-3.6-9.6-6.3-10.8-10.7-18.7-22.2-30-31.7.6 10.4 5.1 23.6 10.5 32.5 3 4.8 10.9 7.6 9.1 18l-9 1.5c-3-4.8-6.9-10.4-10.6-14.7-2.9-3.4-8.2-2.8-6.6-9.2l-3.7.9c2.7 3.9 3.6 20-1.2 21.4-7.5 2.2-12.3-9.7-15.7-14-2.2-2.7-7.2-2-5.6-8.3-4.4 1.6-2.2 11.8-5.5 14.1-2.2 1.6-5.4 1.1-7.7 0-13.2-11.8-18-27.3-27.1-42.1l-12.2 33.6c-22.3 4.1-16.8-21.4-19.5-35.4-6.4 9.1-8.4 20.3-16 28.9-18.9 21.6-40.2 13.3-28-15.8-7.8 6-14.5 25.5-25.4 26.2-4 .3-10.8-2.4-10.1-7.4l7.5-7.5c-2.9-.4-5.6-.8-7.6-3.2-9.7-12.1-2.2-49-2.5-64.7-.5-27.4-6.2-57.9-11-84.9-8.4-7.6-19.4-7.5-28.9-11.3-8.4-3.5-19.3-10.3-28.1-13.1-9.8-3.2-22.1-3.5-30.5-6.9-6.7-2.8-15.4-10-23.6-13.8-82.7-37.4-141.5-46.6-212-111.5C68.5 430.5-5.8 325.8 91.6 196.8 134.2 140.3 226 71.2 300.5 98c82.4 29.7 95.6 131.6 94.9 208.1-.5 52.6-15.8 104.2-15.1 157 .5 35.4 9.3 82.2 20.1 116.4s10.7 24.8 17.4 31.2c1.8 1.7 5.4 2.2 7.3 3.9 19.2 17.6 38.9 32.5 63.7 42 2.9-3.8-20.2-79.9-21.9-93.1-1.7-12.9.7-26.9-.6-38.5-.8-6.8-5.9-16.2-6.4-20.9-2-18-.6-68.8.9-87.9 9-119.7 64.2-269.8 204.8-275.8 24.4-1 46 4.8 68.3 13.2 1.6-9.6 12.6-18.2 20.1-24.2 82.5-66.1 213.6-47.2 301-.4 10.2 5.5 18.9 16.1 30.5 15.3m-748.9-10.4c-90.7-85.4-224.7 30.2-263.3 117.6-38.6 87.5.9 152.6 58.4 217.2 76.2 85.7 149.7 120.8 258 155.2 8.3 2.6 16.6 6.4 24.3 10.2 1.8-2.1-16.1-25.2-18.4-29.3-18.6-33.9-32.3-119.7-30.3-158.7 1.9-36.2 11.9-74.1 15-110.1 4.6-55-1.5-162.4-43.7-202.1m606.7-8.3c-15-4.4-29.8-10.7-45.9-11.3-23.7-.9-78.8 14.5-95.4 31.8-6.7 7-12.4 18.3-18.7 26.1-7.1 8.8-17.2 11.4-17.7 26.2l30.9-26.1c74.6-73.9 160.3-46.1 223.5 25.1 3.8 4.3 12.1 18.9 15 20.7 2.5 1.6 5.2-.5 7.6 0 9.9 1.9 2.7 11.7 3.8 13.6.3.5 3.2 1 4.2 2.3 17.1 21.7 32.5 51.7 44.5 77.1 30.2 63.8 38.8 99.6 40.9 170.4 2.8 92-6.5 186.5 20.3 275.2.7 2.4-1.4 5.3 2.9 4.4.9-.2 4.7-1.9 4.9-3-16.4-54.3-10-110.1-11.7-165.9-1.8-62.2-4.1-123.9-17-184.9-22-104.1-50.7-202.9-146.6-261-13-7.9-35.6-22.2-50.2-15.8l-2.7-3.3 7.5-1.9Zm112.3 33.6c-.5-.3-1.1-2.4-3.2-3.3-6.5-2.9-14-4.7-21.1-4.2l1.9-5.6c-13-3.3-26-8.6-38.3-13.7-1.1-.5-3.1-6.5-8.5-2.2 38.9 24.4 68.9 50.7 93.6 89.7 41.2 65.1 68.6 175.4 78.3 252.7 2.7 21.3 3.1 44.6 4 66.1l5.6-49.4c3.3-77.1-20.2-202.1-57.7-269.6-7.5-13.6-15.3-24.4-28.4-33.3 7.7-1.4-.8-8.6-5.6-10.3 1.4 2.4 2.5 5 3.7 7.5h-3.7l-9.4-9.3c3.7-.8 6.2.8 9.3 1.9-4.6-8.2-12.2-12.1-20.6-16.8.2.1 1.7 2.9 1.9 3.7-1.3 1-10.9-2.4-11.2-5.6 2.4.2 7.5.7 9.3 1.9Zm-67 27.8c-.3-.2 1.1-2.9-.2-4.4-16.5-18.8-54.6-36.4-79.6-38.4-38.3-3-75.4 13.8-102 40.3 13.6.4 24.3-12.4 35.7-18.5 59.1-31.6 93.7-14.4 142.6 21.7 6 4.4 13.1 17.5 21.8 13.7-4.2-3.9-8-8.3-12.1-12.2-1.7-1.6-5.2-1.3-6.2-2.1Zm-352-24c-16.8 5.6-39.3 12.5-52.4 24.3zm278.3 2.5c-4.4-1.9-29.9.7-33.9 3s-.6 4.8-1.3 5.4-15.1 1.4-20.4 3.1c-43.5 14.1-46.4 45.4-75.1 68.9-3.3 2.7-6.9 5.4-10.9 7 5.2 12.2-3.6 7.4-5.8 14.7l-2.9-5.7c-15.6 1.8-31.7-5.9-46.9-7.2-59.4-4.8-152.5 22.6-159.6 92.3-6.9 67.8 7.5 152.8 21.8 219.4 2.4 11.1 2 22.8 5.2 34.1 1.2 4.1 10.6 25.9 12.6 27.6 1.6 1.3 5.9-.4 9.1 3.1 2.3 2.5 8.1 19 11.1 24.5 19.5 35.1 42.5 58.4 65.5 89.7 21.3 29 26.7 46.6 60.5 66.7 57.7 34.3 116.3 57.2 181.8 31.6 30.1-11.8 40.4-32.1 60.7-53.4 18.8-19.7 42.1-38 56.1-61.7 45.3-76.4 42.7-147.3 48.5-231.9.8-11.5 3-44.8 6-54s5.2-2.4 5.5-4.2c.3-2.1-2-6.1-2-9.1-1.6-70-16.2-107-61.7-158.4l-34.6-32.5c-13.9 3.9-37.6 15.1-36.5-8.2l22.4-1.9c1.4-1.1-2-5.8-3.8-6.6-7.7-3.3-43.9 17.5-56.6 14.1-2-.5-1.9-3.9-3.2-4.8-4.2-2.8-17.6 5.3-22.8 7.2-2.8 1-8 .8-8.9 1.4s2 2.5-.8 5.6c-4.7 5.1-6.1 1.7-8.3 2.4-.4.1-.1 5.4-6.7 2.9-3.4-1.3-1-6.7-7.2-5.1-6.3 1.6-28 16.6-30.4 16.6-5.8 0-7.9-13.8-9.3-13.1-14.9 5.7-49 48.9-51.4 13.1 7.5 0 16.7-7 23.1-11.5 29.7-20.9 53.8-47.9 88.8-60.8 22.8-8.4 41.9-10.4 65.8-4.4l-12.7-8.8c-9.8-5.4-23.7-8.1-30.8-11.1m-179.2 21.9c-23.2-11.1-51.8-14.9-77.3-11.1-20.3 3-72.7 30.1-90 42.8-10 7.4-37.2 41.3-42.8 52.5-30 59.2-26 176.6-15.6 241.4s14.8 85.9 20 129.5c4.9 41.3 4.8 86.1 16.4 125.7.8 2.9-.3 8.4.7 9.6.3.3 5.5 1.5 7.5 2.7 11.8 7 1.2 33.5 8.1 36.8 4 1.9 5.8-12.7 7.9-14.5 11.2-22.3-4.7-44.3-10.2-65.5-18.5-71.6-21.3-149.8-29.7-223-1.7-14.8-6.7-30.3-8.2-45.7-4.4-43.1-2.8-129.5 12.7-168.6 24.5-61.5 100.4-108.9 165.9-109.2 5.8 0 11.8 2.8 16.8 2.1s5.5-6.1 10.4-5.6l-7.5 7.4c8.8-1.2 12.8 4.9 13.1 13.1 4.8 1.4 2.9-2.2 5.2-3.6 3.7-2.3 7.4-2.8 11.6-2.9l-2.8-8.4c-5.6 3.2-7.5 4.6-14 1.9l1.8-7.3Zm74.9-.1c-13.8.5-34 19.9-33.7 33.6l-11.2-1.9 3.7 15c22.3-6.6 24-33.8 41.1-46.7Zm300.5 4.4c-.4-.6-6.4-4.8-5.1.3 38.8 57.6 56.9 129.8 68.2 198.2 2.2 13.5 5.3 29.2 6.6 43.1.7 7.2-.9 15.5 0 22.4s1.4 5.8 3.7 2.8c-3.1-24.6-1.7-49.3-3.7-73.8-2-24.4-5.1-55-11.3-78.4-4.3-16.2-12.1-33.4-16.7-49.6l-1.9 3.7c-9-4.9.2-6 0-6.5-7.8-12.9-14.4-26.5-22.8-39-5.4-8.1-11.6-16.1-17-23.1Zm-184.6 6.8c-33.2 5.2-63.8 23.9-87.9 46.7l49.9-24zM760.1 249c1-6.3-6.5-43.4-10.3-44.9-2.9 9.4-11.7 1-17.7 8.4L746 221l2.7 9c-10.9 8.5-17.5-3.2-30.2-3-17.1.3-45 10.2-61.3 16.3-.4 3.4 4.1 1.7 6.1 1.4 6.8-1.1 14.3-4.3 21.3-4.9 24-2.1 51.4 8.1 75.5 9.1Zm261.8-28.1c1.8-1.9-8.3-15.3-11.2-16.8 0 7.3 2.5 15.5 11.2 16.8m-314.6-14.3c-21.7-2.2-50.4 6.5-70.1 15.8-8.4 4-17.9 13.7-28.5 15.5l1.8 3.6c-10.7-.7-12.2 6.6-17.7 11.3-7.9 6.9-19.5 14.6-23.5 24.2 16.5-16.3 34.4-31.1 56.1-40.2 18.8-7.8 52.6-19.6 72-24.2 7.6-1.8 17.3-.7 25.2-1.1-1.1-4.9-13.8-2-14.7-2.3s-.4-2.6-.7-2.6Zm264.1 1.3c-1.8-1.3-17-2-14.9 2.8 2 4.6 13.5 1.3 14.9-2.8m86 52.3-24.3-26.2c3.3 11.2 13.5 22 24.3 26.2m-498.1 40.5c3.4-5.1 6.9-13.8 8.2-19.9-3.2 1.5-19.4 25.8-14 26.2 1-3.2 4.9-4.9 5.9-6.3Zm-42.4 524.1c3.5.8 3.6-1.2 5.3-3.1 3.7-4.3 14.8-20.5 14.7-25.5-16.5-55.2-17.2-113.4-24-170.3-6.4-53.6-19.9-108.5-25.8-161.2-3.1-28-.7-75.8 1.7-104.5.2-2 1.4-7-1.8-6.5-2.2 6.5-4.6 13-5.4 19.9-7 63.3-4.6 111.6.7 174.5 3.7 44.1 20.1 85.5 27.1 130 3.8 24.3 8.4 57.8 9.4 82.1.8 21.6-3 43-1.9 64.6m602.2-89.7c4.6-58.5 5.1-117.9 3.8-176.7-.3-14-3.5-30.1-3.9-44.7-.5-22 2.3-44.6 2.1-65.6-.2-13.5-5.7-27.2-8.6-40.2l4.8 105.7c-2.8 60.4-6.2 120.9-9.5 181.3l11.3 40.1Zm-518 13.1c3.9-14-5.4-28.5-8.8-42.6-15.9-66.1-35.1-139.7-45.9-206.4-3.5-21.9-5.2-45.6-7-67.9l-3.7-17.8c1.6 25.1 1 50.5 3.9 75.5 9.3 78.6 17 157.7 30.1 235.4l14.5 50c18.5-4.4 14.5 25.6 15 37.4l9.5-21.3 7.4-4-11.3-40.2zm598.5 26.1-16.8-314.1c-3.4 48.2-8.4 96.7-5.7 145 2.4 42.2 4.9 115.7 16 154.2 1.3 4.6 2.3 12.4 6.5 14.9m-102.9-48.6c-.5-47.8-.2-95.5 5.7-142.9l-1-32.8c-.4 37.5-8.8 73.4-15.4 110-1.6 8.9.7 19.3-7.9 27.4l7.8 7zm76.7 20.6c.4-23.5-2.2-46.6-3.7-70.1-.9-14.9 0-29.4-2.1-44.6-.3-2.4-.8-10.2-3.5-10.5-.3 40.3-.3 80.1 6.8 119.8.4 2.1-.5 5.9 2.5 5.4m-521.8 44.9c1.9-17.6-15.2-34.3-20.9-51.1l-35.2-87.3c1.7 7.1 2.7 22.8 5.6 28.5 8.6 16.5 10.7 25.4 17.2 43.1 4.4 12 20.7 40.1 21.7 49.5s.2 4.4-2.7 6l-10.1-2.7c.4 9.2 3.3 17.8 5.2 26.8.6 2.8-.9 5.8-.4 8 1.2 5.3 7.3 11.6 6.5 18.5 3.2.4 1.8-4.3 1.8-6.5.3-10.1-2.3-22.1.8-31 11.6-8.9 16 19.9 18.4 26.7 1.9 5.2 4.1 13.5 8.9 16.4-1.8-9.1-2-18.3-3-27.5s1.2-4 1-4.1c-1.6-2-11.4-1.2-10.2-13.4l-4.7.2Zm424.5-74.8-3.7-18.7-5.6 14.9c6.3-2 3.9 4.7 9.3 3.7Zm-7.5 46.7-3.7-44.9-17.9 33.5c.9 28.2 1.6 55.3 10.5 82.4l-3.9-88.7c.9-6.8 6.5-4.8 10.4-1l4.7 18.7Zm-385.7 11.7c-1.6-1-8.9-.6-8.8-3.3s2.9-2 3-3.7c.4-4.1-31.3-38.4-36.7-44 2.8 19 25.3 33.8 31.6 49.8s.7 9.9 1.8 11.1c2.4 2.7 22.3 9.7 26.4 15.8 1.1-1.1-16-24.9-17.3-25.7m458.7 51.9c1.4-28.5-3.5-56.5-5.8-84.8l-3.5-14.3c-1.3 15.7 1.4 30.4 3.8 45.8-5 2.4-6-1.3-5.7 5.6.5 9.1 5.6 32.9 8 42.5.5 1.9.5 5.6 3.2 5.2m-514.3-52.4c.9-2.6-2.6-11.7-3.7-9.3-.9 2.6 2.6 11.7 3.7 9.3m535.4-4.4c-1.1-.5.5-3.9-2.4-3 4.8 19.7 10.7 43.3 19.7 61.7 1.3 2.7-.4 4.7 4.6 3.7l-8.7-57.6c-1.6-3.6-8.6-2.6-13.2-4.8m-155.8 26.9c-7 .2-8.1 8.6-12.1 13.1-6 6.8-14.7 13.4-21.5 19.6 6.3 7.2 10.2 14 19.6 17.7 1.3-18.6 9.5-33.1 14-50.5Z" class="st0"/><path d="M840.2 873.2v-1.9h20.6v1.9zM1021.9 697.7l2.9-5.6c4.4 5.9-3.8 6.6-4.5 7.7-.4.6 2.3 3.7.8 7.2-.5 1.3-6.8 7-8.5 8.5-35 30.2-71.2 58.3-116.1 72.8C827.7 810.5 757 786 705.7 738c-5.1-4.8-11.1-16.9-2.8-20.9 17.5 3.4 34.8 0 51.9-3.2 12.2-2.3 28.8-6.3 40.8-9.7 17.9-5.1 26.4-15 48.6-7.5 5 1.7 8 6 13 6.6 0-9.8 11.1-14 19.7-15 31.2-3.6 56 15.7 87.7 12.9 17.9-1.6 41.2-12.7 57.2-3.5Zm-67.3 20.6c-26-.2-46.6-16.1-73.9-13.1S867 719.1 858 729.6l-7.2-2-1.7-15.1c-16.3-8-32.1-2-46.9 5.8l-40.3 11.1c34.5 4.6 72.5 9.9 107.5 7.5 18.6-1.3 37-7.1 55.7-7.9zm3.7 18.7c-55 18.7-122.7 22.7-180 12.6-13.3-2.4-26.3-11-40.7-6.1 15.2 14.2 39.5 24.6 59.9 29.9 47.4 12.4 95.7 1.8 137.8-21.1zM1029.2 428.3c-8.4.3-6.9 5.6-10.2 9.4-26.2 30-86.4 45.3-125 41.1-7.8-.9-38.5-8.9-43.6-13.5-7.1-6.3-7.7-21.8-1.9-28.8 2-2.5 8.8-4.1 11.2-6.1 43.2-35.2 61.7-39.5 117.8-29.5 11.4 2 32.1 6.2 42.6 9.7s9.7 10.7 9.1 17.7M965.8 449c15.1-2.2 25.3-11.4 37.4-19.6 0-2.6-39.5-11.7-41.1-10.3l1.9 11.2 3.7-1.9-1.8 20.6Zm-63.6 13.1c-8.8-10.2-10.6-20.3-9.4-33.6-12.4 4.5-20.7 14.6-31.8 21.5l41.1 12.1ZM742.8 456.2c-.1.3-2.5.4-3.3 1.6-11.3 18.8-44.8 32.5-66.4 34.3-19.4 1.5-44-.3-63.1-4.4-10.6-2.3-36.8-9-42.7-17.2-8.7-12.2 1-10.7 7-13.6 39.8-19.1 74.7-40.1 120.7-31.8 8.1 1.5 33.5 9.9 40.5 13.7 1.6.8 6.2 5.1 6.7 6.5s.7 10.4.5 10.9Zm-18.3-7.1-28-11.3c5.5 8.9 7.7 19.4 7.5 29.9 3.8-4.1 24.3-12.9 20.5-18.6m-97.2-.1-11.9 4-27.4 14.7 39.2 7.5c-4-9.6-5.5-16.6 0-26.1ZM943.4 340.6l1.9-15 7.3.3.2 5.4 9.3-2.9c5.7 4.4 7.7 10.9 7.5 17.9 3.1 0 4.1 1 3.6-2.6-.9-6.5-4.6-10.9 2.9-16 8.1 4.9 6.3 13.8 11.2 20.5l.9-18.7c3.5-2.6 13 10.7 11.2 14.9 3.9-.8-.1-12.7 6.5-11.2s7.7 5.5 8 5.9c.4.6.3 12 2.4 14.6l1.9-11.2c13.5-.6 8.9 13.7 15.9 20.6l-.8-10 4.6-3.1c4.4 0 10.8 12.6 10.3 16.9 11.1-12.7 23.1 27.2 19.7 31.9l-8.4 1.6c.2-5.6-8.3-16.1-13.2-17.4-2.8-.7-5.5 1.6-9.4-.1-4.1-1.8-8.6-11.1-9.8-11.8-5.5-3.2-15.2-1.6-20.7-2.7-3.4-.6-6.4-4.6-7.9-4.6s-4 3.9-9.3 3.2c-4-.5-6.2-5.3-7.5-5.3s-3.4 3.8-7.4 3.4-5.8-4-9.7-5c-7.8-2.1-13 2.8-18.4 3.1-5.8.4-16.3-.9-22.2-2.1l-5.9 5.9-7.4-5.2-4.6 1.6-.2 7.3c-12.3-4.6-13.1 17.4-23.4 3.7l-4.6 3.7c-1-5.2-7.8-9.8-7.1-15.6s3.7-5 4.2-6.9-.6-5 0-7.3c.9-3 5.5-18.3 7.5-18.7l15.8 9.4c.7-1-.5-12.7 4.4-11 2.1 1.6 5.3 2.8 6.9 4.9 2.6 3.6 2 10 5.5 11.7l-1.6-15.6c10-10.7 12.2 11.4 15.7 17.4 4.9-6.1-3.4-16.7 3.7-22.4 6.7 3.1 9.8 9.5 10.3 16.8ZM711.5 374.2l-.2-3.4-5.1 1.3-.3-3.5c-7.8 10-13.3 2-19.5 1.7-1 0-1 4.2-4.6 5-4.8 1-7-3-10.4-3-5.6.1-8.4 10.2-17.7 0 .2 4.2-12.6 11.7-15.4 10.9-1.9-.5-3.6-3.6-5.8-3.3s-8.3 11-14.9 13.4c-5.7 2.1-8-.9-11.2-.2-4.1.9-9.4 11.9-15.3 12.1-3 0-6.7-2.9-9.8-4.2s-3.3 1.1-3.9.8c-5.8-3.8-.9-8.8-.8-10.3.3-3-1.5-5.6-.5-7.9 2.6-6.5 16.1-12.4 21.5-16 4.2-2.9 12.9-11.3 17-13 3.4-1.4 5.6.8 8 .4 5-.8 6-7.1 13.4 2l11.3-6.6 5.8 5c9-8.5 12.4-1.7 16.3-2 4.7-.3 8.4-10 15.3-2l9.3-8.5 9.4 6.5c16.4-14.2 33.7 17.6 19.7 24-2.6 1.2-6.6-5.5-11.2.8ZM795.6 626.6c3 2.2 44.5-8.1 53.4-7.6 9.5.5 10.9 4 10.2 13.2-18.3-2.4-57.6 13.9-73.5 9-11.3-3.4-3.4-16.3-2.2-22 9.4-43.2 9.7-85.9 7.3-130.1l2.1-4.6c4.8.8 10.8 5.1 11.3 10.2-3.2 44.1 5.6 89-8.5 131.9ZM868.6 190.9l5.5-1.8v5.5l-7.4 2v-9.3zM829.3 219.1c2.8-2.8 8 5.6 2.8 5.6-1.2 0-3.9-4.5-2.8-5.6M279.9 420.5c4.2 3.7 9 0 13.5.4 7 .5 26.8 9 29.5 15.5 3.7 8.5-.9 22.2.5 25.8.5 1.2 15.4 14 18.5 18.7 5.7 8.6 15.4 26.2 14.1 36.2-.5 3.7-9.4 17.5-12.3 19.6-12.7 8.9-42.8 10.2-36.2-12.9 6.7 0 10.6 6.4 17.3 5.3 1.8-.3 13.1-6.5 14-7.8 10.2-13.9-9.7-39.5-19.1-49.9-5.2 4-11 7.5-16.3 11.2-1.9 1.3-2.4 4.1-4.4 5.4-11.5 7.4-25.8 5.3-36.9-1.9-3.5-2.2-19.1-19.4-20.4-22.6-7.5-18.4 11.9-35 17.4-50.8-6.7-10.3-16.4-19.5-16.9-32.7 2.6-.6 5-2 7.9-1.6 2.4.3 24.9 7 27.6 8.1 5.1 2.1 10.2 7 10.8 12.8l-10.4 15.6 1.9 5.7Zm-6.1-25.7-13.1-1.9c-1.7 1.7 4.5 9.9 6.5 11.2l6.5-9.3Zm14.9 61.7c-8.9 1.3-16.5-8.2-18-16.2-.7-3.5 4.3-13.8.2-13.6-4.6.2-18.1 26.6-17.7 32.6.5 7.2 17 23.8 25.2 23.6s25.7-14.6 26.9-18.3c2.2-7.5-14.4-21.2-19.4-26.7-5.3-2.2-1.8 8.1-.9 9.9s6.1 1.6 3.7 8.8Zm20.2-22c-2.4-2.4-12.6-4.3-16.4-4.2 1.7 3.5 7 4.6 10.3 7.5s4.2 7 7.5 9.3c2.2-2.5.6-10.7-1.4-12.6M255.1 286.4l9.4 29.9c8.3-9.1 11.4-19.4 26.2-13.1-4.2 13.5-17.9 22.2-16.8 37.4 10.5-4.9 10.9-22.7 25.4-17.2 15.6 6-17.3 32.9-19.1 41.6-6.2.7-9.4-3.3-12.2-8.2-6.8-27.1-26-59.3-32.4-85.4-3.7-15-1.4-23.5 15.3-24.2 34.1-1.6 34.9 32.3 4.4 39.2ZM149.9 344.8c1.8 1.9 1.7 6.2 3.4 8.7 8.7 12.8 28.8 37.2 40 47.9 4.8 4.6 28.7 20.7 29.7 24.5.9 3.5-.8 6.3-4.4 6.3-5.5 0-4.7-6.8-8.4-7.5-.4 13.9-6.8 32.5-23.4 31.9-12.6-.5-28.2-25.1-14.5-33.7 7.6-4.8 16.1-5.7 24.7-6.6-8.9-4.3-65-69.8-61.7-73.8 4.1-2 11.5-.9 14.5 2.3ZM1152.8 378c-6.4-6.1-3.9-21.2-5.6-29.9zM1130.4 325.6c-1.1 2.3-4.4-7.4-5.6-9.3 5.7-.5 6.1 4.7 5.6 9.3M1142.4 246.3c1.1 1.5 4.4.6 2.9 6.4-.8 1.1-10.3-10-9.3-13.1 2.9 1 4.7 4.3 6.4 6.7M732 234c.5 3.5 0 6.5-3.7 7.5V234zM702.3 1143.1c1.7 1.2 7.3-4.9 12.9 1s5 25.4 15.8 30.9l3-5.4 5.4 1.7v-29.9c13-2.9 9.1 23.9 15.2 27.9 5.1 3.3 4.4-4.2 8.2-3.6l-.9 3.7h5.6c3.1-3-13.4-34.4 5.5-29.7l5.8 35.3c18.6-8.9 35.1-22.8 56.1-26.2 0 3.2.6 6.8-.4 9.9-2.2 7.4-45.1 20-51 31.2-4.5 21.2 12.2 79.5-27.6 66.7s-6.3-55.6 11.6-70.5c-6.1 3.7-17.5-5.8-19.4-5.5-3.8.7-6.5 10.8-16.1 8.4-11.1-2.7-15.4-15.4-21.5-23.5-4.3-.8-2.5 1.9-2.8 4.7-.4 4.3-.5 22.2-4.7 23.4-6.7 1.8-7.6-6.7-8.5-7.4s-8.1 3.3-12 3.7c-19 1.8-25.7-4.6-38.3-16.8-.3 5.3 4.3 18.1-3 20.4-8.4 2.6-6.1-10.7-6.9-14.9-.6-3.1-.5-4.3-3.2-1.8s-2.5 9.6-6.5 13.1c-11.7 10.4-27 8.8-33.9-5.8-13.2 3.3-21.7 13.3-35.6 14.8-21.5 2.4-38.2-6.7-34.3-30.5 2.8-17 52.4-36.2 65.3-17.9.5-3.3 1.7-6.4 5.6-5.6 7.3 8.9-1.3 35.2 14 35.6 21.4.6 22-34.1 30.2-35.5 11.6 4.3 16.7 24.1 27.4 28.4 4.9 2 19.3 4 21-2.1l4.7 1.7-1.9-13.1 9.2-3c-1.1-4.7-3.5-13.5-.8-17.7 4-6.3 6.1 3.1 6.9 3.6ZM533.8 1177c9.9 3 52.8 3 48.3-13.6-4.3-15.9-46.2-1.1-48.3 13.6m239.3 24.3c-8.1 5.9-22.6 20.8-22.7 30.8 0 15 22.7 15.3 22.7 5.6v-36.5Z" class="st0"/><path d="M488.9 1134c1.2 1.2 28.7-4.9 33-5.4 17.7-2 27.3-1.7 44.6 1.6 2.7.5 5.8 0 6.6 3.7-3.7.4-8.5-.9-11.9.3s-2.4 4.9-4.3 5.4c-10.4 2.6-30.2 1.8-42.4 3.9-8.5 1.5-17.2 3.9-25.6 6.4-1.7 1.2-1.6 26.9-1.3 31.7.4 4.8 6.2 19.8.4 21.6-2.8.5-4.9-.5-6.6-2.7-5.8-7.3-2.3-37.8-3.6-47.8l-8.1 1.7c-6.4-4.1-4.7-10.3-2.9-16.4 9.4 0 14.2.8 13-10.3-7.2-2-11.3-6.5-8.6-14.2 4.8 0 10.6-9.3 11.3-9.3s2.5 3.4 5.5 3.6c5.2.3 23.4-5.8 30.5-6.8 15.4-2.2 31-2.5 46.2-6.1 7.7.3 9.2 14.7 3.5 16.6-12.3.3-24.8.7-36.9 2.4s-37.4 5.8-40.5 8.1-1.6 8.5-1.8 12.2Z" class="st0"/></svg>