<svg xmlns="http://www.w3.org/2000/svg" id="Calque_1" viewBox="0 0 1300 1300"><defs><style>.st0{fill:#313a94}</style></defs><path d="M667.4 67.7c.6.3 11.1-2.9 14.3-3.1 44.2-2.5 85.6 19.1 114.2 51.4 3 3.4 5.8 10.6 9.7 12.6 5.1 2.5 11 .8 15.5 1.9 15.5 3.8 30.2 10.5 43.1 19.8 5.1 3.7 12.3 13.1 17.4 15.1 2.1.8 3.4-.5 2.5-2.5s-13.2-17.3-15.4-20.1c-14.8-18.1-31.1-30-49.9-42.8-7.5-5.1-27.5-20.5-34.7-21.6s-13.3 2.1-17.8-2.7c-.8-4.1 3-2.3 5.7-2.8 16.7-3.2 20.3 3.7 33.1 8.4 8.9 3.2 19.2 3.2 28.1 6 20.9 6.7 26.5 22.6 39.8 37.1 14.5 15.9 28.5 24.9 41.6 43.8 11.7 17 23.3 35.8 34.4 53.1 39.2 60.7 67.6 151.4 75.2 223.4 17.1 162.5 30.7 328.4 53.2 490 5.1 36.6 17.3 71.8 32.3 105.2-3.7.9-3.8-2.1-5.5-3.9-63.4-68.4-53.3-146.9-61.2-232.7-4.6-50.3-9.7-99.9-13.7-150.3-2.4-29.8-9.6-59.2-11.9-88.9-1.4-18 .3-36.6-1.8-54.6-3.3-28.8-12.6-57.2-14.5-86.3-3 0 2.5 39.9 2.6 43.5 2.3 59.2-9.3 117.3-12 176-2 43.9-4.2 87.6-10.5 131.3-6.9 48.1-29.1 130.2-17.4 176.7 4.5 17.7 19.5 36.8 26.1 54.1-1.7 1.8-2.2 3.7-4.2.8-2.2-3.2-13.2-28.7-18-23.9 4.1 21.9 6 45.1-1.9 66.5h-5c3.1-23.1 2.8-46.7-.8-69.9-12.6-3-27.7-24.6-36.8-28.2-2.6-1-5.2 1.2-8.4.1-9.5-3-19.9-8.8-29.1-12.9.7 20.5-1.4 42 0 62.4 1.4 20.9 7.7 41.4 8.6 62.3-.4.6-2-1-2.6-1.7-3.6-4.6-10-40.8-11-48.8-3.3-25-3.1-51.1-3.8-76.4-12.8-13.5-29.7-24.2-41.6-38.7-16.8-20.6-30.6-48.1-29.8-75.2l6.8 3.4-.9-10.3c-5.3.4-5.8 6.7-8.3 9.6-25.9 30.3-64.2 70-95 93.8-7 5.4-21.8 9.1-31.1 11.6-30.7 8.1-69.7 16.5-101.2 11.2-7.3-1.2-30-6.7-35.6-10.1-13.3-8.1-28.9-33.8-38.9-46.9-9.1-11.9-18.1-25.2-26.8-36.3-1.1-1.4 0-3.2-3.9-2.2-1.2 14.4-1.8 29.2-3.5 43.5s-.8 3.1-.7 8.5c0 4.8-20.5 30.7-25.6 35.2-5.5 4.8-25.9 15.8-28.4 19.9-4.8 7.8-10.8 42.8-14.8 54.8-5 15.2-13.2 34.4-23 47-1.6 2.1-4.7 4.6-6.6 2.8-1.8-1.7 19.4-33.3 20.1-38.8 4.6-17.1 12.9-37.2 15.7-54.4.7-4.4-.7-1.9-2.4-.7-3.4 2.3-7.8 5.3-11 7.8s-14.9 17.6-15.5 7.6l30.8-28.1c7.6-28.3 9.9-57.9 11.5-87l-3.1-19.8-3.4 32.4-4.6-2.5 4.7-51.4-5.2-17c11.3-1.4 5.5-17.8 6.9-26.5 3.4-.5 2.8-.3 3.9 2.1 4 9.3-.4 23.6 0 32.9.3 9.6 5.1 20.8 6.3 31 3.6 30.7-2.2 66.1-8.3 96.3 19.7-10.6 30.4-31.3 47.4-44.7l5.6-58.6c-13.4-16.4-25-34-37.6-50.8-12-16-30.1-35.4-39.6-53.1-1.7-3.1-9.4-25.1-10.8-25.1-2.5 16.5-5 33-8.8 49.3-5.3 22.7-18.1 51.2-20.9 73-7.5 56.6-6.8 150.8-40.4 198.8-.9 1.3-6.5 8.7-8.4 5.2-1.1-2.1 11.7-26.9 12.9-31.6 15.6-51.7 23.2-110.4 27.3-164.1 1.2-16-3.2-36.5-3-52.9.2-18.2 3.7-36.3 3.1-54.7-2.4-84.7-7.8-190 23.5-270.2 3.1-8 8.9-15.8 11.9-24.1 6.9-19.4 7.3-43.4 14-62.7 6.6-18.9 23.8-36.6 28.7-55 .4-1.7 1.7-6-1.3-5.6-.2 2.5-1.3 4.7-2.7 6.7-24.2 35.1-44.2 68.4-64.1 106.4-6.7 12.9-9.2 25.8-10.2 41.4-5.1 76.2-9.6 151.9-18.5 227.5-6.9 58.2-15.8 116.1-21.1 174-5.6 62.6-20.3 123.5-25.3 184.5-.5 6.6 2.6 17.4-3.4 21.3l-1.4-22.8c1.2-19 4.7-37.9 6.5-56.6 1.6-16.3.9-37.5 3.5-52.9.3-2 1-4 3.3-4.3l3.4 10.2c.8-16.4 3.8-32.8 4.8-49.1 3.5-56.7 10-102.7 17.2-158.7 10.4-80.1 14.7-160.4 22.4-240.7 4.1-42.6 3.8-66 16.2-108.4 19.2-65.4 48.9-126.5 104.3-169.1 23.3-17.9 105.1-44.6 133.3-41 5.5.7 8.1 3.8 12.4 4.7 7.8 1.6 22.8 1.5 27.8 6.4s4.8 7.3-1.8 7c-14-.7-25.7-7.8-36.9-9.3-15.1-2.1-51.9 7.4-68.1 11.9-45.9 12.8-74.4 35.6-105.1 70.8l-15.4 24.8c25.8-21.9 55.9-42.1 87.2-55.5 23.2-10 43.1-16.7 69-14.3 4.7.4 41.8 6.3 35.2 15.2-17.9-4.5-41.6-11.7-60.2-8.1-40.4 7.9-125.9 54.5-147.3 90.2-8 13.4-22.1 54-25.9 69.8-.4 1.8-2.6 8.6.9 8.6 2.1-8.4 6.3-17 10.6-24.5 12.2-21.1 53.4-85.9 71.6-97.6 4.6-2.9 4.6-2.8 8.4 1.6l-22.2 19.7c1.8 3.3 7.4.5 6.3 7.3s-9.7 22.2-12.2 26.9c-6.3 12.2-17.9 26.2-22.3 39.2-6.1 17.8-6.2 40.9-12.3 59.5-9.1 27.7-21.2 47.9-27.3 78.6-14 70.2-10.6 145.3-9 216.4l-1.8 77.8 18.4-59.3c11.8-46.4 2.2-93 5.5-139.7 1.2-16.8 5.4-34.5 6.9-51.2 2.6-29.9.4-58.9 5.3-88.7 4.9-29.5 19.3-83.2 32-109.8 1.7-3.6 8.3-17.7 11.4-17.7 1.1 0 7.8 3 7.7 5.1-3.4.4-5.7 2.5-7.5 5.3-11 16.4-33 93.9-36.6 115.4-4.3 25.7-2 51.2-3.7 76.7s-7.3 49.1-8.5 73.2c-1.4 27.2 2.2 54.4 0 81.3 11.9-3.4 8.7 4.8 11.6 11.5 7.6 17.4 17.6 28.5 28.4 43.3 30.7 42 63.4 84.6 94.9 125.9 13.9 18.2 20.8 35.8 43.3 45.1 26.2 10.9 48.9 8 76.4 6.5l-1.7-5.1c11.3 1 22.4-5.5 23.9-17.1l6.7 2.8-1.6 7.5c6 .7 11.4-.9 17-2.6 38.3-11.5 57.1-35 82.9-62.3 39.8-42 105.2-112.9 115-170.4 8.1-47.6 3.7-95.3 5.5-143.2.6-15.9 5-34.2 5.3-49.4s-4.5-19-5.3-29-.3-26.2 0-37.7c1-40.9 10-58.3-9.9-97.6-12-23.7-27-38.1-53.2-45.1v-5c37.5 2.6 58 39.5 69.5 71.3 7 19.2 14.1 44.4 8.9 64.5-.6 2.4 0 5.3-3.4 6v-14.5l-3.4-19.7c.3 30.9 3.1 62.2 2.4 93.1-.7 33.3-2 65.8-2.4 99.1-.1 13.5-4.2 31.5-3.6 44.4.3 5.9 3.5 10.5 3.6 15.3 0 12.3-2 36.8-3.8 49.2-7.2 46.7-40.3 83.7-68.9 119.1-1.2 19.5 5.8 37.7 9.5 56.4l-5-4.4-8.7-31.4c.6 42.7 33.9 76.4 66.6 99.1.4-7.1-.5-14.3 0-21.3 7-100.1 29.6-196.7 39.3-295.6 1.4-14.6-.2-28.4 0-42.6.6-87.7 6.7-169.9-15.8-255.8-1.6-6-4-13.4-6.6-19.1-3.9-8.4-44.7-65.5-50.4-69.2-6.5-4.2-17.9-4.4-19.4-13.9 4.9-.3 10.5.8 14.9 2.9 17.8 8.8 21.8 23.6 32.2 37.9 10.3 14.1 20.1 23.9 28.4 39.9 1 2 3 5.6 3 .5-3.7-23.8-19.4-38.4-30.8-57.7-7.9-13.3-13.2-33.4-27.8-42.6s-16.2-8.2-23.4-4.8c3.7 13.5 2 29.7-2.2 43.1-2.6 8.1-4.4 17.5-14.9 15 0-4.1 3.7-5.4 5.2-9.3 22.4-55.3-9.5-117.2-58.8-144.8-26.4-14.7-55.1-18.8-84.9-13.4l15.3 9.5c8.8 6.8 13.2 13.4 8.6 24.6-9.1-1.2 0-8.3-7.6-15.4S659.4 78.2 657.7 78c-3-.4-13.9 1.9-17.5 2.9-17.4 4.6-33.1 15-49.9 21-.2-4-1-3.6 2.1-5.6 12.8-8 32.7-16.5 47.4-20.1 0-3.1.9-3.6-2.5-3.4-48.1 3.4-91.9 21.1-134 43.7-3.1 1.6-8.4 4.7-10.4 7.5 31.2-3.3 61.7-2.8 92.6 2.2 4.9.8 12.2 4.4 15.9 4.4 5.1 0 18.4-4.4 25.6-4.9 32-2.3 61.4 2.1 86.9 22.5l19 21.9c-13.1-3.9-19-17.5-30.7-24-24.3-13.6-54.7-15.9-82.1-13.6-2.1.2-9.1.6-9.4 3.4 20.5.5 38.3 23.9 55.1 29.5 6.3 2.1 13.1 1.6 20 3.9 20.8 6.9 67 26.2 68.4 51.2.6 10.3-7.3 14-10.3 6.8-1.2-3.1 3.1-2.2 3.4-3.7 2.1-8.5-5.4-17.2-11.1-22.8l-1.7 5.1c-4.4-6.8-7.2-10.5-14.3-14.8-31.4-19-73.8-21.7-109.6-24.5l25.5 14.6c8.1 10.5 42.1 25.8 39.6 40.6l-7 2.8c0-2-.3-4.7-1.3-6.4-2.8-4.6-26.2-21.6-32.3-25.8-72.3-49.7-157.1-5.8-218.4 42.5-21.5 16.9-38.9 37.7-56 55.8-1 1.1-4.6 1-6.4 2.2-1.1-1.1 10.4-16 12-17.9 27.1-33 84.7-79.8 124.8-95.6 9.6-3.8 22.3-7 32.4-9.4l-.8-3.4c-4.5 2.9-10 2.5-14.9 3.9-23.6 6.9-64.8 25.9-84.2 40.5-109.9 82.7-117 195.4-132.7 321.8-2 16.5-7.2 33.5-8.3 49.8-4.2 59.5 5 130.8 6.9 191.2 2.1 66.4-13.3 120.9-22.1 184.8-4.6 33.1-4.5 67.8-8.7 100.7s.5 5.6-2.7 7.6c-4 2-4.4-9.5-4.4-11.1.4-23.8 5-49.7 7-73.5.6-7.6-.9-28.9.3-34.1s4.3-1.8 4.9-3.9c4.2-15.4 4.6-38.8 7.3-55.5 8.2-51 11.7-84 9.8-135.6-1-25.8-5.3-51.6-3.4-77.6-2.7.3-3.2 7.3-3.4 9.4-6.9 83.8-16.4 166.5-30.6 249.5 5.4 26.1-4.4 57.5-7.4 85.1-1.7 15.7-.9 31.6-3.1 47.2-3.1-.6-3.2-3.4-3.5-5.9-3.4-30 6.5-63.1 6.9-93.2l-2.5 3.4c-5-2 1.6-21.2 2.3-26.7 13.2-99.2 31.1-200.4 34.5-300.3 1.5-45.1-4-92.4 0-136.7 3.4-37.8 17.3-80.1 29-116.2 19.5-60 53.4-151 107.8-187.8 7.2-4.9 14.1-3.9 20.3-7.1 32.5-16.6 64.5-32.9 98.8-46.4 17.4-6.8 35.4-11.8 53.4-16.7-26.1-5.8-54.5-6.1-81-2.4-5.5.8-16.3 2.7-21.6 4-19.3 4.7-56.6 37.8-75.7 49.9-4.3 2.7-12.5 2.2-13.1 9.2l-3.4-5.1 64.9-47-20.3 5.3c-63.8 47.7-108.2 114.7-153 178.4-13.1 18.6-17.2 45.4-21.5 67.5-16.2 83.2-31.5 178.3-34.2 262.9-1.2 39.2 2 78.8.1 118-4.5 94.3-16.4 187.9-23.9 281.9-.2 3 .5 5.5-2.6 7.6-4.9-4.1-4.6-10.4-4.4-16.3 1-24.2 4.8-48.9 7.3-73 11.1-104.3 11.9-209.6 15-314.8 2.7-92.9 20-195.1 38-286.6 11.7-59.4 44.4-128.4 88.4-171.1 44.9-43.5 132.3-96.7 191-118.2 29.1-10.7 109.4-37.8 135.4-19.9 1.3.9 1.6 3.7 2 3.9ZM647.1 65l-.5 2.9 13.4 2.5.5-2.9zm-68.8 11.5c-45.6 10.7-89.7 29.8-128.1 56.3 26.4-3.5 47.8-22.5 71.1-33.9zm277.6 36.8c-9.3-10.3-17.2-21-33.2-18.9 4.5 5.7 12.9 8.9 17.9 12.8 37.1 29 62.1 71.8 87.4 110.6 7.6 11.7 14.6 17 21.4 31.7 19 40.8 34.3 85.9 49.6 128.1 9.8 27.2 10.8 57.1 15.3 85.5.4 2.8.6 10.3 3.1 11.4.3-29.5-4.9-58.2-11.4-86.8-11.4-50.6-28.9-112.5-57.9-155.6-13.9-20.7-26.9-42.8-41-63.2-12.8-18.5-35.3-37.8-51.3-55.5Zm-209.2 46.9c-15.4-8-37.7-23.4-55.5-23.6-16.6-.2-45.8 13.5-62.4 18.5-.4 2.9 4.1 1.8 5.9 1.7 20.7-1.7 38 1.6 58.1 1.6s30.3 2.2 46.2 3.5c1.9.1 7.9 1.4 7.6-1.7Zm307.6 758.4c-.2-25.5 1.7-52.1 5.4-77.5 8.1-56.8 18-104.5 21-162.7 2.5-48.9 6.7-94.8 11.3-143.3 7.4-77.9 2.3-136.1-21.4-211-11.2-35.5-53.2-117.3-78.8-143.3-6.9-7-29.9-24.7-38.4-29.9-12.1-7.4-28.4-12.3-42.6-11.2l10.3 37.6c17.7-1.8 36.1 9.5 44.7 24.4 4.4 7.6 6.1 16.2 10.3 23.9 5.6 10.5 15.6 19.5 21.6 29.7 15.7 26.5 15.1 59.9 23 89.7 4.2 15.8 12.6 32.3 14.7 48.5 3.4 26.7-1.7 53.3.2 80 1.3 18.2 7.4 37.9 8.6 56.3 2.5 39.4-1 89.8-1.9 129.8-1.6 78.6-10.6 179.5 8.6 254.7.7 2.8-1.7 5 3.4 4.2ZM369.9 189.2l-18 13.6c-32.3 30.7-60.3 67.6-72.6 111.1l45.4-69.9 45.1-54.8Zm558.7 254.5v-46.9l-5.1-19.7c2.6 20.2 2.6 40.3 3.4 60.7 0 2.1-1.3 6.4 1.7 6ZM279.3 556.5l17.1-128.1-8.7 29.7c-6.5 26.2-13.8 66.9-11.1 93.3.2 2.3-.7 4.4 2.7 5.1m678.4 413.4c1.3-18.3-8.3-33.9-13.2-50.9-14-48.7-10.3-84.2-10.6-132.8-.5-82.9 1.5-166.3 3.3-249.5l-10.3-75.9c1.4 18.5-1.5 37.3-1.6 55.5-.1 28.7 3.5 58.1 1.5 87.1-6.1 90.5-29.3 183-37.6 275.1-1.5 17.1-2.4 34.2-3.4 51.3 1.2 5.8 21.2 9.3 26.5 14.5l-4.3-8.6c5.3-4.4 42.6 30.4 49.5 34.1Zm78.6-348.5c-5.1-26-4.6-52.7-9-78.9-.3-1.8-.4-6.8-2.9-6.4 2.4 27.1 2.9 54.5 8.6 81.1.6 2.9-1.9 5.1 3.4 4.3Zm49.5 379.2c-6-20.7-11.9-41.2-15.1-62.6-8.9-59.5-13.5-119.3-19-179.1-3.1-33.1-12.6-65.5-12-99.1l-3.4-21.4 3.4 77.7c12.2 59.3 10.6 119.7 15.3 179.5 2.7 35 12.9 67.7 27 99.5.9 2.1.9 5.1 3.9 5.5Z" class="st0"/><path d="M757.7 722.2c.3 3 .2 5.6-.9 8.5-2.2 5.7-16.8 26-21.3 31.6-23.6 29-55.1 42.5-91.8 48.3-60.3 9.4-114.9-33-132-89.1l6.9-4.4c.2 3.2 2 5 4.5 6.6 11.2 7.3 46 16.1 59.6 17.3 14.4 1.2 29.8-5.4 41 2.9l12.7-7.2c7 1.3 14.5 5 21.6 4.5 22-1.4 47.4-3.1 69.8-7.2 13-2.4 17.9-10.5 30.1-11.8Zm-27.3 23.9c-5.5.3-10.1 4.9-15 6.3-11.9 3.4-74.4 10.4-86.6 9.1-7.5-.8-15.3-4.9-22.7-6.4-12.2-2.4-24.5-2.1-36.7-4.4s-25.3-7.9-37.2-11.5c-2.2 2.8 7.3 11.7 9.6 13.4 42.6 31.5 78.5 41 130.9 28.9 21-4.9 42.1-21 57.7-35.4M214.3 1070.6h-5.1c-.2-8.2.3-16.6 0-24.8-1.5-64 9.4-134.5 12-199.7 1.8-44.8-.5-90.7 1.6-135.1s9.1-73.9 13.5-109.5c8.3-67.1 17.1-181.8 48.4-240.3 3.6-6.7 12.9-26.3 20.2-15.7-2.1 2-4 3.9-5.4 6.5-42.6 75.4-53.5 227.7-63.1 316.2-10.1 93.3-9.2 189.7-15.2 283.8-2.5 39.6-2.5 79.4-6.9 118.7ZM761.2 498.4c1.6 6.8-4.6 6.3-6.8 10.2 10.7 1.5 17.7-1.1 26.4-6.8 5.8 4.1-1 5.6-.8 10.2 9.9 4.4 14.5-3.8 23.9-3.4l-8.5 9.4c9.1 11.6 20.8-4.3 24.8-4.2 2.1 0 3.2 4.1 1.7 6.8-1.8 3.3-8.3 4.2-9.4 8.5 11.4-.3 12.7 10.4 23.2 11.9l-1 6.9c6.1 0 11.2 3.8 15.9 7.2 2 1.4 13.1 8.3 9.7 11.6-15-1.9-23.2-17.6-36.8-21.7l-19.6 11.5c2.4 3.7 6 6.5.8 10.2-4.2 1.9-3.2-7.1-2.6-8.5-11.2 6.6-26.8 3.4-38 6.9-1.9.6-.7 4.7-5.5 3.3-.6-.2-.8-3.4-1.9-3.6-3-.4-7.1 2.6-11.7 1.9-3.3-.6-4.6-3.7-7.4-4.7-5.2-1.9-11.1-2.1-15.8-5.6-8.3 22.6-6.9-.8-7.6-1.7-2.5-3.4-20.3-6.1-27.1-15.8s-2.1-9-.4-11.4c2.3-3.4 11.1-4.7 13.5-6.8 4.7-4.2-2-1.6 9.1-6.6 2.9-1.3 15.6-9.2 17.6-7.2v5.1c13.4.2 22.1-10.6 34.2-13.7Zm-10.3 20.5-6.8 1.7v3.4c3.2.4 5 .1 6.8-2.6zm27.4 0h-8.5v3.4l8.5 1.7zm-44.5 1.7c-6.3-1.8-40.7 10.4-39.3 16.2 4.8 3.1 36.6 17.1 39.3 14.5-5.5-11.2-3.5-19.5 0-30.7m23.9 5.1-10.2 8.5c3.7 2 12.2-6.5 10.2-8.5m30.8 13.7v-10.2h-1.7l-1.7 10.2zm25.6 0c-7.8.4-12.4-5.5-18.8-8.6 1 7.9-1.1 13.9-5.1 20.5 2.3 1.8 18.6-6 21.7-8.1s3.2.3 2.2-3.8m-44.4-5.1c-4 3-11.7-2-13.6 3.4l13.7 1.7v-5.1ZM478.7 487c.5.3 5.1 8.2 9.1 4.6s-7.8-11.6-.8-10.3 10.1 11.7 19.6 10.3c.4-4-3.7-7.4.9-10.2 1.8 2.7 5.1 3.7 7.2 5.7s.1 3.5.8 4.1 12.7 2.5 13.4 2.1l-1.7-7.7c8.9-4.5 5.7 7.5 7.1 9.2s14 4 18.1 6.6c3 1.9 14.1 14 15.6 16.9 7.8 14.6-11.4 24.8-23.2 27.6-3.9.9-8.2-.4-11.2.3-2.1.5-2 6-5.5 5.2h-1.7c-1.9-5.8-15.2-6.3-20.2-5.1s-1.4 3.3-2 3.4c-6.5 1.8-2.9-3.5-5.3-5.3s-7.9.5-11.3-.1-11.2-3.6-14.2-4.8c-6.5-2.6-13.7-8.7-18.8-10.2-4.5-1.3.8 10-6.7 6.7-5.5-2.4-.3-10.2-1.7-13.6s-9.5-8.4-11.9-12.1c-6.3-9.8 1.7-14.2 6.7-5l9.4-3.4c-.1-5.4-8.7-5.8-6.8-13.6 11.2-.2 20.5 16.1 30.7 3.4-5.9-1.5-14.7-4.4-13.7-12 .7-.8 16.3 6.3 18.3 7.4Zm5.6 14.8c-2.8-2-27.3 6.3-32.1 8.1-1.6.6-5.1-.3-3.8 3 1.8 4.4 20.6 11.9 24.8 16.2l3.4-5.1 4.3 3.4c-2.5-9.4-3.5-17.9 3.4-25.6m13.7 0c-5.3-.8-7.6 1.6-6.8 6.8 1.7-1.2 7.4-6.5 6.8-6.8m27.4 0-8.5.8 1.9 4.1c5.3 1.4 4.9-.9 6.7-4.9Zm23.3 7.5c-2.8-1.7-6.7-2-9.6-4.1 4.1 11.1 7.8 21.4-1.7 30.7 8.6-.5 17.7-4.7 23.6-11.1.1-1.9-10-14.2-12.2-15.6Zm-31.9 2.8-17-5.1-1.6 12.5 8.4 4.5v-8.5l10.3 1.7v-5.1Z" class="st0"/><path d="M412.6 479.6c-3.6-4.9 20.6-12.4 23.6-13.1 38.8-10 92.6-13.8 128.9 5.1 5.6 2.9 23 13.2 11 18.1-5.2-1.7-9.3-5.9-14.2-8.1-12.9-5.7-61.5-11.8-76.5-10.3-18.9 1.9-41.5 10.7-59.6 11.3-3.6.1-9.2-2.7-13.2-3M846.1 478.4c2 1.3 11.5 14.1 9 16.6-11.1 2.6-9-2.7-13.7-5.9-33.9-23.6-95.1-20.1-133.7-12.5-9.1 1.8-26 14.5-27 .6.2-1.1 9.2-5.3 11.2-6.2 33.6-14.1 90-16.3 124.3-4.6 4.9 1.7 27 10.1 29.9 12M351 990.4c-4.6 4.9-3.4-11-3.3-12.9.7-20.2 5.3-46 8.7-66.3 8.5-49.9 24.6-98.8 25.4-149.7 3.2-.5 8.9.4 9.5 4.2s-3.8 29.3-4.9 35.5c-5.9 35.2-17.3 69.4-23.8 104.5-5.1 27.9-7.4 56.6-11.6 84.7M552.7 635.1c1.5 13.1-14.3 34.7-25.2 40.6-12.1 6.6-17.5 10.6-28.6 17.5-3.1 1.9-21.4 11.6-23.1 10.2-1-4.4 1.3-3 3.2-4.4 7-5.2 20.1-15.5 26.9-19.2 20.8-11.3 23.9-10.4 37.9-32.1.8-1.2 5.8-16.5 8.8-12.5ZM714.6 642.4c1.8 2.2 4.3 8.5 7.3 12.3 5.3 6.5 14.6 17 21.7 21 8 4.5 7.9 3.5 16 9.6 5.1 3.9 12.2 8.4 16.8 12.3 2 1.7 4.2 2.6 3.5 5.8-4 3.9-29.1-20.8-32.5-23-6.1-4-12.1-4.5-18.7-10.3-3.2-2.8-18.4-20-19.6-23.1-2.5-6.4 2.6-8.1 5.5-4.6M873.9 515.5v5.1c-12.5-.3-21.3 9.9-32.4 13.7-1.1 8.6 18 6 18.8 6.8v5c-9.4 6.3-30.1-6.3-23.6-16.7 1.5-2.4 34.7-16.6 37.3-13.9ZM568.7 685.7c6.4 6.1 18.5 5.9 26.8 5.7v5.1c-11.6 3-39.8-5.3-36.8-20.5.6-2.8 8.2-20.4 10.3-20.5 7.6-.3-5.4 19.6-5.4 21.3s3.9 7.7 5.1 8.8ZM651.8 698.3c-1.2 6.5-12.1 14.8-18.1 15.3-5.2.5-29.3-8.3-29.7-12.8s4.5-.9 5.6-.6c10.9 3.3 16 10.3 29.5 5 5-2 6.5-7.8 12.7-7ZM756.1 763.2c-4-7.3 12.3-38 17.9-37.5s3.5 3.5 1.8 5.2L756 763.2ZM429.6 512l-3.3.9 3.4 3.4-17.1 7.7c-1.4-8.3 8.5-8.6 11.9-13.6-4.3.5-15.8-13.1-13.7-15.4l17 12.9 1.7 4.1ZM467.2 713.6l5.1 34.2c-3.7.6-4.2-1.5-5-4.4-2.5-8.6-1-20.1-5.2-28.9zM429.7 539.4c-4.8-1-19.4 9.6-22.2 6.8-4.4-4.4 13.5-11.4 16.5-13.4l5.7 6.5ZM702.7 677.4c-.8 1.3-15.2 13.4-16.7 6.3-1.1-5.1 19.7-8.8 12-19.6 6.1-1.3 6.4 10.4 4.7 13.3M822.7 563.3c-1.3 1-6-.1-6.7-2.7-1.4-15 11.6-1 6.7 2.7M573.8 1198.9c17.8 15.7 15.7 38.2-5.9 49.2-21.5 10.9-46 5.2-68-.9.8-7.2-2.1-14.2-2-21 .3-16.6 9.1-39.6 8.8-54.8-.1-6.5-5.9-12-3.6-19.6 15.9 5.1 23.1-10.4 39.9-3.1 16.4 7.1 20 26.9 8 39.9.1 2.8 14.7 3.7 18.3 5.6 2.7 1.4 2.9 3.5 4.4 4.9Zm-56.7-35c.2 24.8-12.8 48.6-6.4 73.3 16 7.5 75.3 6 62.6-23.3-6-13.9-28.9-13.6-41.8-12.5s-13.7 7.3-16.1-1.4c-2.8-9.9 14.4-10.4 20.9-14.4 7.1-4.3 16.6-14.7 9.7-22.9-8.7-10.4-19.3-3-28.8 1.2ZM714.9 1146.7l-2.7 10.2-43 1.9-3.7 25.4c7.6 1 43.9-7.9 47.1-3.5s.6 6.5-1.7 8.8c-7.3 7.2-37.6 4.4-48.4 8.8l-5.5 32.1c16.8-4.2 34.5 1.8 51.8.3 4.2 1.2 5.9 6.3 3.9 10h-66.4c-2.2-1.5-2.8-5.1-2.7-7.6.8-20 13.2-50.4 15.1-72.2.5-5.4-4-10.8.9-16l3.4-1.7c15.1 7.7 35.4-3 52 3.6ZM786.8 1211.5c8.5-18.8 9.3-40.3 16.6-59.4 1.9-4.9 3.6-12.5 10-7.3 6 4.8-3.7 19.9-5.3 25.8-3.4 12.6-8.9 29.9-11.4 41.7-.9 4.4.5 8.2-.4 11.3-2 7-8.2 12.8-13.8 5.1l-33.4-61.4c-3 11.6-8.3 23.3-10.1 35.2-1.3 8.2 0 27.5-2.1 33.7s-8.9 3.3-10.9-.6c-2.8-5.7 1.7-10.9 2.4-16.4 1.1-7.9.9-17.4 2.3-25 3.3-18.6 15.1-34.6 9.9-54.1 14.3-5.2 17.4 20.8 22.3 31.2 1.6 3.3 21.6 42 23.7 40.4ZM944.9 1192.7c-.8.1-4.1 1.8-4.3 2.9l1.8 29.6 46.8-2.9 5.4 2.9.6 8.3-55.4 3.8c-5 .2-6.8-3.5-7.5-7.9-3.6-24.2.6-46.2 1.7-69.9.2-5.5-3.3-10.5 0-15.2s9.2.8 16.1.8c7.4 0 34-6.3 37.9-3.1 5.3 4.3 3.3 10.2-2.8 12.5l-42.8 2.4v23.9l29.5-3.2c7.3 2.3 7.5 15.2.4 15.2s-20.2-1.2-27.3 0ZM440.6 1150.9c5.4 5.2 9.7 26.3 13.3 35.4 5.9 14.8 12.5 29.8 18.8 44.4 1.3 2.9 4.9 5.2 5.6 7.9 1.5 6.2-5.8 12.5-10.3 7s-8.5-32.5-16.6-36.3c-11.1-5.1-31.5 2.9-43.3-2.5-3.4.5-14.7 31.6-18.7 35.4-4.3 4.1-8.7-.1-9-4.5-.2-2.6 15.9-32.1 18.8-36.9 10.7-18.2 24.7-34.8 33.1-54 5.5-1.7 5.7 1.8 8.2 4.2Zm6.2 45.2-11.1-32.4-21.4 34.1zM871.2 1192.1c4.9 6.1 12.1 12.7 17.7 18.9 1 1.2 0 3.3 3.9 2.2-.8-11.4 4-22.1 5.1-33.3s-2.5-29 4.3-29.5c1.6.7 4.3 1.6 5.2 3 5.8 9.5-5.5 49.6-6 62.4s4.2 20.3-1.7 24c-7.9 4.9-8.2-8.7-10.2-12.1-7.3-12.5-23.6-25.8-32.6-37.5-3.7-4.9-7.6-12.3-10.3-17.9l-10.4 63.1c-.6.5-7.1.5-8.2-.1-6.1-3.7 5.6-39.2 6.4-46.9 1.2-11.2-1.5-24.1-.7-34s3.3-7.1 7.7-5.1c4.5 2.1 23.7 35.5 29.7 43ZM325.4 1197.8c5.9-1.3 28.4-4.6 31.8-1.9s4 8.8-2.3 9.9c-9.8 1.8-21-.8-31.1 2.3l-1.2 33.8-4.8 7.1-3.4-3.5.8-100.7 84.3 1.6c10.9 17.6-19.1 8.7-27.1 8.6-3.3 0-6.6 1.8-10.2 1.8-12.1 0-24.3-1.6-36.8-.1v41ZM611.2 1234.9c-6.8-7 4.2-49.9 4.8-62 .3-6.1-3.9-12.1-.2-17.1 3.2-4.3 9.5-1.2 10.4 3.6 1.5 7.7-.7 30.3-1.8 39.2-.8 6.3-4.7 13.7-5.1 20.7-.3 6.4 5.8 21.9-8.1 15.7ZM627.9 1136.3l-3.4 13.6c-15.2-1.2-11.1-19.6 3.4-13.6" class="st0"/></svg>