<svg xmlns="http://www.w3.org/2000/svg" id="Calque_1" viewBox="0 0 1300 1300"><defs><style>.st0{fill:#313a94}</style></defs><path d="M695.8 141.6c1.3 1.4 21.8-9.6 29.9 9.1 3.4 7.9.8 18.2 13.7 10.8l27.4-30.6c22-16.9 41.5-17.4 63.9-1.4 6.3 4.5 21.6 21.2 26.7 22.8 20.9 6.5 40-6.7 61.1 15s7.4 37.2 9.5 59.1c2.6 27.4 25.3 43.1 28.4 64.8 2.1 14.3-5.1 40.8-5.6 57-.2 5.5-.6 10.9.8 16.2 5.1 19 52.9 23.1 60.8 54.8 8.8 35.4-28.5 64.3-24.2 87.4 3 16 40.2 43.2 49.1 65.1 12.3 30 .5 39.3-3.7 64.5-.8 4.8 1.3 8.8.4 13.9-1.8 10.9-18.7 39.7-18.6 44.3s8 16.2 9.2 23c2.3 12.9-.4 22.8-1.4 35.5 28.7 22.5 49.9 44 36.8 83.1-6.1 18.2-28.1 45.8-27.7 63.8.4 17.6 27.5 40.2 33.9 61.4 6.7 22.1-1.8 44.6-1.4 67 4.3-2.6 6.6 1.8 9.4 4.8l-6.6 6.2c-22.4-10.7-6.7-45-6.7-63.3 0-36.2-44.4-53.1-36.6-91.8 7.7-38.3 51.8-66.2 17.5-104.1-6.9-7.6-14.6-11.3-21.8-18.1l-12.4 19.9c4.3 11 14.1 20.3 18.6 30.9 8.6 20.4 3.8 42-3.8 62-1.8 4.8-7.5 10.5-8.2 14.5s5.5 13.7 6.3 18.7c4.8 30-17.7 51.7-14.8 77.6 2 17.9 26.8 11.4 24.8 20.9-1.4 6.6-19.7 0-23.3-2.8s-3.3-6.8-7.1-7.7l-3.8 34.2c-18.8-3.4-5.4-30.8-4-43 .7-6.3.8-16-.2-22.2-.9-5-5.3-16.5-9.1-20.4 1.8 16.6-10.7 36 1.9 49.5-22.8-.4-12.4-29.2-11.4-42.8.2-2.1 1.4-7.1-1.9-6.6-2.2 27-17.4 52.5-11.4 79.9-10.5 1.5-10.9-14.2-10.6-21.7.9-28.4 16.4-56.7 14.4-83.9-1.1-15.6-15-23-20.9-37.1l-8 32.9c-5.6 14.4-33 54.5-33 65.1s31.2 15.4 31.5 22.8c.2 6.1-18.8-.4-21.4-1.4-42.9-15.4-1.9-62.4 9.5-86.7 7.8-16.6 14.2-38.6 8.3-56.6-2.4-7.4-22.7-32.2-28.9-39.6-1.7-2-1.9-4-5.4-3.1 4.8 20.9-10 40.6-16.6 59.9 23.9 21.1 31.6 43 20 73.8-3.2 8.5-10.7 16.6-13.8 24.2-1.2 2.9-8.1 28-7.9 29.5 1 8.5 25.8.9 22 14.8-1.6 5.6-11.4 4.3-15.5 5.6-4.4 1.4-7.3 7.2-12.9 4.3-9-4.6-.4-13.5-.4-16.9 0-3.2-3.6-7.9-4.4-11.7-2.9-15.4 10.9-29.5 10.3-45.5-.6-16.8-12.6-32.3-14.6-48.3-2.3-17.9 7-26.8-4.9-42.7l-3.2-18.7c-6.1 11.2-12.7 23.7-11.5 37.1s14.3 23.9 16.7 36.6c3.9 20.7-16.2 51.5-18.4 75.9-1.2 12.8 4.2 26.3-2.1 38.7-14.8-8.2-4.2-29.2-9.1-42.8-1.2-22.6 12.2-40.2 17.3-60.3 6.7-26.4-10.8-29.5-14.9-50.9-5.6-29 20.8-47.9 25-75.3-4.3-9.1-14.7-17.5-17.3-27.5-7-27 20.1-44.9 16.2-65.6-1.5-7.8-15.8-11.8-20.9-18.1-.6 12.9-2.1 26-4.1 38.7-1.6 10.5-6.4 25.2-6.8 35-.4 8.5 2.6 18 1.3 27.9-2.3 17.6-17.2 37.6-18.8 57.3-2.1 25.1 18.1 47.5 20.7 74.4 4.4 46.2-32.8 89.9-24.3 132.8.9 4.5 5.5 8.4 3.6 14.4-8.6-4.9-12.3-16.3-13.3-25.7-4.8-47.5 29-81.4 24.8-129.4-2.5-28.9-31-57.7-17.2-90.3-6.3 6.4-10.8 15.4-17.1 21.9-44.7 45.9-112.3 63.5-175.8 57.8-84.3-7.6-102.9-37.7-151.6-97.7-10-12.3-21.3-23.2-29.5-37.1-.2 15.7-8.4 26.4-14.3 39.9 14.3 4.7 26.1 18.9 22.4 34.8-1.1 4.9-7.2 8.3-6.9 11.5.3 3.9 8.9 16.7 10.3 24.1 3.8 20.5-6.3 49.9-11.5 70.5-3.8 15.1-14.6 39.6-12.3 54.1 2.3 14.1 19.5 17.2 26.6 24.8 1.7 1.8 11.9 17.2 11.4 19.1-3 10.7-16.1-6.5-18.6-8.4-12.6-9.7-18.8-13.1-28.7-26-1.3-1.7-1.9-4.4-2.2-6.5l-9.3 15.8c2.2 8.6 24.6 12.5 13.9 24.2-18.9-4.3-27-21.7-18.3-39.5s13-10.8 11.6-16.3c-3.4-4-25.5-22.7-28.3-20.3 5.8 19.9-10.1 35.7-8.6 56.2.6 8.3 7.8 14.3 6.7 22.7-7 4.6-11.8-11.5-13.4-17.2-12.7-45.5 2.3-80.3-3.6-123.7-.8-5.7-6.5-13.1-8.7-19.9-8.1-25 6.5-52.5 6.9-77 .3-13.8-10.2-25.2-7.4-43.4.4-2.6 3.5-5.3 3.5-7.9s-11.8-11.8-14.4-16.4.9-4.3.5-5.2-3.1-.4-3.9-2.7c-11.8-36.5 17.6-83.3 11.1-121.4-3.1-18.1-17.4-26.9-14.2-48.3.7-5.1 7.1-9.9.8-14.3-11.1 21.3-29.3 40.6-35.4 63.8.2 10.5 20 20.3 25.8 27.6 26.4 33.1-33.6 86.6-13.2 117.8 4.8 7.3 15.6 14.9 20.3 23.5 5.4 9.8 6.3 21.3 4.8 32.3-1.4 10.5-9.3 21.7-10.6 29.5-1 6.1 2.1 11.7 1.6 18.5-.4 6-5 11.4-5.1 13.4-.2 3.8 12.7 14.7 15.8 19.7 13.6 21.9 1.9 33.8 2.5 54.5.2 6.4 6.1 21.2 5.8 22.8-1 5.4-5.8.4-7.3-2.1-14.3-23.9 2.8-47.6-3.2-65.3-1.9-5.5-15.7-16.3-19.2-22.7l-15.8 11.5c-2.1 17.1 22.8 15.6 26 29.6 6.2 27.1-24.7 31.9-26.2 47.3-1 10.4 17.9 19.5 21.4 28 1 2.5 3.5 15.2 3.3 17.6s-4.6 8.8-6.7 4.8c1-19.1-14.1-24.2-22.8-38.1-13.5 15.3 4.8 26.2 4.8 40.9 0 4-2.7 4.2-5.4 2.4-1.9-1.2-8.9-16.7-9.4-20-2.6-15.5 4.4-28.7 3.3-39.3-.6-6.2-7.4-9.6-7.7-17.3-.6-13.9 11-27.7 11.5-36.2.3-4.5-2.9-7.8-3.2-11.5-.3-3.2 1.8-6.8 1.3-11-1.2-9.8-17.5-19.3-20-29.7-3.3 1.5-24.2 31.4-26.5 36.3-11.5 24.8 5.5 27.4 11.2 47.4 5.5 19.5-3.5 33-4.7 50.4-.6 8.4 1.5 13.9 1.8 20.9s1.3 5.5-2.8 4.7c-18.2-19.5 3.4-52.3.6-69-2.2-13.4-19.5-28-18.8-46.1 1-28.2 36-45.9 35.2-76.2-.4-13.8-4.9-13.7-9.4-23.8-10-22.5-3.1-38.9 6.3-59.7-34.5-27.5-25.9-54.9 6.1-79.2-18.7-5.7-30.4-15.4-28.1-36.6 1.4-12.2 12.9-27.6 12.3-38.3-.6-11-11.5-20.5-10.8-38.3 1.3-33.9 13.3-61.4 33.8-87.6-4.6-3.8-4.9-8.2-7.2-12.9-2.7-5.5-3.3-10.3-5.2-14s-6.9-6.4-8.8-12.3c-11.6-36.9 33.5-55.3 49.3-81.3-6.8-15-12.4-31.1-7.8-47.8 1.8-6.6 9.1-11 10.2-14.6 3.2-10.8-2.5-24.9 12.3-33.5l79.4-34.6c3.3-3.7 1.5-12.3 2.7-18.2 3.8-18.2 51.3-52.9 68.9-54.4 3-.3 15.2-.4 18.3-.2 10.5.7 31.4 13.2 38.3 12.4 4.2-.5 6.6-5.1 10.2-6.6 15.4-6.4 28.5-5.8 44.3-6.2-8.3-27.9 7.6-60.1 32.9-72.6 19.5-9.6 53.1-8 69.9 6.9 8.1 7.2 16.7 31.7 17.8 42.7.6 5.8-.8 11.5-.7 17.3Zm-25.3-48.9c-8.9-9.1-42.2-4.2-51.8 3.3-8.2 6.4.3 6.4-1 15.2-7.5-4.1-22.3 7.5-25.2 13.8-4.7 10.3-3.7 29.6 7.5 35.2 12.1 6 22-2.9 33.9-4.2s15.1 3.4 22.8 2.9c7.1-.5 22-8.5 24.8-15.3 3.8-9.3-4.4-44.1-11-50.9m169.9 56.5c-.6-8.4-9.7-9.5-15.1-12.5-2.4-1.3-3.9-4.6-5.9-5.5-19.9-9-42.1 6.8-55.8 19.8-1.6 1.5-1.7 1.3-1.2 4 9.5-1.7 13.9 4.1 18.1 11.5 18.9-10.4 37.5-19.3 59.9-17.2Zm-120.3 6.2c-2.7-4-22.6-1-28.2-4.2-4.8 5.7 14 12.5 18.2 13.1 4 .6 8.2 0 12.2.2-1.9-2.5-1.2-7.5-2.3-9.1ZM860.8 167c-7.8-8.6-27.1-6.9-37.5-4.4.2 3.2 5.3 1.7 8.7 3.6 43.6 24.3-5.2 72.6 8.3 102.1 10.1 22.1 35.7 14.8 49.6 34.1 11.4 15.9 11.8 49.8 24.9 62.7 1.8 1.8 5.1 1.8 6.9 3.6 4.7 4.6 8.6 10.6 13.9 14.6.8-7.5-4.5-13-5.5-20.1-4.8-34.2 30.8-48.9 1.7-83.5-15.7-18.6-39.9-25.1-52.2-43-3.3-4.8-9.7-17.7-10.8-23.4-2.6-12.8.5-37.1-7.9-46.3Zm-351.6 5.1c-14.7-7.3-23.6-11.3-40.7-9.3-16.7 2-64.3 31.6-67.4 48.9-.7 4.1 1.5 6.9 1.1 10.4-1.4 14.3-17.5 16.7-27.2 24.2l.9-4.8-3.8-.9c0 11-18.7 11.4-27.7 15.2-7.8 3.3-31.5 14-35.1 20.5-1.3 2.3-2.2 4.5-2 7.2l3.8.9c1-7.9 35.9-20.1 40.7-18.8 4.5 1.3 5.7 10.9 5 15-9.1-.5-45.4 12.6-47.3 20.4 3.1 19.9 2.2 43.7-3.5 63-7.6 25.6-33.4 44.1-40.2 70.2 5.8 10 14.4 18.1 13 31l19.9-22.9c10.2-9.3 32.3-18.4 29.1-34.7-1.4-7-9.5-19.4-10.9-27.4-1.9-32.3 50.2-49.2 56.5-80.1 3.1-14.9-4.4-32.8 7.2-46.1 24.2-27.5 61.4-19 90.7-27.3 27.9-7.8 14.6-30.8 29.9-48.1 2.6-3 6.8-3.5 7.7-6.5Zm49.5-9.5c-7.8 2.2-19.7.4-24.7 7.6l28.5 9.5c-4.7-5.3-4.2-10.4-3.8-17.1m215.1 7.6c-13.9-2.4-25.6 8-39 7.8-22.2-.3-24.9-6-41.4-12-11.7-4.3-7.3 1.1-13.7 6.2-4.3 3.4-11.1 4.4-14.1 8.7-3.4 4.9-7.3 27.3-8.8 27.3-13.3-6.6-10.4-13.3-4.8-24.7-15.9 2.2-27.9 5.2-43.8 0 3.7 4.3 9.8 14.4 1 17.1-3.4-2.6-3.8-7.6-6.6-10.5-3.3-3.4-22.5-20.1-25.6-21.9-3.7-2.1-6.5-2.2-10.6-1.8 5.2 13.7 10.4 29.2 7.6 43.7h18.9v13.2c-10.1.3-21 .6-31 2.3-43 7.1-92 45.5-131 64.5s-17.6 13.7-19.9 15.8c-8.9 8.2-15.8 21.3-27.3 26l6.7 15.3h6.5c2.4 7.3 3.2 17.4 1.6 25.1-1.1 5.6-7.4 9.4-6.2 14.7 9.2-5.8 9.6-15.4 14.6-23.4 12.3-19.8 42.1-49 64-55.9 25.9-8.2 53.9-9.2 79.2-19.3 3-34.5 15.4-59.3 54.2-57.1-.8 3.9 6.3 13.4 2.1 16-4.4 2.7-23.1 4-30 6.2-20.5 6.8-14 46.9-21.9 51.3-20.9 2.8-40.4 10.8-60.4 16.7-6.2 1.8-14.8 2-21.2 4-18.4 5.8-58.9 38.8-63.3 58.2-2.6 11.4-3 16.2-10.7 27.2-5.2 7.4-13.1 4.2-7.8 15.4 4.4 9.2 15.2 15 20.1 27.5 8.2 21.2-.5 33.8 3.3 50 1.6 6.9 11.6 13.9 14.4 19.8 14.1 29.5-15.1 45.9-27 67.3-10.7 19.2 14.3 21.8 23.7 33.1 22.7 27.4-3.4 50.9-16.7 74.5 3.2 14 6.1 28.1 10.9 41.7 12.1 34.2 77.2 111 107.9 131.9 22.5 15.3 79.2 22.2 106.3 21.2 56.8-2 124-25.3 154.1-76.2 5.4-9.2 25.1-50.8 23.1-58.9-2.2-8.7-11.5-20-11.9-31-.8-22.4 18.6-35.6 21.4-52.7 3.6-21.6-11.3-32.8-14-52.8-2.6-19.7 8.2-27.9 13.7-44.3 2.7-8 2.6-28.7.5-36.6-1.7-6.3-13.8-15.9-17.1-22.9-1.4-3-5.3-16.4-5.3-19.4 0-14.1 15.8-23.4 19.5-33.9 7.3-21.2-9.4-19.1-16.9-28.5-2.6-3.3-6.5-18.7-6.4-23.2.2-6.8 6.1-12.4 5.5-16.7s-4.1-9-5-14.3c-.5-3.2 1.7-6 .7-10-2.3-8.7-12.3-15.1-21.1-15.4s-16.1.5-16.9.7c-2.9.7-4.6 5.8-7.6 5.1-6.1-1.3-5.4-11.4-1.8-15.3 8.1.2 22.6-11.4 28.3-11.5 6.8 0 15.6 13.7 23.8 15.4 0-9.8 12.1-23.7-3.2-28.1-16.5-4.8-29.1 7.5-49.4 0-33.1-12.2-33.1-30.9-45.5-57.2-12.4-26.4-36.3-18-56.9-6.1-18.7-15.8 9.9-20.4 21.9-24.6l-2.9-11.3c2.5-6 20-12.2 23.9-16.2s.8-7.4 2.3-10.1c3.5-6.3 36.2-17.5 44.3-17.7 8.6-.2 18.4 3.2 26.5 6l12.5-15.3Zm142.2 4.3c-8.4-10.5-36.6-10.7-48.9-10 11.1 14.8 6.8 33.3 10 50 3.8 19.9 28.1 30.2 42.3 41.4 8 6.2 14.9 13.7 21.9 20.9-2.7-11-15.2-22.1-18.5-31.9-6-17.4-.9-63-6.8-70.3Zm-79.4 102.2c-5.9-9.8-8.3-18-7.7-29.5 1.9-38 42.9-81.9-32.3-69.4l-1.2 7.7c-7.1 2-12.7 2.4-19.7-.1l-1.8 7.3c9.1 4.6 19.7 17.6 23.6 26.9 5.1 12.2 5 34.1 10.4 42.8 5 8 19.9 11.9 28.6 14.2Zm-279.8-85.6c-14.2-5.2-38.5-12.9-52-3.5-6.1 4.3-5.9 18.7-8.3 25.9-13.6 39.8-45.8 26.4-76.8 33.5-13.7 3.1-27.5 11.2-39.4 18.6-.4 18.1 2.5 40-7.3 56.6-10.9 18.4-30.2 27.2-42.8 41-16.1 17.7 2.5 22.7 5.4 40.5 5.3 33.7-35.4 40.9-48.6 66.2 60.3 42.1 10.5 94.9-19.6 137 11.4 15.8 19.5 24.4 14.8 45.2-1.3 5.9-7.3 13.9-6.4 20.4 1.4 10.8 17.7 16.1 19.4 30.4s-13.7 28.8-13.6 35.3c0 5.1 8 12.7 11.7 16.2 2.1-7.6.2-15.5 1.4-23.3 2.9-18.4 31.9-62 19.4-77.4-5.6-6.9-17.7-11.2-23.4-20.4-6.2-10.1-7.4-19.9-2.9-30.9 12.9-31.9 47.2-61.4 40.6-100-1.3-7.6-9.4-13-10.9-19.5-5.8-25.6 25.7-40.2 35.5-58.9 3.2-6 3.8-13.6 7.9-20.2 1.9-2.9 10-8.6 11.1-12.3 2-6.7-5.5-27.6-5.5-37.6 0-21.2 13.6-37.5 28.6-51.4 8.5-7.8 18.6-12 27.2-18 36.3-25.2 74.2-51.3 116.4-66.8l18.2-26.4Zm199.9 1.9c-17.2-2.9-35.1 0-49.4 10.4 15.2 6.7 16.4 15.7 22.5 29.1 1.3 2.9.5 6.5 1 7.6s9.8 10.1 10.9 10.8c17.9 10.7 33.4 9.7 48.3 29.8 3.1 4.1 6.2 14.2 9.7 17 3.2 2.6 7.1 1.6 10.5 4.7 6.1 5.5 4.8 19.4 7.4 21.2l30.6 6.5c1.1-12.1 6.5-21.4-5.9-29.3-16.6-10.6-42.5-12.5-55.1-26.8-7.9-8.9-10.4-20.8-9.6-32.5s9.2-26.8 4-30.5c-7.9-5.5-42.8.9-48.6 12.4-4.2-4.2-10.6-7.9-8.2-14.8l32-15.5Zm-188.4 19-1.9-11.4-11.4 10.5zM737 256.5c-17.9-14.9-11.3-22.2-20.5-35.7-8.5-12.5-35.5 1.3-35.6 5.5 0 1.7 9.5 7.7-2.3 6.7.3 3.2 5.1 1.6 8.7 3.7 20.1 11.8 22.3 32 30.5 49.4 5.3 11.2 26.1 22.5 37.8 23.2 4.3.2 22.3-2.6 26.2-4s3.3-7.4 9.1-5.7c2.4-2.3-11.6-18.9-14.3-20.9-12.4-9.3-27.5-11.9-39.7-22.1Zm69.2 16.4c-8.9-10.8-8.9-22.1-12-34.7-.5-1.9-.6-5.7-3.2-5.3-3.7 19.9-10.3 34.5 15.2 39.9Zm79.9 81.8c9.7-28-9.9-49.3-34.2-59 1.5 6.1 6 9.9 7.1 16.6 1.2 7.3-.8 14.5 1.4 21.4l25.7 20.9Zm-582.4-19 2.1-16.2-3.9-14.3-5.9 16.2 7.7 14.2Zm515.1 31.2c2.3 1.7 2 8 6.3 2.2-5.9-8.9-.6-23-9.4-29.5l-5.9 21.6c.2 1.1 6.9 4.2 9 5.7m-426-4.2c-.4-.7-3.5-1-4.2-2.4-2.5-4.6-3.1-10.2-6.9-14.2-2.2-2.3-2.2-3.8-4.7-.9-7.2 8.2.2 28.2 1 38l12.3-11.5c1.5-2.2 4.2-6.4 2.6-9.1Zm485.1-3.5c-2.1-2.5-18.1-11.8-20.3-10.1l14.3 34.2.9-17.1h7.6c.3-2.7-.9-5-2.5-7m21.5-10.2c-6.7-1.5-2.8 11.2-5.7 15.2h11.4c-2.5-5-6.7-9.1-5.7-15.2m-53.5 4.1c-18.9-4.9-17.5 10.6-10.1 22.5 1.4 2.3 16.1 17.3 18 15.3-1.5-5.1 4-12.1 3.4-15.8-.7-4.6-11.4-14.9-11.2-21.9ZM1013 549.5c-4.6-5.1-12-9.7-17.3-16-36.2-44-5-58.5 7.4-98.9 10.3-33.4-33.1-33.6-49.4-53.2-7-8.4-11.1-17.7-11.4-28.5-3.5 2.7-3.1 6.4-2.8 10.2.3 2.8 6.9 27.7 8 30.2 2.7 6.2 14.6 14.8 18.9 22.9 19.8 36.9-5.2 55.3-8.8 86.8-1.2 10.2 6.4 25.1 12.2 33.5 14.6 21 44.8 45.6 57.2 66.5 1.7 2.9 2.1 5.4 1.8 8.7 1.6 2 2.4 1.5 3.2-1.9 6.3-25.2-2.7-41.8-19.1-60.3ZM810.6 377.4l-5.5 11.1 2.8 1.4 5.5-11.1zm82.4.4c-6.4 2.1-2.9 27.3.3 33.4 2.2 4.2 25.8 25.8 27.9 25.3 7-14.2 13.6-52-6.5-58.1-4-1.2-18.1-1.8-21.7-.6m-45.2 21-14.9-11.7-1.9 131.3 18.7-26c-14.4-30.6-12.8-62.2-1.9-93.6m-468.5 14.4c1.2-2.8.2-6.3 1.4-9.1 1.9-4.3 8.2-9.4 5.8-13.2-9 4.7-7 12.5-10 18.5-5 9.9-14.4 18.2-15.7 29 5 1 3.3-1.1 4.7-3.8 3.7-7.5 12.7-18.9 13.8-21.4m442.1-9-.9-9.5c-4.3 2.9-1.9 5.5-.9 9.5h1.9ZM914 441c-5.5-5.6-17.3-10.6-22.2-18.7l-13.3-25.7c-4 13.1-6.7 25.4 1 38 2.1 3.4 28.4 30 30.5 30.5 4.5 1.1 11.8-16.2 4-24Zm-656-12.1 13.3-30.4c-7.4 5.4-17.6 15.6-16.7 25.2.1 1.4 1.1 5.8 3.4 5.3Zm563.4-22.8c-11.4-2.5-14.5 7.2-17.2 16.3l14.3 12.2 2.8-28.5Zm129.4 76.1c10.7-25.8 25.1-56.3-3.8-76.1l-11.6 39zm-56.2 168.6c-34.6-44.3 7.5-70.8 20.5-110.1 3.6-10.9-3.5-11.1-7.6-19.9-7.4-16.3-2.5-30-.8-46.6-11.1-12.5-24.1-20.8-33.3-35.4-3.1-4.9-3.8-12.1-8.3-15.5.8 6.5-4.4 15.8-3.5 21.5.8 5.4 11.2 15.6 12.6 21.7 1 4.7-.2 9.7.8 14.4 1.4 6.7 7.8 14.8 8.9 23.4 3.5 26.3-7.3 42.1-14.5 65.1-1.8 5.8-7.9 25.3-7.9 29.9 0 24.4 38.4 43.2 31.3 81-3.5 18.3-14.6 22.2-9.6 43.7.9 3.6 13.2 42.7 15.2 41.8 5.5-11.1 22.8-27.6 26.6-38.1 1.9-5.4.6-11.3 1.9-17.2s6.5-15.2 6.3-17.7c-1.1-13.2-30.4-31.5-38.7-42Zm-493.9-79.2c3-12.1 23.3-27 22.7-39s-10.3-15.5-12.9-21.2c-13.6-30.3 7.3-44.3-19.6-71.7-1.7-1.7-1.7-4.1-5.4-3.2 3.8 21.9 1.3 45.2 3.8 67.5 2.3 19.9 6.1 38.1 8.2 58.4.2 2 .4 9.3 3.2 9.1Zm447.3-135v29.5c0 3.4 5.7 13.4 5.7 18.1 1.9-.6 6.9-9.8 6.9-10.5.2-2.2-4.9-8.9-6-12.4-1.9-6.6-2.4-12.6-3.9-19s0-6.1-2.9-5.7Zm-470.1 1.9c-4.2-.9-4.3 2.1-5.8 4.7-7.6 13.3-3.1 16.7-4 30.3-.3 4.9-2.9 14.2-3.9 18.8-.9 4.1-8.2 9.4-5.3 16.6l21-12.7c-2-19.4-3.7-38.3-2-57.7m-22.8 3.8-12.7 10.1c-2.3 8.9-19.8 20-17.5 28.5s6.7 8.1 8.7 14.3c1.8 5.7 2.9 11.5 2.5 17.5 2.5-1 4.8-3.7 6.7-5.7 9.7-10.8 3.7-11.7 4.7-23.8 1.1-13.6 12.8-26.7 7.6-40.9m580 21.4c-1.2-1.1-6-3.1-7-2.4l-7.7 14.2c7 11.7 12.2 25.1 11.5 39 2.7.3 3.1-4.5 3.8-6.6 4-11.8 9.7-34.2-.5-44.2Zm-575.5 9.8-4.2 11.6 3.1 1.1 4.2-11.6zM266.4 561c9.5-8.9 37.8-20.9 38.8-32.5s-15.2-17.4-19.3-23.7c-4.9-7.5-7.5-17.5-6.9-26.4l-27 40.5c-4.2 20.3-12.5 43.8-1.5 63.2l9.5-14.7c2.7-1.6 4.4-4.5 6.4-6.4m41.1-50.2c-.4-11.3-11.6-17.9-19-24.7 1.6 9.4 11.7 18.8 19 24.7m614.8-9.6c.2-4.5-1.3-12.8-5.7-15.2-.7 4.9.7 12.8 5.7 15.2m-102.8 18.1c-.8-10.3.6-21.1 0-31.4-14.5 11.7-13.7 24.9 1 36.1 3.1-1.5-.9-4.3-1-4.7m51.4 16.2c4.6-16.9 8.2-31.2-.9-47.5l-8.6 16zm40-34.2c1.5 8.1.6 15.7 8.6 20.9 9.3-4.3-5.2-23.4-8.6-20.9m-59.1 98.9c2-31.7 21.7-59.9 2.9-91.3-15.6 20.2-23.7 38.4-19.2 64.7zm143.6-21.7c-17.5-21.1-39.5-42.5-46.5-69.6l-7.8 25.7c.4 4.4 17.6 10.4 22.4 14.9s10.8 15.5 11.6 19.7c6 29.2-22.3 42.6-10.5 73.2 2.3 5.9 23 24 28.9 28.2 1.6 1.1 1.9 2.6 4.8 1.9 3.8-14.8 27.4-37.8 26.8-52.3-.6-14.1-21.2-31.4-29.8-41.7Zm-644.1-67.7c-8.7 9.3-26.2 25.7-14.3 38 12.4-9.3 10-24.7 14.3-38M391.2 701c3.7-7.8 6.2-10.7 5.9-20-.9-29-7.8-60.6-9.6-89.4-1.6-25.5 1.1-48.2-3.9-74.1-.4-2.2-.8-3.4-2.8-4.8-4.5 3.9-20.3 11.3-21.7 16.5-1.1 4.3 10 14.2 12.8 19 8.7 15 8.1 32.2.7 47.6-1.6 3.3-4.9 5.4-6.5 8.7-4.4 9.3-8.3 19.2-12.5 28.6 14.9 19 20.4 46.6 33.4 65.4 1.1 1.7-.3 3.5 4.2 2.5m-30.4-106.5c8.1-20.3 17.8-39.5-7.6-51.4-4.3 14.1-14.3 13.5-1.6 27.3zm570.8-43.9-2.8 20.7 3 .4 2.8-20.7zm23 59.1c2.8-11.2 14.7-24.9 13-36.6-1.6-11.4-14.8-18.2-24.4-22.4l-5.4 38.6zm-692.8-9.5c4.6-15.3 20.7-26.4 24.8-41.8-9.5 8.1-20.1 14.3-27.4 24.9-3.9 1.8-2.6 22 2.7 17Zm677.6 83.7c9.7-17.5-6.2-24.5-12.3-40-7.9-20-7.7-35.9-.9-56.2l-7.7-27.5c-7.4 28.1-43.7 52.5-21 82.8 10 13.3 25.6 21.8 37.6 38.4 1.1 1.5-.4 3.7 4.2 2.5Zm-592-76.1c-1-4.7 4.1-8.2 4.8-11.2 1.7-6.9-10.8-22.2-16.2-26.8-4.8 13.6 1.9 28.4 11.4 38m489.2-20.9-3.8.9 1.9 35.2c9.5-10.2 8.9-24.6 1.8-36.1Zm-11.4 62.8v-37.1l-3.8-12.4c-4 10.9-8.2 22.2-4.5 33.9l8.2 15.5Zm123.7 15.2c9.7-21.1 6.2-51-14.2-64.7-10.6 21.8-2.1 48.3 14.2 64.7m-698-13.7c-3.7-5.5 1.1-30.4.4-37.7-4.2 13.9-16.5 31.5 0 41.8l2.8-3.7c-.9 0-2.9.2-3.3-.4Zm625.7 40.3c3.8-11.5 11.5-22 7.1-34.6l-26.1-43.4c-7 26.4 4.3 56.3 19 78m-605.3-26.6c-.5-8.3 7.5-14.9 6.6-23.1s-9.5-19-15.2-24.4c-11.5 15.2-10.3 39.2 8.5 47.5Zm133.3 11.4c2.9 1.7 11.4-11.9 13-14.6 6.6-11.6 12.2-20.3 1.3-31-1.4-1.4-17.2-12.4-18.1-11.4l3.8 57.1Zm462.5 34.2c8.7-6.5-13.9-49.1-16.6-58.6-1.9-6.5-2.4-12.8-3.4-19.4-10.8 14.9-12.2 30.1-10.1 48.2 12 9.2 21 17.8 30.1 29.8M352.2 649l-2.5 1.8 11.8 16.8 2.5-1.8zm632.9 274.6 14.7-35.2c-9.4-10.1-21.2-18.1-27.7-30.7-16-30.9 5.3-55.7 22.2-79.9-5.2-12.3-11.1-21.8-11.2-35.8 0-8.2 3.5-13.6 3.6-19 .2-6.3-2.3-12.5-1.4-20.8.9-7.8 4.6-13.8 7.1-20.9l-30.2-25.9c1.7 7.4-6.1 15.6-5.7 21.7.3 4.2 8.3 17.9 10.4 24 6.5 19.4 6.4 40.7 1.6 60.4-1 4.3-5.1 9.7-5.4 13.5-.3 2.8 3.4 11.4 3.7 17.1 1.1 22.3-13.1 38.6-20.9 58.3l28.5 43zM349.3 659.2c-4.9-.5-3 0-3.8 2.8-3.7 12.5-12 54.5-11.5 66.7.4 10.8 12.3 18.1 16.3 27.6 9.3-18.3 20.2-36.7 18.2-58.2s-16.1-24.6-19.1-38.9Zm-88.7 81.1c1.2.9 3.7 3 5.1 1.8 10.4-19.1 23.6-39.1 4.7-58.1-3.6 4.3-26 22.2-27.1 25.6-4.3 12.4 8.7 23.9 17.3 30.7m695.9 23.5c8.3-24.8 11.5-56.3-5.7-78 0 5.7-5.8 10.3-7.2 14.7-.8 2.6-6.4 32-6.3 33.7.2 5.1 16.4 31.7 19.2 29.5Zm-574-53.9c-1.2-2.8-1.7-8.5-4.6-8.9 1.9 16.1-2.3 29-7.6 43.8 10.4-2.9 5.2-6.7 6.9-12.9 1.7-6.3 8.2-13.4 8-20.5s-2.4-.8-2.7-1.5m433.2 36.8 5.7-43.8-13.3 27.7c-.6 5.5 2.1 13.7 7.6 16Zm199.8-3.8c1.7-13.5 6.8-29.8-5.7-40l-11.2 27.2c1.9 3 13.5 16 16.9 12.8M416 750.5l-14.3-41.8c-7.7 7.2-2.1 18.8-5.6 28.6zm475.8 41.9c-1.6-6.3 2.5-13.9 1.6-19.5-.6-3.4-4.3-7.8-5.7-11.6-4.4-12.3-8-25-12.1-37.4-11.8 13.5-6.7 27.7 0 41.9 4 8.5 10.8 18.8 16.2 26.6m117.7-41.6-16.8-11.7c-.3 10.6-1.1 22.1 6.7 30.4l9-11.9 1.2-6.8Zm-75.8-7.9-4.6 2c-4.8 11.7-18.1 21.7-22.5 32.8-2.7 6.8 1.5 12.7.4 19.2-.6 3.6-3.8 6.9-3.7 9.7.1 5.7 22.7 31.2 27.5 37.1.8-6.1-1.4-11.6-1-18 1.3-17.9 15.1-37.1 22.1-53.3l-18.3-29.5Zm-61.9 29.7c-4.2-8.5-11.4-17.4-10.4-27.8-4.7 4.5-12.4 19.9-12.9 26.1-.8 9.7 9.1 16.3 13.3 23.9 7.6 14 4.7 23.2-.4 37.5 3.8-6.5 24.2-22.2 24.8-27.6.4-3.5-2.2-8.3-3.5-11.7-2.8-7.1-8-14.7-10.8-20.4ZM277 746.7c-3.6-1.3-5.4 2.2-4.9 4.8.7 4.1 8.5 15 9.8 21.7 5.5 27-8.5 33.2-12.1 52.9-1.1 6 2.7 12.8 2.5 16.5-.1 4.4-3.2 8.7-2.6 13 1.3 8.1 18.8 24.4 21.5 33.7l15.5-14.2c-3.5-6.1 1.7-13.8.5-18.7s-15.3-12.6-16.9-27c-2-18.3 11.5-35.4 10.5-45-1.5-14.5-23.2-22.7-23.8-37.8Zm106.6 49.5c-6.2-14.9 3.7-23.1 9.4-35.2l-8.4-12c-7.4 8.4-25.5 11.4-25.8 23.5-.4 16.6 13.1 16.6 24.8 23.8Zm30-33.8c-2.1-2.2-9.8-3.7-12.8-6.2 0 5.8-1.4 14.4-4 19.4-1 2-6.6 4.6-6.8 8.2-.2 2.7 13.2 19.4 15 11.8 3.1-8.1 16.3-25.3 8.6-33.3Zm-144.2-.5c-4.8-3.6-15.6 24.4-16 28.3-1.1 10.8 4.6 16 8.5 25l3.9-1.1c7.8-19.4 16.6-32.2 3.7-52.2Zm38.1 19.1c.7 23.2-24 44 2.8 62.7 10-18.5 23.6-51.2-2.8-62.7m631.9 49.4 15.5-29.2 3.5-12.7-13.6 23.4-5.4 18.4Zm67.5-35.1c-2-2.3-2.7-5.6-6.5-4.8-2.1 9-12.3 15.8-16.9 24.1-3.1 5.6-9.4 22.4-8.9 28.3.9 11.5 23.6 27.2 30.5 37 9.3-20.3 21.5-37.8 15.2-60.9-2-7.3-8.4-18-13.4-23.7M395 813.4 360.8 800c-1.3 15.9 9.9 29.5 9.5 45.7 3.2-6 28.6-27.1 24.7-32.2Zm11.5 9.4c-7.2 13.8-1.4 21.2 12.1 26.3l10.8-8.3c.9-3.7-17.2-19.1-22.8-18Zm479.6 5.7c-9.9 8.9-28.7 21.3-18.1 36.1zm-534.8 62.8c14.6-15.6 10.4-41.2 9.5-60.9-3.8.7-3.1 4-3.8 6.7-4.4 17.4-5.9 36.3-5.7 54.2m45.6-53.3c-7.9 1.2-13.9 6.7-19 12.4 8.6 11.1 17.5 14.1 28.5 3.8zm-21.1 34c1-1.1 0-11.2-3.6-11.2l-1.9 13.3zm599.7 70.7c1.7-19.3-2.5-38.5-12.5-55l-19.8-24.9c4.1 24.6 27 33.7 30.3 60.1.8 6.6-3.2 16.4 2 19.8m-569 30.4c3.5-.6 3.2-3.9 4-6.4 5.4-15.9 17.7-60.9 18.7-76.4.8-12-.8-20.6-12.4-25.8l-12.3 5.9c1.7 7.7 9.3 7 10.9 16.6 3.2 18-5.1 28.8-18.1 39.5 7.1 13.6 7.1 31.5 9 46.7Zm1.3-81.2c-1.7-2-12.6-9.8-15.2-10.6-11.3-3.6-31.4 7.5-26.2 22.2l23.9 13.8c6.3-4.4 24.3-17.6 17.5-25.4m479.6 3.9c-2.2-2.1-11.8-10.2-14.6-8.2-11.5 22.6 11 40.6 9.5 62.8 4.4.9 3.1-.5 4.3-2.4 3.1-4.9 8.4-21.1 9.1-27.1 1.2-9.7-1.2-18.3-8.3-25Zm124.3 5c-3.5-.8-3.7 1.1-5.4 3.2-11.2 14.3-19.1 38.2-7 53.9 4.8-18.9 18.3-37 12.3-57.1Zm-701 31c-2.9-3.4-12.8-6.3-16.5-10.1-4.5 16.9-17 28.4-5.7 45.6 3.1.3 2.1-4.1 3.8-6.2 5.4-7 27.5-18.7 18.4-29.4Zm69.1-8.1-7.6-1.9 1.9 9.5zm-17.1 0v59.9c0 1.5-3.3 5.5-1.9 8.6 6.5-3.3 3.1-13.5 3.8-20 1.5-14.6 5.9-28.9 1.3-43.2s-.5-5.7-3.2-5.3m30.4 11.4c-4.8-3.3-19.9 13.7-17.2 19.9l24.8 22-7.6-41.8Z" class="st0"/><path d="M719.7 755.6c-10 27.1-54.1 47.3-82.2 49.9-29.2 2.7-46.7-3.2-62-28.9-2.6-4.4-3.3-9.3-5.6-13.5-1.9-3.4-9.4-4.4-7.5-13.2L719.7 703c2.7-.2 3.2 1.3 4.3 3.2 6 10.3-.2 38.4-4.3 49.4m-4.9-35.5c-45.7 11.7-93.1 21.9-135 43-2.8 7.9 20.5 28.2 25.6 29.2 26.5 5.1 63.3-8.5 85.3-23.1 16.3-10.8 25.4-29.2 24.1-49.1M756 427.8c4.2 2.6 12.9 9.6 15.6 13.9 1.5 2.4 2.8 5.1 3.8 7.7-2.4 13.6-6.1.8-13-2.4-21.9-10.2-54-14.1-73.3 2.9-13.5 0-1.3-24.2 10.1-28 17.4-6 41.3-3.7 56.8 5.9M496.4 457c-1.3-1.3-7.4-13.9-7.7-16.2-3.1-20.5 24-40.5 35.3-12.3 9.3 23.2-16.2 39.4-27.6 28.5M446.5 387.1c-.7-.6 1.6-4.6-1.9-3.8-.3 4.1 2.3 9.2-4.8 7.6-6.8-1.5-7.4-10.4-6.6-16.1 1.1-7.2 23.6-29 30.6-32.3 7.5-3.5 8.5-1.4 14-2.1 3.6-.5 5.9-5.7 11.6-1.1 2.6 2.1 5.6 9.7 2.9 12.7-4.9 5.5-27.6 6.3-37.2 20-1.7 2.5-6.8 16.7-8.7 15.1ZM566.1 562.4l4.2 10.2c-.4 4.3-6 4.9-8.2 9.1-1.4 2.6-3.5 14.4-2.2 16.7 5.5 10 31.6-4 31.2 10.5-.2 6.8-17.3 7.1-22.9 5.6-21.6-5.8-26-48.8-2.1-52.1M750.8 1234.3c-1.4 1.6-6.5 2.9-7.8.4l-23.1-52.2v57.4c0 1.3-1.1 3.4-2.3 3.7-11 3.4-5.2-25.3-5.2-29.2 0-16.6-5.1-35.5 2.2-51.3 2.5-.5 2.9 2.1 4 3.4 12.7 16.5 14.8 37.6 25.8 54.7 5 .2 5.6-53.8 6.7-61.1 8.4-1.6 7.7 14.9 7.5 20.1-.5 10.2-2.3 25.6-3.7 35.8s-3.2 17.2-4.1 18.2ZM656.9 1163.5c1.6 1.6 2.8 6.4.4 7.9-2.3 1.5-14.6.8-21.1 4.3-10.3 5.5-18.3 44.5-11.1 51.6 2.4 2.3 11.2 1.8 14.8 1.3 10.3-1.3 15.2-8.7 17.4-18.3-7-4.6-16.5 4.6-15.9-9.9 23.7-13.4 30.8 19.8 14.6 32.8-6 4.9-21.5 7.6-28.7 5.3-22-7-14.2-63.2 4-73.7 5.3-3.1 20.8-6 25.5-1.3ZM563.3 1240.7c-9.1.7-6.2-9.3-6.2-14.4 0-15.3.8-30.8.3-46.1-.2-5.8-4-13.1.8-16.9 15.4-12 37.5 4.8 36.3 21.3-.2 2.2-4 12.4-5.3 14.2-3.2 4.6-9.8 4.2-12.6 9 6.7-.4 25.4 27.6 25.4 30.7s-3.5 4.8-5.8 3.5c-1.1-.6-10.5-18.7-14.1-21.7-4.1-3.4-12.9-4.1-16.7-9.4-.3 1.6-2.2 6-2.2 6.7v23.1Zm21.9-65.2c-5.4-6.6-14.5-8.2-21.6-3.2l1.2 25.1c9.5-3.3 20.3-4.3 22.1-16 .3-2.3-.2-4.2-1.7-5.9M478.2 1249.6c-3 2.1-8.7-4.4-10-7-4.2-8.8-7.1-25-10.8-35.4-5.3-14.7-11.4-29.2-16.4-44l6.1.9 26 72.1c11.3-24.9 20.2-51.2 24.6-78.2 8.9-3.1 8 8.7 7.1 14.4-1.2 7.3-7.1 25.8-9.6 33.6-4.8 14.8-12 28.8-16.9 43.5ZM830.1 1169.3l1.7 10.2-26.8-1.5c2.4 6.4 1.3 11.5 0 17.9 9.3 4 19.9-5.8 18 9.5l-19.5.9c1.6 5-2.2 10.4-2.3 14.2-.2 8.4 22.2 3.6 27.8 5.9 5.6 14.8-6.6 8.3-14.2 8.2-9.6-.1-18.6 5.1-19.5-8.1-1.1-17.5 4.7-38.1 4.5-55.9 3.5-8.4 22.6.3 30.3-1.3M685.6 1163.2c5.7-.3 7.1 8.4 7.1 12.7.2 12.9-.6 36.6-2.8 49.1-.7 3.9-2.2 8.4-5.1 11.3-7.7-6.4-2.4-19.1-2.2-27.5.4-15.2-.8-30.6 2.9-45.5ZM526 1245.1c-3.2-7.6-.7-15.3-.6-22.8.3-15.1-.3-31.2.5-46.5.1-2.2-1-4.4 2.3-3.7l5.3 6.8-2.9 65.6-4.5.7ZM779.5 1173.6c3.5 9 .2 18.5 0 27.5-.2 9.2.8 19.4 0 28.4-.2 1.8-.7 7.9-3.7 6.7-7.7-3.1-2.5-21-2.3-27.5.2-5.6-1.3-32.5 1.4-34.5l4.5-.7ZM684.1 1160.2c.2-2.5-2.7-6.3-2.5-8.2 1.2-9.9 16.5 8.3 2.5 8.2M533.4 1157.2c-4.3 2.9-8.9-6.6-7.4-10.4 5.6-2.1 10.6 8.2 7.4 10.4M785.5 1164.6l-4.6-.8-1.3-9.6 5.2 1.5z" class="st0"/></svg>