<svg xmlns="http://www.w3.org/2000/svg" id="Calque_1" viewBox="0 0 1300 1300"><defs><style>.st0{fill:#313a94}</style></defs><path d="m363 406.3-2.4 3.9c.4 19.7-.3 39.5 4 59.1-4.5.8-2.6-1.1-3.5-3.5-5-12.1-4.8-53.4-4.2-68 1.3-27 7.3-53.6 9.3-80.5.8-3.9-3.7-2.4-6.2-2.2l-13.7 47c-9 42.4-17.4 82.8-22.7 125.4-3.1 25.2-2.7 52.4-4.8 77.9 4.6-2.8 3-12.4 7.8-15 4-2.1 7.2 1.5 7.7 5.2.3 2.3-4 10.4-4.5 15.4-1.9 17.8-1 47.8 0 66.2 1.2 25.4 9.3 66.4 42.6 62.1 1.4-5-9.9-17.6-9.5-19.6 1-4.8 11.7-1.6 13.3 2.4l8.7 17.2-11.1-82.6c1.2-13.7.9-26.6 0-40.2 17.6-.2 9.5 32.3 10.1 44.6 3.3 70.1 25 118.3 54.2 180.1 9.1 19.4 40.5 76.3 62.7 79.1 5.9.8 18-5.6 17.9 6.5-11.5-.6-20.5 3.8-31.5-1.6.7 5.3-2.9 9.4-4 14.1-3.4 14.3-6.6 44.8-5.5 59.2s7.9 30.8 9.3 45.8-1 21.7-1.4 32.1l-7.2-1.6c.2-14.7-.7-29.6-3.9-44.1h-4.7c1.6 7.4 4.1 15.3 4.7 22.9s1.2 5.9-1.5 5.5l-3.4-5.4-15.5-60.7c-2.7-.4-1.6 3.7-1.4 5.3.9 6.3 4.3 13.5 3.7 20.1-.1 1.3-.4 3.4-2.2 2.9l-2.7-6c-11.7-54.8-34.3-106.8-41.5-162.5h9.5c-.8 25.4 8.9 49.6 14.2 74 2.6.4 1.7-3.8 1.6-5.6-.6-9.8-7-26.3 9.4-24.4-3 10.9-2.8 19.2-1.1 30.3 4.3 29 17 58.7 21.6 87.9 3.6 3.7 3.1-8.8 3-10-2.2-19.4-15.2-46.9-13.7-66.1s5.6-5.5 10-2.8l5.4 28.4c.7-9.5 1.5-31.4 7.8-38.4 2.2-2.4 6.8 1.4 4.6-6.2-37.6-34-55.4-82.6-75.1-128.1l-12.9-25.7c5.8 22.3 8.4 45.7 8.8 68.8.4 22.1-3.3 33.5-6.9 53.7-2.1 11.7 17.7 83.2 22.1 100 8.2 30.8 18.7 60.8 26.4 91.8-1.9 2-1.6 3.1-4 .9-1.9-1.8-14.1-40.5-16.1-47-13.1-42.5-23.7-86.2-33.5-129.5-2.3-2.4-11.9 10.5-12.6 12.6 9.2-1 4.2 6.8 4.8 11.6 2.8 21.1 16.3 47.4 22.2 69.3 8.3 31.1 11.7 62.5 10.8 94.8-.3 10.1 0 40.9-15.7 29.8 1.7-1.6 3-3.5 3.6-5.8 4.9-17.5 2.7-46.6 1-65.2-1.8-20-7.3-39.3-11-59-2.7-.4-1.7 3.7-1.5 5.5 1.3 16.8 4.5 33.4 4.8 50.3.2 9.9-2.9 28.5-1.6 36.2.5 3.2 7.9 11.6 6.3 13.5l-7.9-6.3c-.8 1 .5 14.5-4.7 15.7-2.2-8.2 3.3-17.5 1.2-25.6-1.3-4.9-9.8-16.6-12.5-22.2-17.8-36.4-33.4-74.5-45.9-113.2-2-6.2-.7-21.3-8.6-20.7l-20.8-31c11.1 48.1 25 98.7 46.7 143.2 7.6 15.6 17.3 30.2 25.5 45.4s5.7 10 6.6 14.7c-5.1-5.6-11.2-12.2-15.2-18.6-12.1-19.3-26.4-49.1-35.5-70-1.1-2.6 1-9.4-2.8-10.6l.4 52.6c.6 5.1 16.3 20.2 13.7 23-7-.6-8.1-10.1-14.2-12.6-1.6 15-2.2 30.2-6.5 44.7-1.1 3.8-2.5 9.9-6.1 12l2.8-19.8-6.1-3.2c3.6-20.7-1.3-41.8-3.4-62.5L296.7 967c3.9 43.2 8.9 93.1-4.3 135.2-.8 2.7.7 4.1-3.6 3.4-1.9-13.7 2.3-27.1 3.1-40.2.7-10.9 1.5-22.3 1.7-33.1.1-4.5-4.9-12.5 1.4-11.8l-3.2-2.6c.2-12-.4-24.1-1.6-36-5.3-52.5-22.7-94.7-32.6-145.4-12-61.3-15.3-124.8-17.8-187-5.8-149.7 1.1-314.1 80.6-445.5 12.9-21.3 33.6-43.4 45.7-64.6 5.7-10.1 6.9-19.5 10.7-30.3l4.8-.7v10.2l3.1.8c3.2-9 12.3-14.4 18.2-20.4 27-27.2 60.9-59.5 101.2-65.8 14-2.2 28.6.7 42.9-3.6-8.1 13-26.5 7.7-39.4 11l12.5 5.6 3.3 5.4c-6.5.5-10-4.3-16.6-4.8-16.9-1.2-34.9 15.4-48 24.5l5.4 5.5c11.1-8.4 22.5-23.9 37.7-21.8l13.6 3.7c-9.3 4.5-16.6.9-27 6.1-32 15.9-60.6 73.6-75.6 105.3-9.5 20-21.3 43.8-27.6 65.7-.1.4-.3.8-.4 1.2l2.9 2.1c1.6-7.9 4.6-17.1 7.8-24.5 15.3-34.3 40.8-72.3 64.7-100.8 21-25 53.5-59.9 87.8-66.5 5-1 10.3.4 15-.8s12.6-8.3 17.8-9c4.9-.7 19.3 1.1 19.6 7.8l-22.1 1.6 1.6 6.3c-10 1.8-12.5.9-19.3 8.2-1.1 1.2-5.5 2.7-.4 2.8 7.7-1.7 17.8-7.4 25.4-7.8 4.8-.3 8.6 2.8 11.8 2.3 2.7-.4 2.7-3.1 4.1-3.9 13.8-8.2 49.6-32.3 57.1-7.9-3.4.2-5.3-2.6-8.8-3.1-24.1-3.5-64 33.9-81 49.6-.3 1.2 1.6 1.1 2.3.8 8.7-3.5 15.8-9.2 25.9-11.7 2.1-.5 4.7 1.2 7 .5 1.8-.6 8.8-10.8 15.2-13.2 3.4-1.3 8.4-.9 11.4-2.4 3.8-1.9 10.7-12.3 16.6-13.8 3.6-.9 7.5.3 10.6-.5 6.6-1.6 12.2-6.2 19.8-4.6l-4.7-1.6V32.7c11.8.5 16.2 8 20.8 17.8s5.4 17.7 6.1 18.4 4.2-1.6 6.7-.1c9.1 5.5 15.2 36.4 16.6 46.9 4.1 29.9 2.8 64.7 4.3 95.3s3.3 26.1 3.9 38.3c1.7 39-.2 77.8 1.4 116.6.4 9.2 0 18.5 0 27.6l-7.2-1.5c-4.7-44.4-2.5-89.2-4.6-134-2.1 1.3-1.6 2.8-1.9 4.8-5.8 42.6-13.2 84.4-19.2 126.9-1 7.3-.2 15.8-2 23.2s-.4 6.8-4.5 5.7c-1.6-1.9 1.2-27.5 1.7-32.1 6.7-53 20.8-108.1 23.4-160.9 2.2-43.4-12-118.7-28.2-159.3-.6-1.6.9-2.7-2.5-2.2-4.7 6.4-12.8 7.9-18.9 12.6-2.3 1.7-17.4 18.1-18.1 19.7s-.4 2.6.8 2.3c10.1-9.8 22.2-13.8 35.6-16.5 7.8-.2 6.4 11.8 6.2 17.4-1.7 41.5-12.7 99.1-19.2 141.5-5.8 38.2-12 78.4-21.3 115.7-1.6 6.4-9.4 36.1-14 38-2.3.4-2.9 0-2.4-2.4 1.1-5 5.6-13.6 7.1-18.9 17.4-64 26.5-143.3 35.3-209.7 2.2-16.4 3.3-33 4.9-49.4-19.6 23.7-35.1 55.2-48.4 83.1-17.4 36.6-46.1 104.3-42.8 144.3.3 3.3 1.3 18.7 1.7 19.7s6.7 3.6 6 8.9l-3.2 1.6c-17.9-26.2-8.9-63.9-1.1-92.5 12.4-45.7 55.6-141.9 83.9-179.2 2.6-3.4 9.6-3.3 3.2-9.2-18.1 5.5-33.1 17.5-45.8 31.2-29.1 31.3-49.4 79-57 121-7.3 40.5 2 79.6 4.2 120l-7.9-4.3-9.6-73.8 3.3-2.3-3.3-3.8c0-24 5.3-47.2 11.2-70.2-2.2.4-3 2.9-4 4.7-18.6 34.2-38.1 84.1-26 122.2.9 2.9 5.1 8 4.8 9.3-.8 4.3-6.7 0-8-1.4-3.5-3.7-2.8-7.9-6.2-10.3l-1.6 59.9c-3.6-1.3-4.4-5.4-4.7-8.6-3.6-31 6.6-65.1-1.6-96.1l4.9-1.7c.2-5.6-.6-11.7 0-17.2 0-.8 5-20.9.8-13.4-3.1 5.6-1.4 11-2.7 16.2-.7 2.8-3.3 4.6-4 7.1-4.8 18.4-8.9 38.6-9.9 57.6l-3.2 2.6 3 .7c-2.5 20-2.9 42.3 2.1 62 4.7 3.3 10.7 1.1 15.9 2.3 4.8 1.1 9 6.8 16.6 4.6 6.7 4.1-8.5 28.1-12.3 32.1-8.6 8.9-24.1 17.3-36.3 18.8 10.3 1 20-1.4 30.5-.6 20.6 1.7 48.5 14 66.4 14 8.6 0 27.6-8.6 39.3-9.6 17.3-1.4 34.6 2.9 50.5 9l51.2-19.1c-8.9-4.2-34.6-16.7-36.3-26.8-.5-2.9-.2-5.2 2.4-7 5.2 1.3 4.8 6.1 7.1 8.7 9.8 10.9 28.2 18.2 42.5 19.6-10.1-14.1-12.8-35.5 0-48.8-13.1 1.9-29.5 3.9-40.2 12.6-4.1 3.3-3.6 9.9-11.1 4.9-5-6.9 13.6-15.5 18.7-17.7 24.1-10.2 45.2-7.1 70.4-6l-25.4-192.8c-5.9-25.9-7.7-54.6-16.4-79.7-3.6-10.4-9.6-26.3-22-26.8-4.1-.2-11.6 4.5-11.9-5.5s9.3-3.4 11.3-3.2c16.7 1.7 26.6 26.3 30.5 40.1 16.1 57.3 16.4 120.9 27.6 178.7.5 2.8-1.6 4.7 3.1 4-1.1-2.4-1.6-4.3-1.7-7-1.8-64.3-6-133.3-17.7-196.5-1.1-5.8-9.2-43.6-10.9-45.1-1.6-1.4-6.1 2.3-4.4-6.6l-2.9 1.4c-5.4-14.3-22-7.2-31.9-11.8l1.5-6c2.1-3 14 .4 17.5 1.4 5.8 1.7 13.6 8.6 15.2 2.3 13-.5 10.9 11 16.6 19.5 4.3 6.3 12.1 11.6 17 17.6 40 48.6 61.6 156.8 70.8 219.1 5.9 39.9 12.1 84.3 15.9 124.3 1.4 14.7 3.5 30.9-1.5 44.9 4.1-3.4 6.1-3.9 10.3 0 2.1 3.4-1.6 14.7-2 19.8-1.7 24.2 1.5 38.8-6.7 63-20.5 60.8-61.6 89.4-126.4 84.9-38.2-2.7-66.3-62.3-66.1-96 0-11.1 7.4-34.4 6.1-42.1-1.6-10.3-11.3-13.5-21-13.9-5.5-.2-53.5 7.1-55.2 9.4-1.3 11.6-.6 23.9-2.4 35.4-4.7 29.5-17.4 70.2-37.7 93-16 17.9-51.9 22.8-74.8 24.4-35.9 2.6-54.4-8.1-74.8-35.8-21-28.6-38.2-63.8-37.6-100.1l15.4-17.7c20.8-14.8 47.4-21.4 72.6-24.4l-36.7-20.4-17-19.8c-.6-5.5 12.7-10.8 17.4-13.3-6.3-9.6-11.7-23.8-12.7-35.4-9.3-107.2 80.8-232.3 149.9-302.4L590.5 64c-5.8-2.8-45.6 11-45.7 13.4l3.1 5.5c-7.1-1.9-7.8-5.1-14.3.7-12.8 11.5-25.6 31.3-36.2 45.3-67.3 89.5-102.7 162.8-96.9 278.5.4 7.7-2.1 8.1-5 1.6-2.6-50.8.8-99.2 18.3-147.3 11.2-30.9 27.3-58.4 43.9-85.2 5.4-8.8 10-16.9 15.2-24.3 7.8-11.2 15.8-25.3 23.4-35.6 1.9-2.5 8.5-6.9 10.5-10.8-3.4-1.6-8.9 5.5-11.1 7.8-48.9 54.8-89.9 119.5-109.8 191.1-12.9 46.4-15.3 94.5-8.3 142.1-3.9.6-2.8-.3-3.7-3-1.8-5.4-3.7-24.1-4.1-30.8-5.2-95.9 31.8-185.7 87.5-262.3 18.7-25.7 39.9-49.5 65.3-68.6 2.3-5.5-8.1 1-9.3 1.7-21.5 12.6-42.1 39.7-56.6 60-37.5 52.5-73.4 124.5-86.5 187.6-9.4 45.1-3.5 89-2.1 134.2-2.6 0-2.9-5-3.3-7-1-4-2.9-17.2-2.9-20.6v-32.3ZM556.8 55c-14 2.5-31 8.8-41 18.9 4.5-2.9 23.5-.4 25-1.8.5-.5.4-3.7 1.7-5.3l14.3-11.7Zm130.8 1.6c-5.7.2-11.6-.8-17.1 1-4.4 1.5-4.6 4.9-6.1 5.3-7.6 2.2-13 1.2-20.8 7.2-5.6 4.3-.5 3.2-.1 8.6l-10.6.5c-25.8 34.9-50.6 73.2-67.4 113-11.6 27.6-21.1 56.4-22.9 86.6l26.3-68.9c31.1-42 52.7-110.1 95.8-142.2 9.3-6.9 12.7-2 22.6-4.9l.2-6.1Zm-223.8 1.6c-5.4 2.3-12.1 7.2-16.5 11.1s-4.7 4-4 4.7l15.6-10.4zm411.3 401.6c-.5-13.4-.3-28.4-1.6-41.7-6.5-67.1-16.8-150.9-33.2-215.7-11.7-46.2-27.9-100.3-63.7-133.2l-2.3 3.1c1.2-.2 2.5-.1 3.1 1.2 3.3 7.3 6.7 29.4 8.4 38.5 14.2 77 17.5 166.1 20.1 244.7.4 12.1.5 25-1.6 36.9 11.5-.4 47.6 3.6 54.7 11.5s4.9 10.3 4.9 11.1c-.2 2.6-4.1 6.2-5.3 8.8l-32.2 23.7c17.9-1 32.3 5.9 48.8 11ZM462.3 78.7c-6.9-.4-10.7-.8-16.3 3.4-3.6 2.7-19.1 18.4-22.5 22.3-35.6 40.6-76.9 108.2-97.5 158.5-7.1 17.4-11.7 35.6-17.5 53.4-.9 2.7-1.5 5 1.8 1.8 8.1-22 15.8-44.4 25.7-65.7 6.5-14 15.9-32.4 23.9-45.4 10.6-17.3 24.1-31.8 41.8-41.7 1.1-.3 1.1 1.5.8 2.3-2.4 5.4-23.5 20.9-29.2 27.5-12.9 15.1-27.3 45-35.7 63.6-29.7 65.4-51.9 152.1-56.4 224-.6 9.7 1 19.5 0 29.1 4.8.8 2.6-1.2 3.1-4 9-50.8 17.9-103.9 36.8-152.3 7-17.9 20.6-41.5 38.7-49.6 23.9-77.1 49.6-157.4 97.9-223.1 1.4-1.9 4.3-1.9 4.8-4.3Zm256.8 53.5c-.1-12.4-2.8-26.6-6.4-38.5-1.5-4.9-3.1-12.8-7.8-15.1zM596.2 94.4c-35.4 10.7-60.2 44.8-77.8 75.8-31.9 56.2-52.3 122.1-52.8 186.6 0 .9 7.1 12.4 8.5 14.8s3.3 2.9 2.3 6.3c-4.8 1.3-8.1-4.8-9.7-8.4-19-42.4 16.9-144.8 37-185.8 3.1-6.3 7.9-11.9 10.6-18.5-7.8-.4-5.2 4.6-7.1 7.8-3 4.8-7.7 9.8-11.5 15.2-35.1 49.8-70.6 136.7-60 198.1s4.3 23.8 15.6 22.4c19.2-2.4 39.3-18.5 60.5-8.9l4.1-4.2c-8.2-38.2.2-75 9-111.9.7-2.8 0-5.9.8-8.7 8-31.9 19.6-63.3 32.7-93.4l-3.1-3.9 4.7 1.6c-2-8.3 2.9-19 6.5-27.1.4-1 2.2-1.1 2.8-2.5 4.3-9.5 7.8-19.4 12.8-28.6-4.1-1-2.8 1.4-4.1 2.9-49.1 56.9-76.8 140.1-74.7 215.3.4 14.1 3.5 29 3.2 43.3-5.4-3.2-5.6-13.6-6.3-19.7-10.4-89 21.2-190.6 82.7-256 4.1-4.4 9.9-7.5 13.4-12.5Zm-179.6 9.5-11.9 11c-20.5 28.6-46.2 59.6-60.4 92.4-2 4.6-4.6 9.7-4.9 14.7l15-26.7c11.5-15.9 21.9-36.2 33.9-54zm55.1 9.4c2.6-1.1 5.2-3.5 4.7-6.3-2.6 1.1-5.2 3.5-4.7 6.3m-1.6 3.2c-2.9-.6-3.8 1.4-5.4 3.3-34.9 40.7-64.4 88.8-80.1 140.5-3.1 10.3-7 22.1-7.4 32.7l14.6-41.3c12-26.4 24.8-51.3 38.3-76.7l40-58.4Zm-94.5 29.9 1.6-6.3-4.7 5.5zM352 174.7c-4.1-1-2.8 1.3-4.1 3-32.6 40.9-62.3 115.1-77.1 165.6-25.1 85.6-27.3 176.5-26.7 265.4.5 73.6 4.8 147.4 16.4 220.3 12.4 5.7 15 28.8 18.2 42 8.1 33.3 10 68.9 26.7 99.3-9-66.6-36.7-129.6-41.7-196.9l1.6 7.9c2.1.5 2.3-2.5 2.3-3.9 0-5.7-2-12-2.3-17.4-2.7-41.7-6.3-80.7-6.4-122.9-.2-67.9-2-136.3 8.2-202.9 11.7-76.1 34.5-146.8 65.8-216.5 6.4-14.2 12.6-28.7 19-42.9Zm30.1 72.2-6.5 14.5 2.6 1.2 6.5-14.5zm-14.4 61.7 11-45.7c-6.4 8.7-11.3 25.1-13.7 35.9-.9 4.2-3.6 10.1 2.7 9.8m-69.3 474.2c-.5-9.8 4.9-19.6 4.9-29.2s-3-19.5-3.4-28.3c-4-90.9 5.1-178.6 22-268L355.1 318c-3.2 2.9-8.1 5.7-10.8 8.9-22.9 27.1-45.1 118.1-51.8 154.6-16.9 92.3-25.4 191.4-1.9 283 1.2 4.6 3 11.8 4.5 16 .8 2.3-.4 2.6 3.3 2.2Zm-18.9-334c3.8-36.6 10.6-72.9 18.9-108.7-3.1.6-2.6 3.3-3.2 5.4-8.8 29.7-14.4 58.9-17.2 89.9zm574.9-40.7c-1.9-3.1-42.3-8.8-43.9-6.5 6 13.7 11.3 26.8 3.1 40.9 11.1-2.3 18.8-11.2 27.2-17.8 4.1-3.2 18.8-8.5 13.6-16.6m-390.6 6.1c-10 3.3-20.1 6.8-28.4 13.4 10 13.5 26.5 23.1 42.5 27.6-3.8-4.8-16.2-11.3-18.5-16.8s-.7-18.3 4.4-24.1Zm63.1 0c-.3 5.2 4.3 7.5 7.8 10.2-7.6 6.4-14-6-18.9-10.2 3.9 11.3 9 22.7 0 33.1 3.3 3 30.9-20.6 28.4-28.3l-17.3-4.7Zm-255 76.9c-.5-.5 2.3-4.8 2.4-7.1.2-13.7-2.4-29.1-1.1-43.1l-6.1 38.7-3.3 88.9 7.7-53c2-7.4-1.9-18.2 3.3-23.4zm601.4-10.5c-25.7-7.8-54.1-8.7-81-8.2-3.7 0-7.2 1.5-10.9 1.7-24.5 1.2-50.8-.3-71.7 15-5.9 25.6-13.7 53.8-6 79.9 11.3 38.4 53.6 57.3 91.4 48 40.5-9.9 71.3-78.3 77.7-116.1 1.1-6.7.9-13.6.5-20.3M433 593c7.1 9.4 18.1 24.6 28.9 28.7 25.2 9.4 56.7 9.1 82.3 1.3 38.9-11.9 55.6-85.6 55.3-121.3 0-7.3-3-10.8-9-14.7-32.6-21.3-108.3-9.3-142.8 4.9-6 2.5-37.3 18.5-38.7 22.8.7 8.3-2.6 14.4-1.7 23.1 1.9 19.7 14.2 40.1 25.8 55.3ZM307.8 743.4c3-10.6 15.4-26.2 15.9-37 .3-6.1-4.1-19.2-4.8-26.8-3.9-40.2-7.3-83.8-5.4-124.4.6-13 4-25.6 3.8-38.6-2.2-.3-2.5 4.3-2.7 5.9-1.3 8.6-2.5 17.7-3.6 26.4-6.6 54.1-10.5 110.9-7.8 165.3.3 5.9 1 21.2 2.1 26.1.3 1.5.5 3 2.5 3.1M281 521.3c-5.2-.6-2.2.9-2.5 2.9-.9 5.7-.6 11.8-.6 17.6 2-.7 2.8-8.5 2.9-10.4.2-3.4.3-6.7.2-10Zm-9.4 47.2 4.7-42.5c-4.1 2.9-3.9 12.8-4.7 18.2s-1.7 13.6-1.7 18.8c0 1.9-1.1 6 1.6 5.6Zm-4.7 42.6v14.2h2.3v-14.2zm6.3 57.5c-.4-8.1.3-16.3 0-24.4l-2.3 11.8 2.3 26c4.6-2 0-11.2 0-13.4m102.4 37c-17.9 6.5-30.8-6.8-41.6-19l-10.4-19.5 4.8 35.4c3.5-3.3 10.8-8.1 15.3-4.3 6.1 5.1-3.4 8.3-5.9 11.4-4.8 6-6.9 11-6.1 18.8 2.2 23.1 15.3 66 22.3 89.5 3.8 12.7 9.6 33.3 15.2 44.7s1.1 3.9 4 3.9c.8 0 8.1-11.4 9-13.1 12.5-25.5 10.8-80.8 5.6-108.5-2.5-13.3-9.6-25.7-12.2-39Zm-96.1 52 1.5-8.4-10.9-54.6c-1.3 6.1.2 12.1.1 18.1-.2 18.2 1.3 30.3 5 48.4 3.5 17.2 9.6 34.2 12.2 51.6 2.7.3 1.8-5.5 1.6-7.1-1.7-13.7-5.2-29.2-7.8-42.7l1.6-6.1-3.2.8Zm48.8-25.2c-2.4-1.7-6.1 5-6.9 6.5-15.6 28-11 53.9-4.9 83.3 2.6 12.7 8.2 41.4 12.6 52 6.3 14.9 28.3 7.1 36.5-2.3l-23.1-75.7-14.3-63.7Zm-31.5 83.4c-2.9-6.2-1-12.8-2-19.3s-3.4-17.3-7.5-21.7c3.4 12 3.9 25.1 6.3 37 .6 2.8-1.7 4.7 3.1 3.9Zm8.6 81.6c-3.9-13.4-10.2-26.3-10.9-40.7l-19.8-72.4 45.7 215.8c2.7.4 1.5-3.6 1.6-5.5 1.3-32.1-8.4-68.8-16.6-97.3Zm13.5-51.6c-6.5-12.7-5.7-28.6-9.4-41.8s-.2-4.9-3.2-5.4c-2 15.9 3.3 29.4 9 43.8 1 2.4-.9 4.3 3.6 3.4m52 39.4c-12.3 3.5-22.9 9.6-36.2 4.7 0 8.6 6.3 15.5 8.4 24 8.7 35.2 20.4 68.5 37 101.5 2.9 5.7 6.7 14 11.3 17.9 1.4-50.2-6.9-100-20.5-148.1m-47.3 132.3c.4-2.9 0-5.5-3.1-6.3-.4 2.9 0 5.5 3.1 6.3" class="st0"/><path d="M862 57.1c12.1 9 21.8 21.5 33.2 31 34.5 28.6 62.8 46.6 90.1 84.7 85.6 119.5 81.8 352.3 69.4 494.2-9.3 106-33.7 206.6-51.5 310.8-8.9 52-26.3 139.8-8.4 188.6 2.4 6.4 6.9 11.5 7.9 18.1-11-9.9-16.7-28.9-19.7-43.2-2-9.7-3.9-46.8-1.7-55.2s5.2-3.2-.6-4.6l10.1-75c35.8-180.5 70.3-360.8 65.3-545.9l-3.1-1.5c-3.4-74-13-155.7-40.9-225.2-21.1-52.7-57.4-93.7-101.7-128.4-2.2 1-.7 3.2.3 4.6 22.3 34.4 49 61.6 65.9 100.9 22.1 51.3 46.3 127.5 56.8 182.2 9.2 47.8 11.3 116.6 5.6 165.3s-3.3 1.5-3.3 3l3.3 3.1c-3.9 44-9.5 87.5-15.5 131.4-3.4 25.2-7.4 50.4-11.1 75.4-17.1 117.4-34.3 234.8-54 351.7-2.7.3-1.7-5.4-1.6-7.1 1.2-17.6 4.2-36.8 6.2-53.7 23-196.5 68.1-392.3 71.2-590.5-2.2-9.3-1-18.9-1.7-28.4-5.9-76.5-34.1-149.4-58.3-221.3l-3.1.8c28.4 79 32.8 163.9 28.3 247.3-1.9 35.8-9.6 73.5-10.6 108.7-1.7 57.5 4.1 117.8 2.8 176.5-.6 29.8-1.5 87.4-9.6 114.8-.9 3.1-2.3 6-6.2 5.6l6.3-122.9 3.1.8c.8-3.7-3-1-3.3-4.6-.7-8.9 1.2-21.3 1.2-30.3-.2-24.3-1.5-48.7-1-73-2.4-.2-2.7 4-3 5.6-10 63.5-15.9 128.1-24 191.8-12.4 98-27.3 195.3-26.6 294.9 0 6.1 1.8 14.6 1.4 20.2s-.9 8.7-6.1 7.3c-.4-8.3-2.7-17.9-3.2-26-2.2-42.5 0-94.7 4.7-137 1-9.4 5.1-17.3 3.1-26.8l3.1.8-3-3.8 3-19.8c-2.2-.4-2.3 2.8-2.7 4.4-4.6 18.9-8.2 38.2-13.1 57-2.5.3-2.4-6.8-2.2-8.1 1.4-12.5 8.1-29.2 11-42.2 4.3-19.4 7.9-41.3 10.8-58.3 3.3-19.3 6.5-38.7 8.8-58.3l-26.4 53.1c-2.3 54.3-14.6 109.6-13 163.5.2 8 4.5 18.1-.7 25.9-4.6-31.4-4.5-63.7-3.1-95.3.9-19.9 1-48.6 8.6-69.3l-3-1.4 1.4-13.5c-9.4 7-18.4 11.3-29.9 6.3-1.7 25.3-4.2 51.1-8.1 76.2-1.8 11.6-4.2 25.6-7.2 36.9-.6 2.2-1 7.8-3.7 8.1l14.2-124.9-11.1-9.8-9.5-14.9-19.1 180.4c2.1 16.3-1 33 .1 49.6l-5.5-1.6c-5.8-37.9.6-77.5 2.4-115.8l6.3-43.3c-2.4.4-2.9 3-4 4.7-4.5 7.6-18.9 42.4-19.1 49.9-.4 12.7 9.4 36.5 10.1 50.6.4 8.6-4.3 8.9-7.6 1.2s-3.8-23.4-7-34c-4.3 10.5-7.2 21.9-9.5 33s-2.2 29.2-7 23.7c-.9-25.1 7.6-49 12.3-73.2l-13.9-40.2-2.2 16.5c.9 21.7.2 43.1 3.8 64.6l-3.2 1.6c-2.4-2-3.8-3.2-4.6-6.4-1-3.8-4-41-2.8-42.9.5-.7 3.2.2 2.7-1.1l-4.8-8 3.3-3c-7-11.3-.8-27.6-1.6-39.3-.5-6.8-4.9-13.2-6.3-19.7l7.9 3.1c0-18.2 3.4-36.4 9.5-53.5-2.7-.7-3.2 1.1-4.7 2.3-4.6 3.6-21.3 18.1-23.7 22-1.2 2-.1 4.7-1.6 7.6-9.1 18.4-17.5 17.6-36.4 22.1-20.4 4.8-42.6 7.2-63.5 5.8-29.6-2.1-99.1-20.9-123.3-37.5-1.5-1-10.6-9.2-5.9-9.8 5.2-1.3 7.1 3.3 10.7 5.1 55.1 26.5 123.3 44.2 184 27.3 14.7-4.1 19.2-7.2 27.5-19.8.8-1.2-.5-3.4.7-5.5 2.9-4.9 11.4-9.8 15.3-13.9 90.9-95.5 103.7-215 125.5-338.5 3.9-22 12-43.2 12.2-65.8 10 .2 10 4.8 9.3 13.2-2 22.7-10.2 46.4-14 69.5-.6 3.9.5 8.3-.2 12.4-7.4 42.6-15.4 84.9-25 127 5.8-3.7 10.9-24.8 16.5-25.3 4.1-.4 9.3 2.5 8.7 7.1s-15.7 20.2-15.8 27.6c22-16.5 38.4-49.4 42.3-76.6 7.5-51.5 10.6-99.7 6.4-150.9-.4-5.1.7-10.9 0-15.9s-1.2-5-3.1-2.3c-1.1 7.6-.9 19.5-6.3 25.2 1.2-26.3 5.5-51.4 4.8-78-.2-6.8-.5-22.6-3.2-25.4l-9.5-96.6c-2.8-.4-1.5 3.6-1.6 5.5-1 23.8.8 48.6 0 72.6-.6 20.6-2.7 41.6-4.8 62.1l-4.7-3.9c1.4-62.5 8-128.2-.3-190.3-5.1-37.8-14.2-61.7-34.7-92.9-10.6-16.2-24.1-33-39.1-45.2l29.5 68.9c29.2 89.7 26.6 184.7 33.5 277.6-.6.6-5.3-1.1-5.9-1.9-1.7-2.5-4.6-29.8-5.1-35.1-3.6-40.8-3.4-81.9-8.1-122.7-7.5-65.6-22.4-130-54.9-187.7l-9.5 2.4c-1.5-4.5 3.8-6.4 4.5-9 1.5-5.5-20.5-32.1-18.7-41.4l-3.1 1.6c1.6-6.6-5-4-7.9-8.7l6.3-3.9h-14.2l2.5-6.4c14.2-.2 28.4 0 42.3 3.3l3.2-6.3c3.9-.4 17.2 13.4 21.4 16.3 2.8 2 7.1 2.2 10.4 4.6Zm42.1 54.1c-21.6-27.4-56-63-92.8-65.6-1.5-.1-4.9-.8-5.5.7 3.1 3.8 3.2 8.8 6.2 12.7 11.1 14.1 34.8 29.3 45.7 45.7 5.7 3.8 18.6 30.6 21.3 32.2s2.7.3 2.3-.8c-6.8-10.7-8.6-23.8-13.4-35.4-2.1-5.2-4.7-14.8-10.2-15.8l.8-3.1c9.1-1.3 9.7 5.1 15.4 9.9 22.1 70.9 54.5 143.7 62.4 218 1 9-3.7 25.1 6.6 26.7 2.7 38.2.3 76.6 1.6 114.8s3.5 42.1 4.7 63c.3 5.2-2.1 10.8.7 15 2.6-5 6.3-8.2 11.1-3.2 6.7 6.8-2.8 6.7-5.9 13.1-6.6 13.5-3.4 28.5-4.6 42.8-.8 9.1-6 17.1-6.1 26.9l-5.7 71.7c7.7 11.7 11 24 15 37.3.8 2.6-1.2 4.4 3.3 3.7 2.9-52.9 6.5-105.5 9.5-158.3 4.2-75.5 9.4-153.2-.2-229.8-.5-3.8-1.4-7.8-2.8-11.4l3-2.2c-1.2.2-2.4.2-3.1-1.2-2.5-5.3-6.5-35.9-8.7-44.6-10.4-41.3-24.2-81.7-39.1-121.6-1.7-4.4-11.8-17.6-4.2-19.4 18.6 32.5 28.6 70.5 39.4 106.3 2.9.4 1.2-3.2.9-4.8-1.3-5.4-3.2-11.8-4.8-17.3-2.6-9-21.4-60.6-18.1-64.6l6.3.8c-9.7-14.6-20.1-28.6-30.9-42.3Zm-33.7 22.6L850.6 104c-9.8-8-16.9-18.9-26.6-26.9s-2.5-3.8-5.5-3.1c-.7.7 7.4 17.4 8.7 18.8 3.1 3.4 13.3 8.4 17.9 12.1 9.9 8.3 15.6 20.5 25.4 28.9Zm69.3 23.6-3.1.8C964 234 979 312.3 983.8 392.9c.6 9.9 1.4 20.1 1.7 29.9.7 21-2.6 48 0 67.9.3 2.3 1.2 4.9 3.1 2.3 4.5-62.1 6.4-123.2-3.4-184.9-5.6-35.3-15.3-76.9-28.5-110.1-1.9-4.9-6.2-9.8-7.5-13-1.7-4.2 5.3-1.1 6.3-3.1l-15.8-24.4Zm28.4 497.8c5.4-2.5 2.5-10.2 3.2-14.9 5.6-40.3 10.8-80.4 7.9-121.4-.2-2.7.2-5.2-2.5-7zm-37.8 29.9c-3.1-2.9-7.6 10.7-8.7 12.5-5.5 8.5-13.5 20.3-22.9 24.4-3.4 1.5-11.2 1.9-12.6 3.5s-9.7 21.3-10.9 24.9c-11.2 31.6-26.9 121.8-3.5 148.5.7.8 1.1 4.3 3.6 2 3.1-2.9 1.8-35.3 3.8-42.7.7-2.6 7.5-7.4 8.8-6.1l.7 6.5-8.1 46.3c6.5 7.6 14.7 2.7 20.8-2.5 15.7-13.2 11.5-31.2 13.6-49.4 2.1-18.6 4.9-37.2 6.8-55.9 1.8-17.4 2.4-35.3 4.2-52.8 1.6-15.7 6.8-36.5 6-52.2 0-1.4-.9-6.5-1.4-7Zm9.4 15.8c-2.2-2.7-2.8.3-3.1 2.4-3.7 24.5-3.5 51-7.4 75.7l2.6 2.3 7.9-25.2 3.1 2.3-20.5 106.4 11.8-26.8c6.5-22.3 10.8-45.1 11.9-68.5 1.1-23.9 0-45.6-6.4-68.6Zm-83.5 77.2-33.1 65.4 4.7 3.1c-2.8 3.6-7 3.9-10.3 7-14.5 13.6-28.5 82-25.8 101.6 1.9 14 15.4 30.2 17.2 45 4 .6 2.4-.4 3.3-2.2 5.4-11.9 7.4-27.9 13.8-39.8 3.7-6.9 11.2-12 12.5-19 6-33.5 4.1-69.6 9.1-103.1z" class="st0"/><path d="M654.5 774.9c.9 12.4-22.2 18.9-31.9 17.1-3.7-.7-5.5-4.3-8.7-5.6-3.4-1.4-9.6-1.5-13.5-3.2-15.7 9-31.8 15.4-49.1 20.1-2.2.6-4.9 0-5.5 3.1l60.7 4.7 98.5-11c-1.4-2.8-7.6-1.4-11.1-2.3-7-1.7-37.8-13-37.8-20.6l2.5-3.9c2.4-.6 21.1 11.5 26 13.4 12.9 4.9 26.5 5.8 40.2 5.6 10.1-.2 27-4.1 36.2-3.4 15.3 1.2-2.9 7.9-3.9 8.8-2.3 2.2-1.9 5.9-6.4 9.3-6.4 4.9-20.2 9.6-28.1 14.4-20.4 12.4-32.3 27-56.5 34.9-61.2 20-81.8-4-128.1-34.9-5.6-3.7-17.8-8.5-21.8-12.8-2.3-2.5-9.3-15.4-4-16.5 2.9.5 5 2.7 7.9 3.1 21.6 2.5 32.8 1 52.7-7 5.4-2.2 26.8-14.5 29.4-14.7 2.7-.2 3.6 3 5.2 3.6 2.3.8 4.7-.2 8.2 1.3s8.7 7.2 11.2 7.2l27.9-10.7Zm72.5 31.5c-12.6.3-24.6 4.8-37 6.3-52.1 6.2-93.7 6.4-145.7.8-1.7-.2-5-2.3-4.7.8 26.2 14.6 44.4 35.5 75.5 40.3 19.3 3 44.3-7 62.6-13.2zM516.4 936.1c-13.8 19.1-8.2 75-19.4 104.3s-13.9 30.6-26.8 29.1c-2.1-2 10.3-16.6 12.1-20.1 20.4-37.9 8.3-75.4 20.9-109.8 3.6-9.9 5.2-16.5 16.6-8.7 2.7 3.4-2.4 3.8-3.5 5.2ZM610.4 655.2c-1.8 0-6.4 2.8-10.2 3.2-10.5 1-19.5.3-24.7-9.9s-5.4-17.1.3-14.5c8.1 12.5 4 20 22.9 18.1 4.2-.4 12.1-5.2 13.4-.7.3 1.2-1.6 3.3-1.5 3.9 5.2-.1 7.1 5.3 9.9 6.7 8.9 4.4 31 4 40-.2 2.4-1.1 12.4-10.4 11.6-4.2-1.3 9.5-13.6 14.4-22.2 14.4s-25-.7-30.2-3c-5.6-2.5-8.5-7.9-9.1-13.8ZM722.3 636.3c4.7 5.3-12.4 14.3-16.5 15.8-7.7 2.8-29 7.2-26.8-4.8 5.4-.7 9.9 2 15.3 1.3 5.6-.8 27-13.4 28-12.3M511.1 387.4l-2.3-19.5 2.3-4.1zM509.3 354.1v-15.7h1.6v15.7zM511.1 322.8h1.5v11h-1.5zM525.3 269.2c-.2.2-1 0-1.5 0 0-3.2 1.5-6.2 1.6-9.4h1.5c.5 1.1-.9 8.7-1.6 9.4M262.1 735.5l1.6 18.2-3.1.7-1.6-18.1zM254.3 522.9h1.5v11h-1.5zM262.2 762.3h1.5v9.4h-1.5zM254.3 570.1h1.5v9.4h-1.5zM615.8 1230.9c-2.7-2.9-11-30.5-14.1-37.1-1.5-3.2-4.1-8.1-7-10 1.1 13.2-1.7 26.2-1.6 39.3 0 6.1 5.9 27.7-6.2 16.6l-1.1-75.2c2.5-.1 5-.3 7.4.8 4.4 2 20.2 35.1 20.8 42.2 3.5-2.3 3.1-12.8 3-16.9 0-4.7-3-29.5-1.5-30.4 3.1-2 9 2.3 9.8 5.9l-.9 61.5c-.2 3.9-6 6.1-8.5 3.4ZM545.4 1159.1c4.2 4.1 8.6 33.5 10.8 35.2 14.2-4.9 18.7 9.9 1.5 8.9l7.2 33.7c.6 2.1-3.6 4.6-5 4.5-6.4-.5-7-31.1-9.7-36.7l-17.7 3.7c-2.3 7.5-9.1 13.4-8.9 21.5-19.5-1.4 3.1-15.8-5.8-25.8l8.5-4.1c3.6-11 6-28.7 11-38.7 1.9-3.7 4.9-5.3 8.2-2.1Zm-10 39.6 13.1-5.1-5.7-18.6zM486.4 1191.2l.8-17.8c1.8-2.9 7.2.1 8 2.5 2.7 8.2-.6 27.1.3 36.8s8.7 27.5-2.1 24.4c-5.1-1.4-6.9-32.3-6.9-38.4l-20 5.8 2.4 28.8-6.1 1.6c-6.5-2.8-3.7-24.3-4.4-30.4-5.7 1.2-7.1-1.8-8.9-6.6l7.5-3 1.5-3-2.9-30.9c2-4.3 7.3-2.3 8.5 1.6s.7 29.1 3.2 30.9l19.2-2.4ZM732.6 1197.2l3.8 37-4.6 2.7c-7.7-4.9-3.3-14-3.8-19.5s-2.7-18.5-3.7-18.8l-12.2 1.9c-2.5 5.2-2.5 26.7-6.2 28.6-9.5 5-5.9-24.1-3-27.5-5.1 2.2-6.6-.7-8.6-5.2 1.3-4.1 7.7-2.9 9.4-5.1 3.5-4.5 3.2-16.7 2.8-22.3 6.4-.6 8-11.5 15.1-6 3.9 3.1 5.5 20 7.3 25.4l1.6 1.3c13.3-5.4 15.6 7.5 2.1 7.6Zm-10.4-6c-1.9-4.9-1.3-13.1-5.9-16.3l-2.6 14.1c.5 2.9 6.2 2.2 8.5 2.1ZM926.6 1243h-4.9c-1.3-.3-1.7-1.1-2.1-2.3-3.7-11 1.7-30.2-.3-42l-17.1 17.5-11.1-13.1c-1.4 5 6.5 29.4.7 31.1-10-.9-6.2-7.7-6.7-12.6-.8-8.3-1.7-18.1-3.4-26.2-.7-3.1-4.3-6.7-2.5-11.6 7.6-3.1 19.5 16.4 23 16.4 2.9 0 9.8-10.6 11.7-13.5 1.9-3 2.6-12.4 9.1-5.8s3.5 34.5 3.6 43.8c0 6.1 3.6 11.9 0 18.3M410.5 1165c9.8 9.3-9.6 27.7-11.5 13.7-.5-3.3 9.2-4.2 5.2-9.6-21.7 1.1-46.6 35.6-34 54.8 11 16.9 33.4-3.1 43-3s3.4 4 3.6 6.6c-18.9 11.7-49.5 17.9-56.2-10.3-4.5-19 11-42.5 27.7-50.7 5.3-2.6 17.7-5.8 22.3-1.4ZM821.1 1219.8c2.1 2.2 2.9 7.2-.6 8.3-7.8 2.5-24.9 1-33.8 1.9-5.6.6-20.2 5.6-23.1 3.6-5.2-3.5.4-35.7 0-44.3l-4.3-27.7c2.3.1 5.5-.6 7.5.7 2.6 1.7 4.3 20.8 4.5 25.2.2 6.2-3 33.6 0 35.7 11.8-3.6 24-1.8 36.2-2.5 4-.2 10.5-4.4 13.9-1ZM683.5 1173.3l-17.6.2-7.4 65.8c-2.6 3.8-7.9-2.6-7.3-5.8l5.7-60-14.4.5-3.3-7.9c1.2-1.8 36.2-2.4 40.7-1.6 4.5.9 5.4 5.1 3.5 8.7ZM950.1 1250.2c-4.9 6-13-6.8-6.3-11.5 5.7-.8 9.5 7.5 6.3 11.5" class="st0"/></svg>