<svg xmlns="http://www.w3.org/2000/svg" id="Calque_1" viewBox="0 0 1300 1300"><defs><style>.st0{fill:#313a94}</style></defs><path d="M807.9 120.8c17.1 14.4 35.2 33.8 47.4 52.9 2.1 3.3 8.4 18.9 9.3 19.5 2.8 1.7 11.4-1.6 16.7 2.5 1.7 1.4 14 18.5 15.9 21.6 35.2 56.3 15.1 122.4 4.2 182.8 3.2 2.7 6.5 2.1 10.7 4.6 13.4 8.2 27.4 23.8 36.8 36.4 42.6 57.1 31.7 106.7 35.1 173.4 4.9 95.6 31.4 208.3 78.3 292.1 12.7 22.6 35 57.1 65.4 47-1.2 19.5-30.3 8.6-41.3 2-41.5-24.7-75.1-121.8-89-167.3-17.5-57.2-27.1-115.6-30.2-175.5-2.1-39.7 2.6-85.9-8.8-123.8s-31.6-60.8-56.6-77.6c-3.6.2-2.6 22.7-4.8 28.3-1.9 4.7-7.1 5.7-8.2 11s1.9 19.3 1.8 26.1c-.3 12.9-3.4 25.3-2 38.1 50.2 13.6 63.2 46.3 68.1 94.4 4.6 46.3 1 93 7.2 139.2 4 29.4 15.4 49.8 16.8 82.1 1.1 25.5 6.6 61 3.1 83.7-.9 6 3.8 8.9-7.9 11.4-1.2-7.8-2.1-15.8-3.6-23.5-.4-2.4-.3-4.9-3.4-2.6.4 1.7 1 2.9.6 4.8-6 25.8-16.3 52-13.7 78.8l16.6-17.4c.8 15.1-6.4 40.3-26 28.6-12.8-7.6-7-32.5-4.9-44.7 6.9-39.2 23.8-75.9 19.5-116.5-5-48-19.6-102-44.7-143.6-6.7-11-34-36.5-34.7-47.3-.3-5.4 12.6-2.4 15.3-.4l36.8 49.5 10.8 19.7c-1.8-29.6-.2-60-2-89.5-1.5-25.5-6.9-77.4-34.3-87.8-7.3-2.8-14.3-1.2-21.3-4 0 9.4-.7 19.2-2 28.5-7.5 57-28.7 117.3-64.2 162.4-6.5 8.2-15.9 20.7-23.5 28.8-9.6 10.1-25.1 18.4-30.6 32.2 56.7 4.6 55.5 72.5 63.2 114.6 6 32.9 12.9 91.3 26.7 119.7 3 6.1 10.1 10.1 9.4 17.6-25.3 1.4-33.4-34.1-37.9-53.6-10.6-46.5-13.1-123.6-31.6-163.7-8.8-19.2-15.6-19.1-34.3-26.5-9.1 14.7-22.5 26.2-35.7 37.3 14.8 9.6 5.4 21.8 3 36.1-8.3 48.2-8.6 99.8-.8 148.3.9 5.8 1.1 10.8 8.2 10.1l-5.2 1.8c-.3 1.9.2 3.7.4 5.6.9 6.5 14.5 47.6 17.8 50.2 1.8 1.4 5 1.1 6.3 2.8 4.6 6.2 1.6 11.2-6.2 11.2s-15.2-5.1-19.7-13.6c-26.5-49.4-29-143.1-22.8-198.2 1.7-14.7 5.2-30.2 8.5-44.7-21.3 9-41.7 21.7-63.3 29.9-37 14-66.6 3.6-100.6-12.5 4.8 33.2 3.3 65.2 0 98.5-2 19.9-5.1 44.5-9.2 64-4.2 19.9-11.7 37.2-18.9 56.1-3.2 8.3-20.4 5.2-20.3-2.9 2.4-9 8.3-16.6 11.4-25.2 16.5-44.7 28.7-148.1 16.7-193.7-4-15.3-9-9.8-19.1-16.7-7.1-4.9-20.2-16.6-26.9-22.8-24.3-22.7-43.8-51.4-58.5-81.2-7 1.4-8.8 3.1-11.5 9.3-31.9 71.8 10.2 157.1-3.9 231.4-6.3 33.2-21.6 62.3-41.1 88.4-3.1 4.1-9.1 16.5-12.7 19.1s-17.6 3.5-16.8-1.9 8.2-14.7 9.6-16.6c18.6-28 31.6-46.2 40-80.3 19-76.7-17.8-151.9 1.4-228.8 1.4-5.6 8.9-27.4 12.1-30.6s8-2.7 10.8-2.2c4.8.8 5.6 6.1 9.7 6.1-30.1-72.3-49.5-149.1-59.2-226.8l3.3-.7-3.6-2.8c2.5-7.4-1.3-13.3-1.7-20.6-1.2-22.6-1.6-54.4 0-76.8.5-7.3 2.8-14.5 3.6-21.7 22.2 4.7 15.9 6.8 15.6 23.5-1.4 75.6 2.9 139.6 22 212.8 20.1 77 49.8 167.1 120.6 215 22 14.9 73.6 38.2 100.1 32.7 28.7-6 86.2-37.7 106.4-59.3 8.7-9.3 14.5-23.7 22.7-34.4 10.4-13.6 23.8-21.4 33.9-32.7 95.2-107.2 91.9-249.1 71.4-382.7-1.6-10.6-10.8-24.4-1.6-34.1 11.6 3.5 13.8 15.1 16.3 25.5 4.2 17.5 4.7 35.8 7.5 53.5.5 2.9.6 10.5 3.2 11.6 9.3-66.1 37.4-143.6-15.7-198.7 6 24.7 5.2 46.7-1.3 71.1-4 15.1-8.1 40.1-28.2 28.1 2-14.1 9.9-27.2 12.9-41.7 6.1-29.1 3-63-12.2-89-12.6-21.6-45.9-54.2-66.6-67.7-12.7-8.2-45-18.6-49.4-32.6-1.5-4.8 6-2.1 8.2-1.2 18.6 7 59.2 33.1 74.9 46.3Z" class="st0"/><path d="m616.4 83.1 1.3-3.2 48.7 7.1.9-5.2c3-.6 5.4.2 8.2 1.3 2.3.9 35.7 27.2 38 30 7.4 8.8 10.6 22.1 18.3 31.4 3.2-.1 1.4-4.7 4.2-7.2s3.8-1.7 6.3-.9c6.5 2.1 31.8 24.4 37.5 30.7 22.6 25 42.9 62.1 39 96.6-.4 4-7.7 35.8-8.9 37.2-2.4 2.8-11.5 2.1-15.3 2.2l6.9-39.2c-.4-6.8.7-14.3 0-21-2.8-31.7-38.2-79.5-66.3-95-1.5 1.6 19.1 32.5 21.2 37.2 10.9 24.2 17.2 61.2 15.5 87.6-.9 13.8-8.2 61.7-22.6 66.3-6.4 2-22.7.8-24-7-1.5-9 9.1 1.9 14.7-7.5 16.4-27 17.3-78.6 10.1-108.6-7.3-30-37.3-82.9-59.3-104.6-20.1-19.9-68.3-20.2-95.1-17.4 35 45.6 70.4 80.1 76.7 140.3 4.6 44.1 1.6 83.1-17.9 123.3-6.1 12.6-12.4 19-27.4 13.6-.6-6.8 6.3-10.8 9.1-16.2 20.9-41.1 24.5-94.3 16.6-139.3-6.4-36.4-28.7-61.4-50.1-89.4s-13.2-23-20.1-28.7c-2.5-2.1-3.7-2-6.9-1.9-14.7.5-54.1 11.3-66.8 18.9-4.6 2.7-4.7 4.3-3.6 9.6 4.5 22.7 19.1 51.5 25.3 75.9 12.9 51 11.2 82.1-6.9 131.6-1.7 4.8-12.7 32.8-14.4 34.5-3.5 3.6-12 1.5-16.4-.3 3.2-24.5 17.9-46.4 23.7-70.9 13.7-58.2-9.1-114.9-26.6-169.5-18.9 7.8-42.9 2.4-54.1 22.6-10.3 18.8-26.8 72.1-30.2 93.6-3.6 22.8 1.1 46.3-.1 69.6-.9 16.4-8.3 35.6-.2 51.2-5.1 3.8-8.5 5.5-15.1 2.4-11.9-5.6-2.6-48.5-2.1-60.6.8-18.8-3.1-37.3-1.8-55.8 1.4-19.6 8.6-35.9 13.8-54.2.7-2.5 2.9-7.4 1-9.5-15.6 21.2-30.3 45.3-40.1 69.8-8.7 21.7-19.2 56.2-20.2 79.2-.5 12.9 6.2 30.9-6.9 36.7-11.4-16.1-9.2-33.6-6.7-52.1 6.3-47.6 29.5-100.6 58.4-138.7 10.2-13.4 25.3-26.6 34.6-40.4 8-11.8 11.3-27.6 19.5-39.8 5.4-8 24-32.7 34.8-24.7l2.2 4.2c-6.6 12.9-20.4 21.2-24.2 36 8.7-5.2 18.3-11.5 21.8 1.8l11.2-6.3c-3-9.4-8.2-18.4-6.9-28.6 12.2-6.6 18.3 24 21.8 24.2 21.8-11.4 48.3-15.9 72.4-20.8 1.4-1.1-19.4-25.2-15.7-31.4 15.3-.8 21.3 26 31.3 28.6 6.7 1.7 19.9-4.3 27.6.6ZM332.4 423.5c-6 2.5-10.3-1.3-14.8-5.1-4.2 6.1-11.2 12.1-15.3 17.7-12.2 16.8-35 51.7-40.9 70.6-11.2 36.2 14.6 93.7 19.9 132.5 13.9 100.4-66.5 191.4-87.2 284.9-2.4 10.7.4 8.3 1.9 14.9 2.7 11.9-23.9 14.6-23.7-.4.2-14.1 15.8-51.9 21.5-67.1 22.3-59.6 76.4-155.9 72.3-217.1-4.6-69.1-46.9-114.5-8.4-182.8 6.9-12.2 33.8-56.6 42.4-64 11.3-9.6 31.8 1.6 32.3 15.7ZM341.1 594.4l-7.6-1.6c-5.2 1.5-17.6 62.9-16.7 72.1l-5.3 1c-.4 3.5 2.8 4.5 3.4 7.9 1.5 7.8-.7 19.3 0 27.8 2.5 26.3 9.8 52.1 12.2 78.5 5.3 60.6-12.4 130.7-40.5 184.4-1.6 3-19 29.1-20.5 30-3.3 2-11.8 1.5-15-.7l-2.2-4.2c.4-4.4 9.3-13.1 12.8-17s5.6.7 2.8-6.6c29.4-49.5 46.3-109.6 45.9-168.5-.4-49.7-17.5-91.6-11-142.8 1.2-9.4 16.1-79.2 20.6-82.2 10.5-7 26.9 9.8 21 21.9ZM932.7 1032.4c1.5-.9 3.3-.3 4.9-.4.9 22.5-26.5 26.8-41.9 14.9-16.6-13-20.1-67.3-24.2-89.2-.6-3.1-.1-6.3-.2-9.4-5.2-.8-2.9 3.8-8.3 6.5s-8.4 3-9.1-.5c.7-6.2 3.7-11.7 4.8-17.8 6.8-40.2 5-114.6-24.8-145.2-9.6-9.9-22.8-11.4-30.6-21.7-.3-2 1.2-3.6 3-4.2 9.4-3 37.1 17.5 43.3 25.9.9-15.7-8.7-39.1-21.4-48.8-2.5-1.9-14.8-4.8-10.9-10.5s26.2 7.1 30.3 10.7c13.7 12.3 19.4 38.9 21.8 56.6 9.9 71 11.3 154 30 222.8 4.3 15.8 10.1 31 27.7 17.5s5.3-7.1 5.7-7.4ZM544.1 714c-7.9-7.2-16.6-12.8-21.6-22.8-2.6-8 84.6 4.6 89.9 4.5 14.5-.4 33.5-5.4 48.8-7.1s38-2 58.5-6c13.1-2.6 22.4-12.3 30.8 5.2-13.3 17.2-30.9 36.4-49.9 47.3-59 33.6-108.3 22.4-156.5-21Zm170.3-15c-37.3.6-73.3 12.5-110.7 10.4-19.1-1-37.7-7-56.7-7.8 14.1 10.2 25.1 22.8 41.9 29.6 42.8 17.4 95.2.8 125.5-32.2" class="st0"/><path d="m319.9 1014.3-3.2-1.5 1.6 5.1c-13.8 6.2-13.9 24.4-33 14.8-.9-8.9 8.1-10.9 11.7-15.2 32.2-39.1 59.3-96.5 58-148.6-.7-30-12.2-61.2-12.1-90.6.1-25.9 8.6-64.6 20.2-87.8 1.6-3.2 4.7-10.2 8.1-10.3 26.1 4 13 9.3 6.5 21.3-7.7 14.3-16 51.6-17.3 68.1-2.9 36.4 12.5 73.3 12.3 109.8-.2 47.5-24.8 97.7-52.7 134.9ZM515.2 472.8c19.2-1.8 47.5.5 57.7 19.8 4.4 8.4-4.9 13.8-10.2 20.7-3.9 5.1-5.5 11.5-12.4 15.5-5.1 3-33.7 10.3-39.1 9.9-3.9-.3-6-3.2-8.8-3.6-12.9-1.7-27.7-.2-41-2.6-7.9-1.4-29.9-10.2-25.2-20.1 1.7-3.6 17.4-20 21.2-22.4 11.6-7.4 43.9-15.9 57.8-17.2m40.4 18.7-22.7-3.5c4.4 6.3 9.4 12.6 8.7 20.9l13.9-17.4ZM526 507.2c5.1-32.8-52.2-13.8-33.1 8.7-2.3-27.4 19.2-26.6 33.1-8.7m-51.7 4.6c-1.8-3.3-1.4-7-3.3-9.8-1.6 2.2-18.9 13.8-16.6 15.7l26.2 1.7c-.1-3.1-5.6-6.2-6.3-7.6M787.6 481l2.7-10.5c34.9 18.4-8.4 40.6-27.9 47.1-28 9.4-70.5 9.3-86.7-19.8-8.4-15-4.4-18.1 8.8-26.7 29-18.8 52.7-12.3 83.4-.9zm-38.3 21c20.2-21.7-18-36.1-34.9-27 6.9 7.3-3.3 17.6-1.8 27h12.2c-16.4-30.8 24.7-22 24.4 0Zm-52.4-17.5c-14.8 4.6-9.6 18.3 3.5 20.9-2.6-7.2-4.6-12.9-3.5-20.9m82 7c1-1.4-8.8-8.6-10.5-6.9l1.8 12.2zM455.7 798.9c6.5 7.4-2.9 7.5-7.4 11.6-6.1 5.6-6.7 13-9.5 19.9-.5 1.2-3.4.9-3.3 1.9.8 10-.2 11.7-1 21.1-5.2 58.1 16 142.5-27 191.8-7.7 8.9-21.5 6.5-18.4 2.6l6.1-1.8v-3.5l-3.5-.8c34.5-49.1 30.5-108.8 26.3-165.7l3.3-5.2-3.2-1.7c1.8-15.9 1.3-32.4 5.8-48 .4-1.4 5.7-13.6 6.3-14.5 5.8-8.7 15.7-18.9 25.4-7.6ZM621.3 481.7c1.5 1.5 5 7.3 5.5 9.4 3.5 15.9-9.5 54.7-14.5 72-3.3 11.5-16.1 31.6-3.5 40.1 7.9 5.3 24.7 1.4 34.1-.8s21.5-13.3 27.5 2c1 11.2-35.4 18.1-44.1 18.2-14.7.2-42.7-19.1-42.7-34.1s6.9-28.1 9.2-36.1c4.5-15.2 12.3-30.4 14.8-46.3 1.5-9.7-3.5-40.8 13.8-24.2ZM480.1 164.2c1.9 2.4 2.8 8.1 3.5 11.4 14.9 67.7-2.8 106.4-19.9 169.1-1.3 4.9-2.3 17.7-5.2 19.7l-9.4 2.4-3.4-2c2.1-25.4 12.3-49.4 18.1-74.1 7-30.1 9.5-53.1 8.2-84.3-.5-11.8-5.5-30.9-3.5-41.8 1.3-7 8.9-3.9 11.7-.4Z" class="st0"/><path d="M688.8 459c-3.1 2.8-4.4 9.9-10.8 7.9-7.6-11.3-9.5-14.4-1-25.8 23.8-31.7 82.3-28.1 115.9-16.8 6.4 2.2 16.6 14.2 16.8 21.3.4 18.1-12.9 3.6-19.8.9-14.7-5.7-46.9-8.8-62.4-7.3-16.7 1.6-26.7 9-38.7 19.8M567.9 355.4c6.5-34.9 26.4-71.1 26.3-107.1-.2-34.4-13.3-69.7-29.8-99.4-1-5.2 7.5-2.3 9.7-1 14.9 8.7 33.3 64.1 35.5 81.3 5.4 43.4-14.7 83.7-27.8 123.6-4.5 3.5-8.4 4.2-13.9 2.6M924 913.1c.2.4 7.2 2.6 3.1 6.4-16.3 2.9-17.3-9-20.1-21.8-8.7-39.2-1.4-132.8-31.3-160.5-2.5-2.4-5.2-4.6-8.7-5.3l-3.6 5.3c-18.1-8.8-17.4-27.8 6.8-17.2 52.3 22.8 43.5 134.6 52.5 182.1.6 3.4 1.1 10.4 1.3 11M742.2 203.8c-11.4-.4-19.4-12.1-31.4-10.5-2.7 2.7 6.3 66.2 7 75.9 1.6 23.1-.2 46.6 1.8 69.6-.5 3.8-12.9 16.1-15.7 13.2-.4-23-1.4-46.2-2.8-69.2-1.3-21.7-4.8-44.2-5.9-66-.4-8.4-1.9-24.1 4.1-29.9 13.1-12.8 39.3.6 43 16.8ZM482 434.4c11.8-1.6 49.6-1.8 59.8 2.1 6.3 2.5 23.3 18.4 21.8 25.5-2.7 13.1-17.2-3.6-24.9-5-20.5-3.7-54.2-3-73.1 6.3-12.2 5.9-25.8 27.1-32.9 5.7 7.7-17.3 30.7-32.1 49.3-34.6M497.6 641.7c4.6-1.2 11.3 4 11 9.2s-8.1 18.7-9.6 23.7c-5.3 17.5-9.7 36.7-11.3 54.9-.6 6.1 3.5 31.6-6.1 28.7-2.7-.8-7.3-16.7-7.7-20.2-2.9-23.5 5.1-56.5 13.3-78.8 1.8-4.8 5.3-16.3 10.5-17.6ZM768.4 718.2c9.8-37 8-73.1-19.2-102 9.7-7.4 21.4 12.1 25.8 19.5 12.2 20.4 13.6 36.3 10 59-1.9 12.5.2 22.2-16.7 23.5ZM820.9 486.1c-6.2-8.9 24.5-24.2 31.2-14.6.8 3.9-27 20.6-31.2 14.6M415.7 521.4c6.3-1.2 15.3 6 11.9 10.3s-15 6.8-15.9 6.9c-2.4.2-7.5-1.6-8.7-3.5-2.4-3.7 9.1-13.1 12.7-13.7M421.4 512.4c-10.1-1.3-21 2.1-29.6-4.3 4.7-12.7 31.3-9.7 29.6 4.3M850.4 505.4l-18 1.8-2.9-8.7c8.8-4 20.2-5.8 20.9 6.9M413.3 558.8c-.6-.3-2.2-3.1-4.1-3.6 16.5-24.6 26.2 14.6 4.1 3.6M843.4 514.2c1.6 2.4-1.1 9.5-4.7 10.1-4.7 1.4-8.3-.2-10.9-4.1-1.1-4.9 13.8-8.7 15.6-6M628.8 1154.7c12.8 12.9 6.3 25.6-5.7 35.4-4.8 3.9-22.9 12.1-23.7 13.1-2.9 3.7 8 9.9 10.5 11.1 12.2 5.9 23.5 5 36.4 2 .7-.4 7.1-14.7 7.2-15.6.3-2.2-1.7-4.8-1-7.2s3.4-1.9 4.5-3.7c3.3-5.6 3.4-21.9 6-25.6 1.3-1.8 5.5-.2 7.9-1.6 5.9-3.4 5.1-30.7 19.2-7 8 13.4 17.5 34.5 23 49.2 1.9 5.2 10.8 28.7 6.9 32.2-16.6.6-11-22.1-19.4-32.3l-34.1.3-8.7 22.7c-.7.2-5.8-1.2-6.4-1.7-1.8-1.5-.6-5.9-3.4-5.8-9.8 19.5-40.8 7.2-54.5-3.1l-4.5 14c-5.3 4.7-11.8-6.6-12.6-11.4-1.5-8.2 3.7-37.8 8.2-45.1 4.7-7.6 4.7-7.3 8.5-16.2 7.1-16.6 24.6-15.1 36-3.6Zm-5.8 7.3c-20.4-10.2-22.3 10.5-24.4 25.9 8.3.5 29.1-18.6 24.4-25.9m73.9 32-13-27.6c-6.2 6.7-7.4 16.6-11.5 24.5l24.6 3.1ZM896.3 1166.6c1.7 2.8 2.6 8.6-.9 10.5-5 2.8-29.4 6.5-36.7 7.5s-16-3.3-15.9 6.3c1.7 1.5 31.6-8.3 28.5 7.8-1.4 7.4-27.8 6.1-34.6 7.7-1.6 9.1-4.3 15.7 7.2 18 7.5 1.5 28.9 2.6 36.3 1.7s10.5-4 16.3-4.4c6.1 15.5-6.6 18.4-19.4 19.8-21.8 2.3-48.4-.3-53.6-25.8-1.7-8.2 2.2-14.1-2.3-22.3 9-1.7 8.1-13.7 12.7-20.4 20.2-5.4 41.4-6.5 62.3-6.3ZM492 1182.6c9-6.5 32.2-13.8 44.4-13.1 19.9 1.1 38 17.7 32.7 38.8-2.6 10.1-27.4 17.8-36.8 20-13.1 3.1-26.2 5.2-38-2.9-15.2-10.3-17.9-31.7-2.3-42.8m41.8 1.2c-13.1.7-41.8 8.4-39.3 26s3.6 8.2 9.6 8.9c13 1.5 50.2-5.2 52.9-20.8 2.6-14.5-13.2-14.5-23.3-14ZM470.8 1151.4c.9 1.7.2 4 .3 5.8-14.8-.7-26.4 2.9-38.3 11.6-14.4 10.5-27.9 30.1-6.8 41.9 12.9 7.2 31 5.4 45.1 3.3.5 7.1-9.3 9.5-15 10.3-20.5 2.9-52.4-6.9-54.2-31.1s35.5-49.2 57.6-46.8c2.4.2 10.4 3.6 11.2 5ZM740.1 1216.9c4.1 6.7 39.3-4 46.6-4.4 4.1-.2 2.5 5.6 1.5 7.7-2.4 5-19.4 9.4-25 10.3-14.2 2.2-28.1 2.9-34.4-12.3-5.6-13.4 1.5-22 4.5-34.5s.9-15 1.2-15.8c2-4.8 9-2.7 11.5.8 9 12.1-9 34.5-6 48.2ZM810.5 1232.4c-5.3.3-8.4-.4-10.9-5.2-3.1-6.1-11.1-36.7-10.8-43.1s3.4-7.3 7.6-2.9 12.4 37.7 13.6 44.7.5 4.3.4 6.5ZM789 1157.2c5.3-4.6 18.1 6.6 16.9 11.5-7.5 5.6-16.8-3.3-16.9-11.5" class="st0"/></svg>