<svg xmlns="http://www.w3.org/2000/svg" id="Calque_1" viewBox="0 0 1300 1300"><defs><style>.st0{fill:#313a94}</style></defs><path d="M387.7 329.7c-11.3 3.4-20 13-32.1 14 3.8-14.5 20.8-20 32.1-28.1l-11-3.4c-3.3 2.5-35 34.3-37.1 31.5l-2-6c-8.3 39.5-12.2 80-14.1 120.3 26-8.8 53.2-.3 78.9 5.7 5-1.2 13.9-16.7 18.2-21 19.2-19.5 46.6-28.8 73.8-27.6 26.9 1.2 61.2 15.7 80.8 32 2.9 2.4 6.5 2.2 10.4 6.8 8.5 10.1 13.7 29.1 13 42.2 6.3-6.8 15.1-14.2 24.2-16.9 11.7-3.5 55.2-3.1 64.1 4 4.1 3.2 2.7 8.2 8.1 6.9 3.3-59.9 83.6-82.7 133.6-86.4 2.6.2 34.3 14.9 36.5 16.8 3.8 3.4 5.8 12.2 8.6 15.9 8.5 11.5 11.3 11.7 17.9 26.8.8 1.9-1.2 3.5 3.1 2.7l63.2-49-42.1-169.5-2 10-4.1-.9-3.9 4.9-30.1-86.2 6 2c3.8-9-3.7-11.8-4-20.1 4.2 4.6 8.8 3.4 12-2-5.6-2.1-11.4-5.4-16.3-8.8-6.3-4.4-38-25.2-30.9-33.4 10.9-3.8 20.7-.4 30.9 3.3 10 3.6 19.4 9.1 27.6 17.6 3.5 3.6 4.9 9.8 9.7 13.4 5 3.9 10.4 3.1 14.2 5.9 3 2.2 8.1 12 11.6 15.4 10 9.9 23.9 19.5 33.4 29.8 37.1 40.2 60.1 102 83.1 151.6 5.9 12.9 8.6 32.8 11 47.1 9.6 57.1 11.6 114.5 12.2 172.2 0 4.6 3.9 15.4 0 19-4.3 4-3.1-5-6-4 1.5 9.7-2.7 22.1-2.2 31.1.2 3.8 3.9 2.8 4.9 5.4 1.6 4.4-14.9 64.1-17.7 73.7-14.5 49-34.9 102.3-55.2 149.4-16.1 37.3-33.8 74.8-58.2 107.2l-4-1c-1.6-11.7 10.4-21.2 15-31.2.9-1.9 3-6.2-.9-5.9l-41.3 64c-23.9 23.3-.5-14.9 3.6-22.5 19.5-35.6 45.5-69.8 63.5-106.9 5.4-11.1 10.6-22.5 11.2-34.9h9c6.4-19.5 14.3-38.7 21.1-58.1 39.3-111 52.3-218.4 30.6-335.3-2.5-13.5-10-21.3-3.9-36.1l-37.8-97.8c-3.8-.4-1.7 4.1-1 6 7.6 23.3 17.1 42.8 22.5 67.7 5.2 23.9 5.6 61.7 14.6 80 4.6 9.3 4.7 58.3 4.9 71.8.3 24.9-2.1 50.2-.9 75.2h-8l-11.9-131.5 3.8-.9-4-3.3c-2.5-58.9-17.2-116.3-39.7-170.5-6.5-15.7-14.2-34.5-24-48.2-.7-.9-3.2-6.3-4.5-3.5 19.3 65 35.1 131.6 40.1 199.4l-5.5-15.6c-1.9-12.2-2.9-24.9-5.1-37-.2-1-1.3-7.8-3.5-4.5 2.1 14.8 2.1 31.2 4.2 45.9.7 4.7 6 33.1 7.8 34.4 1.5 1.1 4.8-.8 6.1 0 2.5 1.4 5.3 10.9 5.8 14.1 3.7 23.8.5 63.5-1.9 88-5.9 60.2-20 122.5-40.1 179.4l8.1 3.4-1.1 18.7 16-40.1c11.4-42.3 28-86 27.2-130.3 20 0 16 17.8 13.5 32.6-3.3 20.2-10.5 42.5-15.6 62.5 10.5 4.1 5.7 23.9 3.6 33.7-13.8 61.9-56.7 154-91.8 207-6.6 9.9-26.4 39.1-34 45.8-5.8 5.1-9.1-1.1-2.1-5.7l-6-4c13.1-19 28.2-37.2 38.1-58.2l-7.7-.7-8.5 23.6c-3 2.2-12.6-5.1-16 1.1l-48.4 84-7.7 5.3 4-15.1-4-3.9 22-39.2-23.1 32-1.8-16.1c31.8-51 56.5-107.8 80.7-163.7 13.6-31.4 26.1-59.9 33.9-94.4 1.6-7 4-20.5 4.5-27.6s1.5-7.5-2-7c-9.2 37.3-27.2 72-42.2 107.3h6l1.1 5.1-87.5 156.3c-3.6 0-4.3 1.2-3.8-2.8.8-6.5.6-12.7 2.1-18.9l5.5-1.4.2-12.9c-2.6-3.5-23.8 29.8-27.1 32-5-3.4-1.4-3.6-.6-6.6 1.5-6.2 5-11.3 5.6-17.5-5.7 5.8-10 13.7-14.9 20.3s0 5-5.2 3.8c2.2-12.9 10.5-23.3 15.1-35.1.8-2-1.2-5.2 0-8.8 4.6-12.7 15.4-26.7 18.9-40.3-17.6 21.2-32.2 46.5-56.4 60.9-6.3 3.8-21.3 7.1-24.4 13.7-5.1 11 .6 63.7 2.8 78.5 2.3 15.6 2 30.3 17.8 38.4l-3.1 5c-2.4.6-16.8-6.9-18.4-8.5-8.8-8.8-13.3-60.2-14.5-74.7-.7-8.8-4.2-42-1.1-47.1 15.9-9.8 33.3-16.5 47.3-29 2.4-2.1 9.9-9.7 12-12 6.6-7.6 21.4-35 27.4-39 7.8-5.2 14.9 9.3 16.7 7.8l32.7-55.6c3.7-3.1 8.8 0 9.4-.5s1-6 2.3-8.8c14.4-29.3 30.5-57.3 48.3-84.1 2.9-4.4 8.5-7.8 10.5-11.5 4.9-9.2 8.6-29.3 13.2-40 5.4-1.1 2.9 1.3 5 4 2.8-7 8.3-8.1 15.3-4.8 5 6.9-.8 38.6-1.7 48.5-.2 2.2-2.4 6.8 1.4 6.4 11.6-50.2 25.6-99.8 30.1-151.4 2.2-25 2.2-50.1 2-75.2l-10.3 105c-3.8 20.5-5.4 41.6-10.3 61.9s-2.4 11.8-5.5 13.6c-4.9-21.2 1.9-40.5 4-61.2 4.7-46.7 9.4-93.1 7.8-140.1-.3-9.6-4.2-23.9-2.6-33.6 1.3-7.5 7.8 1.4 6.9-10.7-3.9-52.8-26.7-144.6-46.6-194-12.4-30.8-17.5-36.6-43.7-56.6s-3.8-5.4-6-2c12.9 12 18.9 31.2 24.6 47.6 17.6 51 28.9 106.8 39.9 159.7l9.7.3c.2 3.8 1.7 7.3 2.1 11.1 5 52-2.3 106.3-10.6 157.8s-18.2 98.1-31.6 145.9c-3.6.2-4.3 1-4-3 2.9-45.7 18.2-95 25.5-140.9 5.1-32.4 7.9-64.1 10.6-96.6-3.2-1.9-51.3 31.8-62 30.2 2.5 19.2 1.9 38.4-7.2 56-2.9 5.7-27.7 36-32.4 39.8-21.4 17.5-68.5 21-94.1 12.4-34-11.5-66.4-37.8-69.6-75.9-7.6.9-9.4-4.8-13.8-7.3-9.2-5.1-53.2-5.8-64.2-2.3-10.2 3.3-4.3 14-16 11.1-2.5 30-25.6 69.3-55.7 79.6-10.1 3.5-34.8 8.1-45.1 6.2-5.8-1.1-49.8-18.4-54.3-21.6-2.2-1.6-2.7-5-5.5-7-21.3-14.9-39-23.9-43.6-52.8-1.3-8.5 3.8-32-1-36.1-1.6-1.3-36.6-8.6-40.7-8.6-10.9-.2-20.3 5.8-31 6.3l-1.2 63.1 13.2 101.2 5-4c12.9 17.6 14.1 40.2 19.7 60.5 1.5 5.6 7.9 30.5 12.4 30.9 2.1.2 5.3-1.9 7.7-1.4s1.9 3.9 3.4 4.9c1.3.8 3.7-.2 5 1.2 2.7 3 3.5 10.1 6 14.2 8.8 15 21.3 30.4 34.1 42.1 28.5 26.1 57.2 52.7 86.3 78.1 17 14.9 35.3 36.1 52 49.3 2.8 2.2 12.1 4 13 8-1 12.1-.1 23.2-2.2 35.4-2.3 13.7-7.7 30.7-12.1 44.1-3.7 11.2-34.2 86.4-40.7 87.7-3.5.7-9.4-4.8-8.9-8.7 1.2-8.5 18.3-38.1 23-49.4 9.5-23.2 23-60.8 24.9-85.4.8-10.5-2.9-18.7.2-28.8l-10 3.1c-8.9-7.7-18.2-17.9-27.1-25.2-12.8-10.4-28.2-20.5-41.1-29-2.3-1.5-2.9-8.5-6-12.1-4.1-4.9-20.8-13.8-27.9-20.2-14.6-13.1-28.6-31.7-42.3-46-7.2-7.4-27.8-29.4-19.7-4.4 14.8 45.1 46.5 92.9 61.3 139.3 3 7.5-3 8-9.6 7.7-4.3-2.6-8.1-19.9-10.5-22.7-1.3-1.6-5.1-1.3-7-3-2.7-2.5-10.2-17.4-13-22.2-9.8-17.3-20.9-37.3-27.8-55.5-7.3 2.2-9.3 3.5-13.9-3.4l-41.3-110.9-15-56.1c2.3 16.8 5.2 35.4 9.3 51.8 12.6 50.2 35.6 98.5 56.5 146 10.4 23.5 22.7 46.2 32.5 70l-.9 4.9c-17.5 15.2-23.3-30.1-29.5-33.8-2.4-1.4-7.9.9-11.7-1.3-9-5.2-20.3-51.5-24.1-63.2l-8 2.1c7.5 26.7 12.4 54.4 20.2 81 2 6.8 15.1 35 11.9 39.2-3.2-4.5-8.4-2.1-9.6-2.7-3.3-1.5-15.2-31.6-17.4-37.5-30.7-84-51.7-161.7-72.2-248.6-5.4-22.9-15.5-44.7-19.2-68-3.7-.4-1.7 4.2-1.4 6.4 2.9 26.7 12.3 55.6 15.5 82.7l5.7 2.4c1.1 19 7.3 36.6 11.4 54.8 3 13 19.4 100.5 23.6 103.8 1.7 1.3 6 .1 7.3 3.7s-.2 7.9.5 11.6c3.5 18.4 6.5 37.2 10.8 55.4 2.3 9.9 6.3 18.1 9 27.1 2 6.4-12.4-2.7-13.5-3.7-11.8-10.6-45-157.4-51.7-183.9-23.2-91.8-41.2-167.8-43.3-263.5-2.1-95.2-5-163.5 41.9-249.1 6.9-12.5 16.5-21.7 24.8-33.4C329.5 151 384.2 90.7 459.1 81c6.5-.8 11.2 2.5 17 1.3 10.4-2.1 39.3-20.7 53.3-25.1 12.2-3.8 37-6.7 49.4-4.5 5.9 1 12 8 18.2 8.1s13.5-5.1 20.3-6c19.9-2.5 38.4 6 58 7.8 2.3-3.1-12-6.3-2-8 21.6 6.3 43.6 11.1 65.3 17 12.7 3.5 32.1 13 43.6 14.7 4.9.7 8.6-2.3 13-1.3s22.5 13.3 23.7 14.6c.9 1.1 8.1 12.7 3 13l-30.1-10-1 4c3.1.3 5 1.7 6.9 4.1 7.1 9.1 18.8 31.1 24.2 42 10.1 20.1 18.6 43.2 27.1 64.2 5.4-1-1.7-12.3 0-14l5.1 1.8 1.2-3.5c1.7-1.1 7.7 4.5 5.6-1.3-2.5-7.1-12-22.7-16.4-29.8-2.6-4.2-20.5-24.7-17.7-27.4 21.9-1.6 32.1 23.6 40.9 40.3 14.9 28.3 29.4 64.5 39.4 94.9 4.8 14.6 33.2 115.4 28.1 121.3-7.2 1.2-2.9-6.6-8-8l-1 8-11.1-44.1c-3.9-.7-.8 4.3-2.2 5.7-.4.4-9.7 2.5-10.9.4-4.7-43.1-24.3-82.3-39.1-122.4-3.7-.5-1.7 4.2-1.1 6.1 7.3 25.6 26.2 53.1 19.3 81.2l-12.1.8c.7-27.5-10.5-55.4-20.6-80.7-15.1-38-38.4-90-60.9-123.6-4.2-6.3-9.4-12-14.9-17.2l8-3.1c.3-.4-1.7-8.6-2.5-9.5-2.1-2.3-30.5-7.9-35.1-8.1s-2.7-.1-3.5 1.5c-2.5 6.4-4 13.1-6.7 19.5-1.9 4.5-7.7 9.4-5.4 12.6 21-12.9 4.8 15.6-.2 23.9-25.5 43.1-78.3 109.2-114.5 144.3-4.9 4.7-11.5 8.5-15.9 14.2-2.5.6-5.5-2.5-5-5 1-4.2 25.5-26.3 30.1-32.1 27.9-35.4 55.5-72.2 80.6-109.9 3.6-5.4 10.7-8.2 9.7-15.4l-6.8 1.9c-9.9-7.7 4.5-16.9 1.8-26-1.7 3.5-7.5 11.1-8.2 14-1 4 1.8 9.4 1.1 14.9-1.1 8.2-17 28.3-23 35.3-22.9 26.5-51.8 49.1-75.3 75.2 2.2 1.6 10.9 2.7 9.1 7-1.2 2.9-44.3 33.6-50.6 37.7-7.2 4.7-54.1 34.7-58.9 30.4 2.3-9.2 15.3-13.2 22.8-18.4 4.2-2.9 7.1-10 15.3-9.7l-3.5-5c5.1-3.5 4.2-11.5 6-14.5.9-1.4 22.1-15.2 26-18.6 14.4-12.6 32.1-29.7 45.8-43.1 39.7-39 68.5-79.3 93.4-129.2l9.9-4.1 3 10 3.2-16.1c-17.5-8.3-37.2-6.3-55.3-9.9-16 41.6-53.4 74.2-86.3 103.3 5.6 4.5 14.5 3.7 14.1 13 28.4-33.3 60.9-66.3 80.4-106.1 9.3-.3 15 5.6 19.2 12.9l-1.2 4c-50.7 70.4-104.4 141-176.8 190.5l14.1 3c0 2.2.3 4.5-.4 6.6-3.4 10.3-38.7 25.6-48.8 31.4-6.8-2.2 2-14-4-12s-11.3 7.3-16.4 9.7c-9 4.3-33.4 16.4-41.8 16.4-2.5 0-4.2.1-3-3 3.1-8.4 9.9-6.9 15.5-10.5 27.9-17.9 59.1-32 85.7-52.8 7.2-5.6 12.9-13.7 21.9-18 2-7.8-3.5-13.9 5.2-19.1.3-1.5-2.1-1.4-3-1-2.9 1.3-20.9 19.9-26.1 24.1-18.1 14.6-52.1 40-73.4 47.1-3.3 1.1-4.8-.9-7.9-1 7-11.1 21.3-12 26.1-25 .3-1.5-2.1-1.3-3-1-15.8 6.5-38.3 27.6-55.9 34.4-5.3 3.5-10.3 8-15.4 11.7 8.8-2.6 18.5-5 14.3 7.1l-43.4 24.9c-4.7-3.1-2.9-7.6-.5-11.5 10.8-5.4 19.9-13.6 29.6-20.6Zm120.5-220.5c-11.7 13.6-24.7 21-28.5 40.7l-46.8 59.5c3.5-.1 6.5-2.9 9-5 40.4-33.2 72.9-78.8 109.5-115.3s2.3-3.7 3.1-5.8l4.8-.3 2.8 4.7c-4.6 6.3-7.3 14.1-11.8 20.3-27 37.5-86.7 92.9-124.6 120.2-30.7 22.1-59.1 31.1-75.6 68.9-2.5 5.8-5.6 12.2-6.6 18.5 10.8-5 16.8-29.5 22.9-34.3 7.7-6.1 22.2 2.8 30.2 2.1 7.2-.6 11.9-10.5 17.1-15 30.2-25.8 73-57.5 99.5-85.1.9-1 10.8-12.3 3.9-12.1-39.6 36.4-81.4 71.6-128.5 98.2-8.7-5.8 7.4-10.6 13-15.1 37.1-29.6 83.4-64.8 115.8-99.8 13.6-14.7 26-33.7 39.8-49.5 1.9-2.2 2.1-6.6 4.4-8.1 3.9-2.5 24.8-4.5 24.5 2.8-.6 11.4-31.6 34-37.8 45.5l23.4-16.7c17.4-17.1 30.2-36.5 40.8-58.5.7-6.8-8.6 1.7-13.5 2.6-16.4 3-35.1-1.3-51.7 8.5-4.7-6.6 10.6-5 11-10-10.5.4-21.2 4.3-31.1 6s2.3-5.7-3.9-3.9c-24.4 7.1-42.5 21.7-63.4 32.9-2.1 1.1-5.3-.4-7.3.7-7.2 4-53.8 31.5-54.8 35.5-1.3 4.9 10.8 6.5 13.7 6.8 4.3-5.4 21.8-29 26.5-30.9 4.2-1.7 11.1 2.8 15.1 2.2 3.5-.5 6.2-8.3 11.9-9.3 9.5-1.6-2.5 12.7-2.7 13.5-.6 2.5 1.5 5.3 1.1 7.4-.6 3.2-5.3 6.6-2.5 9.2l25.7-29.4 16.5-12.6c4.9-1.1 5.4 6.5 5 10 3.3-3.9 5.6-5.7 8.4-10.7 5.7-10.5 4.7-25.5 19.2-16.9 1.2 1.2 2.5 5 2.5 6.7-.2 10.7-39.8 58.8-52.1 65-2.5-2.9 16.4-26.2 18.5-30.7.3-.6 3.5-12.7 3.6-13.4m142.5-38.1-11.9-2c-6.2 16.7-14.8 33.5-27.1 46.2-7.2 10.3-21.7 34.9-31.3 41-1.4.9-3.4 2.3-4.1 0l2.1-7c-3-.2-4.7-2.3-7.9-1.1-7.6 3-38.5 35.8-48.3 44.2-25.7 22.1-53.4 42-78.3 65.1 8.9-1.4 15.3-11.3 21.6-16 12.3-9 25.4-16.8 37.6-26.2 5.5-4.2 21.2-20.9 26.4-21.4 3.7-.4 8.5 2.3 13.7 1.5 4.1-.7 15.6-15.3 19.8-19.4 13.8-13 23.1-22 35.4-35.8 19.3-21.6 39.4-42.9 52.2-69.1Zm-236.9 48.1c-1.3-1.1-16.7 9.7-19.5 11.5s-4.3 4.5-2.5 6.5 23.1-17.1 22.1-18Zm-30.1 36.1c-19.7 8.3-38.1 27-52.1 43.1-14.7 17-45 59.1-50.8 79.8-1.4 5.1 1 8.1.2 11.8-2.9 12.9-10.4 25.3-14.2 38.1-11 36.7-10.3 71.8-9.5 109.8 3.5.5 1.9-4.6 2-7 1.2-28 .8-58.1 9-85.3 4.1-13.5 11.6-11.9 12.8-15.3 1.2-3.3 2-20.2 3.6-26.2 16.6-60 58.9-103.9 99-148.9ZM325 180.9l-9.1 8.9 2 2.1 9.1-8.9zm253.4.5L524 224.3l-27.9 17.2c6.6-.8 7.7 3.7 11 8 25.3-21.1 50.7-42.2 71.3-68.1m-148.5 4-19.2 13.9c-8.8 9.5-16.9 20-25.7 29.5-2.9 3.1-10 4.6-9.3 10.7 3.8.9 4.8-2.1 7-4 17-14.1 32.1-33.9 47.2-50.1m164.1 3.5-9.1 8.9 2 2.1 9.1-8.9zm317.6 52.6-5.1-22-12.9-30.1zm-603.9 120c4.1-23.7 7.5-44 16.2-66.4 13.3-34 36-64.1 45.7-99.7-2.6 1.7-13.5 14-13.8 15.3-.6 3 3.4 5.9 3.3 7.8s-10 12.8-12.3 17.3c-20.1 38.6-53 119.1-55.5 161-2.3 37.9-.6 93 6.1 130.3.6 3.3-1.2 3.5 3.9 3.1 5.2-5-7.3-56.7-8.2-66.9l15.3-8.3 7.1-76.3-4.3-4 2-9.7-5.7-3.6Zm547-140.6-2.7 1.2 6.2 13.9 2.7-1.2zM879 237l-2.6.9 5.7 16.1 2.6-.9zm-390.9 10.5c-3.6-.7-6.6 2.7-8 6 3.6.7 6.6-2.7 8-6m-210.5 1.7-5.4 13.9 3.1 1.2 5.4-13.9zm199.4 4.9-11.6 8.5 1.9 2.6 11.6-8.5zm-205.7 21.5h-4l-2 8c5.1.5 6.8-3.2 6-8m164.6 8-22.1 13 6.8 4.9zm78.3 8.1-16 7 7.7 2.6 8.4-9.6Zm-222.8 40 6-26.1-9.6 19.5c-.8 4.2-2.1 7.7 3.5 6.6Zm664.4 54.2c-3.4 0-4.3-1.4-3.6 2.5 1.1 6 2.5 11.3 1.6 17.5zm-716.6 28v88.2c0 .6 6.5.8 8 7-13.4 1.8-7.8 19.6-6 29 3.8-.2 1.3-7.2 2.4-10.6 1.3-4.4 8.9-6.4 7.7-12.3zm623.6 119.7c12.1-15.1 19.6-33.7 17.9-53.5-1.6-18.7-22.6-46.9-40.8-51.6-8.3-2.2-13.6 1.9-19.5 1.5-4.5-.3-7-4.2-13.8-3.9-24.6 1.2-83.6 27.4-92.6 52-6.2 16.8-6 40.8 4.1 56.1 6.8 10.3 43.1 29.4 55.5 32.8s57.2-2.6 69.7-11.8c1.2-.9 18-19.5 19.6-21.5Zm-287-69c-5.6-6.1-37.1-22.8-45.9-25.4-21.4-6.3-48.3-7-69.5.1-33.5 11.2-69.6 62-40.7 93.9 3.7 4.1 24.7 19.3 30 22.1 6.6 3.5 39.6 17.4 45.9 18.4 33.5 4.9 63.2-11.7 77.5-41.8 1.5-3.2 8.9-20.1 9.2-21.2 2.2-9.4.3-38.5-6.6-46.1ZM296.1 617.9c-3.1-8.8-1.6-19.9-6.6-28.6l-13.2-119.1-1.1 51.2c3.9 27 1.2 53.4 11.9 78.4l2.3 38.8c4.8-1 .3-11.8 2.3-13.9s7.4.6 7.8-5.2c0-.7-3.1-.9-3.3-1.5Zm-24.8-1.5-8.2-58.9-5.8-11.2c-.3 21.2 5.8 43.5 11.1 64.1.6 2.3-.1 6.5 3 6Zm612.2 186.4c4.4 4.4 12.4-19.5 13.3-21.8 1.1-2.9 4.8-2.5-.3-6.2z" class="st0"/><path d="M700.5 723.1c1.3.7 5.3 11.4 9.3 13.8 6.3 3.8 16.5.4 21.4 8.7 9.4 16.1-5.8 13.5-14 18.3-5.1 3-10.1 10.9-15.3 14.8-36.3 27.8-72 31.7-115.3 17.1-16.6-5.6-49.8-19.3-51.4-38.9l.9-3.2c17.2-12.4 28-29.2 49.9-34.5 17.5-4.2 31 3.7 47.6 3.6 8.6 0 21.2-3.7 30.1-3.8 4 0 35.1 3.1 36.7 4Zm-8.2 12.2c-2.7-2.1-21.8-4.5-26.3-4.4-11.1.2-23.3 8.4-32.3 7.9-9.5-.4-19.6-11.3-32-10.1s-35.9 20-31.3 24c12.2-1.8 24.8-2.9 37.2-2.1 7.8.5 19.1 4.7 25.8 4.1 7.1-.7 20.7-11.7 28.3-11.8s8 3.3 12.2 3.7c8.3.7 16.7-.1 24.9.1 1.2-1-5.6-10.6-6.6-11.4Zm-1.5 29.5c-8.5 2.7-17.9-4.2-24.9-3.9-6.4.3-11 5.5-16.8 7.4-15.8 5.4-26.5-.7-41.6-1.5-10.5-.5-19.3 2.2-28.1 2.1s-13.8-4.8-21.1-3.2c18.9 9.8 47.9 21.3 69.3 21.2 12.3 0 29-6.7 41.5-8.8l21.7-13.4ZM698 216.6c-7.1 7.9-20.2 22.9-31.3 21.9 4-9.5 15.4-15.1 21.4-21.8 18.2-20.4 36.7-50.5 48.3-75 3.9-8.3 11.1-33.3 14.5-37.7 2.4-3.1 17.8-5.5 15.8 5.7-4.5 25.1-50.4 86.6-68.7 106.9M654.7 578.3c2.1 11.8-21.7 75-16 80.2 8.9 0 17-7.8 24 1-16.9 15.5-41.7 22.2-35.6-11.6 7.2-10.9 14.2-62.4 21-67.7s4.4-2.2 6.6-1.9M991.9 339.8c7.4-2.3 4.6 12 7 12l1-14.1c2.9-3.9 7.3 21.3 7.7 23.4 4.2 24.7 7.5 52.4 7.4 77.1l-8.1 3.8zM522.2 476.1c4.6 3.6 15.4-21.6 24.1-18 1.4 8.2-5 13.4-8 20 13-1.4 12.2 7.2 16.6 11.6 4.9 4.9 18.4 3.9 2.5 16.5-13.9 11.1-40.6 19.1-58.3 18.1-10.9-.6-30.8-11-35.7-10.2-1.4.3-1.7 5.4-6.6 5.6-13.9.5-5.2-9.4-5.1-12.2.2-5.8-15.3-7.8.4-20.4-4.9-1.4-8.7-8.8-2.8-10.8 6.8-2.3 10.9 9.5 20.9 5.8l-6.8-3.8-1.2-6.2 18.1 4-1.7-4.8 4.7-3.3 17.1 8c-5.2-23.8 9.2-18.9 8.1 0h5.9c0-.1 5.1-20 5.1-20 6.9 4.8 6.3 13 3 20Zm-24.1 10c-11.6-.6-24.3 4-35.4 7.8-3.1 1-5.8-1.8-4.7 4.2 11.5-5.3 5.9.6 9.3 4.1 1.5 1.5 19.9 8.9 20.8 7.9 0-4.7-.5-9.5.9-14.1 1.9-6.3 6.7-5.7 9.1-9.9m48.2 12c-14.2-2.3-23.7-12.6-40.2-12 5.8 9.3 13.9 14.1 6 26 11.2 1 22.4-3.6 31.5-9.5s3.6.2 2.6-4.5ZM516.2 448c-8.5.9-22.5.5-30.2 2.9s-18.9 9.5-22.7 11.4c-5.3 2.6-20 12.7-22.8 13.4-3.6.9-4.4 0-6.6-2.6.2-6.1 49.3-33.1 57.6-34.6 5.1-.9 22.7-2.3 24.4 2.8l.2 6.8ZM826.8 438.5c2.5 2.7 2.6 8 2.5 11.5-28.3-4.1-55.9-9-74.3 18 6.3.3 11.5 4.8 16.6 8.1 2.6 1.7 1.5 7.8 9.6.6l-2.1-18.7c11.5-4.1 9.3 20.2 11.1 20.1l9.1-3.3-2.1-16.8c7.5.8 19.2 0 18.1 10 4.9-2.4 4.8-10.1 12-8v14c8.5-3.4 4.8-15.4 15.9-11.9l1.1 5.8c4.4-4.7 7.7-9.4 15.1-8 1.9 11.2-9.9 14.4-16 21.1l13.6 18.3c-2.6 12-13.5 11.2-7.6 24.7l-12.2-3.1c-14.7 9.7-36 15.6-54.6 12.7s-21.8-7.1-24.6-9.5c-5.4-4.4-15.1-27.7-7.8-34.2l-13.3-7.1v-6.9c11.5-1.9 16.3 1.7 23.2 10l5-5-13.2-7.1-2.5-14.6c7.2-19.4 65.2-33.8 77.3-20.9Zm-37.6 55.6c-35.4 2.1-37.3 20.1-2 24-.5-5.4-4.7-6.2-4-12.8.5-4.8 4-7.3 6-11.2m52.2 4.1-26.1-4c3 9.8 3.9 16.5-4 24 3.1 2.5 28.8-13.8 30.1-20M810.9 1219.2c5.7 3.3 12.8 5.7 12 13.7-5.9 5.9-12.2-7-17.4-6.5-9.4 10.7-25.5 13.9-39.5 11.9-11.8-1.6-24.5-13.3-28.3-24.4-7-20.2-4.6-41.9 10.3-58.1 13.9-15 30.3-13.8 47.2-4.2 25.7 14.7 25.2 42.5 15.8 67.4Zm-12.5-55.8c-4.7-4.2-15.2-8.6-21.5-7.3-4.6 1-11.7 9.6-14.1 1h-1.7c-4 3.8-7.7 7.3-10.7 12-8.2 12.9-9.5 32-2.9 45.8s28 18.3 40.9 11.6c.8-.4.9-1.8 1.7-2.4 2.3-1.5 9.7-3.5 8.6-7.7-.2-.7-8.5-8.3-10-10.3s-10.3-16.7-10.3-18.5c11.4-7 15.9 14.9 22 20.6.9.8 3 2.1 3.9.4 3.2-12.7 5-35.6-5.8-45.2ZM985.8 1190.5c-13.7 3.7-27.9 3.5-41.9 4.9 2.6 9.8 1.2 21.3-1.2 31.1l55.6-9.2c3.9 0 6.8 7.5 4 10.1l-55.5 8.7c-21.9 1.7-12.6-8.6-11.4-22.2 1.1-12.8-1-35.8-2.5-49-.4-3.3-3.5-9.1-3-12.1 1.5-9.4 47.1-10.4 55.2-11.3 6.3 1.5 10.5 6.5 4.7 11.8-2.8-.3-5.3-1.2-8.2-1.2-8.5 0-30.5.9-37.3 3.6-6.9 2.8-2.2 7.3-1.9 12.8.4 5.5-.9 11.8 1.3 16.7 5.8 4 30.8-4.3 37.8-3.1 3.6.6 4.6 5.2 4.1 8.3ZM471.5 1193c-.5 1.8.5 2 1.2 3 4.6 6.6 12.5 10.9 17.4 16.1 3.6 3.8 6.8 10.5 10.2 15 3.1 4.1 10.1 5.9 6 13.3-1.2.8-2.7.8-4 .4-3.8-1.1-14.1-20.4-18-24.6-3.3-3.5-9.1-6.5-12.7-9.5-1.5-1.2-8.9-11.4-9.6-5.9l-1.4 40.5c-.7 2.5-3.8 2.7-5.8 1.5-5.8-3.6-1.3-18-1.1-23.9.7-20.3-3.7-40.3-1.8-60.5 6.2-3.7 7.1-8.4 14.2-11 14.4-5.2 30.1-2.4 38.5 11 10.9 17.4-18.9 33.3-32.9 34.7Zm-10.8-27c-1.3 4.9.9 14.3 0 19.8 9.5 1.3 37.1-12.9 36-23.3-1-9.4-21-8.3-27.3-5.7-1.8.7-8.3 7.8-8.7 9.3ZM659.4 1146.5l7.5 88.7c-.4 1.1-2 1.7-3 1.6-4.8-.4-17.1-21.6-21-26.5-1.4-1.7-3.6-2.4-4.4-3.4-7.2-9.1-13.9-18.8-22-27.1l5.5 55.1c-.2 2.7-1.7 5.4-4.9 4.9l-4.9-7.8c-2.2-18.5-1.1-40.1-6.3-57.9-1.6-5.6-11.8-23.9-1.9-25.1 5.2-.7 7.3 8.5 9.5 11.6 11.5 16.3 23.9 33.2 37.1 48 1.5 1.7 3.4 3.7 5.4 4.8-1.2-13.3-1.1-26.8-2.4-40.1-.4-4.3-5-26.3-4.4-27.6 1.7-4 7.8-.9 10.2.9ZM541.4 1151.4c11.8-10 29.9 3 37.4 12.8 5.6 7.3 13.9 39.5 12.3 48.3-2.4 12.6-17.3 24.4-29.4 26.9-11.8 2.5-24.7-7-30.8-16.6-7.7-12-12.2-35.6-7.2-49 1.8-4.9 13.6-19 17.7-22.4m34 68.7c3.5-3.5 6.6-10.8 6.5-15.8-.1-5.2-5.7-26.8-7.9-31.7s-7.2-9.3-12.6-12.7c-10.6 2.2-16.3 2.8-23.4 11.5-11.7 14.3-7.7 46.6 8.6 56.1 9.3 5.5 21.8-.5 28.8-7.4M417.2 1153.7c.9 1.7 0 4.9.3 6.9-11.1-.6-21.8 2.8-32.3 6.1 1.4 9.2.3 18.5-2.5 27.4.7.5 14.9-1 17.2-1.3 7.2-.9 28.1-8 17.9 7.1l-38.7 5.1c-1.6 10.9-3.5 21.3-2.5 32.3 7.3.2 14.7-.2 21.9-1.5 8.3-1.5 27-12.6 25.5 2.7l-2.7 2.1c-16.8 3.7-33.4 7.3-50.7 8.1-6.9-5.7-2.8-11.4-2.4-18 1-16.7 2.2-25.2 6.1-40.6 2.7-10.7 2.3-19 2.2-29.8 6.5-3.6 36.4-14 40.6-6.5ZM881.1 1226.1c10.6-6.6 21.3-24.4 18.4-37.3l-3.4-39.3c3.5-6.3 7.3-2 11.6.6-2.8 16.2 2.9 34.4 1.4 50.7-1.8 20.7-26.2 46.4-47.6 33.1-9.7-6-15.2-24.7-16-35.5-.5-6.1-.6-50.3 2-52.3 4.2-1.3 8 .3 8.1 5.1 0 14.9-4.7 69 11.6 75.8 3.6 1.5 10.6 1.1 13.9-1ZM297.7 1153.6c.7-.4 3-.3 3.9 0 4.8 1.8 21.2 58.8 25.3 66.9 2.9-11 3.2-22.7 5.7-33.8s10.3-33.8 14.6-34.1 3.6 1.6 4 2.9c2 5.7-2.1 6.9-3.7 10.3-11.6 24.9-12.2 54.9-15.3 81.8-.9 7.7-6.5 3.7-7.9-1.8-7.5-28.6-12.4-52.3-24-80.3-1.8-4.3-6.1-6.4-2.9-11.9ZM712.2 1246.6c-.5.6-2.5 1.4-3.4 1-7.6-6.1-4.1-14.8-4.9-23.9-1.1-12.2-5.6-25.6-7-38.5-.6-5.4 1.4-10.9-2.2-15.8.6-3.8 4.5-5.2 7.7-2.9 4 3 3.4 20.8 4.3 26.9 1.4 9.1 10.8 47.4 5.6 53.2ZM698.3 1161.6c-4.4-4.8-5.8-14 1.8-16.3 16-4.8 15.8 21.1-1.8 16.3" class="st0"/></svg>